<svg xmlns="http://www.w3.org/2000/svg">
<symbol id="icon-address-book" viewBox="0 0 21 21">    <g stroke="none" stroke-width="1" fill="none" fill-rule="evenodd">        <path d="M1.5,18 L1,18 C0.723857625,18 0.5,17.7761424 0.5,17.5 C0.5,17.2238576 0.723857625,17 1,17 L1.5,17 L1.5,16 L1,16 C0.723857625,16 0.5,15.7761424 0.5,15.5 C0.5,15.2238576 0.723857625,15 1,15 L1.5,15 L1.5,13 L1,13 C0.723857625,13 0.5,12.7761424 0.5,12.5 C0.5,12.2238576 0.723857625,12 1,12 L1.5,12 L1.5,10 L1,10 C0.723857625,10 0.5,9.77614237 0.5,9.5 C0.5,9.22385763 0.723857625,9 1,9 L1.5,9 L1.5,7 L1,7 C0.723857625,7 0.5,6.77614237 0.5,6.5 C0.5,6.22385763 0.723857625,6 1,6 L1.5,6 L1.5,2.23913083 C1.5,0.993342853 2.57888071,0 3.88888889,0 L19,0 C19.2761424,0 19.5,0.223857625 19.5,0.5 C19.5,0.776142375 19.2761424,1 19,1 L3.88888889,1 C3.11356373,1 2.5,1.56491802 2.5,2.23913043 C2.5,2.91334285 3.11356373,3.47826087 3.88888889,3.47826087 L19,3.47826087 C19.2761424,3.47826087 19.5,3.70211849 19.5,3.97826087 L19.5,20.5 C19.5,20.7761424 19.2761424,21 19,21 L3.88888889,21 C2.57888071,21 1.5,20.0066571 1.5,18.7608696 L1.5,18 Z M2.5,18 L2.5,18.7608696 C2.5,19.435082 3.11356373,20 3.88888889,20 L18.5,20 L18.5,4.47826087 L3.88888889,4.47826087 C3.37276835,4.47826087 2.89252396,4.32407185 2.5,4.06100338 L2.5,6 L3,6 C3.27614237,6 3.5,6.22385763 3.5,6.5 C3.5,6.77614237 3.27614237,7 3,7 L2.5,7 L2.5,9 L3,9 C3.27614237,9 3.5,9.22385763 3.5,9.5 C3.5,9.77614237 3.27614237,10 3,10 L2.5,10 L2.5,12 L3,12 C3.27614237,12 3.5,12.2238576 3.5,12.5 C3.5,12.7761424 3.27614237,13 3,13 L2.5,13 L2.5,15 L3,15 C3.27614237,15 3.5,15.2238576 3.5,15.5 C3.5,15.7761424 3.27614237,16 3,16 L2.5,16 L2.5,17 L3,17 C3.27614237,17 3.5,17.2238576 3.5,17.5 C3.5,17.7761424 3.27614237,18 3,18 L2.5,18 Z M4,2.5 C3.72385763,2.5 3.5,2.27614237 3.5,2 C3.5,1.72385763 3.72385763,1.5 4,1.5 L18,1.5 C18.2761424,1.5 18.5,1.72385763 18.5,2 C18.5,2.27614237 18.2761424,2.5 18,2.5 L4,2.5 Z M13,15.5 L14,15.5 L14,11.5 L8,11.5 L8,15.5 L9,15.5 L9,14.125 C9,13.1915 9.922,12.5 11,12.5 C12.078,12.5 13,13.1915 13,14.125 L13,15.5 Z M14.5,10.5 C14.7761424,10.5 15,10.7238576 15,11 L15,16 C15,16.2761424 14.7761424,16.5 14.5,16.5 L7.5,16.5 C7.22385763,16.5 7,16.2761424 7,16 L7,11 C7,10.7238576 7.22385763,10.5 7.5,10.5 L14.5,10.5 Z M12,15.5 L12,14.125 C12,13.8165 11.578,13.5 11,13.5 C10.422,13.5 10,13.8165 10,14.125 L10,15.5 L12,15.5 Z M10.6876525,6.6095656 C10.8702618,6.46347813 11.1297382,6.46347813 11.3123475,6.6095656 L16.3123475,10.6095656 C16.6814164,10.9048207 16.4726388,11.5 16,11.5 L6,11.5 C5.52736118,11.5 5.31858357,10.9048207 5.68765248,10.6095656 L10.6876525,6.6095656 Z M7.42539053,10.5 L14.5746095,10.5 L11,7.64031242 L7.42539053,10.5 Z" id="Mask"></path>    </g></symbol>
<symbol id="icon-alert" viewBox="0 0 21 21">    <g stroke="none" stroke-width="1" fill="none" fill-rule="evenodd">        <path d="M18.7,15.2084392 C17.8,15.2084392 17.1,14.5084392 17.1,13.6084392 L17.1,9.80843918 C17.1,7.20843918 15.5,4.90843918 13.1,3.90843918 C12.8,2.80843918 11.8,2.00843918 10.6,2.00843918 C9.4,1.90843918 8.4,2.70843918 8.1,3.80843918 C5.7,4.80843918 4.1,7.10843918 4.1,9.70843918 L4.1,13.5084392 C4.1,14.4084392 3.4,15.1084392 2.5,15.1084392 C2.2,15.1084392 2,15.3084392 2,15.6084392 C2,15.9084392 2.2,16.1084392 2.5,16.1084392 L8.1,16.1084392 C8.3,17.3084392 9.4,18.2084392 10.7,18.2084392 C12,18.2084392 13,17.3084392 13.3,16.1084392 L18.9,16.1084392 C19.2,16.1084392 19.4,15.9084392 19.4,15.6084392 C19.4,15.3084392 19,15.2084392 18.7,15.2084392 Z M10.6,17.3084392 C9.9,17.3084392 9.3,16.8084392 9.1,16.2084392 L12.1,16.2084392 C11.9,16.8084392 11.3,17.3084392 10.6,17.3084392 Z M4.5,15.2084392 C4.8,14.8084392 5.1,14.2084392 5.1,13.6084392 L5.1,9.80843918 C5.1,7.60843918 6.5,5.50843918 8.7,4.70843918 C8.9,4.60843918 9,4.50843918 9,4.30843918 C9.1,3.50843918 9.8,2.90843918 10.6,2.90843918 C11.4,2.90843918 12.1,3.50843918 12.2,4.20843918 C12.2,4.40843918 12.4,4.50843918 12.5,4.60843918 C14.7,5.50843918 16.1,7.50843918 16.1,9.80843918 L16.1,13.6084392 C16.1,14.2084392 16.3,14.7084392 16.7,15.2084392 L4.5,15.2084392 Z" id="Shape"></path>    </g></symbol>
<symbol id="icon-app-list" viewBox="0 0 24 24">    <g stroke="none" stroke-width="1" fill-rule="evenodd">        <path d="M21,18 C22.7,18 24,19.3 24,21 C24,22.7 22.7,24 21,24 C19.3,24 18,22.7 18,21 C18,19.3 19.3,18 21,18 Z M3,0 C4.7,0 6,1.3 6,3 C6,4.7 4.7,6 3,6 C1.3,6 0,4.7 0,3 C0,1.3 1.3,0 3,0 Z M12,0 C13.7,0 15,1.3 15,3 C15,4.7 13.7,6 12,6 C10.3,6 9,4.7 9,3 C9,1.3 10.3,0 12,0 Z M21,0 C22.7,0 24,1.3 24,3 C24,4.7 22.7,6 21,6 C19.3,6 18,4.7 18,3 C18,1.3 19.3,0 21,0 Z M3,9 C4.7,9 6,10.3 6,12 C6,13.7 4.7,15 3,15 C1.3,15 0,13.7 0,12 C0,10.3 1.3,9 3,9 Z M12,9 C13.7,9 15,10.3 15,12 C15,13.7 13.7,15 12,15 C10.3,15 9,13.7 9,12 C9,10.3 10.3,9 12,9 Z M21,9 C22.7,9 24,10.3 24,12 C24,13.7 22.7,15 21,15 C19.3,15 18,13.7 18,12 C18,10.3 19.3,9 21,9 Z M3,18 C4.7,18 6,19.3 6,21 C6,22.7 4.7,24 3,24 C1.3,24 0,22.7 0,21 C0,19.3 1.3,18 3,18 Z M12,18 C13.7,18 15,19.3 15,21 C15,22.7 13.7,24 12,24 C10.3,24 9,22.7 9,21 C9,19.3 10.3,18 12,18 Z" id="Fill-18"></path>    </g></symbol>
<symbol id="icon-arrow-more" viewBox="0 0 21 21">    <g stroke="none" stroke-width="1" fill="none" fill-rule="evenodd" stroke-linecap="round" stroke-linejoin="round">        <path d="M3,3 L10,10 L3,17 M11,3 L18,10 L11,17" id="Stroke-32" stroke="#333333"></path>    </g></symbol>
<symbol id="icon-caret-down" viewBox="0 0 8 4">    <g stroke="none" stroke-width="1" fill="none" fill-rule="evenodd">        <polygon id="Carret" fill="#CCCCCC" points="0 0.0398425216 3.97997903 4 8 -4.61054803e-18"></polygon>    </g></symbol>
<symbol id="icon-caret-up" viewBox="0 0 8 4">    <g stroke="none" stroke-width="1" fill="none" fill-rule="evenodd">        <polygon id="Carret" fill="#CCCCCC" transform="translate(4.000000, 2.000000) rotate(-180.000000) translate(-4.000000, -2.000000) " points="0 0.0398425216 3.97997903 4 8 -4.48699758e-16"></polygon>    </g></symbol>
<symbol id="icon-chevron-down" viewBox="0 0 7 7">    <g stroke-width="1" fill="none" fill-rule="evenodd" stroke-linecap="round" stroke-linejoin="round">        <polyline id="Stroke-40-Copy-3" transform="translate(3.500000, 3.500000) rotate(-360.000000) translate(-3.500000, -3.500000) " points="0 2 3.50736029 5 7 2"></polyline>    </g></symbol>
<symbol id="icon-chevron-right" viewBox="0 0 10 10">    <g stroke-width="1" fill="none" fill-rule="evenodd" stroke-linecap="round" stroke-linejoin="round">        <polyline id="Dropdown_arrow-Copy-2" transform="translate(5.000000, 5.000000) rotate(-90.000000) translate(-5.000000, -5.000000) " points="9 3 5 7 1 3"></polyline>    </g></symbol>
<symbol id="icon-chevron-up" viewBox="0 0 7 7">    <g stroke-width="1" fill="none" fill-rule="evenodd" stroke-linecap="round" stroke-linejoin="round">        <polyline id="Stroke-40" transform="translate(3.500000, 3.500000) rotate(-180.000000) translate(-3.500000, -3.500000) " points="0 2 3.50736029 5 7 2"></polyline>    </g></symbol>
<symbol id="icon-clock" viewBox="0 0 14 14">    <g stroke="none" stroke-width="1" fill="none" fill-rule="evenodd" stroke-linecap="round" stroke-linejoin="round">        <g id="Stroke-1331--Stroke-1332" stroke="#000000">            <path d="M13.7083333,7 C13.7083333,10.7053333 10.7041667,13.7083333 7,13.7083333 C3.2935,13.7083333 0.291666667,10.7053333 0.291666667,7 C0.291666667,3.29466667 3.2935,0.291666667 7,0.291666667 C10.7041667,0.291666667 13.7083333,3.29466667 13.7083333,7 L13.7083333,7 Z" id="Stroke-1331"></path>            <polyline id="Stroke-1332" points="6.70833333 3.79166667 6.70833333 7 10.2083333 10.2083333"></polyline>        </g>    </g></symbol>
<symbol id="icon-close" viewBox="0 0 14 14">    <g stroke="none" stroke-width="1" fill-rule="evenodd">        <path d="M14.4,7.2 C14.4,11.2 11.2,14.4 7.2,14.4 C3.2,14.4 -1.82076576e-13,11.2 -1.82076576e-13,7.2 C-1.82076576e-13,3.2 3.2,-1.15463195e-14 7.2,-1.15463195e-14 C11.2,-1.04916076e-14 14.4,3.2 14.4,7.2 L14.4,7.2 Z" id="Circle"></path>        <path d="M7.9,7.2 L10.3,4.8 C10.5,4.6 10.5,4.3 10.3,4.1 C10.1,3.9 9.8,3.9 9.6,4.1 L7.2,6.5 L4.8,4.1 C4.6,3.9 4.3,3.9 4.1,4.1 C3.9,4.3 3.9,4.6 4.1,4.8 L6.5,7.2 L4.1,9.6 C3.9,9.8 3.9,10.1 4.1,10.3 C4.2,10.4 4.3,10.4 4.5,10.4 C4.7,10.4 4.8,10.4 4.9,10.3 L7.3,7.9 L9.7,10.3 C9.8,10.4 9.9,10.4 10.1,10.4 C10.3,10.4 10.4,10.4 10.5,10.3 C10.7,10.1 10.7,9.8 10.5,9.6 L7.9,7.2 Z" id="Cross" fill="#FFFFFF"></path>    </g></symbol>
<symbol id="icon-close2" viewBox="0 0 14 14">    <g stroke="none" stroke-width="1" fill-rule="evenodd">        <path d="M7.9,7.2 L10.3,4.8 C10.5,4.6 10.5,4.3 10.3,4.1 C10.1,3.9 9.8,3.9 9.6,4.1 L7.2,6.5 L4.8,4.1 C4.6,3.9 4.3,3.9 4.1,4.1 C3.9,4.3 3.9,4.6 4.1,4.8 L6.5,7.2 L4.1,9.6 C3.9,9.8 3.9,10.1 4.1,10.3 C4.2,10.4 4.3,10.4 4.5,10.4 C4.7,10.4 4.8,10.4 4.9,10.3 L7.3,7.9 L9.7,10.3 C9.8,10.4 9.9,10.4 10.1,10.4 C10.3,10.4 10.4,10.4 10.5,10.3 C10.7,10.1 10.7,9.8 10.5,9.6 L7.9,7.2 Z" id="Cross"></path>    </g></symbol>
<symbol id="icon-cog-wheel" viewBox="0 0 21 21">    <g stroke="none" stroke-width="1" fill="none" fill-rule="evenodd">        <path d="M17.4339623,14.2641509 L19.1179245,15.9481132 C19.3160377,16.1462264 19.3160377,16.4433962 19.1179245,16.6415094 L16.6415094,19.1179245 C16.4433962,19.3160377 16.1462264,19.3160377 15.9481132,19.1179245 L14.2641509,17.4339623 C13.7688679,17.6320755 13.1745283,17.8301887 12.2830189,18.1273585 L12.2830189,20.504717 C12.2830189,20.8018868 12.0849057,21 11.7877358,21 L9.21226415,21 C8.91509434,21 8.71698113,20.8018868 8.71698113,20.504717 L8.71698113,18.1273585 C7.9245283,17.9292453 7.23113208,17.7311321 6.73584906,17.4339623 L5.05188679,19.1179245 C4.85377358,19.3160377 4.55660377,19.3160377 4.35849057,19.1179245 L1.88207547,16.6415094 C1.68396226,16.4433962 1.68396226,16.1462264 1.88207547,15.9481132 L3.56603774,14.2641509 C3.36792453,13.7688679 3.16981132,13.1745283 2.87264151,12.2830189 L0.495283019,12.2830189 C0.198113208,12.2830189 -1.81188398e-13,12.0849057 -1.81188398e-13,11.7877358 L-1.81188398e-13,9.21226415 C-1.81188398e-13,8.91509434 0.198113208,8.71698113 0.495283019,8.71698113 L2.87264151,8.71698113 C3.07075472,7.9245283 3.26886792,7.23113208 3.56603774,6.73584906 L1.88207547,5.05188679 C1.68396226,4.85377358 1.68396226,4.55660377 1.88207547,4.35849057 L4.35849057,1.88207547 C4.55660377,1.68396226 4.85377358,1.68396226 5.05188679,1.88207547 L6.73584906,3.56603774 C7.23113208,3.36792453 7.8254717,3.16981132 8.71698113,2.87264151 L8.71698113,0.495283019 C8.71698113,0.198113208 8.91509434,-1.0658141e-14 9.21226415,-1.0658141e-14 L11.7877358,-1.0658141e-14 C12.0849057,-1.0658141e-14 12.2830189,0.198113208 12.2830189,0.495283019 L12.2830189,2.97169811 C13.0754717,3.16981132 13.7688679,3.36792453 14.2641509,3.66509434 L15.9481132,1.88207547 C16.1462264,1.68396226 16.4433962,1.68396226 16.6415094,1.88207547 L19.1179245,4.35849057 C19.3160377,4.55660377 19.3160377,4.85377358 19.1179245,5.05188679 L17.4339623,6.73584906 C17.6320755,7.23113208 17.8301887,7.8254717 18.1273585,8.71698113 L20.504717,8.71698113 C20.8018868,8.71698113 21,8.91509434 21,9.21226415 L21,11.7877358 C21,12.0849057 20.8018868,12.2830189 20.504717,12.2830189 L18.1273585,12.2830189 C17.8301887,13.0754717 17.6320755,13.7688679 17.4339623,14.2641509 Z M16.4433962,14.6603774 C16.245283,14.4622642 16.245283,14.2641509 16.3443396,14.0660377 C16.6415094,13.5707547 16.8396226,12.7783019 17.1367925,11.6886792 C17.2358491,11.490566 17.4339623,11.2924528 17.6320755,11.2924528 L19.9103774,11.2924528 L19.9103774,9.70754717 L17.6320755,9.70754717 C17.4339623,9.70754717 17.2358491,9.50943396 17.1367925,9.31132075 C16.8396226,8.22169811 16.6415094,7.42924528 16.3443396,6.93396226 C16.245283,6.73584906 16.245283,6.43867925 16.4433962,6.33962264 L18.1273585,4.65566038 L16.3443396,2.87264151 L14.6603774,4.55660377 C14.4622642,4.75471698 14.2641509,4.75471698 14.0660377,4.65566038 C13.5707547,4.35849057 12.7783019,4.16037736 11.6886792,3.86320755 C11.490566,3.76415094 11.2924528,3.56603774 11.2924528,3.36792453 L11.2924528,0.990566038 L9.70754717,0.990566038 L9.70754717,3.26886792 C9.70754717,3.46698113 9.50943396,3.66509434 9.31132075,3.76415094 C8.22169811,4.06132075 7.42924528,4.35849057 6.93396226,4.65566038 C6.73584906,4.75471698 6.43867925,4.75471698 6.33962264,4.55660377 L4.65566038,2.97169811 L2.97169811,4.65566038 L4.65566038,6.33962264 C4.85377358,6.53773585 4.85377358,6.73584906 4.75471698,6.93396226 C4.35849057,7.42924528 4.06132075,8.22169811 3.86320755,9.31132075 C3.76415094,9.50943396 3.56603774,9.70754717 3.36792453,9.70754717 L0.990566038,9.70754717 L0.990566038,11.2924528 L3.26886792,11.2924528 C3.46698113,11.2924528 3.66509434,11.490566 3.76415094,11.6886792 C4.06132075,12.7783019 4.25943396,13.5707547 4.55660377,14.0660377 C4.65566038,14.2641509 4.65566038,14.5613208 4.45754717,14.6603774 L2.77358491,16.3443396 L4.55660377,18.1273585 L6.24056604,16.4433962 C6.43867925,16.245283 6.63679245,16.245283 6.83490566,16.3443396 C7.33018868,16.6415094 8.12264151,16.8396226 9.21226415,17.1367925 C9.41037736,17.2358491 9.60849057,17.4339623 9.60849057,17.6320755 L9.60849057,19.9103774 L11.1933962,19.9103774 L11.1933962,17.6320755 C11.1933962,17.4339623 11.3915094,17.2358491 11.5896226,17.1367925 C12.6792453,16.8396226 13.4716981,16.6415094 13.9669811,16.3443396 C14.1650943,16.245283 14.4622642,16.245283 14.5613208,16.4433962 L16.245283,18.1273585 L18.0283019,16.3443396 L16.4433962,14.6603774 Z M14.8584906,10.5 C14.8584906,12.9764151 12.8773585,14.8584906 10.5,14.8584906 C8.12264151,14.8584906 6.14150943,12.8773585 6.14150943,10.5 C6.14150943,8.02358491 8.12264151,6.14150943 10.5,6.14150943 C12.8773585,6.14150943 14.8584906,8.02358491 14.8584906,10.5 Z M13.8679245,10.5 C13.8679245,8.61792453 12.3820755,7.13207547 10.5,7.13207547 C8.61792453,7.13207547 7.13207547,8.61792453 7.13207547,10.5 C7.13207547,12.3820755 8.61792453,13.8679245 10.5,13.8679245 C12.3820755,13.8679245 13.8679245,12.3820755 13.8679245,10.5 Z" id="Shape"></path>    </g></symbol>
<symbol id="icon-collapse" viewBox="0 0 19 17">    <g stroke="none" stroke-width="1" fill-rule="evenodd">        <path d="M2.93835042,7.00281511 L6.34789802,10.8614725 L4.84915723,12.1857746 L-0.72,5.88304115 L4.86465339,-0.09 L6.32556592,1.27591895 L2.84100542,5.00281511 L18.9966556,5.00281511 L18.9966556,7.00281511 L2.93835042,7.00281511 Z M10.9966556,10.0028151 L18.9966556,10.0028151 L18.9966556,12.0028151 L10.9966556,12.0028151 L10.9966556,10.0028151 Z M10.9966556,15.0028151 L18.9966556,15.0028151 L18.9966556,17.0028151 L10.9966556,17.0028151 L10.9966556,15.0028151 Z" id="Rectangle-9"></path>    </g></symbol>
<symbol id="icon-copy" viewBox="0 0 21 21">    <g stroke="none" stroke-width="1" fill="none" fill-rule="evenodd">        <path d="M8.2,16.5 C7.8,17.1 7.4,17.7 7.2,18.3 C7.1,18.7 7,18.9 7,19.1 C6.9,19.7 6,19.6 6,19 C6,18.9 6,18.8 6,18.6 C6,18.3 6.1,18 6.1,17.6 C6.2,16.6 6.5,15.5 6.9,14.6 C8.1,11.9 10.1,10.3 13.3,10.1 L13.3,9 C13.3,8.6 13.8,8.3 14.1,8.6 L17.8,11.5 C18.1,11.7 18.1,12.1 17.8,12.3 L14.1,15.2 C13.8,15.5 13.3,15.2 13.3,14.8 L13.3,13.8 C11,14 9.4,15 8.2,16.5 Z M13.8,12.9 C14.1,12.9 14.3,13.1 14.3,13.4 L14.3,13.8 L16.7,11.9 L14.3,10 L14.3,10.4 C14.3,10.7 14.1,10.9 13.8,10.9 C10.8,10.9 8.9,12.4 7.8,14.8 C7.7,15.1 7.6,15.3 7.5,15.6 C9,13.9 11,12.9 13.8,12.9 Z M20,17.9 C20,18.2 19.8,18.4 19.5,18.4 L14.9,18.4 L14.9,20.5 C14.9,20.8 14.7,21 14.4,21 L2.5,21 C2.2,21 2,20.8 2,20.5 L2,3.1 C2,2.8 2.2,2.6 2.5,2.6 L7.1,2.6 L7.1,0.5 C7.1,0.2 7.3,0 7.6,0 L15.3,0 C15.4,0 15.6,0.1 15.7,0.2 L20,4.5 C20,4.58067702 20,4.58067702 20,4.7 C20,4.8 20,4.8 20,4.9 C20,5.1 20,9.43333333 20,17.9 Z M19,5.3 L15.2,5.3 C14.9,5.3 14.7,5.1 14.7,4.8 L14.7,1 L8.1,1 L8.1,2.6 L10.1,2.6 C10.2,2.6 10.4,2.7 10.5,2.8 L14.7,7.1 C14.9,7.3 14.9,7.6 14.7,7.8 C14.7,7.9 14.5,8 14.4,8 L10.1,8 C9.9,8 9.6,7.7 9.6,7.5 L9.6,3.6 L3,3.6 L3,20 L13.9,20 L13.9,16.3 C13.9,16 14.1,15.8 14.4,15.8 C14.7,15.8 14.9,16 14.9,16.3 L14.9,17.4 L19,17.4 L19,5.3 Z M18.3,4.3 L15.7,1.7 L15.7,4.3 L18.3,4.3 Z M13.2,7 L10.6,4.3 L10.6,7 L13.2,7 Z" id="Shape"></path>    </g></symbol>
<symbol id="icon-customers" viewBox="0 0 24 24">    <g stroke="none" stroke-width="1" fill-rule="evenodd">        <path d="M24,21.6011958 C24,21.0017084 23.9,20.3023063 23.9,19.7028188 C23.8,18.8035875 23.7,18.0042709 23.5,17.504698 C23.1,16.2058084 21,15.106748 17,13.6080293 L17,12.708798 C17.1,12.6088834 17.3,12.4090543 17.4,12.1093105 C17.7,11.509823 17.9,10.810421 18,9.91118971 C19,9.51153138 19,7.81298348 18.2,7.21349599 C18.3,7.11358141 18.3,6.91375224 18.4,6.71392308 C18.6,6.11443558 18.8,5.61486267 18.8,5.01537518 C18.8,4.71563143 18.8,4.41588768 18.7,4.11614393 C18.3,2.6174252 15.9,1.41845021 14.3,2.51751062 C14.1,2.71733978 14,3.01708353 14.2,3.21691269 C14.4,3.41674186 14.7,3.51665644 14.9,3.31682728 C15.9,2.6174252 17.6,3.51665644 17.8,4.3159731 C17.8,4.51580226 17.9,4.71563143 17.8,4.91546059 C17.8,5.31511892 17.6,5.71477725 17.4,6.21435016 C17.4,6.11443558 17,7.21349599 17,7.31341057 C17,7.7130689 17.2,8.01281265 17.5,8.01281265 C17.8,8.01281265 17.8,9.01195847 17.5,9.01195847 C17.2,9.01195847 17,9.21178763 17,9.51153138 C17,10.5106772 16.8,11.2100793 16.6,11.7096522 C16.5,12.0093959 16.3,12.1093105 16.3,12.1093105 C16.2,12.2092251 16.1,12.4090543 16.1,12.5089689 L16.1,14.0076876 C16.1,14.2075168 16.2,14.4073459 16.4,14.5072605 C20.2,15.9060647 22.3,17.1050396 22.6,17.9043563 C22.7,18.3040146 22.9,19.0034167 22.9,19.9026479 C23,20.5021354 23,21.1016229 23,21.7011104 C23,21.801025 23,21.9009396 23,22.0008542 L21,22.0008542 C20.7,22.0008542 20.5,22.2006833 20.5,22.5004271 C20.5,22.8001708 20.7,23 21,23 L23.5,23 C23.8,23 24,22.8001708 24,22.5004271 C24,22.3005979 24,22.0008542 24,21.6011958 Z M18.9,19.7028188 C18.8,18.8035875 18.7,18.0042709 18.5,17.504698 C18.2,16.7053813 17.3,16.1058938 15.7,15.4064917 C15.1,15.106748 12.9,14.3074313 12,14.0076876 L12,12.1093105 C12.1,12.0093959 12.3,11.8095668 12.4,11.509823 C12.7,11.0102501 12.9,10.310848 13,9.4116168 C13.9,9.01195847 14,7.31341057 13.2,6.71392308 C13.2,6.71392308 13.2,6.71392308 13.2,6.61400849 C13.3,6.51409391 13.3,6.41417933 13.4,6.31426475 C13.7,5.61486267 13.9,4.91546059 13.8,4.3159731 C13.8,4.11614393 13.8,4.01622935 13.7,3.81640019 C13.1,1.51836479 7.5,1.41845021 6.3,3.41674186 C5.1,3.31682728 4.6,4.21605852 4.7,5.51494809 C4.7,5.81469183 4.8,6.11443558 4.9,6.41417933 C4.9,6.51409391 5,7.01366682 5,7.01366682 L5,9.01195847 C5,10.2109335 5.4,11.1101647 6.2,11.8095668 C6.5,12.0093959 6.7,12.2092251 7,12.3091397 L7,14.1076022 C6.7,14.2075168 6.4,14.3074313 6,14.5072605 C5.6,14.6071751 5.4,14.7070897 5.2,14.8070042 C2.1,15.9060647 0.9,16.6054667 0.5,17.6046126 C0.3,18.1041855 0.2,18.9035021 0.1,19.8027334 C0.1,20.4022209 0,21.0017084 0,21.6011958 C0,22.0008542 0,22.3005979 0,22.5004271 C0,22.8001708 0.2,23 0.5,23 L18.5,23 C18.8,23 19,22.8001708 19,22.5004271 C19,22.3005979 19,22.0008542 19,21.6011958 C19,21.0017084 18.9,20.4022209 18.9,19.7028188 Z M1,22.0008542 C1,21.9009396 1,21.801025 1,21.7011104 C1,21.1016229 1.1,20.4022209 1.1,19.9026479 C1.2,19.0034167 1.3,18.4039292 1.4,17.9043563 C1.6,17.3048688 2.8,16.7053813 5.4,15.8061501 C5.6,15.7062355 5.8,15.7062355 6.2,15.5064063 C6.8,15.3065772 7.2,15.106748 7.6,15.0068334 C7.9,14.9069188 8,14.7070897 8,14.5072605 L8,12.0093959 C8,11.8095668 7.9,11.6097376 7.6,11.509823 C7.5,11.4099084 7.1,11.3099939 6.8,11.0102501 C6.3,10.5106772 6,9.91118971 6,9.01195847 L6,7.01366682 C6,6.91375224 5.8,6.21435016 5.8,6.21435016 C5.8,5.91460642 5.7,5.61486267 5.7,5.41503351 C5.6,4.61571685 5.8,4.3159731 6.5,4.51580226 C6.8,4.51580226 7,4.3159731 7.1,4.11614393 C7.4,2.71733978 12.4,2.71733978 12.8,4.11614393 C12.8,4.21605852 12.8,4.3159731 12.8,4.41588768 C12.8,4.81554601 12.7,5.31511892 12.4,5.91460642 C12.4,6.014521 12.3,6.11443558 12.3,6.21435016 C12.3,6.31426475 12.2,6.31426475 12.2,6.51409391 C12,6.71392308 12,6.81383766 12,7.01366682 C12,7.31341057 12.2,7.51323973 12.5,7.51323973 C12.8,7.51323973 12.8,8.51238556 12.5,8.51238556 C12.2,8.51238556 12,8.71221472 12,9.01195847 C12,10.0111043 11.8,10.7105064 11.6,11.2100793 C11.5,11.509823 11.3,11.6097376 11.3,11.6097376 C11.1,11.6097376 11,11.8095668 11,12.0093959 L11,14.5072605 C11,14.7070897 11.1,14.9069188 11.3,15.0068334 C11.5,15.106748 14.5,16.2058084 15.3,16.5055521 C16.7,17.1050396 17.4,17.6046126 17.6,18.0042709 C17.7,18.4039292 17.9,19.1033313 17.9,20.0025625 C18,20.60205 18,21.2015375 18,21.801025 C18,21.9009396 18,22.0008542 18,22.1007688 L1,22.0008542 L1,22.0008542 Z" id="Shape"></path>    </g></symbol>
<symbol id="icon-dashboard" viewBox="0 0 24 24">    <g stroke="none" stroke-width="1" fill="none" fill-rule="evenodd">        <path d="M5.3,12.7 L3.4,11.9 C3.1,11.8 2.9,11.9 2.7,12.2 C2.5,12.5 2.7,12.7 3,12.9 L4.8,13.7 C4.9,13.7 4.9,13.7 5,13.7 C5.2,13.7 5.4,13.6 5.5,13.4 C5.6,13.1 5.5,12.8 5.3,12.7 Z M12,9 C12.3,9 12.5,8.8 12.5,8.5 L12.5,6.5 C12.5,6.2 12.3,6 12,6 C11.7,6 11.5,6.2 11.5,6.5 L11.5,8.5 C11.5,8.8 11.7,9 12,9 Z M5.6,8.9 C5.4,8.7 5.1,8.7 4.9,8.9 C4.7,9.1 4.7,9.4 4.9,9.6 L6.3,11 C6.4,11.1 6.5,11.1 6.7,11.1 C6.9,11.1 7,11.1 7,11.1 C7.2,10.9 7.2,10.6 7,10.4 L5.6,8.9 Z M14.7,9.5 C14.8,9.5 14.8,9.5 14.9,9.5 C15.1,9.5 15.3,9.4 15.4,9.2 L16.2,7.4 C16.3,7.1 16.2,6.9 15.9,6.7 C15.6,6.6 15.4,6.7 15.2,7 L14.4,8.8 C14.3,9.1 14.4,9.4 14.7,9.5 Z M4.5,16 L2.5,16 C2.2,16 2,16.2 2,16.5 C2,16.8 2.2,17 2.5,17 L4.5,17 C4.8,17 5,16.8 5,16.5 C5,16.2 4.8,16 4.5,16 Z M18.5,13.3 C18.6,13.5 18.8,13.6 19,13.6 C19.1,13.6 19.1,13.6 19.2,13.6 L21,12.8 C21.3,12.7 21.4,12.4 21.3,12.1 C21.2,11.8 20.9,11.7 20.6,11.8 L18.8,12.6 C18.5,12.8 18.4,13.1 18.5,13.3 Z M12,4 C5.4,4 0,9.4 0,16 L0,20.5 C0,20.8 0.2,21 0.5,21 L23.5,21 C23.8,21 24,20.8 24,20.5 L24,16 C24,9.4 18.6,4 12,4 Z M23,20 L1,20 L1,16 C1,9.9 5.9,5 12,5 C18.1,5 23,9.9 23,16 L23,20 Z M18.4,9.6 C18.2,9.4 17.9,9.4 17.7,9.6 L13,14.3 C12.7,14.1 12.4,14 12,14 C10.9,14 10,14.9 10,16 C10,17.1 10.9,18 12,18 C13.1,18 14,17.1 14,16 C14,15.6 13.9,15.3 13.7,15 L18.3,10.4 C18.6,10.1 18.6,9.8 18.4,9.6 Z M12,17 C11.4,17 11,16.6 11,16 C11,15.4 11.4,15 12,15 C12.6,15 13,15.4 13,16 C13,16.6 12.6,17 12,17 Z M8.8,7 C8.7,6.8 8.4,6.7 8.2,6.8 C7.9,6.9 7.8,7.2 7.9,7.4 L8.7,9.2 C8.8,9.4 9,9.5 9.2,9.5 C9.3,9.5 9.3,9.5 9.4,9.5 C9.7,9.4 9.8,9.1 9.7,8.8 L8.8,7 Z M19,16.5 C19,16.8 19.2,17 19.5,17 L21.5,17 C21.8,17 22,16.8 22,16.5 C22,16.2 21.8,16 21.5,16 L19.5,16 C19.2,16 19,16.2 19,16.5 Z" id="Shape"></path>    </g></symbol>
<symbol id="icon-date" viewBox="0 0 14 14">    <g stroke="none" stroke-width="1" fill="none" fill-rule="evenodd" stroke-linecap="round" stroke-linejoin="round">        <g id="Group" stroke="#232323">            <polyline id="Stroke-1362" points="2.625 1.45833333 0.291666667 1.45833333 0.291666667 13.7083333 13.7083333 13.7083333 13.7083333 1.45833333 11.375 1.45833333"></polyline>            <polygon id="Stroke-1363" points="4.375 2.625 2.625 2.625 2.625 0.291666667 4.375 0.291666667"></polygon>            <polygon id="Stroke-1364" points="11.375 2.625 9.625 2.625 9.625 0.291666667 11.375 0.291666667"></polygon>            <path d="M4.375,1.45833333 L9.625,1.45833333" id="Stroke-1365"></path>            <path d="M0.291666667,4.375 L13.7083333,4.375" id="Stroke-1366"></path>            <polyline id="Stroke-1367" points="5.54166667 11.375 5.54166667 6.70833333 4.375 7.875"></polyline>            <path d="M4.375,11.375 L6.70833333,11.375" id="Stroke-1368"></path>            <polyline id="Stroke-1369" points="8.16666667 11.375 9.91666667 6.70833333 7 6.70833333 7 7.29166667"></polyline>            <path d="M7.875,9.04166667 L9.625,9.04166667" id="Stroke-1370"></path>        </g>    </g></symbol>
<symbol id="icon-delete" viewBox="0 0 21 21">    <g stroke="none" stroke-width="1" fill="none" fill-rule="evenodd">        <path d="M20.0375,2.625 L14.35,2.625 L14.35,0.4375 C14.35,0.175 14.175,0 13.9125,0 L6.9125,0 C6.65,0 6.475,0.175 6.475,0.4375 L6.475,2.625 L0.7875,2.625 C0.525,2.625 0.35,2.8 0.35,3.0625 C0.35,3.325 0.525,3.5 0.7875,3.5 L2.975,3.5 L2.975,20.5625 C2.975,20.825 3.15,21 3.4125,21 L17.4125,21 C17.675,21 17.85,20.825 17.85,20.5625 L17.85,3.5 L20.0375,3.5 C20.3,3.5 20.475,3.325 20.475,3.0625 C20.475,2.8 20.3,2.625 20.0375,2.625 Z M7.35,0.875 L13.475,0.875 L13.475,2.625 L7.35,2.625 L7.35,0.875 Z M16.975,20.125 L3.85,20.125 L3.85,3.5 L16.975,3.5 L16.975,20.125 Z M6.9125,16.625 C7.175,16.625 7.35,16.45 7.35,16.1875 L7.35,6.5625 C7.35,6.3 7.175,6.125 6.9125,6.125 C6.65,6.125 6.475,6.3 6.475,6.5625 L6.475,16.1875 C6.475,16.45 6.65,16.625 6.9125,16.625 Z M10.4125,16.625 C10.675,16.625 10.85,16.45 10.85,16.1875 L10.85,6.5625 C10.85,6.3 10.675,6.125 10.4125,6.125 C10.15,6.125 9.975,6.3 9.975,6.5625 L9.975,16.1875 C9.975,16.45 10.2375,16.625 10.4125,16.625 Z M13.9125,16.625 C14.175,16.625 14.35,16.45 14.35,16.1875 L14.35,6.5625 C14.35,6.3 14.175,6.125 13.9125,6.125 C13.65,6.125 13.475,6.3 13.475,6.5625 L13.475,16.1875 C13.475,16.45 13.65,16.625 13.9125,16.625 Z" id="Shape"></path>    </g></symbol>
<symbol id="icon-dependent-scope" viewBox="0 0 21 21">    <g stroke="none" stroke-width="1" fill-rule="evenodd">        <path d="M12.2436796,17.7662798 L6.13132041,17.7662798 C6.22425178,18.0182902 6.275,18.2907187 6.275,18.575 C6.275,19.8659656 5.2284656,20.9125 3.9375,20.9125 C2.6465344,20.9125 1.6,19.8659656 1.6,18.575 C1.6,17.2840344 2.6465344,16.2375 3.9375,16.2375 C4.49947362,16.2375 5.01512823,16.4358152 5.41829798,16.7662798 L12.956702,16.7662798 C13.2201635,16.5503293 13.5316595,16.3908106 13.8727261,16.3061874 L14.0068576,15.6532516 L3.81767011,15.6532516 C3.61149236,15.6532516 3.42645558,15.5266957 3.35169663,15.334549 L0.0708486772,6.90205791 C-0.0566813617,6.57427804 0.185106991,6.22076058 0.536822151,6.22076058 L15.944559,6.22076058 L16.9265071,1.44075863 C16.9742703,1.20825303 17.1789186,1.04137178 17.4162795,1.04137178 L19.9508282,1.04137178 C20.2269705,1.04137178 20.4508282,1.26522941 20.4508282,1.54137178 C20.4508282,1.81751416 20.2269705,2.04137178 19.9508282,2.04137178 L17.8240065,2.04137178 L14.898387,16.2829261 C15.9686274,16.4969424 16.775,17.441802 16.775,18.575 C16.775,19.8659656 15.7284656,20.9125 14.4375,20.9125 C13.1465344,20.9125 12.1,19.8659656 12.1,18.575 C12.1,18.2907187 12.1507482,18.0182902 12.2436796,17.7662798 Z M9.46345215,10.7801302 L10.6694546,9.55327421 C10.8630359,9.35634558 11.1796067,9.35363205 11.3765354,9.54721336 C11.573464,9.74079468 11.5761775,10.0573655 11.3825962,10.2542942 L9.2885563,12.3845432 C9.09262423,12.5838632 8.77134671,12.5838632 8.57541465,12.3845432 L6.48137473,10.2542942 C6.28779341,10.0573655 6.29050695,9.74079468 6.48743558,9.54721336 C6.68436421,9.35363205 7.00093507,9.35634558 7.19451638,9.55327421 L8.46345215,10.8441518 L8.46345215,7.22076058 L1.26786948,7.22076058 L4.15964523,14.6532516 L14.212286,14.6532516 L15.7391306,7.22076058 L9.46345215,7.22076058 L9.46345215,10.7801302 Z M3.9375,19.9125 C4.67618085,19.9125 5.275,19.3136809 5.275,18.575 C5.275,17.8363191 4.67618085,17.2375 3.9375,17.2375 C3.19881915,17.2375 2.6,17.8363191 2.6,18.575 C2.6,19.3136809 3.19881915,19.9125 3.9375,19.9125 Z M14.4375,19.9125 C15.1761809,19.9125 15.775,19.3136809 15.775,18.575 C15.775,17.8363191 15.1761809,17.2375 14.4375,17.2375 C13.6988191,17.2375 13.1,17.8363191 13.1,18.575 C13.1,19.3136809 13.6988191,19.9125 14.4375,19.9125 Z" id="Mask"></path>    </g></symbol>
<symbol id="icon-dot-menu" viewBox="0 0 15 15">    <g stroke="none" stroke-width="1" fill="none" fill-rule="evenodd">        <path d="M2.5,9 C1.67157288,9 1,8.32842712 1,7.5 C1,6.67157288 1.67157288,6 2.5,6 C3.32842712,6 4,6.67157288 4,7.5 C4,8.32842712 3.32842712,9 2.5,9 Z M7.5,9 C6.67157288,9 6,8.32842712 6,7.5 C6,6.67157288 6.67157288,6 7.5,6 C8.32842712,6 9,6.67157288 9,7.5 C9,8.32842712 8.32842712,9 7.5,9 Z M12.5,9 C11.6715729,9 11,8.32842712 11,7.5 C11,6.67157288 11.6715729,6 12.5,6 C13.3284271,6 14,6.67157288 14,7.5 C14,8.32842712 13.3284271,9 12.5,9 Z"></path>    </g></symbol>
<symbol id="icon-dropdown-chevron-down" viewBox="0 0 10 10">    <g stroke-width="1" fill="none" fill-rule="evenodd" stroke-linecap="round" stroke-linejoin="round">        <polyline id="Dropdown_arrow-Copy-2" transform="translate(5.000000, 5.000000) rotate(-360.000000) translate(-5.000000, -5.000000) " points="9 3 5 7 1 3"></polyline>    </g></symbol>
<symbol id="icon-edit" viewBox="0 0 21 21">    <g stroke="none" stroke-width="1" fill="none" fill-rule="evenodd">        <path d="M7.1625566,18.6855797 C7.15603101,18.6929152 7.14925216,18.7001046 7.14222006,18.7071367 C7.13517241,18.7141844 7.12796672,18.7209776 7.12061439,18.7275165 L6.93219739,18.9159094 C6.86637603,18.9817223 6.78349056,19.0278556 6.6928716,19.0491159 L1.30453827,20.3132825 C0.94325229,20.3980445 0.618780344,20.0735614 0.70355473,19.7122783 L1.9677214,14.3247783 C1.98898221,14.2341711 2.03510978,14.1512961 2.10091262,14.0854806 L2.28983159,13.8965253 C2.29634032,13.8892112 2.30310088,13.8820423 2.31011328,13.8750299 C2.31710236,13.8680409 2.32424687,13.8613019 2.33153568,13.8548132 L13.3308258,2.85340783 C13.3316485,2.85257785 13.3324746,2.85175003 13.3333042,2.8509244 L14.5030049,1.68100331 C14.5057501,1.67812614 14.5085362,1.67527366 14.5113633,1.67244661 C14.5141671,1.66964278 14.5169959,1.66687922 14.5198491,1.66415591 L15.1003396,1.08355381 C15.9472542,0.237722152 17.3194956,0.237722152 18.1654701,1.08369663 L19.9341131,2.85150651 C20.7790357,3.69751233 20.7790357,5.06857125 19.9338641,5.91590939 L19.3787968,6.47090545 C19.3685479,6.48335133 19.3576057,6.49541776 19.3459701,6.50705339 C19.3343188,6.51870463 19.3222356,6.52966064 19.309772,6.53992143 L18.192426,7.65712426 C18.1811998,7.67098158 18.169123,7.68437754 18.1561958,7.69724226 C18.1438449,7.70953346 18.1310128,7.72104603 18.1177605,7.73178011 L7.1625566,18.6855797 Z M3.37134428,14.2291542 L6.78807776,17.6458876 L17.0952838,7.34000334 L13.6851797,3.91333521 L3.37134428,14.2291542 Z M2.8158286,15.087852 L1.86136465,19.1554918 L5.92912393,18.2011474 L2.8158286,15.087852 Z M14.3922207,3.2061582 L17.8024379,6.63293993 L18.2836247,6.15181484 L14.8650489,2.73323905 L14.3922207,3.2061582 Z M15.5720877,2.02606428 L18.9907769,5.44475341 L19.2263275,5.20923293 C19.6816309,4.75276209 19.6816309,4.013821 19.2268633,3.55847004 L17.4584466,1.79088672 C17.0028377,1.33527785 16.2634124,1.33527785 15.8072541,1.79085273 L15.5720877,2.02606428 Z" id="Mask"></path>    </g></symbol>
<symbol id="icon-expand" viewBox="0 0 19 17">    <g stroke="none" stroke-width="1" fill-rule="evenodd">        <path d="M16.6417907,5 L13.2506296,1.16215105 L14.7493704,-0.162151049 L20.3185276,6.14058239 L14.7338742,12.1136235 L13.2729617,10.7477046 L16.7769776,7 L0,7 L0,5 L16.6417907,5 Z M0,15 L8,15 L8,17 L0,17 L0,15 Z M0,10 L8,10 L8,12 L0,12 L0,10 Z" id="Rectangle-8-Copy-3"></path>    </g></symbol>
<symbol id="icon-export" viewBox="0 0 24 24">    <g stroke="none" stroke-width="1" fill="none" fill-rule="evenodd">        <path d="M8.9,4.9 L12,1.7 L12,12.5 C12,12.8 12.2,13 12.5,13 C12.8,13 13,12.8 13,12.5 L13,1.7 L16.1,4.8 C16.2,5 16.4,5 16.5,5 C16.6,5 16.8,5 16.9,4.9 C17.1,4.7 17.1,4.4 16.9,4.2 L12.9,0.2 C12.9,0.2 12.8,0.1 12.7,0.1 C12.6,0 12.4,0 12.3,0 C12.2,0 12.2,0.1 12.1,0.1 L8.1,4.1 C8,4.3 8,4.7 8.1,4.9 C8.2,5.1 8.7,5 8.9,4.9 Z M16,21 L20,21 C20.3,21 20.5,20.8 20.5,20.5 C20.5,20.2 20.3,20 20,20 L16,20 C15.7,20 15.5,20.2 15.5,20.5 C15.5,20.8 15.7,21 16,21 Z M24,17.5 C24,17.4 24,17.4 24,17.5 C24,17.4 23.9,17.3 23.9,17.3 L23.9,17.3 L18.9,11.3 C18.8,11.2 18.7,11.1 18.5,11.1 L17.5,11.1 C17.2,11.1 17,11.3 17,11.6 C17,11.9 17.2,12.1 17.5,12.1 L18.3,12.1 L22.5,17.1 L1.6,17.1 L5.8,12.1 L7,12.1 C7.3,12.1 7.5,11.9 7.5,11.6 C7.5,11.3 7.3,11 7,11 L5.5,11 C5.4,11 5.2,11.1 5.1,11.2 L0.1,17.2 L0.1,17.2 C0.1,17.3 0,17.3 0,17.4 C0,17.4 0,17.4 0,17.5 L0,17.5 L0,21.5 C3.60822483e-16,22.9 1.1,24 2.5,24 L21.5,24 C22.9,24 24,22.9 24,21.5 L24,17.5 L24,17.5 Z M23,21.5 C23,22.3 22.3,23 21.5,23 L2.5,23 C1.7,23 1,22.3 1,21.5 L1,18 L23,18 L23,21.5 Z" id="Shape"></path>    </g></symbol>
<symbol id="icon-filter" viewBox="0 0 21 21">    <g stroke="none" stroke-width="1" fill-rule="evenodd">        <path d="M3.6,3.9 L10.3,10.6 C10.4,10.8 10.4,10.9 10.4,11 L10.4,16.9 L11.4,16 L11.4,11 C11.4,10.9 11.4,10.8 11.5,10.7 L18.2,4 L3.6,4 L3.6,3.9 Z M10,18.5 C9.9,18.5 9.9,18.5 9.8,18.5 C9.6,18.4 9.5,18.3 9.5,18.1 L9.5,11.2 L2.1,3.8 C2,3.7 2,3.5 2,3.3 C2.1,3.1 2.3,3 2.5,3 L19.3,3 C19.5,3 19.7,3.1 19.7,3.3 C19.8,3.5 19.7,3.7 19.6,3.8 L12.3,11.2 L12.3,16.2 C12.3,16.3 12.3,16.4 12.2,16.5 L10.3,18.4 C10.2,18.5 10.1,18.5 10,18.5 L10,18.5 Z"></path>    </g></symbol>
<symbol id="icon-generic" viewBox="0 0 21 21">    <g stroke="none" stroke-width="1" fill="none" fill-rule="evenodd">        <path d="M16,16 L17.5,16 C17.8,16 18,16.2 18,16.5 C18,16.8 17.8,17 17.5,17 L16,17 L16,18.5 C16,18.8 15.8,19 15.5,19 C15.2,19 15,18.8 15,18.5 L15,17 L11,17 L11,18.5 C11,18.8 10.8,19 10.5,19 C10.2,19 10,18.8 10,18.5 L10,17 L6,17 L6,18.5 C6,18.8 5.8,19 5.5,19 C5.2,19 5,18.8 5,18.5 L5,17 L3,17 C2.7,17 2.5,16.8 2.5,16.5 C2.5,16.2 2.7,16 3,16 L5,16 L5,14 L3,14 C2.7,14 2.5,13.8 2.5,13.5 C2.5,13.2 2.7,13 3,13 L5,13 L5,11 L3,11 C2.7,11 2.5,10.8 2.5,10.5 C2.5,10.2 2.7,10 3,10 L5,10 L5,8.5 C5,8.2 5.2,8 5.5,8 C5.8,8 6,8.2 6,8.5 L6,10 L10,10 L10,8.5 C10,8.2 10.2,8 10.5,8 C10.8,8 11,8.2 11,8.5 L11,10 L15,10 L15,8.5 C15,8.2 15.2,8 15.5,8 C15.8,8 16,8.2 16,8.5 L16,10 L17.5,10 C17.8,10 18,10.2 18,10.5 C18,10.8 17.8,11 17.5,11 L16,11 L16,13 L17.5,13 C17.8,13 18,13.2 18,13.5 C18,13.8 17.8,14 17.5,14 L16,14 L16,16 Z M15,16 L15,14 L11,14 L11,16 L15,16 Z M10,16 L10,14 L6,14 L6,16 L10,16 Z M6,13 L10,13 L10,11 L6,11 L6,13 Z M11,13 L15,13 L15,11 L11,11 L11,13 Z M2,6 L19,6 L19,3 L17,3 L17,4.5 C17,4.8 16.8,5 16.5,5 L13.5,5 C13.2,5 13,4.8 13,4.5 L13,3 L8,3 L8,4.5 C8,4.8 7.8,5 7.5,5 L4.5,5 C4.2,5 4,4.8 4,4.5 L4,3 L2,3 L2,6 Z M2,7 L2,20 L19,20 L19,7 L2,7 Z M8,2 L13,2 L13,1.5 C13,1.2 13.2,1 13.5,1 L16.5,1 C16.8,1 17,1.2 17,1.5 L17,2 L19.5,2 C19.8,2 20,2.2 20,2.5 L20,20.5 C20,20.8 19.8,21 19.5,21 L1.5,21 C1.2,21 1,20.8 1,20.5 L1,2.5 C1,2.2 1.2,2 1.5,2 L4,2 L4,1.5 C4,1.2 4.2,1 4.5,1 L7.5,1 C7.8,1 8,1.2 8,1.5 L8,2 Z M7,4 L7,2 L5,2 L5,4 L7,4 Z M16,2 L14,2 L14,4 L16,4 L16,2 Z" id="Shape"></path>    </g></symbol>
<symbol id="icon-global" viewBox="0 0 24 24">    <g stroke="none" stroke-width="1" fill-rule="evenodd">        <path d="M7.45793675,11 L16.5066971,11 C16.4580648,9.28926535 16.107877,7.61384675 15.4572754,6 L8.51530754,6 C7.86640352,7.60810427 7.51394659,9.28362995 7.45793675,11 Z M7.45869662,12 C7.51430985,13.6421015 7.83665011,15.3163289 8.4257174,17 L15.4771375,17 C16.094563,15.3210132 16.4354928,13.6467125 16.5009227,12 L7.45869662,12 Z M22.9557034,11 C22.7921619,9.16367563 22.1822813,7.46086299 21.2344997,6 L16.4976168,6 C17.093396,7.61532602 17.4096505,9.2899701 17.4463803,11 L22.9557034,11 Z M23,12 L17.4361571,12 C17.3675519,13.6455754 17.0439403,15.3191933 16.4653226,17 L21.8107597,17 C22.5717164,15.5019593 23,13.8034225 23,12 Z M1.02247668,11 L6.51979753,11 C6.57165159,9.28939328 6.89697753,7.61472164 7.49673592,6 L2.64864324,6 C1.71899323,7.46402916 1.14052851,9.16820834 1.02247668,11 Z M1.00383096,12.0000001 C1.04982226,13.799065 1.50821143,15.4988928 2.28697715,17.000001 L7.4219431,17 C6.87306545,15.3187642 6.57230793,13.6451374 6.52050576,12 L1.00382766,12 Z M8.96140752,5 L15.0117386,5 C14.3326755,3.61060706 13.4235542,2.27259398 12.2851406,1.00357717 C12.1903963,1.0011971 12.0953447,1 12,1 C11.8816527,1 11.7983206,1 11.7085641,1 C10.5608643,2.26395735 9.64514412,3.60342336 8.96140752,5 Z M20.5022197,5 C18.8259563,2.96304571 16.4280814,1.54513742 13.6898222,1.12750217 C14.688793,2.36296012 15.4887174,3.65858761 16.0895925,5 L20.5022197,5 Z M3.36819143,5 L7.90679757,5 C8.51429422,3.64827118 9.32059683,2.34355754 10.326297,1.10065006 C7.5009127,1.49199741 5.04826956,2.92909394 3.36819143,5 Z M8.80656728,18 C9.49320909,19.6672397 10.4405145,21.339324 11.6484836,22.9943395 C11.7651918,22.9981036 11.8823728,23 12,23 C12.0259446,23 12.0518674,22.9999114 12.0777683,22.9997344 C13.3528583,21.3481228 14.3522273,19.6739914 15.0768606,18 L8.80656728,18 Z M21.2344997,18 L16.0912614,18 C15.4279506,19.642277 14.5217779,21.2874646 13.3727432,22.9161811 C16.6751617,22.5096699 19.5125252,20.6541649 21.2344997,18 Z M2.87207031,18 C4.55337442,20.5648423 7.23236984,22.39118 10.3489489,22.8734914 C9.26050118,21.2583281 8.40306247,19.6275413 7.77738752,18 L2.87207031,18 Z M24,12 C24,18.7 18.6,24 12,24 C5.4,24 0,18.4 0,11.7 C0,5.3 5,0.2 11.5,0 C11.7,0 11.8,0 12,0 C18.7,0 24,5.3 24,12 Z" id="Shape"></path>    </g></symbol>
<symbol id="icon-grid-view" viewBox="0 0 21 21">    <g stroke="none" stroke-width="1" fill="none" fill-rule="evenodd">        <path d="M18.5,17.5 L18.5,15.5 L16.5,15.5 L16.5,17.5 L18.5,17.5 Z M19,18.5 L16,18.5 C15.7,18.5 15.5,18.3 15.5,18 L15.5,15 C15.5,14.7 15.7,14.5 16,14.5 L19,14.5 C19.3,14.5 19.5,14.7 19.5,15 L19.5,18 C19.5,18.3 19.3,18.5 19,18.5 Z M4.5,5.5 L4.5,3.5 L2.5,3.5 L2.5,5.5 L4.5,5.5 Z M5,6.5 L2,6.5 C1.7,6.5 1.5,6.3 1.5,6 L1.5,3 C1.5,2.7 1.7,2.5 2,2.5 L5,2.5 C5.3,2.5 5.5,2.7 5.5,3 L5.5,6 C5.5,6.3 5.3,6.5 5,6.5 Z M4.5,11.5 L4.5,9.5 L2.5,9.5 L2.5,11.5 L4.5,11.5 Z M5,12.5 L2,12.5 C1.7,12.5 1.5,12.3 1.5,12 L1.5,9 C1.5,8.7 1.7,8.5 2,8.5 L5,8.5 C5.3,8.5 5.5,8.7 5.5,9 L5.5,12 C5.5,12.3 5.3,12.5 5,12.5 Z M4.5,17.5 L4.5,15.5 L2.5,15.5 L2.5,17.5 L4.5,17.5 Z M5,18.5 L2,18.5 C1.7,18.5 1.5,18.3 1.5,18 L1.5,15 C1.5,14.7 1.7,14.5 2,14.5 L5,14.5 C5.3,14.5 5.5,14.7 5.5,15 L5.5,18 C5.5,18.3 5.3,18.5 5,18.5 Z M11.5,5.5 L11.5,3.5 L9.5,3.5 L9.5,5.5 L11.5,5.5 Z M12,6.5 L9,6.5 C8.7,6.5 8.5,6.3 8.5,6 L8.5,3 C8.5,2.7 8.7,2.5 9,2.5 L12,2.5 C12.3,2.5 12.5,2.7 12.5,3 L12.5,6 C12.5,6.3 12.3,6.5 12,6.5 Z M11.5,11.5 L11.5,9.5 L9.5,9.5 L9.5,11.5 L11.5,11.5 Z M12,12.5 L9,12.5 C8.7,12.5 8.5,12.3 8.5,12 L8.5,9 C8.5,8.7 8.7,8.5 9,8.5 L12,8.5 C12.3,8.5 12.5,8.7 12.5,9 L12.5,12 C12.5,12.3 12.3,12.5 12,12.5 Z M11.5,17.5 L11.5,15.5 L9.5,15.5 L9.5,17.5 L11.5,17.5 Z M12,18.5 L9,18.5 C8.7,18.5 8.5,18.3 8.5,18 L8.5,15 C8.5,14.7 8.7,14.5 9,14.5 L12,14.5 C12.3,14.5 12.5,14.7 12.5,15 L12.5,18 C12.5,18.3 12.3,18.5 12,18.5 Z M18.5,5.5 L18.5,3.5 L16.5,3.5 L16.5,5.5 L18.5,5.5 Z M19,6.5 L16,6.5 C15.7,6.5 15.5,6.3 15.5,6 L15.5,3 C15.5,2.7 15.7,2.5 16,2.5 L19,2.5 C19.3,2.5 19.5,2.7 19.5,3 L19.5,6 C19.5,6.3 19.3,6.5 19,6.5 Z M18.5,11.5 L18.5,9.5 L16.5,9.5 L16.5,11.5 L18.5,11.5 Z M19,12.5 L16,12.5 C15.7,12.5 15.5,12.3 15.5,12 L15.5,9 C15.5,8.7 15.7,8.5 16,8.5 L19,8.5 C19.3,8.5 19.5,8.7 19.5,9 L19.5,12 C19.5,12.3 19.3,12.5 19,12.5 Z" id="Shape"></path>    </g></symbol>
<symbol id="icon-import-export" viewBox="0 0 24 24">    <g stroke="none" stroke-width="1" fill="none" fill-rule="evenodd">        <path d="M11.8063167,4.9 L14.9063167,1.7 L14.9063167,12.5 C14.9063167,12.8 15.1063167,13 15.4063167,13 C15.7063167,13 15.9063167,12.8 15.9063167,12.5 L15.9063167,1.7 L19.0063167,4.8 C19.2063167,5 19.5063167,5 19.7063167,4.8 C19.9063167,4.6 19.9063167,4.3 19.7063167,4.1 L15.7063167,0.1 C15.7063167,0.1 15.6063167,0 15.5063167,0 C15.5063167,3.60822483e-16 15.3063167,3.60822483e-16 15.2063167,3.60822483e-16 C15.1063167,3.60822483e-16 15.1063167,0.1 15.0063167,0.1 C15.0063167,0.1 15.0063167,0.1 15.0063167,0.1 L11.0063167,4.1 C10.8063167,4.3 10.8063167,4.6 11.0063167,4.8 C11.2063167,5 11.6063167,5 11.8063167,4.9 Z M9.00631668,12.9 C9.00631668,12.9 9.00631668,12.9 9.00631668,12.9 C9.10631668,12.9 9.10631668,13 9.20631668,13 C9.30631668,13 9.30631668,13 9.40631668,13 C9.40631668,13 9.40631668,13 9.40631668,13 C9.50631668,13 9.50631668,13 9.60631668,13 C9.70631668,13 9.70631668,12.9 9.80631668,12.9 C9.80631668,12.9 9.80631668,12.9 9.80631668,12.9 L13.8063167,8.9 C14.0063167,8.7 14.0063167,8.4 13.8063167,8.2 C13.6063167,8 13.3063167,8 13.1063167,8.2 L9.90631668,11.3 L9.90631668,0.5 C9.90631668,0.2 9.70631668,0 9.40631668,0 C9.10631668,0 8.90631668,0.2 8.90631668,0.5 L8.90631668,11.3 L5.80631668,8.1 C5.60631668,8 5.20631668,8 5.00631668,8.1 C4.90631668,8.3 4.90631668,8.7 5.00631668,8.9 L9.00631668,12.9 Z M15.9063167,21 L19.9063167,21 C20.2063167,21 20.4063167,20.8 20.4063167,20.5 C20.4063167,20.2 20.2063167,20 19.9063167,20 L15.9063167,20 C15.6063167,20 15.4063167,20.2 15.4063167,20.5 C15.4063167,20.8 15.6063167,21 15.9063167,21 Z M23.9063167,17.5 C23.9063167,17.4 23.9063167,17.4 23.9063167,17.5 C23.9063167,17.4 23.8063167,17.3 23.8063167,17.2 C23.8063167,17.2 23.8063167,17.2 23.8063167,17.2 L18.8063167,11.2 C18.2063167,11.1 18.0063167,11.4 18.2063167,12 L22.4063167,17 L1.50631668,17 L5.70631668,12 C6.00631668,11.2 5.80631668,11 5.10631668,11.2 L0.10631668,17.2 C0.10631668,17.2 0.10631668,17.2 0.10631668,17.2 C0.10631668,17.3 0.00631667954,17.3 0.00631667954,17.4 C0.00631667954,17.4 0.00631667954,17.4 0.00631667954,17.5 C0.00631667954,17.5 0.00631667954,17.5 0.00631667954,17.5 L0.00631667954,21.5 C-0.0936833205,22.9 1.00631668,24 2.40631668,24 L21.4063167,24 C22.8063167,24 23.9063167,22.9 23.9063167,21.5 L23.9063167,17.5 C23.9063167,17.5 23.9063167,17.5 23.9063167,17.5 Z M22.9063167,21.5 C22.9063167,22.3 22.2063167,23 21.4063167,23 L2.40631668,23 C1.60631668,23 0.90631668,22.3 0.90631668,21.5 L0.90631668,18 L22.9063167,18 L22.9063167,21.5 Z" id="Shape"></path>    </g></symbol>
<symbol id="icon-import" viewBox="0 0 24 24">    <g stroke="none" stroke-width="1" fill="none" fill-rule="evenodd">        <path d="M16.175,8.1 L13.075,11.3 L13.075,0.5 C13.075,0.2 12.875,0 12.575,0 C12.275,0 12.075,0.2 12.075,0.5 L12.075,11.3 L8.975,8.2 C8.875,8 8.675,8 8.575,8 C8.475,8 8.275,8 8.175,8.1 C7.975,8.3 7.975,8.6 8.175,8.8 L12.175,12.8 C12.175,12.8 12.275,12.9 12.375,12.9 C12.475,13 12.675,13 12.775,13 C12.875,13 12.875,12.9 12.975,12.9 L16.975,8.9 C17.075,8.7 17.075,8.3 16.975,8.1 C16.875,7.9 16.375,8 16.175,8.1 Z M16,21 L20,21 C20.3,21 20.5,20.8 20.5,20.5 C20.5,20.2 20.3,20 20,20 L16,20 C15.7,20 15.5,20.2 15.5,20.5 C15.5,20.8 15.7,21 16,21 Z M23.9,17.3 L18.9,11.3 C18.8,11.2 18.7,11.1 18.5,11.1 L17.5,11.1 C17.2,11.1 17,11.3 17,11.6 C17,11.9 17.2,12.1 17.5,12.1 L18.3,12.1 L22.5,17.1 L1.6,17.1 L5.8,12.1 L7,12.1 C7.3,12.1 7.5,11.9 7.5,11.6 C7.5,11.3 7.3,11 7,11 L5.5,11 C5.4,11 5.2,11.1 5.1,11.2 L0.1,17.2 C0.1,17.3 0,17.3 0,17.4 C0,17.4 0,17.4 0,17.5 L0,21.5 C3.60822483e-16,22.9 1.1,24 2.5,24 L21.5,24 C22.9,24 24,22.9 24,21.5 L24,17.5 C24,17.4 23.9,17.3 23.9,17.3 Z M23,21.5 C23,22.3 22.3,23 21.5,23 L2.5,23 C1.7,23 1,22.3 1,21.5 L1,18 L23,18 L23,21.5 Z" id="Shape"></path>    </g></symbol>
<symbol id="icon-info" viewBox="0 0 21 21">    <g stroke="none" stroke-width="1" fill-rule="evenodd">        <path d="M9.6,16 L9.6,9 L8.3,9 L8.3,8 L10.1,8 C10.4,8 10.6,8.2 10.6,8.5 L10.6,16 L12.8,16 L12.8,17 L7.4,17 L7.4,16 L9.6,16 Z M9.7,4 C10.2,4 10.6,4.4 10.6,4.9 C10.6,5.4 10.2,5.8 9.7,5.8 C9.2,5.8 8.8,5.4 8.8,4.9 C8.7,4.5 9.1,4 9.7,4 Z M19.4,10.3 C19.4,5.2 15.3,1.1 10.2,1.1 C5.1,1.1 1,5.2 1,10.3 C1,15.4 5.1,19.5 10.2,19.5 C15.2,19.6 19.4,15.4 19.4,10.3 Z M20.4,10.3 C20.4,16 15.8,20.5 10.2,20.5 C4.5,20.5 -1.81188398e-13,15.9 -1.81188398e-13,10.3 C-1.81188398e-13,4.7 4.4,0 10.1,0 C15.8,0 20.4,4.6 20.4,10.3 Z" id="Shape"></path>    </g></symbol>
<symbol id="icon-key" viewBox="0 0 24 24">    <g stroke="none" stroke-width="1" fill-rule="evenodd">        <path d="M2.5,23.7579816 C1.9,23.7579816 1.2,23.5579816 0.7,23.0579816 C0.2,22.5579816 -1.11910481e-13,21.9579816 -1.11910481e-13,21.2579816 C-1.11910481e-13,20.5579816 0.3,19.9579816 0.7,19.4579816 L10.3,9.85798161 C9.1,7.25798161 9.7,4.15798161 11.8,2.05798161 C13.9,-0.0420183911 17.3,-0.642018391 20,0.757981609 C20.1,0.857981609 20.2,0.957981609 20.3,1.15798161 C20.3,1.35798161 20.3,1.45798161 20.2,1.55798161 L17.1,4.75798161 L17.1,6.85798161 L19.1,6.85798161 L22.3,3.65798161 C22.2,3.65798161 22.4,3.55798161 22.5,3.55798161 C22.7,3.55798161 22.8,3.65798161 22.9,3.85798161 C24.3,6.55798161 23.8,9.85798161 21.6,11.9579816 L21.6,11.9579816 C19.5,14.0579816 16.4,14.5579816 13.8,13.3579816 L4.2,22.9579816 C3.8,23.4579816 3.1,23.7579816 2.5,23.7579816 Z M16.7,0.957981609 C15.1,0.957981609 13.6,1.55798161 12.4,2.75798161 C10.5,4.65798161 10.1,7.45798161 11.3,9.75798161 C11.4,9.95798161 11.4,10.1579816 11.2,10.3579816 L1.4,20.1579816 C1.1,20.4579816 1,20.8579816 1,21.2579816 C1,21.6579816 1.2,22.0579816 1.4,22.3579816 C2,22.9579816 3,22.9579816 3.5,22.3579816 L13.3,12.5579816 C13.5,12.3579816 13.7,12.3579816 13.9,12.4579816 C16.2,13.6579816 19,13.1579816 20.9,11.3579816 L20.9,11.3579816 C22.6,9.65798161 23.1,7.15798161 22.3,5.05798161 L19.4,7.65798161 C19.3,7.75798161 19.2,7.75798161 19,7.75798161 L16.4,7.75798161 C16.1,7.75798161 15.9,7.55798161 15.9,7.25798161 L15.9,4.45798161 C15.9,4.35798161 16,4.15798161 16,4.15798161 L18.7,1.35798161 C18.1,1.05798161 17.4,0.957981609 16.7,0.957981609 Z" id="Shape"></path>    </g></symbol>
<symbol id="icon-large-left" viewBox="0 0 21 21">    <g stroke="none" stroke-width="1" fill="none" fill-rule="evenodd">        <path d="M8.79069767,17.6511628 C8.69302326,17.6511628 8.59534884,17.6511628 8.49767442,17.5534884 L0.195348837,10.7162791 C0.0976744186,10.6186047 0,10.5209302 0,10.3255814 C0,10.1302326 0.0976744186,10.0325581 0.195348837,9.93488372 L8.49767442,3.09767442 C8.59534884,3 8.79069767,3 8.98604651,3 C9.18139535,3.09767442 9.27906977,3.29302326 9.27906977,3.48837209 L9.27906977,6.90697674 L20.5116279,6.90697674 C20.8046512,6.90697674 21,7.10232558 21,7.39534884 L21,13.255814 C21,13.5488372 20.8046512,13.744186 20.5116279,13.744186 L9.27906977,13.744186 L9.27906977,17.1627907 C9.27906977,17.3581395 9.18139535,17.5534884 8.98604651,17.6511628 C8.88837209,17.6511628 8.88837209,17.6511628 8.79069767,17.6511628 Z M1.26976744,10.3255814 L8.30232558,16.0883721 L8.30232558,13.255814 C8.30232558,12.9627907 8.49767442,12.7674419 8.79069767,12.7674419 L20.0232558,12.7674419 L20.0232558,7.88372093 L8.79069767,7.88372093 C8.49767442,7.88372093 8.30232558,7.68837209 8.30232558,7.39534884 L8.30232558,4.5627907 L1.26976744,10.3255814 Z" id="Shape"></path>    </g></symbol>
<symbol id="icon-list-view" viewBox="0 0 21 21">    <g stroke="none" stroke-width="1" fill="none" fill-rule="evenodd">        <path d="M4,18 L4,16 L2,16 L2,18 L4,18 Z M4.5,19 L1.5,19 C1.2,19 1,18.7 1,18.5 L1,15.5 C1,15.2 1.2,15 1.5,15 L4.5,15 C4.8,15 5,15.2 5,15.5 L5,18.5 C5,18.7 4.8,19 4.5,19 Z M7.5,4 L18.5,4 C19.2,4 19.2,5 18.5,5 L7.5,5 C6.8,5 6.8,4 7.5,4 Z M4,6 L4,4 L2,4 L2,6 L4,6 Z M4.5,7 L1.5,7 C1.2,7 1,6.7 1,6.5 L1,3.5 C1,3.2 1.2,3 1.5,3 L4.5,3 C4.8,3 5,3.2 5,3.5 L5,6.5 C5,6.7 4.8,7 4.5,7 Z M7.5,10 L18.5,10 C19.2,10 19.2,11 18.5,11 L7.5,11 C6.8,11 6.8,10 7.5,10 Z M4,12 L4,10 L2,10 L2,12 L4,12 Z M4.5,13 L1.5,13 C1.2,13 1,12.7 1,12.5 L1,9.5 C1,9.2 1.2,9 1.5,9 L4.5,9 C4.8,9 5,9.2 5,9.5 L5,12.5 C5,12.7 4.8,13 4.5,13 Z M7.5,16 L18.5,16 C19.2,16 19.2,17 18.5,17 L7.5,17 C6.8,17 6.8,16 7.5,16 Z" id="Shape"></path>    </g></symbol>
<symbol id="icon-logs" viewBox="0 0 24 24">    <g stroke="none" stroke-width="1" fill="none" fill-rule="evenodd">        <path d="M11.5280248,0.00210971502 C11.5456255,0.00071029323 11.56339,6.66133815e-15 11.5812682,6.66133815e-15 C11.7563047,6.66133815e-15 11.8972991,0.0680838923 11.9843897,0.184389741 L16.8368829,5.03688287 C16.8538014,5.05137898 16.869545,5.06712258 16.8840411,5.08404113 L16.9,5.1 C16.9,5.10127305 16.9000162,5.1025623 16.9000482,5.10386735 C16.9634448,5.18724679 16.9988704,5.29579378 16.9988704,5.42205359 C16.9988704,5.43755484 16.9983364,5.4527891 16.9972823,5.46774258 C16.9990305,5.47933731 17,5.49015343 17,5.5 L17,10 L16,10 L16,5.92205359 L11.51331,5.92205359 C11.21331,5.92205359 11.01331,5.72205359 11.01331,5.42205359 L11.01331,1 L1,1 L1,21 L11,21 L11,22 L0.5,22 C0.2,22 0,21.8 0,21.5 L0,0.5 C0,0.2 0.2,0 0.5,0 L11.5,0 C11.5086384,0 11.5180229,0.000746211971 11.5280248,0.00210971502 Z M15.2103247,4.91032471 L12.0812682,1.78126823 L12.0812682,4.88184273 L15.2103247,4.91032471 Z M3.5,7 C3.2,7 3,6.8 3,6.5 C3,6.2 3.2,6 3.5,6 L8,6 C8.3,6 8.5,6.2 8.5,6.5 C8.5,6.8 8.3,7 8,7 L3.5,7 Z M3.5,10 C3.2,10 3,9.8 3,9.5 C3,9.2 3.2,9 3.5,9 L11.5,9 C11.8,9 12,9.2 12,9.5 C12,9.8 11.8,10 11.5,10 L3.5,10 Z M3.5,13 C3.2,13 3,12.8 3,12.5 C3,12.2 3.2,12 3.5,12 L9.5,12 C9.8,12 10,12.2 10,12.5 C10,12.8 9.8,13 9.5,13 L3.5,13 Z M3.5,16 C3.2,16 3,15.8 3,15.5 C3,15.2 3.2,15 3.5,15 L8.5,15 C8.8,15 9,15.2 9,15.5 C9,15.8 8.8,16 8.5,16 L3.5,16 Z M24,17.5 C24,21.1 21.1,24 17.5,24 C13.9,24 11,21.1 11,17.5 C11,13.9 13.9,11 17.5,11 C21.1,11 24,13.9 24,17.5 Z M23,17.5 C23,14.5 20.5,12 17.5,12 C14.5,12 12,14.5 12,17.5 C12,20.5 14.5,23 17.5,23 C20.5,23 23,20.5 23,17.5 Z M18,17 L19.5,17 C19.8,17 20,17.2 20,17.5 C20,17.8 19.8,18 19.5,18 L17.5,18 C17.2,18 17,17.8 17,17.5 L17,14 C17,13.7 17.2,13.5 17.5,13.5 C17.8,13.5 18,13.7 18,14 L18,17 Z" id="Logs"></path>    </g></symbol>
<symbol id="icon-orders" viewBox="0 0 24 24">    <g stroke="none" stroke-width="1" fill-rule="evenodd">        <path d="M3.3,15.38 L8.8,17.78 C9.1,17.972 9.5,17.684 9.5,17.3 L9.5,12.5 C9.5,12.308 9.4,12.116 9.2,12.02 L3.7,9.62 C3.4,9.524 3,9.716 3,10.1 L3,14.9 C3,15.092 3.1,15.284 3.3,15.38 Z M4,10.868 L8.5,12.788 L8.5,16.532 L4,14.612 L4,10.868 Z M24,5.78 C24,5.684 24,5.684 23.9,5.588 C23.9,5.588 23.9,5.588 23.9,5.492 L23.8,5.396 C23.8,5.396 23.8,5.396 23.7,5.396 L23.7,5.396 L12.2,0.5 C12.1,0.5 11.9,0.5 11.8,0.5 L0.3,5.3 L0.3,5.3 C0.3,5.3 0.3,5.3 0.2,5.3 L0.1,5.396 C0.1,5.396 0.1,5.396 0.1,5.492 C0,5.588 0,5.684 0,5.78 L0,5.78 L0,18.26 C0,18.452 0.1,18.644 0.3,18.74 L11.8,23.54 C11.8,23.54 11.8,23.54 11.9,23.54 L12,23.54 L12.1,23.54 C12.1,23.54 12.1,23.54 12.2,23.54 L23.7,18.74 C23.9,18.644 24,18.452 24,18.26 L24,5.78 L24,5.78 Z M12,1.46 L22.2,5.78 L17.6,7.7 L8.3,2.996 L12,1.46 Z M11.5,22.292 L1,17.972 L1,6.548 L11.5,10.964 L11.5,22.292 Z M12,10.1 L1.8,5.78 L7.2,3.476 L16.5,8.18 L12,10.1 Z M23,17.972 L12.5,22.388 L12.5,10.868 L23,6.548 L23,17.972 Z" id="Shape"></path>    </g></symbol>
<symbol id="icon-organization" viewBox="0 0 24 24">    <g stroke="none" stroke-width="1" fill="none" fill-rule="evenodd">        <path d="M7.96359884,12.5249458 C7.96359884,12.824295 8.16394095,13.0238612 8.46445412,13.0238612 L14.4747174,13.0238612 C14.7752306,13.0238612 14.9755727,12.824295 14.9755727,12.5249458 C14.9755727,11.0281996 14.3745463,10.1301518 13.2726647,9.53145336 C13.4730068,9.13232104 13.673349,8.73318872 13.673349,8.3340564 C13.673349,7.13665944 12.6716384,6.13882863 11.4695858,6.13882863 C10.2675331,6.13882863 9.26582255,7.13665944 9.26582255,8.3340564 C9.26582255,8.73318872 9.36599361,9.23210412 9.66650677,9.53145336 C8.56462517,10.0303688 7.96359884,11.0281996 7.96359884,12.5249458 Z M10.6682173,10.1301518 C11.0689015,10.0303688 11.1690726,9.43167028 10.7683884,9.23210412 C10.4678752,9.03253796 10.2675331,8.63340564 10.2675331,8.23427332 C10.2675331,7.53579176 10.7683884,7.03687636 11.4695858,7.03687636 C12.1707831,7.03687636 12.6716384,7.53579176 12.6716384,8.23427332 C12.6716384,8.63340564 12.4712963,9.03253796 12.1707831,9.23210412 C11.87027,9.43167028 11.87027,10.0303688 12.2709542,10.1301518 C13.2726647,10.4295011 13.8736911,11.0281996 13.9738621,12.0260304 L8.96530939,12.0260304 C9.1656515,11.0281996 9.66650677,10.4295011 10.6682173,10.1301518 Z M8.56462517,20.9067245 C8.76496728,20.6073753 8.86513833,20.308026 8.86513833,19.9088937 C8.86513833,18.8112798 7.96359884,18.0130152 6.9618883,18.0130152 C5.8600067,18.0130152 5.05863826,18.9110629 5.05863826,19.9088937 C5.05863826,20.308026 5.15880931,20.6073753 5.35915142,20.9067245 C4.45761193,21.4056399 3.95675666,22.2039046 3.95675666,23.4013015 C3.95675666,23.7006508 4.15709877,23.9002169 4.45761193,23.9002169 L9.46616466,23.9002169 C9.76667783,23.9002169 9.96701993,23.7006508 9.96701993,23.4013015 C9.96701993,22.2039046 9.46616466,21.4056399 8.56462517,20.9067245 Z M4.9584672,22.9023861 C5.05863826,22.2039046 5.45932248,21.8047722 6.26069091,21.505423 C6.66137513,21.4056399 6.76154619,20.8069414 6.36086197,20.6073753 C6.16051986,20.4078091 5.96017775,20.208243 5.96017775,19.8091106 C5.96017775,19.3101952 6.36086197,18.9110629 6.86171724,18.9110629 C7.36257251,18.9110629 7.76325673,19.3101952 7.76325673,19.8091106 C7.76325673,20.1084599 7.56291462,20.4078091 7.36257251,20.6073753 C7.06205935,20.8069414 7.06205935,21.4056399 7.46274357,21.505423 C8.26411201,21.8047722 8.66479622,22.2039046 8.76496728,22.9023861 L4.9584672,22.9023861 Z M2.45419084,12.5249458 C2.15367767,12.5249458 1.95333557,12.7245119 1.95333557,13.0238612 L1.95333557,23.5010846 C1.95333557,23.8004338 2.15367767,24 2.45419084,24 C2.754704,24 2.95504611,23.8004338 2.95504611,23.5010846 L2.95504611,13.0238612 C2.95504611,12.7245119 2.754704,12.5249458 2.45419084,12.5249458 Z M23.7906255,11.626898 L12.2709542,1.14967462 C12.0706121,0.95010846 11.7700989,0.95010846 11.5697568,1.14967462 L0.150256582,11.626898 C-0.0500855273,11.8264642 -0.0500855273,12.1258134 0.150256582,12.3253796 C0.350598691,12.5249458 0.651111855,12.5249458 0.851453964,12.3253796 L11.970441,2.2472885 L23.1895991,12.4251627 C23.3899413,12.6247289 23.6904544,12.6247289 23.8907965,12.4251627 C24.0911386,12.1258134 23.9909676,11.8264642 23.7906255,11.626898 Z M21.4866912,12.5249458 C21.1861781,12.5249458 20.9858359,12.7245119 20.9858359,13.0238612 L20.9858359,23.5010846 C20.9858359,23.8004338 21.1861781,24 21.4866912,24 C21.7872044,24 21.9875465,23.8004338 21.9875465,23.5010846 L21.9875465,13.0238612 C21.9875465,12.7245119 21.7872044,12.5249458 21.4866912,12.5249458 Z M5.96017775,15.5184382 L5.96017775,17.2147505 C5.96017775,17.5140998 6.16051986,17.7136659 6.46103302,17.7136659 C6.76154619,17.7136659 6.9618883,17.5140998 6.9618883,17.2147505 L6.9618883,16.0173536 L15.9772832,16.0173536 L15.9772832,17.2147505 C15.9772832,17.5140998 16.1776253,17.7136659 16.4781385,17.7136659 C16.7786516,17.7136659 16.9789938,17.5140998 16.9789938,17.2147505 L16.9789938,15.5184382 C16.9789938,15.2190889 16.7786516,15.0195228 16.4781385,15.0195228 L11.970441,15.0195228 L11.970441,13.5227766 C11.970441,13.2234273 11.7700989,13.0238612 11.4695858,13.0238612 C11.1690726,13.0238612 10.9687305,13.2234273 10.9687305,13.5227766 L10.9687305,15.0195228 L6.46103302,15.0195228 C6.16051986,15.0195228 5.96017775,15.2190889 5.96017775,15.5184382 Z M17.5800201,20.9067245 C17.7803622,20.6073753 17.8805332,20.308026 17.8805332,19.9088937 C17.8805332,18.8112798 16.9789938,18.0130152 15.9772832,18.0130152 C14.8754016,18.0130152 14.0740332,18.9110629 14.0740332,19.9088937 C14.0740332,20.308026 14.1742042,20.6073753 14.3745463,20.9067245 C13.4730068,21.4056399 12.9721516,22.2039046 12.9721516,23.4013015 C12.9721516,23.7006508 13.1724937,23.9002169 13.4730068,23.9002169 L18.4815596,23.9002169 C18.7820727,23.9002169 18.9824149,23.7006508 18.9824149,23.4013015 C18.9824149,22.2039046 18.4815596,21.4056399 17.5800201,20.9067245 Z M13.9738621,22.9023861 C14.0740332,22.2039046 14.4747174,21.8047722 15.2760858,21.505423 C15.67677,21.4056399 15.7769411,20.8069414 15.3762569,20.6073753 C15.1759148,20.4078091 14.9755727,20.208243 14.9755727,19.8091106 C14.9755727,19.3101952 15.3762569,18.9110629 15.8771122,18.9110629 C16.3779674,18.9110629 16.7786516,19.3101952 16.7786516,19.8091106 C16.7786516,20.1084599 16.5783095,20.4078091 16.3779674,20.6073753 C16.0774543,20.8069414 16.0774543,21.4056399 16.4781385,21.505423 C17.2795069,21.8047722 17.6801911,22.2039046 17.7803622,22.9023861 L13.9738621,22.9023861 Z" id="Shape"></path>    </g></symbol>
<symbol id="icon-outlined" viewBox="0 0 21 21">    <g stroke="none" stroke-width="1" fill="none" fill-rule="evenodd">        <path d="M6.7826087,12.0516851 L16.7563411,2.14525178 C16.9513259,1.95158274 17.2660654,1.95158274 17.4610502,2.14525178 L20.3523545,5.01704665 C20.5492152,5.21257896 20.5492152,5.53101078 20.3523545,5.72654309 L7.1349632,18.8547482 C6.93997848,19.0484173 6.62523891,19.0484173 6.43025419,18.8547482 L0.647645492,13.1111585 C0.450784836,12.9156262 0.450784836,12.5971943 0.647645492,12.401662 L3.53894984,9.52986716 C3.73393456,9.33619812 4.04867413,9.33619812 4.24365886,9.52986716 L6.7826087,12.0516851 Z M7.1349632,13.1111585 C6.93997848,13.3048275 6.62523891,13.3048275 6.43025419,13.1111585 L3.89130435,10.5893406 L1.7095127,12.7564103 L6.7826087,17.7952748 L19.2904873,5.37179487 L17.1086957,3.20472517 L7.1349632,13.1111585 Z" id="Mask"></path>    </g></symbol>
<symbol id="icon-pause" viewBox="0 0 21 21">    <g stroke="none" stroke-width="1" fill="none" fill-rule="evenodd">        <path d="M8.69177777,7.08424444 L7.08424444,7.08424444 L7.08424444,13.9068444 L8.69177777,13.9068444 L8.69177777,7.08424444 Z M9.19177777,14.9068444 L6.58424444,14.9068444 C6.30810206,14.9068444 6.08424444,14.6829868 6.08424444,14.4068444 L6.08424444,6.58424444 C6.08424444,6.30810206 6.30810206,6.08424444 6.58424444,6.08424444 L9.19177777,6.08424444 C9.46792014,6.08424444 9.69177777,6.30810206 9.69177777,6.58424444 L9.69177777,14.4068444 C9.69177777,14.6829868 9.46792014,14.9068444 9.19177777,14.9068444 Z M19.9910889,10.4955444 C19.9910889,5.25097648 15.739857,1 10.4955444,1 C5.25066957,1 1,5.25066957 1,10.4955444 C1,15.7404193 5.25066957,19.9910889 10.4955444,19.9910889 C15.739857,19.9910889 19.9910889,15.7401124 19.9910889,10.4955444 Z M20.9910889,10.4955444 C20.9910889,16.2924106 16.2921283,20.9910889 10.4955444,20.9910889 C4.69838482,20.9910889 5.5067062e-14,16.292704 5.5067062e-14,10.4955444 C5.5067062e-14,4.69838482 4.69838482,5.5067062e-14 10.4955444,5.5067062e-14 C16.2921283,5.5067062e-14 20.9910889,4.69867828 20.9910889,10.4955444 Z M11.7993111,14.9068444 C11.5231687,14.9068444 11.2993111,14.6829868 11.2993111,14.4068444 L11.2993111,6.58424444 C11.2993111,6.30810206 11.5231687,6.08424444 11.7993111,6.08424444 L14.4068444,6.08424444 C14.6829868,6.08424444 14.9068444,6.30810206 14.9068444,6.58424444 L14.9068444,14.4068444 C14.9068444,14.6829868 14.6829868,14.9068444 14.4068444,14.9068444 L11.7993111,14.9068444 Z M13.9068444,13.9068444 L13.9068444,7.08424444 L12.2993111,7.08424444 L12.2993111,13.9068444 L13.9068444,13.9068444 Z" id="Mask"></path>    </g></symbol>
<symbol id="icon-plus" viewBox="0 0 21 21">    <g stroke-width="1" fill="none" fill-rule="evenodd">        <path d="M15.5,10 L11.1,10 L11.1,5.5 C11.1,5.2 10.9,5 10.6,5 C10.3,5 10.1,5.2 10.1,5.5 L10.1,10 L5.5,10 C5.2,10 5,10.3 5,10.5 C5,10.7 5.2,11 5.5,11 L10.1,11 L10.1,15.5 C10.1,15.8 10.3,16 10.6,16 C10.9,16 11.1,15.8 11.1,15.5 L11.1,11 L15.5,11 C15.8,11 16,10.8 16,10.5 C16,10.2 15.8,10 15.5,10 Z" id="Path"></path>    </g></symbol>
<symbol id="icon-price" viewBox="0 0 24 24">    <g stroke="none" stroke-width="1" fill="none" fill-rule="evenodd">        <path d="M11.4163228,14.1704782 C12.2174682,14.968815 13.4191864,14.968815 14.2203319,14.1704782 C14.6209046,13.7713098 15.2217637,13.7713098 15.6223364,14.1704782 C16.0229091,14.5696466 16.0229091,15.1683992 15.6223364,15.5675676 C15.2217637,15.966736 14.6209046,15.966736 14.2203319,15.5675676 L13.5193296,16.2661123 C14.2203319,16.964657 15.2217637,17.0644491 15.922766,16.5654886 L16.3233387,16.964657 L17.024341,16.2661123 L16.7239114,15.966736 C17.2246273,15.1683992 17.1244841,14.1704782 16.4234819,13.5717256 C15.6223364,12.7733888 14.4206182,12.7733888 13.6194728,13.5717256 C13.2189,13.970894 12.6180409,13.970894 12.2174682,13.5717256 C11.8168955,13.1725572 11.8168955,12.5738046 12.2174682,12.1746362 C12.6180409,11.7754678 13.2189,11.7754678 13.6194728,12.1746362 L14.320475,11.4760915 C13.6194728,10.7775468 12.6180409,10.6777547 11.9170387,11.1767152 L11.5164659,10.7775468 L10.8154637,11.4760915 L11.2160364,11.8752599 C10.7153205,12.5738046 10.8154637,13.5717256 11.4163228,14.1704782 Z M23.9342205,14.6694387 L9.31331594,0.1995842 C9.31331594,0.0997920998 9.11302957,0 9.01288639,0 L0.500715911,0 C0.200286364,0 0,0.1995842 0,0.498960499 L0,8.98128898 C0,9.08108108 0.100143182,9.28066528 0.100143182,9.38045738 L14.6209046,23.8503119 C14.821191,24.049896 15.1216205,24.049896 15.3219069,23.8503119 L23.8340773,15.3679834 C24.0343637,15.1683992 24.0343637,14.8690229 23.9342205,14.6694387 Z M15.0214773,22.7525988 L1.00143182,8.78170478 L1.00143182,0.997920998 L8.81260003,0.997920998 L22.8326455,14.968815 L15.0214773,22.7525988 Z M5.50787502,2.99376299 C4.10587047,2.99376299 3.00429546,4.09147609 3.00429546,5.48856549 C3.00429546,6.88565489 4.10587047,7.98336798 5.50787502,7.98336798 C6.90987957,7.98336798 8.01145457,6.88565489 8.01145457,5.48856549 C8.01145457,4.09147609 6.90987957,2.99376299 5.50787502,2.99376299 Z M5.50787502,6.98544699 C4.70672956,6.98544699 4.00572728,6.28690229 4.00572728,5.48856549 C4.00572728,4.69022869 4.70672956,3.99168399 5.50787502,3.99168399 C6.30902047,3.99168399 7.01002275,4.69022869 7.01002275,5.48856549 C7.01002275,6.28690229 6.30902047,6.98544699 5.50787502,6.98544699 Z" id="Shape"></path>    </g></symbol>
<symbol id="icon-print" viewBox="0 0 21 21">    <g stroke="none" stroke-width="1" fill="none" fill-rule="evenodd">        <path d="M16.2329243,5.42208459 C16.1932042,5.43223993 16.1515804,5.4376389 16.1086957,5.4376389 L13.5,5.4376389 C13.2238576,5.4376389 13,5.21378128 13,4.9376389 L13,2 L5.34782609,2 L5.34782609,4.92857143 C5.34782609,5.2047138 5.12396846,5.42857143 4.84782609,5.42857143 C4.57168371,5.42857143 4.34782609,5.2047138 4.34782609,4.92857143 L4.34782609,1.5 C4.34782609,1.22385763 4.57168371,1 4.84782609,1 L13.5434783,1 C13.6748405,1 13.8009261,1.05169579 13.894479,1.14391227 L16.5031747,3.71534085 C16.598503,3.80930737 16.6521739,3.93757342 16.6521739,4.07142857 L16.6521739,4.92857143 C16.6521739,5.17722237 16.47067,5.3834808 16.2329243,5.42208459 Z M15.6521739,4.4376389 L15.6521739,4.28064562 L14,2.65207419 L14,4.4376389 L15.6521739,4.4376389 Z M4.34782609,15.7142857 L2.23913043,15.7142857 C1.0080639,15.7142857 0,14.7206227 0,13.5 L0,8.35714286 C0,7.13652013 1.0080639,6.14285714 2.23913043,6.14285714 L18.7608696,6.14285714 C19.9925438,6.14285714 21,7.13626367 21,8.35714286 L21,13.5 C21,14.7208792 19.9925438,15.7142857 18.7608696,15.7142857 L16.6521739,15.7142857 L16.6521739,19.5 C16.6521739,19.7761424 16.4283163,20 16.1521739,20 L4.84782609,20 C4.57168371,20 4.34782609,19.7761424 4.34782609,19.5 L4.34782609,15.7142857 Z M4.34782609,14.7142857 L4.34782609,12.6428571 C4.34782609,12.3667148 4.57168371,12.1428571 4.84782609,12.1428571 L16.1521739,12.1428571 C16.4283163,12.1428571 16.6521739,12.3667148 16.6521739,12.6428571 L16.6521739,14.7142857 L18.7608696,14.7142857 C19.4433782,14.7142857 20,14.1654264 20,13.5 L20,8.35714286 C20,7.69171643 19.4433782,7.14285714 18.7608696,7.14285714 L2.23913043,7.14285714 C1.55715349,7.14285714 1,7.6920513 1,8.35714286 L1,13.5 C1,14.1650916 1.55715349,14.7142857 2.23913043,14.7142857 L4.34782609,14.7142857 Z M15.6521739,13.1428571 L5.34782609,13.1428571 L5.34782609,19 L15.6521739,19 L15.6521739,13.1428571 Z M3.47826087,9.21428571 C3.47826087,9.0180513 3.31502042,8.85714286 3.10869565,8.85714286 C2.90286393,8.85714286 2.73913043,9.01842584 2.73913043,9.21428571 C2.73913043,9.40966299 2.90324045,9.57142857 3.10869565,9.57142857 C3.31464405,9.57142857 3.47826087,9.41003768 3.47826087,9.21428571 Z M4.47826087,9.21428571 C4.47826087,9.96541182 3.86388585,10.5714286 3.10869565,10.5714286 C2.35415086,10.5714286 1.73913043,9.96519415 1.73913043,9.21428571 C1.73913043,8.46273754 2.35392643,7.85714286 3.10869565,7.85714286 C3.86411001,7.85714286 4.47826087,8.46252013 4.47826087,9.21428571 Z M6.58695652,14.8571429 C6.31081415,14.8571429 6.08695652,14.6332852 6.08695652,14.3571429 C6.08695652,14.0810005 6.31081415,13.8571429 6.58695652,13.8571429 L14.4130435,13.8571429 C14.6891859,13.8571429 14.9130435,14.0810005 14.9130435,14.3571429 C14.9130435,14.6332852 14.6891859,14.8571429 14.4130435,14.8571429 L6.58695652,14.8571429 Z M6.58695652,16.5714286 C6.31081415,16.5714286 6.08695652,16.3475709 6.08695652,16.0714286 C6.08695652,15.7952862 6.31081415,15.5714286 6.58695652,15.5714286 L14.4130435,15.5714286 C14.6891859,15.5714286 14.9130435,15.7952862 14.9130435,16.0714286 C14.9130435,16.3475709 14.6891859,16.5714286 14.4130435,16.5714286 L6.58695652,16.5714286 Z M6.58695652,18.2857143 C6.31081415,18.2857143 6.08695652,18.0618567 6.08695652,17.7857143 C6.08695652,17.5095719 6.31081415,17.2857143 6.58695652,17.2857143 L14.4130435,17.2857143 C14.6891859,17.2857143 14.9130435,17.5095719 14.9130435,17.7857143 C14.9130435,18.0618567 14.6891859,18.2857143 14.4130435,18.2857143 L6.58695652,18.2857143 Z" id="Mask"></path>    </g></symbol>
<symbol id="icon-query" viewBox="0 0 24 24">    <g stroke="none" stroke-width="1" fill="none" fill-rule="evenodd" stroke-linecap="round" stroke-linejoin="round">        <path d="M20.5,10.5 C20.5,16.022 16.023,20.5 10.5,20.5 C4.977,20.5 0.5,16.022 0.5,10.5 C0.5,4.978 4.977,0.5 10.5,0.5 C16.023,0.5 20.5,4.978 20.5,10.5 L20.5,10.5 Z M17.5723,17.5732 L23.5003,23.5002 M15.3789,15.0488 L16.8789,12.4508 L15.3789,11.5858 C15.5339,10.8798 15.5449,10.1698 15.3779,9.4148 L16.8789,8.5488 L15.3789,5.9508 L13.9349,6.8188 C13.4019,6.3318 12.6189,5.9508 12.1189,5.7298 L12.1189,3.9998 L9.1189,3.9998 L9.1189,5.7298 C8.1189,5.9528 7.7169,6.3318 7.1849,6.8198 L5.6499,5.9508 L4.1359,8.5488 L5.6279,9.4148 C5.4729,10.1158 5.4569,10.8248 5.6239,11.5858 L4.1209,12.4508 L5.6209,15.0488 L7.1839,14.1808 C7.7169,14.6698 8.1189,15.0488 9.1189,15.2708 L9.1189,16.9998 L12.1189,16.9998 L12.1189,15.2708 C12.6189,15.0488 13.4019,14.6698 13.9369,14.1808 L15.3789,15.0488 L15.3789,15.0488 Z M12.5,10.5 C12.5,11.604 11.605,12.5 10.5,12.5 C9.396,12.5 8.5,11.604 8.5,10.5 C8.5,9.396 9.396,8.5 10.5,8.5 C11.605,8.5 12.5,9.396 12.5,10.5 L12.5,10.5 Z" id="Stroke-1127" stroke="#333333"></path>    </g></symbol>
<symbol id="icon-reorder" viewBox="0 0 24 24">    <g stroke="none" stroke-width="1" fill="none" fill-rule="evenodd">        <path d="M13.5218727,11.95 C13.5218727,11.15 12.8218727,10.45 12.0218727,10.45 C11.2218727,10.45 10.5218727,11.15 10.5218727,11.95 C10.5218727,12.75 11.2218727,13.45 12.0218727,13.45 C12.8218727,13.45 13.5218727,12.75 13.5218727,11.95 Z M14.5218727,11.95 C14.5218727,13.35 13.4218727,14.45 12.0218727,14.45 C10.6218727,14.45 9.52187272,13.35 9.52187272,11.95 C9.52187272,10.55 10.6218727,9.45 12.0218727,9.45 C13.4218727,9.45 14.5218727,10.55 14.5218727,11.95 Z M12.0218727,1.15 L7.62187272,5.95 L16.3218727,5.95 L12.0218727,1.15 Z M17.5218727,6.95 L6.52187272,6.95 C6.12187272,6.95 5.82187272,6.45 6.12187272,6.15 L11.6218727,0.15 C11.8218727,-0.05 12.1218727,-0.05 12.3218727,0.15 L17.8218727,6.15 C18.2218727,6.45 17.9218727,6.95 17.5218727,6.95 Z M12.0218727,22.75 L16.4218727,17.95 L7.62187272,17.95 L12.0218727,22.75 Z M6.52187272,16.95 L17.5218727,16.95 C17.9218727,16.95 18.2218727,17.45 17.9218727,17.75 L12.4218727,23.75 C12.2218727,23.95 11.9218727,23.95 11.7218727,23.75 L6.22187272,17.75 C5.82187272,17.45 6.12187272,16.95 6.52187272,16.95 Z" id="Reorder"></path>    </g></symbol>
<symbol id="icon-reports" viewBox="0 0 24 24">    <g stroke="none" stroke-width="1" fill="none" fill-rule="evenodd">        <path d="M20.5,24 L3.5,24 C3.2,24 3,23.8 3,23.5 L3,0.5 C3,0.2 3.2,0 3.5,0 L14.5,0 C14.5,0 14.5,0 14.5,0 C14.6,0 14.8,0.1 14.9,0.1 L20.9,6.1 C20.9,6.2 21,6.4 21,6.5 C21,6.5 21,6.5 21,6.5 L21,23.5 C21,23.8 20.8,24 20.5,24 Z M4,23 L20,23 L20,7 L14.5,7 C14.2,7 14,6.8 14,6.5 L14,1 L4,1 L4,23 Z M15,6 L19.3,6 L15,1.7 L15,6 Z M14.5,20 C12.6,20 11,18.4 11,16.5 C11,14.6 12.6,13 14.5,13 C16.4,13 18,14.6 18,16.5 C18,18.4 16.4,20 14.5,20 Z M13,18.5 C13.4,18.8 13.9,19 14.5,19 C15.9,19 17,17.9 17,16.5 C17,15.3 16.1,14.3 15,14 L15,16.5 C15,16.6 14.9,16.8 14.8,16.9 L13,18.5 Z M14,14 C12.9,14.2 12,15.2 12,16.5 C12,17 12.1,17.4 12.3,17.8 L14,16.3 L14,14 Z M9,20 L7,20 C6.7,20 6.5,19.8 6.5,19.5 C6.5,19.2 6.7,19 7,19 L9,19 C9.3,19 9.5,19.2 9.5,19.5 C9.5,19.8 9.3,20 9,20 Z M9,17 L7,17 C6.7,17 6.5,16.8 6.5,16.5 C6.5,16.2 6.7,16 7,16 L9,16 C9.3,16 9.5,16.2 9.5,16.5 C9.5,16.8 9.3,17 9,17 Z M9,14 L7,14 C6.7,14 6.5,13.8 6.5,13.5 C6.5,13.2 6.7,13 7,13 L9,13 C9.3,13 9.5,13.2 9.5,13.5 C9.5,13.8 9.3,14 9,14 Z M16,11 L7,11 C6.7,11 6.5,10.8 6.5,10.5 C6.5,10.2 6.7,10 7,10 L16,10 C16.3,10 16.5,10.2 16.5,10.5 C16.5,10.8 16.3,11 16,11 Z M12,8 L7,8 C6.7,8 6.5,7.8 6.5,7.5 C6.5,7.2 6.7,7 7,7 L12,7 C12.3,7 12.5,7.2 12.5,7.5 C12.5,7.8 12.3,8 12,8 Z" id="Shape"></path>    </g></symbol>
<symbol id="icon-sales-scope" viewBox="0 0 21 21">    <g stroke="none" stroke-width="1" fill-rule="evenodd">        <path d="M13.3694433,16.1 C13.6133508,15.869702 13.904315,15.6924874 14.2232434,15.5922219 L14.344105,15 L4.61961524,15 C4.41961524,15 4.21961524,14.9 4.11961524,14.7 L1.01961524,6.7 C0.919615242,6.3 1.21961524,6 1.51961524,6 L16.1808397,6 L17.1196152,1.4 C17.1196152,1.2 17.4196152,1 17.6196152,1 L20.0196152,1 C20.3196152,1 20.5196152,1.2 20.5196152,1.5 C20.5196152,1.8 20.3196152,2.1 20.0196152,2.1 L18.0196152,2.1 L15.2569156,15.5451383 C16.2530864,15.7536162 17.0196152,16.6618288 17.0196152,17.8 C17.0196152,19 16.0196152,20 14.8196152,20 C13.6196152,20 12.6196152,19 12.6196152,17.8 C12.6196152,17.56 12.6596152,17.324 12.7332152,17.1 L6.91792099,17.1 C6.98391867,17.319477 7.01961524,17.554384 7.01961524,17.8 C7.01961524,19 6.01961524,20 4.81961524,20 C3.61961524,20 2.61961524,19 2.61961524,17.8 C2.61961524,16.6 3.61961524,15.5 4.81961524,15.5 C5.38867799,15.5 5.91276401,15.7248836 6.30655805,16.1 L13.3694433,16.1 Z M14.5481867,14 L15.9767581,7 L2.31961524,7 L5.01961524,14 L14.5481867,14 Z M4.81961524,19 C5.51961524,19 6.01961524,18.4 6.01961524,17.8 C6.01961524,17.1 5.41961524,16.6 4.81961524,16.6 C4.21961524,16.6 3.61961524,17.2 3.61961524,17.8 C3.51961524,18.5 4.11961524,19 4.81961524,19 Z M14.8196152,19 C15.5196152,19 16.0196152,18.4 16.0196152,17.8 C16.0196152,17.1 15.4196152,16.6 14.8196152,16.6 C14.1196152,16.6 13.6196152,17.2 13.6196152,17.8 C13.5196152,18.5 14.1196152,19 14.8196152,19 Z" id="Shape"></path>    </g></symbol>
<symbol id="icon-save" viewBox="0 0 24 24">    <g stroke="none" stroke-width="1" fill="none" fill-rule="evenodd">        <path d="M4,23 L4,20.5 C4,20.3 4.2,20 4.5,20 L19.5,20 C19.8,20 20,20.2 20,20.5 L20,23 L23,23 L23,1 L20,1 L20,5.5 C20,5.8 19.8,6 19.5,6 L4.5,6 C4.2,6 4,5.8 4,5.5 L4,1 L3.7,1 L1,3.7 L1,23 L4,23 Z M23.5,0 C23.8,0 24,0.3 24,0.5 L24,23.5 C24,23.8 23.8,24 23.5,24 L0.5,24 C0.2,24 0,23.8 0,23.5 L0,3.5 C0,3.4 0.1,3.2 0.1,3.1 L3.1,0.1 C3.2,0.1 3.4,0 3.5,0 L23.5,0 Z M19,1 L5,1 L5,5 L19,5 L19,1 Z M19,23 L19,21 L5,21 L5,23 L19,23 Z M16.5,11.5 C16.5,14 14.5,16 12,16 C9.5,16 7.5,14 7.5,11.5 C7.5,9 9.5,7 12,7 C14.5,7 16.5,9 16.5,11.5 Z M15.5,11.5 C15.5,9.6 13.9,8 12,8 C10.1,8 8.5,9.6 8.5,11.5 C8.5,13.4 10.1,15 12,15 C13.9,15 15.5,13.5 15.5,11.5 Z M14.5,19 C14.2,19 14,18.8 14,18.5 C14,18.2 14.2,18 14.5,18 L19.5,18 C19.8,18 20,18.2 20,18.5 C20,18.8 19.8,19 19.5,19 L14.5,19 Z M10,10.5 C10,10.2 10.2,10 10.5,10 C10.8,10 11,10.2 11,10.5 L11,12.5 C11,12.8 10.8,13 10.5,13 C10.2,13 10,12.8 10,12.5 L10,10.5 Z M13,11.5 C13,12.1 12.6,12.5 12,12.5 C11.4,12.5 11,12.1 11,11.5 C11,10.9 11.4,10.5 12,10.5 C12.6,10.5 13,11 13,11.5 Z" id="Save"></path>    </g></symbol>
<symbol id="icon-search" viewBox="0 0 21 21">    <g stroke="none" stroke-width="1" fill-rule="evenodd">        <path d="M1,7.167 C1,3.767 3.766,1 7.166,1 C10.566,1 13.333,3.767 13.333,7.167 C13.333,10.567 10.566,13.334 7.166,13.334 C3.766,13.334 1,10.567 1,7.167 M20.021,19.314 L12.568,11.862 C13.664,10.603 14.333,8.963 14.333,7.167 C14.333,3.215 11.118,0 7.166,0 C3.215,0 0,3.215 0,7.167 C0,11.119 3.215,14.334 7.166,14.334 C8.963,14.334 10.603,13.665 11.861,12.569 L19.313,20.021 C19.411,20.119 19.539,20.167 19.667,20.167 C19.795,20.167 19.923,20.119 20.021,20.021 C20.216,19.826 20.216,19.509 20.021,19.314" id="Mask"></path>    </g></symbol>
<symbol id="icon-shipment-status" viewBox="0 0 21 21">    <g stroke="none" stroke-width="1" fill="none" fill-rule="evenodd">        <path d="M20.1249565,14.4368396 C20.1249565,11.296421 17.5783866,8.74959976 14.4377166,8.74959976 C11.2970467,8.74959976 8.7504768,11.296421 8.7504768,14.4368396 C8.7504768,17.5783845 11.296423,20.1240795 14.4377166,20.1240795 C17.5790103,20.1240795 20.1249565,17.5783845 20.1249565,14.4368396 Z M20.9999165,14.4368396 C20.9999165,18.0616308 18.062218,20.9990394 14.4377166,20.9990394 C10.8132153,20.9990394 7.87551683,18.0616308 7.87551683,14.4368396 C7.87551683,10.8132132 10.8138003,7.87463979 14.4377166,7.87463979 C18.0616329,7.87463979 20.9999165,10.8132132 20.9999165,14.4368396 Z M0.875837016,13.1243996 L5.68811689,13.1243996 C5.92973041,13.1243996 6.12559687,13.3202661 6.12559687,13.5618796 C6.12559687,13.8034932 5.92973041,13.9993596 5.68811689,13.9993596 L0.438357028,13.9993596 C0.196743502,13.9993596 0.000877039998,13.8034932 0.000877039998,13.5618796 L0.000877039998,3.93731989 C0.000877039998,3.69570637 0.196743502,3.4998399 0.438357028,3.4998399 L12.6877967,3.4998399 C12.9294102,3.4998399 13.1252767,3.69570637 13.1252767,3.93731989 L13.1252767,5.68723985 C13.1252767,5.92885337 12.9294102,6.12471983 12.6877967,6.12471983 C12.4461832,6.12471983 12.2503167,5.92885337 12.2503167,5.68723985 L12.2503167,4.37479988 L0.875837016,4.37479988 L0.875837016,13.1243996 Z M9.00674665,0.874959976 L4.11940708,0.874959976 L1.49452715,3.4998399 L11.6316266,3.4998399 L9.00674665,0.874959976 Z M12.6877967,4.37479988 L0.438357028,4.37479988 C0.0486039847,4.37479988 -0.146585058,3.90357185 0.129011962,3.62797483 L3.62885187,0.128134922 C3.71089528,0.0460915093 3.82217003,3.73034936e-14 3.93819693,3.73034936e-14 L9.18795679,3.73034936e-14 C9.3039837,3.73034936e-14 9.41525844,0.0460915093 9.49730186,0.128134922 L12.9971418,3.62797483 C13.2727388,3.90357185 13.0775497,4.37479988 12.6877967,4.37479988 Z M14.8751966,15.3117996 C14.8751966,15.5534131 14.6793302,15.7492796 14.4377166,15.7492796 C14.1961031,15.7492796 14.0002367,15.5534131 14.0002367,15.3117996 L14.0002367,10.9369997 C14.0002367,10.6953862 14.1961031,10.4995197 14.4377166,10.4995197 C14.6793302,10.4995197 14.8751966,10.6953862 14.8751966,10.9369997 L14.8751966,15.3117996 Z M14.4377166,16.6242395 C14.1962277,16.6242395 14.0002367,16.8202306 14.0002367,17.0617195 C14.0002367,17.3032085 14.1962277,17.4991995 14.4377166,17.4991995 C14.6792056,17.4991995 14.8751966,17.3032085 14.8751966,17.0617195 C14.8751966,16.8202306 14.6792056,16.6242395 14.4377166,16.6242395 M6.12559687,0.437479988 C6.12559687,0.195866462 6.32146334,3.73034936e-14 6.56307686,3.73034936e-14 C6.80469039,3.73034936e-14 7.00055685,0.195866462 7.00055685,0.437479988 L7.00055685,3.93731989 C7.00055685,4.17893342 6.80469039,4.37479988 6.56307686,4.37479988 C6.32146334,4.37479988 6.12559687,4.17893342 6.12559687,3.93731989 L6.12559687,0.437479988 Z" id="Mask"></path>    </g></symbol>
<symbol id="icon-stop" viewBox="0 0 21 21">    <g stroke="none" stroke-width="1" fill="none" fill-rule="evenodd">        <path d="M19.99,10.495 C19.99,5.25149729 15.7382357,1 10.495,1 C5.25058867,1 1,5.2508556 1,10.495 C1,15.7391444 5.25058867,19.99 10.495,19.99 C15.7382357,19.99 19.99,15.7385027 19.99,10.495 Z M20.99,10.495 C20.99,16.2908015 16.2905064,20.99 10.495,20.99 C4.69828987,20.99 -1.08357767e-13,16.2914151 -1.08357767e-13,10.495 C-1.08357767e-13,4.69858491 4.69828987,-4.4408921e-14 10.495,-4.4408921e-14 C16.2905064,-4.4408921e-14 20.99,4.69919848 20.99,10.495 Z M13.6253774,10.5989473 L16.194556,13.1673993 C16.3898653,13.3626534 16.3898877,13.6792744 16.194606,13.8745561 L13.8561351,16.213027 C13.6608534,16.4083087 13.3442324,16.4082863 13.1489783,16.212977 L10.5805263,13.6437984 L8.01207431,16.212977 C7.81682026,16.4082863 7.5001992,16.4083087 7.30491753,16.213027 L4.96644661,13.8745561 C4.77116494,13.6792744 4.77118733,13.3626534 4.96649661,13.1673993 L7.5356752,10.5989473 L4.96649661,8.03049531 C4.77118733,7.83524126 4.77116494,7.5186202 4.96644661,7.32333853 L7.30491753,4.98486761 C7.5001992,4.78958594 7.81682026,4.78960833 8.01207431,4.98491761 L10.5805263,7.5540962 L13.1489783,4.98491761 C13.3442324,4.78960833 13.6608534,4.78958594 13.8561351,4.98486761 L16.194606,7.32333853 C16.3898877,7.5186202 16.3898653,7.83524126 16.194556,8.03049531 L13.6253774,10.5989473 Z M12.5275105,10.9525509 C12.3321816,10.7572773 12.3321816,10.4406177 12.5275105,10.2453441 L15.0967391,7.67684213 L13.4654749,6.045578 L10.8969729,8.6148066 C10.7016993,8.81013542 10.3850397,8.81013542 10.1897661,8.6148066 L7.62126413,6.045578 L5.99,7.67684213 L8.5592286,10.2453441 C8.75455742,10.4406177 8.75455742,10.7572773 8.5592286,10.9525509 L5.99,13.5210529 L7.62126413,15.1523171 L10.1897661,12.5830885 C10.3850397,12.3877596 10.7016993,12.3877596 10.8969729,12.5830885 L13.4654749,15.1523171 L15.0967391,13.5210529 L12.5275105,10.9525509 Z" id="Mask"></path>    </g></symbol>
<symbol id="icon-stores" viewBox="0 0 24 24">    <g stroke="none" stroke-width="1" fill-rule="evenodd">        <path d="M24,6.3 C23.9,6.3 23.9,6.3 24,6.3 L22,2.3 C21.9,2.1 21.7,2 21.5,2 L2.5,2 C2.3,2 2.1,2.1 2.1,2.3 L0.1,6.3 C0.1,6.3 0.1,6.3 0.1,6.3 C0,6.4 0,6.4 0,6.5 L0,7.5 C0,8.9 0.8,10.1 2,10.7 L2,22.6 C2,22.8 2.2,23 2.5,23 L21.5,23 C21.8,23 22,22.8 22,22.5 L22,10.7 C23.2,10.1 24,8.9 24,7.5 L24,6.5 C24,6.4 24,6.4 24,6.3 Z M21.2,3 L22.7,6 L18.9,6 L18.1,3 L21.2,3 Z M12.5,3 L17.1,3 L17.9,6 L12.5,6 L12.5,3 L12.5,3 Z M12.5,7 L18,7 L18,9.3 C17.3,10.3 16.1,11 15,11 C14,11 13.2,10.6 12.5,9.9 L12.5,7 Z M6.9,3 L11.5,3 L11.5,6 L6.1,6 L6.9,3 Z M6,7 L11.5,7 L11.5,9.9 C10.8,10.6 10,11 9,11 C7.9,11 6.7,10.3 6,9.3 L6,7 Z M2.8,3 L5.9,3 L5.1,6 L1.3,6 L2.8,3 Z M2.7,9.8 C1.7,9.5 1,8.6 1,7.5 L1,7 L5,7 L5,9.3 C4.5,9.8 4,10 3.5,10 C3.2,10 3,9.9 2.7,9.8 C2.7,9.9 2.7,9.8 2.7,9.8 Z M19,22 L15,22 L15,14 L19,14 L19,22 Z M21,22 L20,22 L20,13.5 C20,13.2 19.8,13 19.5,13 L14.5,13 C14.2,13 14,13.2 14,13.5 L14,22 L3,22 L3,10.9 C3.2,11 3.3,11 3.5,11 C4.2,11 4.8,10.7 5.4,10.2 C6.3,11.3 7.6,12 9,12 C10.1,12 11.2,11.6 12,10.8 C12.8,11.5 13.9,12 15,12 C16.4,12 17.7,11.3 18.6,10.2 C19.2,10.7 19.8,11 20.5,11 C20.7,11 20.8,11 21,10.9 L21,22 Z M23,7.5 C23,8.9 21.9,10 20.5,10 C20,10 19.5,9.8 19,9.3 L19,7 L23,7 L23,7.5 Z M17.5,19 C17.8,19 18,18.8 18,18.5 C18,18.2 17.8,18 17.5,18 C17.2,18 17,18.2 17,18.5 C17,18.8 17.2,19 17.5,19 Z M12.5,13 L4.5,13 C4.2,13 4,13.2 4,13.5 L4,19.5 C4,19.8 4.2,20 4.5,20 L12.5,20 C12.8,20 13,19.8 13,19.5 L13,13.5 C13,13.2 12.8,13 12.5,13 Z M12,19 L5,19 L5,14 L12,14 L12,19 Z" id="Shape"></path>    </g></symbol>
<symbol id="icon-tree-view" viewBox="0 0 21 21">    <g stroke="none" stroke-width="1" fill="none" fill-rule="evenodd">        <path d="M1,5 L11,5 L11,3 L1,3 L1,5 Z M10.001,19 L20.001,19 L20.001,17 L10.001,17 L10.001,19 Z M10.001,12 L20.001,12 L20.001,10 L10.001,10 L10.001,12 Z M9.501,13 L20.501,13 C20.777,13 21.001,12.776 21.001,12.5 L21.001,9.5 C21.001,9.224 20.777,9 20.501,9 L9.501,9 C9.225,9 9.001,9.224 9.001,9.5 L9.001,10 L5.997,10 L5.997,6 L11.5,6 C11.776,6 12,5.776 12,5.5 L12,2.5 C12,2.224 11.776,2 11.5,2 L0.5,2 C0.224,2 0,2.224 0,2.5 L0,5.5 C0,5.776 0.224,6 0.5,6 L4.997,6 L4.997,17.477 C4.997,17.753 5.221,17.977 5.497,17.977 L9.001,17.977 L9.001,19.5 C9.001,19.776 9.225,20 9.501,20 L20.501,20 C20.777,20 21.001,19.776 21.001,19.5 L21.001,16.5 C21.001,16.224 20.777,16 20.501,16 L9.501,16 C9.225,16 9.001,16.224 9.001,16.5 L9.001,16.977 L5.997,16.977 L5.997,11 L9.001,11 L9.001,12.5 C9.001,12.776 9.225,13 9.501,13 L9.501,13 Z" id="Mask"></path>    </g></symbol>
<symbol id="icon-view" viewBox="0 0 24 24">    <g stroke="none" stroke-width="1" fill="none" fill-rule="evenodd">        <path d="M21.275,11.9 C20.675,11.2 19.875,10.5 19.075,9.9 C16.775,8.1 14.375,7 11.975,7 C9.575,7 7.175,8.1 4.875,9.9 C4.075,10.5 3.275,11.2 2.675,11.9 C2.475,12.1 2.275,12.3 2.175,12.4 C2.275,12.6 2.475,12.8 2.675,13 C3.275,13.7 4.075,14.4 4.875,15 C7.175,16.8 9.575,17.9 11.975,17.9 C14.375,17.9 16.775,16.8 19.075,15 C19.875,14.4 20.575,13.7 21.275,13 C21.475,12.8 21.675,12.6 21.775,12.4 C21.675,12.3 21.475,12.1 21.275,11.9 Z M22.875,12.7 C22.875,12.8 22.775,12.8 22.675,13 C22.475,13.2 22.275,13.5 21.975,13.7 C21.275,14.4 20.475,15.1 19.675,15.8 C17.175,17.7 14.575,18.9 11.975,18.9 C9.375,18.9 6.675,17.7 4.275,15.8 C3.375,15.1 2.575,14.4 1.975,13.7 C1.675,13.5 1.475,13.2 1.275,13 C1.175,12.9 1.075,12.8 1.075,12.7 C0.975,12.5 0.975,12.3 1.075,12.1 C1.075,12 1.175,12 1.275,11.8 C1.475,11.6 1.675,11.4 1.975,11.2 C2.575,10.5 3.375,9.7 4.275,9.1 C6.775,7.2 9.375,6 11.975,6 C14.575,6 17.275,7.2 19.675,9.1 C20.575,9.8 21.275,10.5 21.975,11.2 C22.175,11.4 22.375,11.7 22.575,11.9 C22.675,12 22.775,12.1 22.775,12.2 C22.975,12.3 22.975,12.6 22.875,12.7 Z M15.175,12.4 C15.175,10.7 13.775,9.2 11.975,9.2 C10.175,9.2 8.775,10.7 8.775,12.4 C8.775,14.1 10.175,15.6 11.975,15.6 C13.775,15.6 15.175,14.2 15.175,12.4 Z M16.175,12.4 C16.175,14.7 14.275,16.6 11.975,16.6 C9.675,16.6 7.775,14.7 7.775,12.4 C7.775,10.1 9.675,8.2 11.975,8.2 C14.275,8.2 16.175,10.1 16.175,12.4 Z M11.975,11.1 C11.675,11.1 11.475,10.9 11.475,10.6 C11.475,10.3 11.675,10.1 11.975,10.1 C13.275,10.1 14.275,11.1 14.275,12.4 C14.275,13.7 13.275,14.7 11.975,14.7 C10.675,14.7 9.675,13.7 9.675,12.4 C9.675,12.1 9.875,11.9 10.175,11.9 C10.475,11.9 10.675,12.1 10.675,12.4 C10.675,13.1 11.275,13.7 11.975,13.7 C12.675,13.7 13.275,13.1 13.275,12.4 C13.275,11.7 12.675,11.1 11.975,11.1 Z" id="Shape"></path>    </g></symbol>
<symbol id="icon-virtual-scope" viewBox="0 0 24 24">    <g stroke="none" stroke-width="1" fill-rule="evenodd">        <path d="M9.7,4 L23.5,4 C23.8,4 24,4.2 24,4.5 L24,21.5 C24,21.8 23.8,22 23.5,22 L0.5,22 C0.2,22 0,21.8 0,21.5 L0,2.5 C0,2.2 0.2,2 0.5,2 L7.5,2 C7.6,2 7.8,2.1 7.9,2.1 L9.7,4 Z M23,5 L9.5,5 C9.4,5 9.2,4.9 9.1,4.9 L7.3,3 L1,3 L1,21 L23,21 L23,5 Z" id="Folder"></path>    </g></symbol>
<symbol id="icon-warehouse" viewBox="0 0 24 24">    <g stroke="none" stroke-width="1" fill-rule="evenodd">        <path d="M23.2,5.5 L12.7,2 C12.6,2 12.5,2 12.4,2 L0.9,5.5 C0.6,5.6 0.5,5.8 0.5,6 L0.5,8.5 C0.5,8.8 0.7,9 1,9 L2.5,9 L2.5,22.5 C2.5,22.8 2.7,23 3,23 C3.3,23 3.5,22.8 3.5,22.5 L3.5,9 L20.5,9 L20.5,22.5 C20.5,22.8 20.7,23 21,23 C21.3,23 21.5,22.8 21.5,22.5 L21.5,9 L23,9 C23.3,9 23.5,8.8 23.5,8.5 L23.5,6 C23.5,5.8 23.4,5.6 23.2,5.5 Z M22.5,8 L21.2,8 L21,8 L3.2,8 C3.2,8 3.1,8 3.1,8 C3.1,8 3,8 3,8 L1.5,8 L1.5,6.4 L12.5,3 L22.5,6.3 L22.5,8 Z M19,16 C19.3,16 19.5,16.2 19.5,16.5 L19.5,22.5 C19.5,22.8 19.3,23 19,23 L12,23 L5,23 C4.7,23 4.5,22.8 4.5,22.5 L4.5,16.5 C4.5,16.2 4.7,16 5,16 L7,16 L7.5,16 L7.5,10.5 C7.5,10.2 7.7,10 8,10 L10,10 L13,10 L15,10 C15.3,10 15.5,10.2 15.5,10.5 L15.5,16 L17,16 L19,16 Z M14.5,17 L14.5,19 L16.5,19 L16.5,17 L15,17 L14.5,17 Z M12.5,11 L10.5,11 L10.5,13 L12.5,13 L12.5,11 Z M8.5,11 L8.5,16 L10,16 L12,16 L14,16 L14.5,16 L14.5,11 L13.5,11 L13.5,13.5 C13.5,13.8 13.3,14 13,14 L10,14 C9.7,14 9.5,13.8 9.5,13.5 L9.5,11 L8.5,11 Z M8,17 L7.5,17 L7.5,19 L9.5,19 L9.5,17 L8,17 Z M5.5,17 L5.5,22 L11.5,22 L11.5,17 L10.5,17 L10.5,19.5 C10.5,19.8 10.3,20 10,20 L7,20 C6.7,20 6.5,19.8 6.5,19.5 L6.5,17 L5.5,17 Z M18.5,22 L18.5,17 L17.5,17 L17.5,19.5 C17.5,19.8 17.3,20 17,20 L14,20 C13.7,20 13.5,19.8 13.5,19.5 L13.5,17 L12.5,17 L12.5,22 L18.5,22 Z" id="Shape"></path>    </g></symbol>
<symbol id="icon-warning" viewBox="0 0 21 21">    <g stroke="none" stroke-width="1" fill-rule="evenodd">        <path d="M10.4955926,18.3313774 C10.0128096,18.3313774 9.62220266,17.9407704 9.62220266,17.4589001 C9.62220266,16.9779424 10.0128096,16.5855102 10.4955926,16.5855102 C10.9765502,16.5855102 11.3680699,16.9779424 11.3680699,17.4589001 C11.3680699,17.9407704 10.9765502,18.3313774 10.4955926,18.3313774 L10.4955926,18.3313774 Z M10.039276,7.41993558 C10.039276,7.16804883 10.2437058,6.96361901 10.4955926,6.96361901 C10.7465667,6.96361901 10.9519091,7.16804883 10.9519091,7.41993558 L10.9519091,14.4034044 C10.9519091,14.6552911 10.7465667,14.8597209 10.4955926,14.8597209 C10.2437058,14.8597209 10.039276,14.6552911 10.039276,14.4034044 L10.039276,7.41993558 Z M20.9050862,20.2369554 L10.9035396,0.232036976 C10.748392,-0.0773456585 10.2418806,-0.0773456585 10.0876456,0.232036976 L0.048681033,20.309966 C-0.0225043518,20.4514242 -0.0152032867,20.6193487 0.0678463289,20.7535057 C0.150895945,20.8885754 0.29782988,20.9707124 0.456628046,20.9707124 L20.5345571,20.9707124 L20.5436834,20.9707124 C20.7946575,20.9707124 21,20.7662826 21,20.5143959 C21,20.409443 20.9644073,20.3136166 20.9050862,20.2369554 L20.9050862,20.2369554 Z" id="Mask"></path>    </g></symbol>
<symbol id="icon-youtube" viewBox="0 0 24 24">    <g stroke="none" stroke-width="1" fill="none" fill-rule="evenodd">        <g id="Group" transform="translate(0.000000, 4.000000)">            <path d="M23.52,2.48 C23.2,1.52 22.4,0.72 21.36,0.48 C19.52,0 12,0 12,0 C12,0 4.48,0 2.64,0.48 C1.6,0.72 0.8,1.52 0.48,2.48 C0,4.32 0,8 0,8 C0,8 0,11.68 0.48,13.52 C0.8,14.48 1.6,15.28 2.64,15.52 C4.48,16 12,16 12,16 C12,16 19.52,16 21.36,15.52 C22.4,15.28 23.2,14.48 23.52,13.52 C24,11.68 24,8 24,8 C24,8 24,4.32 23.52,2.48" id="Fill-1"></path>            <polygon id="Fill-4" fill="#FFFFFF" points="9.6 12 16 8.4 9.6 4.8"></polygon>        </g>    </g></symbol>
</svg>