<svg xmlns="http://www.w3.org/2000/svg" xmlns:xlink="http://www.w3.org/1999/xlink" width="827" height="225" fill="none"><g fill="#fff"><path d="M197.66 176.36c4 0 7.08 2.99 7.08 7.65s-3.08 7.75-7.08 7.75c-2.72 0-4.65-1.47-5.58-2.99v9.82h-2.48v-21.98h2.48v2.75c.9-1.58 2.86-2.99 5.58-2.99v-.01zm-.52 2.15c-2.69 0-5.06 2.07-5.06 5.52s2.37 5.55 5.06 5.55 5.06-2.07 5.06-5.58-2.31-5.5-5.06-5.5v.01zm16.27 13.25c-4.22 0-7.43-2.99-7.43-7.73s3.32-7.67 7.54-7.67 7.54 2.97 7.54 7.67-3.4 7.73-7.65 7.73h0zm0-2.18c2.58 0 5.11-1.77 5.11-5.55s-2.48-5.52-5.03-5.52-4.98 1.77-4.98 5.52 2.31 5.55 4.9 5.55h0zm8.05-12.98h2.53l3.43 12.52 3.7-12.52h2.53l3.62 12.54 3.37-12.54h2.45l-4.65 14.91h-2.56l-3.59-11.84-3.59 11.84h-2.56l-4.68-14.91h0zm29.44 15.16c-4.24 0-7.37-2.99-7.37-7.73s3.02-7.67 7.37-7.67 7.16 3.05 7.16 7.13c0 .54-.03.98-.08 1.5h-11.92c.19 3.02 2.31 4.68 4.84 4.68 2.23 0 3.65-1.14 4.19-2.75h2.67c-.76 2.72-3.16 4.84-6.86 4.84h0zm-4.82-8.79h9.41c.03-2.91-2.15-4.52-4.71-4.52-2.42 0-4.44 1.61-4.71 4.52h.01zm16.63 8.54h-2.48V176.6h2.48v2.42c.84-1.66 2.45-2.69 4.82-2.69v2.56h-.65c-2.37 0-4.16 1.06-4.16 4.52v8.11l-.01-.01zm13.03.25c-4.24 0-7.37-2.99-7.37-7.73s3.02-7.67 7.37-7.67 7.16 3.05 7.16 7.13c0 .54-.03.98-.08 1.5H270.9c.19 3.02 2.31 4.68 4.84 4.68 2.23 0 3.65-1.14 4.19-2.75h2.67c-.76 2.72-3.16 4.84-6.86 4.84h0zm-4.82-8.79h9.41c.03-2.91-2.15-4.52-4.71-4.52-2.42 0-4.44 1.61-4.71 4.52h.01zm20.33-6.61c2.34 0 4.49 1.2 5.52 2.91v-7.89h2.5v20.13h-2.5v-2.8c-.9 1.66-2.83 3.05-5.55 3.05-4 0-7.07-3.13-7.07-7.75s3.07-7.65 7.1-7.65zm.46 2.15c-2.72 0-5.03 1.99-5.03 5.5s2.31 5.58 5.03 5.58 5.06-2.04 5.06-5.55-2.34-5.52-5.06-5.52v-.01zm24.9-2.15c4.03 0 7.08 2.99 7.08 7.65s-3.08 7.75-7.08 7.75c-2.72 0-4.65-1.36-5.58-2.99v2.75h-2.48v-20.13h2.48v8c.95-1.66 2.94-3.02 5.58-3.02v-.01zm-.52 2.15c-2.69 0-5.06 2.07-5.06 5.52s2.37 5.55 5.06 5.55 5.06-2.07 5.06-5.58-2.31-5.5-5.06-5.5v.01zm20.06-1.91h2.56l-8.98 21.93h-2.56l2.94-7.18-6.01-14.75h2.75l4.68 12.08 4.63-12.08h-.01z"/><use xlink:href="#B"/><use xlink:href="#C"/><path d="M212.3 218.13c-4.22 0-7.43-2.99-7.43-7.73s3.32-7.67 7.54-7.67 7.54 2.97 7.54 7.67-3.4 7.73-7.65 7.73h0zm0-2.18c2.59 0 5.12-1.77 5.12-5.55s-2.48-5.52-5.03-5.52-4.98 1.77-4.98 5.52 2.31 5.55 4.9 5.55h-.01z"/><use xlink:href="#B" x="42.69"/><path d="M252.65 217.88h-2.48v-2.2c-.95 1.55-2.78 2.42-4.76 2.42-3.43 0-6.12-2.12-6.12-6.39v-8.73h2.45v8.41c0 3.02 1.66 4.57 4.16 4.57s4.27-1.58 4.27-4.79v-8.19h2.48v14.91-.01zm3.1-20.13h2.48v20.14h-2.48v-20.14h0zm10.88 20.38c-3.48 0-5.93-1.9-6.1-4.63h2.56c.14 1.44 1.42 2.53 3.51 2.53 1.96 0 3.05-.98 3.05-2.2 0-3.32-8.82-1.39-8.82-6.94 0-2.29 2.15-4.16 5.47-4.16s5.47 1.77 5.63 4.68h-2.48c-.11-1.5-1.25-2.58-3.24-2.58-1.82 0-2.91.87-2.91 2.07 0 3.54 8.65 1.61 8.76 6.94 0 2.45-2.15 4.3-5.44 4.3l.01-.01zm14.28 0c-4.24 0-7.37-2.99-7.37-7.73s3.02-7.67 7.37-7.67 7.16 3.05 7.16 7.13c0 .54-.03.98-.08 1.5h-11.92c.19 3.02 2.31 4.68 4.84 4.68 2.23 0 3.65-1.14 4.19-2.75h2.67c-.76 2.72-3.16 4.84-6.86 4.84h0zm-4.82-8.79h9.41c.03-2.91-2.15-4.52-4.71-4.52-2.42 0-4.44 1.61-4.71 4.52h.01zm7.37-12.73v2.15l-5.8 3.1v-1.85l5.8-3.4z"/><use xlink:href="#B" x="117"/><path d="M319.88 202.73c2.78 0 4.68 1.42 5.55 2.97v-2.72h2.5v14.91h-2.5v-2.77c-.9 1.6-2.83 3.02-5.58 3.02-3.97 0-7.05-3.13-7.05-7.75s3.07-7.65 7.07-7.65l.01-.01zm.49 2.15c-2.72 0-5.03 1.99-5.03 5.5s2.31 5.58 5.03 5.58 5.06-2.04 5.06-5.55-2.34-5.52-5.06-5.52v-.01z"/><use xlink:href="#C" x="134.3"/><use xlink:href="#D"/><path d="M432.11 183.78c4.43 0 8.68 2.06 10.99 5.22v-15.96h8.62v44.91h-8.62v-4.98c-2 3.1-5.77 5.52-11.05 5.52-8.56 0-15.36-6.98-15.36-17.48s6.8-17.24 15.42-17.24v.01zm2.12 7.47c-4.55 0-8.86 3.4-8.86 9.77s4.31 10.02 8.86 10.02 8.92-3.52 8.92-9.89-4.25-9.89-8.92-9.89v-.01zm24.28.06h-3.82v-6.98h3.82v-1.7c0-8.25 4.67-12.08 14.14-11.83v7.16c-4.13-.12-5.52 1.21-5.52 4.98v1.4h5.89v6.98h-5.89v26.64h-8.62v-26.64-.01z"/><use xlink:href="#E"/><path d="M537.17 218.5c-9.71 0-17.06-6.8-17.06-17.36s7.59-17.36 17.3-17.36 17.3 6.74 17.3 17.36-7.77 17.36-17.54 17.36zm0-7.4c4.49 0 8.8-3.28 8.8-9.95s-4.19-9.95-8.68-9.95-8.56 3.22-8.56 9.95 3.88 9.95 8.44 9.95h0z"/><use xlink:href="#D" x="200.84"/><use xlink:href="#D" x="262.02"/><use xlink:href="#F"/><path d="M724.41 217.95h-8.5v-33.62h8.5v5.22c2.12-3.46 5.64-5.71 10.32-5.71v8.92h-2.25c-5.04 0-8.07 1.94-8.07 8.44v16.75h0z"/><use xlink:href="#E" x="249.89"/><use xlink:href="#F" x="91.23"/><path d="M0 113.57C0 87 20.5 68.14 48.54 68.14S96.92 87 96.92 113.57 76.58 159 48.54 159 0 140.14 0 113.57zm71.01 0c0-15.25-9.68-24.44-22.47-24.44s-22.63 9.18-22.63 24.44 9.84 24.44 22.63 24.44 22.47-9.18 22.47-24.44z"/><use xlink:href="#G"/><path d="M168.43 113.57c0-26.57 20.5-45.43 49.2-45.43 18.53 0 33.13 8.04 39.52 22.47l-19.84 10.66c-4.76-8.36-11.81-12.14-19.84-12.14-12.96 0-23.12 9.02-23.12 24.44s10.17 24.44 23.12 24.44c8.04 0 15.09-3.61 19.84-12.14l19.84 10.82c-6.4 14.1-20.99 22.3-39.52 22.3-28.7 0-49.2-18.86-49.2-45.43v.01zm136.61 9.51l-12.3 12.14v22.47h-25.58V36h25.58v68.88l37.39-35.42h30.5l-36.74 37.39 40.02 50.84h-31l-27.88-34.6.01-.01zm148.42-2.29h-66.75c2.46 10.99 11.81 17.71 25.26 17.71 9.35 0 16.07-2.79 22.14-8.53l13.61 14.76c-8.2 9.35-20.5 14.27-36.41 14.27-30.5 0-50.35-19.19-50.35-45.43s20.17-45.43 47.07-45.43 45.92 17.38 45.92 45.76c0 1.97-.33 4.76-.49 6.89h0zm-67.08-14.92h43.46c-1.8-11.15-10.17-18.37-21.65-18.37s-20.01 7.05-21.81 18.37zm72 43.62l8.53-18.37c7.87 5.08 19.84 8.53 30.67 8.53 11.81 0 16.24-3.12 16.24-8.04 0-14.43-53.3.33-53.3-34.93 0-16.73 15.09-28.54 40.84-28.54 12.14 0 25.58 2.79 33.95 7.71l-8.53 18.2c-8.69-4.92-17.38-6.56-25.42-6.56-11.48 0-16.4 3.61-16.4 8.2 0 15.09 53.3.49 53.3 35.26 0 16.4-15.25 28.04-41.66 28.04-14.92 0-30.01-4.1-38.21-9.51l-.01.01zm148.42 3.93c-5.25 3.77-12.96 5.58-20.83 5.58-20.83 0-32.96-10.66-32.96-31.65V91.1H539.4V71.42h13.61V49.94h25.58v21.48h21.98V91.1h-21.98v35.92c0 7.54 4.1 11.64 10.99 11.64 3.77 0 7.54-1.15 10.33-3.28l6.89 18.04h0z"/><use xlink:href="#G" x="507.25"/><path d="M760.63 107.34v50.35h-23.94V146.7c-4.76 8.04-13.94 12.3-26.9 12.3-20.66 0-32.96-11.48-32.96-26.73s10.99-26.4 37.88-26.4h20.34c0-10.99-6.56-17.38-20.34-17.38-9.35 0-19.02 3.12-25.42 8.2l-9.18-17.88c9.68-6.89 23.94-10.66 38.05-10.66 26.9 0 42.48 12.46 42.48 39.2l-.01-.01zm-25.58 22.47v-9.02H717.5c-11.97 0-15.74 4.43-15.74 10.33 0 6.4 5.41 10.66 14.43 10.66 8.53 0 15.91-3.94 18.86-11.97zm91.033-49.17h-37.668c0-23.473-19.105-42.577-42.578-42.577V.394c44.245 0 80.246 36.001 80.246 80.246h0z"/></g><defs ><path id="B" d="M187.48 202.73c4 0 7.08 2.99 7.08 7.65s-3.08 7.75-7.08 7.75c-2.72 0-4.65-1.47-5.58-2.99v9.82h-2.48v-21.99h2.48v2.75c.9-1.58 2.86-2.99 5.58-2.99h0zm-.52 2.15c-2.69 0-5.06 2.07-5.06 5.52s2.37 5.55 5.06 5.55 5.06-2.07 5.06-5.58-2.31-5.5-5.06-5.5v.01z"/><path id="C" d="M199.21 217.88h-2.48v-14.91h2.48v2.42c.84-1.66 2.45-2.69 4.82-2.69v2.56h-.65c-2.37 0-4.16 1.06-4.16 4.52v8.11l-.01-.01z"/><path id="D" d="M404.73 199.38c0-5.34-2.97-8.13-7.47-8.13s-7.53 2.79-7.53 8.13v18.57h-8.5v-18.57c0-5.34-2.97-8.13-7.47-8.13s-7.59 2.79-7.59 8.13v18.57h-8.5v-33.62h8.5v4.07c2.12-2.79 5.7-4.55 9.89-4.55 5.22 0 9.53 2.25 11.84 6.43 2.19-3.82 6.62-6.43 11.53-6.43 8.07 0 13.78 5.1 13.78 14.39v19.73h-8.5V199.4l.02-.02z"/><path id="E" d="M502.57 183.78c8.38 0 14.02 4.37 15.84 11.9h-9.16c-.97-2.85-3.22-4.67-6.74-4.67-4.73 0-7.89 3.58-7.89 10.14s3.16 10.08 7.89 10.08c3.52 0 5.7-1.58 6.74-4.61h9.16c-1.82 7.16-7.47 11.9-15.84 11.9-9.71 0-16.63-6.8-16.63-17.36s6.92-17.36 16.63-17.36v-.02z"/><path id="F" d="M695.58 218.5c-9.77 0-16.87-6.8-16.87-17.36s6.92-17.36 16.87-17.36 16.57 6.62 16.57 16.63c0 1.09-.06 2.18-.24 3.28h-24.58c.43 4.98 3.82 7.77 8.07 7.77 3.64 0 5.65-1.82 6.74-4.07h9.16c-1.82 6.19-7.41 11.11-15.72 11.11zm-8.19-20.51h15.96c-.12-4.43-3.64-7.22-8.01-7.22-4.07 0-7.28 2.61-7.95 7.22z"/><path id="G" d="M164.66 68.14v23.62l-5.74-.33c-14.1 0-23.45 7.71-23.45 24.6v41.66h-25.58V69.46h24.44V81.1c6.23-8.53 16.73-12.96 30.34-12.96h-.01z"/></defs></svg>