<?xml version="1.0" encoding="UTF-8"?>
<svg width="21px" height="21px" viewBox="0 0 21 21" version="1.1" xmlns="http://www.w3.org/2000/svg" xmlns:xlink="http://www.w3.org/1999/xlink">
    <!-- Generator: Sketch 53.2 (72643) - https://sketchapp.com -->
    <title>Assets / Icons / Analytics / Address Book</title>
    <desc>Created with Sketch.</desc>
    <g id="Assets-/-Icons-/-Analytics-/-Address-Book" stroke="none" stroke-width="1" fill="none" fill-rule="evenodd">
        <path d="M1.5,18 L1,18 C0.723857625,18 0.5,17.7761424 0.5,17.5 C0.5,17.2238576 0.723857625,17 1,17 L1.5,17 L1.5,16 L1,16 C0.723857625,16 0.5,15.7761424 0.5,15.5 C0.5,15.2238576 0.723857625,15 1,15 L1.5,15 L1.5,13 L1,13 C0.723857625,13 0.5,12.7761424 0.5,12.5 C0.5,12.2238576 0.723857625,12 1,12 L1.5,12 L1.5,10 L1,10 C0.723857625,10 0.5,9.77614237 0.5,9.5 C0.5,9.22385763 0.723857625,9 1,9 L1.5,9 L1.5,7 L1,7 C0.723857625,7 0.5,6.77614237 0.5,6.5 C0.5,6.22385763 0.723857625,6 1,6 L1.5,6 L1.5,2.23913083 C1.5,0.993342853 2.57888071,0 3.88888889,0 L19,0 C19.2761424,0 19.5,0.223857625 19.5,0.5 C19.5,0.776142375 19.2761424,1 19,1 L3.88888889,1 C3.11356373,1 2.5,1.56491802 2.5,2.23913043 C2.5,2.91334285 3.11356373,3.47826087 3.88888889,3.47826087 L19,3.47826087 C19.2761424,3.47826087 19.5,3.70211849 19.5,3.97826087 L19.5,20.5 C19.5,20.7761424 19.2761424,21 19,21 L3.88888889,21 C2.57888071,21 1.5,20.0066571 1.5,18.7608696 L1.5,18 Z M2.5,18 L2.5,18.7608696 C2.5,19.435082 3.11356373,20 3.88888889,20 L18.5,20 L18.5,4.47826087 L3.88888889,4.47826087 C3.37276835,4.47826087 2.89252396,4.32407185 2.5,4.06100338 L2.5,6 L3,6 C3.27614237,6 3.5,6.22385763 3.5,6.5 C3.5,6.77614237 3.27614237,7 3,7 L2.5,7 L2.5,9 L3,9 C3.27614237,9 3.5,9.22385763 3.5,9.5 C3.5,9.77614237 3.27614237,10 3,10 L2.5,10 L2.5,12 L3,12 C3.27614237,12 3.5,12.2238576 3.5,12.5 C3.5,12.7761424 3.27614237,13 3,13 L2.5,13 L2.5,15 L3,15 C3.27614237,15 3.5,15.2238576 3.5,15.5 C3.5,15.7761424 3.27614237,16 3,16 L2.5,16 L2.5,17 L3,17 C3.27614237,17 3.5,17.2238576 3.5,17.5 C3.5,17.7761424 3.27614237,18 3,18 L2.5,18 Z M4,2.5 C3.72385763,2.5 3.5,2.27614237 3.5,2 C3.5,1.72385763 3.72385763,1.5 4,1.5 L18,1.5 C18.2761424,1.5 18.5,1.72385763 18.5,2 C18.5,2.27614237 18.2761424,2.5 18,2.5 L4,2.5 Z M13,15.5 L14,15.5 L14,11.5 L8,11.5 L8,15.5 L9,15.5 L9,14.125 C9,13.1915 9.922,12.5 11,12.5 C12.078,12.5 13,13.1915 13,14.125 L13,15.5 Z M14.5,10.5 C14.7761424,10.5 15,10.7238576 15,11 L15,16 C15,16.2761424 14.7761424,16.5 14.5,16.5 L7.5,16.5 C7.22385763,16.5 7,16.2761424 7,16 L7,11 C7,10.7238576 7.22385763,10.5 7.5,10.5 L14.5,10.5 Z M12,15.5 L12,14.125 C12,13.8165 11.578,13.5 11,13.5 C10.422,13.5 10,13.8165 10,14.125 L10,15.5 L12,15.5 Z M10.6876525,6.6095656 C10.8702618,6.46347813 11.1297382,6.46347813 11.3123475,6.6095656 L16.3123475,10.6095656 C16.6814164,10.9048207 16.4726388,11.5 16,11.5 L6,11.5 C5.52736118,11.5 5.31858357,10.9048207 5.68765248,10.6095656 L10.6876525,6.6095656 Z M7.42539053,10.5 L14.5746095,10.5 L11,7.64031242 L7.42539053,10.5 Z" id="Mask" fill="#333333"></path>
    </g>
</svg>