<svg xmlns="http://www.w3.org/2000/svg" width="21" height="21" viewBox="0 0 21 21">
  <path fill="#333" fill-rule="evenodd" d="M18.7,15.2084392 C17.8,15.2084392 17.1,14.5084392 17.1,13.6084392 L17.1,9.80843918 C17.1,7.20843918 15.5,4.90843918 13.1,3.90843918 C12.8,2.80843918 11.8,2.00843918 10.6,2.00843918 C9.4,1.90843918 8.4,2.70843918 8.1,3.80843918 C5.7,4.80843918 4.1,7.10843918 4.1,9.70843918 L4.1,13.5084392 C4.1,14.4084392 3.4,15.1084392 2.5,15.1084392 C2.2,15.1084392 2,15.3084392 2,15.6084392 C2,15.9084392 2.2,16.1084392 2.5,16.1084392 L8.1,16.1084392 C8.3,17.3084392 9.4,18.2084392 10.7,18.2084392 C12,18.2084392 13,17.3084392 13.3,16.1084392 L18.9,16.1084392 C19.2,16.1084392 19.4,15.9084392 19.4,15.6084392 C19.4,15.3084392 19,15.2084392 18.7,15.2084392 Z M10.6,17.3084392 C9.9,17.3084392 9.3,16.8084392 9.1,16.2084392 L12.1,16.2084392 C11.9,16.8084392 11.3,17.3084392 10.6,17.3084392 Z M4.5,15.2084392 C4.8,14.8084392 5.1,14.2084392 5.1,13.6084392 L5.1,9.80843918 C5.1,7.60843918 6.5,5.50843918 8.7,4.70843918 C8.9,4.60843918 9,4.50843918 9,4.30843918 C9.1,3.50843918 9.8,2.90843918 10.6,2.90843918 C11.4,2.90843918 12.1,3.50843918 12.2,4.20843918 C12.2,4.40843918 12.4,4.50843918 12.5,4.60843918 C14.7,5.50843918 16.1,7.50843918 16.1,9.80843918 L16.1,13.6084392 C16.1,14.2084392 16.3,14.7084392 16.7,15.2084392 L4.5,15.2084392 Z"/>
</svg>
