<svg width="24" height="24" viewBox="0 0 24 24" fill="none" xmlns="http://www.w3.org/2000/svg">
<path d="M8.82461 1.82549C10.1058 -0.266436 16.745 0.102661 17.2707 2.73115C17.3651 3.20416 17.3491 3.73725 17.2435 4.32776C17.1535 4.83087 17.003 5.35511 16.7984 5.92777C16.7838 5.96865 16.7665 6.01583 16.7473 6.06736L16.5448 6.59625L16.3939 6.97254L16.4524 7.0375C17.0807 7.80363 16.9527 9.32697 16.3209 9.84659L16.3075 9.85542L16.2902 10.0505C16.2115 10.7068 15.9806 11.2924 15.6377 11.8045L15.504 11.9931C15.329 12.2263 15.153 12.4161 14.9928 12.5636L14.879 12.6625V14.9703L17.9343 16.1065L18.4879 16.3222L18.9835 16.5228L19.4334 16.7135L19.9126 16.9291C21.3054 17.5782 22.1374 18.1871 22.5093 18.9304C22.9265 19.7648 23.2028 20.6623 23.3659 21.5727C23.4706 22.1573 23.5135 22.6511 23.5196 23.0068L23.5201 23.0343C23.523 23.3015 23.3072 23.5198 23.04 23.5198H0.959996C0.692752 23.5198 0.476969 23.3015 0.479903 23.0343L0.485334 22.8442C0.500024 22.5082 0.544336 22.0738 0.634094 21.5727C0.797141 20.6623 1.07347 19.7648 1.49061 18.9305C1.88523 18.1408 2.7997 17.5026 4.35478 16.8068L4.56626 16.7135L5.01612 16.5228L5.51183 16.3222L6.06542 16.1065L6.68893 15.8705L9.12 14.9713V12.6625L9.0072 12.5636C8.88705 12.453 8.75797 12.3186 8.62714 12.1599L8.496 11.9931C8.07951 11.4378 7.7983 10.7888 7.70981 10.0505L7.69152 9.85542L7.58814 9.76134C7.03637 9.17653 6.95069 7.76533 7.54757 7.0375L7.62048 6.95526L7.4041 6.22315L7.30936 5.86844C7.21621 5.49937 7.14676 5.15484 7.10295 4.8213C6.88657 3.17364 7.36428 2.0315 8.7936 1.88166L8.82461 1.82549ZM16.3293 2.91921C15.9716 1.13069 9.96839 0.930586 9.58567 2.46149L9.55935 2.53846C9.48381 2.7103 9.31272 2.82507 9.12 2.82507C8.173 2.82507 7.88735 3.42143 8.05478 4.6963C8.10302 5.06366 8.189 5.4572 8.30941 5.89599L8.55273 6.74735L8.60494 6.95379L8.6357 7.10211L8.64 7.14507C8.64 7.32688 8.53728 7.49309 8.37466 7.5744L8.3068 7.61864C8.13643 7.7585 8.0524 8.07013 8.09706 8.47207C8.12019 8.68026 8.17737 8.8796 8.24836 9.01612L8.25907 9.038C8.26647 9.05575 8.26287 9.06195 8.23868 9.06406L8.16 9.06507C8.42509 9.06507 8.64 9.27998 8.64 9.54507C8.64 10.2743 8.87304 10.8958 9.264 11.4171C9.49786 11.7289 9.72827 11.9337 9.86625 12.0257C9.99979 12.1147 10.08 12.2646 10.08 12.4251V15.3051C10.08 15.5051 9.95588 15.6842 9.76854 15.7545L6.70987 16.8883L5.87129 17.2124L5.16434 17.5015L4.74686 17.6831C3.38316 18.2933 2.614 18.83 2.34932 19.3597C1.97674 20.1049 1.72694 20.9163 1.57906 21.7419C1.52476 22.0451 1.48892 22.3198 1.46688 22.5591H22.5322C22.5165 22.379 22.4923 22.1801 22.4582 21.9638L22.4209 21.7419C22.273 20.9163 22.0232 20.1049 21.6507 19.3598C21.3856 18.8301 20.6163 18.2933 19.2527 17.6831C19.1191 17.6233 18.9806 17.5631 18.8353 17.5014L18.3767 17.3118L17.8654 17.109L17.2899 16.8883L14.2314 15.7545C14.0441 15.6842 13.92 15.5051 13.92 15.3051V12.4251C13.92 12.2646 14.0002 12.1147 14.1337 12.0257C14.2717 11.9337 14.5021 11.7289 14.736 11.4171C15.1269 10.8958 15.36 10.2743 15.36 9.54507C15.36 9.27998 15.5749 9.06507 15.84 9.06507L15.7613 9.06406C15.729 9.06124 15.7334 9.05117 15.7516 9.01612L15.7924 8.9271C15.8441 8.79951 15.8844 8.63862 15.9029 8.47207C15.9532 8.01988 15.8405 7.68201 15.6253 7.5744L15.5492 7.52699C15.4313 7.43726 15.36 7.29658 15.36 7.14507C15.36 7.10812 15.3809 7.02557 15.4145 6.9169L15.4961 6.67047L15.5966 6.38899L15.8856 5.62739L16.0011 5.29464C16.1349 4.88899 16.235 4.51346 16.2985 4.1587C16.3847 3.67697 16.3972 3.25937 16.3293 2.91921ZM11.9942 9.77959C12.2553 9.77959 12.4685 9.99175 12.4685 10.2538C12.4685 10.5159 12.2553 10.7281 11.9942 10.7281C11.7321 10.7281 11.52 10.5159 11.52 10.2538C11.52 9.99175 11.7321 9.77959 11.9942 9.77959ZM11.9938 4.32006C13.045 4.32006 13.8975 5.17221 13.8975 6.22278C13.8975 7.08228 13.3269 7.8084 12.5436 8.04404L12.4733 8.06214L12.4738 9.06822C12.4738 9.30386 12.304 9.49985 12.0801 9.54049L11.9938 9.54822C11.7582 9.54822 11.5622 9.37842 11.5216 9.1545L11.5138 9.06822V7.64454C11.5138 7.4089 11.6836 7.21292 11.9076 7.17228L11.9938 7.16454C12.5152 7.16454 12.9375 6.74278 12.9375 6.22278C12.9375 5.7025 12.5149 5.28006 11.9938 5.28006C11.4736 5.28006 11.0511 5.7026 11.0511 6.22278C11.0511 6.48788 10.8362 6.70278 10.5711 6.70278C10.306 6.70278 10.0911 6.48788 10.0911 6.22278C10.0911 5.17241 10.9435 4.32006 11.9938 4.32006Z" fill="#333333"/>
</svg>
