<?xml version="1.0" encoding="UTF-8"?>
<svg width="24px" height="24px" viewBox="0 0 24 24" version="1.1" xmlns="http://www.w3.org/2000/svg" xmlns:xlink="http://www.w3.org/1999/xlink">
    <!-- Generator: Sketch 53.2 (72643) - https://sketchapp.com -->
    <title>Assets / Icons / App List</title>
    <desc>Created with Sketch.</desc>
    <g id="Assets-/-Icons-/-App-List" stroke="none" stroke-width="1" fill="none" fill-rule="evenodd">
        <path d="M21,18 C22.7,18 24,19.3 24,21 C24,22.7 22.7,24 21,24 C19.3,24 18,22.7 18,21 C18,19.3 19.3,18 21,18 Z M3,0 C4.7,0 6,1.3 6,3 C6,4.7 4.7,6 3,6 C1.3,6 0,4.7 0,3 C0,1.3 1.3,0 3,0 Z M12,0 C13.7,0 15,1.3 15,3 C15,4.7 13.7,6 12,6 C10.3,6 9,4.7 9,3 C9,1.3 10.3,0 12,0 Z M21,0 C22.7,0 24,1.3 24,3 C24,4.7 22.7,6 21,6 C19.3,6 18,4.7 18,3 C18,1.3 19.3,0 21,0 Z M3,9 C4.7,9 6,10.3 6,12 C6,13.7 4.7,15 3,15 C1.3,15 0,13.7 0,12 C0,10.3 1.3,9 3,9 Z M12,9 C13.7,9 15,10.3 15,12 C15,13.7 13.7,15 12,15 C10.3,15 9,13.7 9,12 C9,10.3 10.3,9 12,9 Z M21,9 C22.7,9 24,10.3 24,12 C24,13.7 22.7,15 21,15 C19.3,15 18,13.7 18,12 C18,10.3 19.3,9 21,9 Z M3,18 C4.7,18 6,19.3 6,21 C6,22.7 4.7,24 3,24 C1.3,24 0,22.7 0,21 C0,19.3 1.3,18 3,18 Z M12,18 C13.7,18 15,19.3 15,21 C15,22.7 13.7,24 12,24 C10.3,24 9,22.7 9,21 C9,19.3 10.3,18 12,18 Z" id="Fill-18" fill="#333333"></path>
    </g>
</svg>