<svg xmlns="http://www.w3.org/2000/svg" width="24" height="24" viewBox="0 0 24 24">
<path fill="#333" fill-rule="evenodd" d="M23.5,3 C23.7761424,3 24,3.22385763 24,3.5 L24,3.5 L24,8.5 C24,8.77614237 23.7761424,9 23.5,9 L23.5,9 L23,9 L23,21.5 C23,21.7454599 22.8231248,21.9496084 22.5898756,21.9919443 L22.5,22 L1.5,22 C1.22385763,22 1,21.7761424 1,21.5 L1,21.5 L1,9 L0.5,9 C0.254540111,9 0.0503916296,8.82312484 0.00805566941,8.58987563 L0,8.5 L0,3.5 C0,3.22385763 0.223857625,3 0.5,3 L0.5,3 Z M22,9 L2,9 L2,21 L22,21 L22,9 Z M15.5,11 C15.7761424,11 16,11.2238576 16,11.5 L16,11.5 L16,13.5 C16,13.7761424 15.7761424,14 15.5,14 L15.5,14 L8.5,14 C8.22385763,14 8,13.7761424 8,13.5 L8,13.5 L8,11.5 C8,11.2238576 8.22385763,11 8.5,11 L8.5,11 Z M15,12 L9,12 L9,13 L15,13 L15,12 Z M23,4 L1,4 L1,8 L23,8 L23,4 Z"/>
</svg>