<svg xmlns="http://www.w3.org/2000/svg" width="24" height="24" viewBox="0 0 24 24">
  <path fill="#333" fill-rule="evenodd" d="M19.029584,12.2809247 C18.8628775,7.00658018 15.2326659,3.19258875 10.3067022,3.00670333 C5.40670221,2.80670333 1.20670221,6.70670333 1.00670221,11.7067033 C0.806702206,16.7067033 4.70670221,20.8067033 9.70670221,21.0067033 C10.0067022,21.0067033 10.2067022,21.2067033 10.2067022,21.5067033 C10.2067022,21.8067033 10.0067022,22.0067033 9.70670221,22.0067033 C4.10670221,21.8067033 -0.193297794,17.1067033 0.00670220616,11.6067033 C0.206702206,6.10670333 4.80670221,1.80670333 10.4067022,2.00670333 C15.6758018,2.18839642 19.7069373,6.24904408 20.0258834,11.7893978 L22.1067022,8.70670333 C22.3067022,8.50670333 22.6067022,8.40670333 22.8067022,8.60670333 C23.0067022,8.70670333 23.1067022,9.00670333 22.9067022,9.30670333 L19.9067022,13.8067033 C19.7067022,14.1067033 19.3067022,14.1067033 19.1067022,13.9067033 L15.6067022,9.90670333 C15.4067022,9.70670333 15.4067022,9.40670333 15.6067022,9.20670333 C15.8067022,9.00670333 16.1067022,9.00670333 16.3067022,9.20670333 L19.029584,12.2809247 Z"/>
</svg>
