<svg xmlns="http://www.w3.org/2000/svg" width="24" height="24" viewBox="0 0 24 24">
  <path fill="#333" fill-rule="evenodd" d="M3.01423325,11.8990153 C3.28597065,6.30267924 7.33544142,2.18959261 12.6392305,2.00670333 C18.2392305,1.80670333 22.8392305,6.10670333 23.0392305,11.6067033 C23.2392305,17.1067033 18.9392305,21.8067033 13.4392305,22.0067033 C13.1392305,22.0067033 12.9392305,21.8067033 12.9392305,21.5067033 C12.9392305,21.2067033 13.1392305,21.0067033 13.4392305,21.0067033 C18.4392305,20.8067033 22.2392305,16.6067033 22.1392305,11.7067033 C21.9392305,6.70670333 17.7392305,2.90670333 12.8392305,3.00670333 C7.8577734,3.19120174 4.23790285,6.94986482 4.02070459,12.1631035 L6.63923048,9.20670333 C6.83923048,9.00670333 7.13923048,9.00670333 7.33923048,9.20670333 C7.53923048,9.40670333 7.53923048,9.70670333 7.33923048,9.90670333 L3.83923048,13.9067033 C3.63923048,14.1067033 3.23923048,14.1067033 3.03923048,13.8067033 L0.0392304845,9.30670333 C-0.0607695155,9.00670333 0.0392304845,8.70670333 0.239230485,8.60670333 C0.439230485,8.50670333 0.739230485,8.50670333 0.939230485,8.70670333 L3.01423325,11.8990153 Z"/>
</svg>
