<svg xmlns="http://www.w3.org/2000/svg" width="21" height="21" viewBox="0 0 21 21">
  <path fill="#333" fill-rule="evenodd" d="M8.79069767,17.6511628 C8.69302326,17.6511628 8.59534884,17.6511628 8.49767442,17.5534884 L0.195348837,10.7162791 C0.0976744186,10.6186047 0,10.5209302 0,10.3255814 C0,10.1302326 0.0976744186,10.0325581 0.195348837,9.93488372 L8.49767442,3.09767442 C8.59534884,3 8.79069767,3 8.98604651,3 C9.18139535,3.09767442 9.27906977,3.29302326 9.27906977,3.48837209 L9.27906977,6.90697674 L20.5116279,6.90697674 C20.8046512,6.90697674 21,7.10232558 21,7.39534884 L21,13.255814 C21,13.5488372 20.8046512,13.744186 20.5116279,13.744186 L9.27906977,13.744186 L9.27906977,17.1627907 C9.27906977,17.3581395 9.18139535,17.5534884 8.98604651,17.6511628 C8.88837209,17.6511628 8.88837209,17.6511628 8.79069767,17.6511628 Z M1.26976744,10.3255814 L8.30232558,16.0883721 L8.30232558,13.255814 C8.30232558,12.9627907 8.49767442,12.7674419 8.79069767,12.7674419 L20.0232558,12.7674419 L20.0232558,7.88372093 L8.79069767,7.88372093 C8.49767442,7.88372093 8.30232558,7.68837209 8.30232558,7.39534884 L8.30232558,4.5627907 L1.26976744,10.3255814 Z"/>
</svg>
