<svg xmlns="http://www.w3.org/2000/svg" width="21" height="21" viewBox="0 0 21 21">
  <path fill="#333" fill-rule="evenodd" d="M16,16 L17.5,16 C17.8,16 18,16.2 18,16.5 C18,16.8 17.8,17 17.5,17 L16,17 L16,18.5 C16,18.8 15.8,19 15.5,19 C15.2,19 15,18.8 15,18.5 L15,17 L11,17 L11,18.5 C11,18.8 10.8,19 10.5,19 C10.2,19 10,18.8 10,18.5 L10,17 L6,17 L6,18.5 C6,18.8 5.8,19 5.5,19 C5.2,19 5,18.8 5,18.5 L5,17 L3,17 C2.7,17 2.5,16.8 2.5,16.5 C2.5,16.2 2.7,16 3,16 L5,16 L5,14 L3,14 C2.7,14 2.5,13.8 2.5,13.5 C2.5,13.2 2.7,13 3,13 L5,13 L5,11 L3,11 C2.7,11 2.5,10.8 2.5,10.5 C2.5,10.2 2.7,10 3,10 L5,10 L5,8.5 C5,8.2 5.2,8 5.5,8 C5.8,8 6,8.2 6,8.5 L6,10 L10,10 L10,8.5 C10,8.2 10.2,8 10.5,8 C10.8,8 11,8.2 11,8.5 L11,10 L15,10 L15,8.5 C15,8.2 15.2,8 15.5,8 C15.8,8 16,8.2 16,8.5 L16,10 L17.5,10 C17.8,10 18,10.2 18,10.5 C18,10.8 17.8,11 17.5,11 L16,11 L16,13 L17.5,13 C17.8,13 18,13.2 18,13.5 C18,13.8 17.8,14 17.5,14 L16,14 L16,16 Z M15,16 L15,14 L11,14 L11,16 L15,16 Z M10,16 L10,14 L6,14 L6,16 L10,16 Z M6,13 L10,13 L10,11 L6,11 L6,13 Z M11,13 L15,13 L15,11 L11,11 L11,13 Z M2,6 L19,6 L19,3 L17,3 L17,4.5 C17,4.8 16.8,5 16.5,5 L13.5,5 C13.2,5 13,4.8 13,4.5 L13,3 L8,3 L8,4.5 C8,4.8 7.8,5 7.5,5 L4.5,5 C4.2,5 4,4.8 4,4.5 L4,3 L2,3 L2,6 Z M2,7 L2,20 L19,20 L19,7 L2,7 Z M8,2 L13,2 L13,1.5 C13,1.2 13.2,1 13.5,1 L16.5,1 C16.8,1 17,1.2 17,1.5 L17,2 L19.5,2 C19.8,2 20,2.2 20,2.5 L20,20.5 C20,20.8 19.8,21 19.5,21 L1.5,21 C1.2,21 1,20.8 1,20.5 L1,2.5 C1,2.2 1.2,2 1.5,2 L4,2 L4,1.5 C4,1.2 4.2,1 4.5,1 L7.5,1 C7.8,1 8,1.2 8,1.5 L8,2 Z M7,4 L7,2 L5,2 L5,4 L7,4 Z M16,2 L14,2 L14,4 L16,4 L16,2 Z"/>
</svg>
