<svg xmlns="http://www.w3.org/2000/svg" width="24" height="24" viewBox="0 0 24 24">
  <path fill="#333" fill-rule="evenodd" d="M9,11 C10.1,11 11,10.1 11,9 C11,7.9 10.1,7 9,7 C7.9,7 7,7.9 7,9 C7,10.1 7.9,11 9,11 Z M9,8 C9.6,8 10,8.4 10,9 C10,9.6 9.6,10 9,10 C8.4,10 8,9.6 8,9 C8,8.4 8.4,8 9,8 Z M24,12 C24,11.1 23.5,10.3 22.8,9.9 C23.3,9.2 23.4,8.3 23.1,7.5 C22.7,6.6 22,6 21.1,5.9 C21.3,5.1 21.1,4.2 20.4,3.5 C19.8,2.9 18.9,2.6 18,2.8 C18,2 17.4,1.3 16.6,0.9 C15.8,0.6 14.8,0.7 14.2,1.2 C13.7,0.5 12.9,0 12,0 C11.1,0 10.3,0.5 9.9,1.2 C9.2,0.7 8.2,0.6 7.4,0.9 C6.6,1.3 6,2 5.9,2.9 C5.1,2.7 4.2,2.9 3.5,3.6 C2.9,4.2 2.7,5.1 2.9,5.9 C2,6 1.3,6.6 0.9,7.4 C0.6,8.2 0.7,9.2 1.2,9.9 C0.5,10.3 0,11.1 0,12 C0,12.9 0.5,13.7 1.2,14.1 C0.7,14.8 0.6,15.7 0.9,16.5 C1.3,17.4 2,18 2.9,18.1 C2.7,18.9 2.9,19.8 3.6,20.5 C4.2,21.1 5.1,21.4 6,21.2 C6,22 6.6,22.7 7.4,23.1 C8.2,23.4 9.2,23.3 9.8,22.8 C10.2,23.5 11,24 11.9,24 C12.8,24 13.6,23.5 14,22.8 C14.7,23.3 15.6,23.5 16.4,23.1 C17.2,22.8 17.8,22 17.9,21.2 C18.7,21.4 19.6,21.2 20.3,20.5 C20.9,19.9 21.2,19 21,18.1 C21.8,18 22.6,17.4 22.9,16.6 C23.2,15.8 23.1,14.8 22.6,14.2 C23.5,13.7 24,12.9 24,12 Z M21.8,13.5 C21.6,13.5 21.4,13.7 21.4,13.9 C21.4,14.1 21.4,14.3 21.6,14.4 C22.2,14.8 22.4,15.6 22.2,16.2 C22,16.8 21.2,17.2 20.5,17.1 C20.3,17.1 20.1,17.1 20,17.3 C19.9,17.5 19.9,17.7 20,17.9 C20.4,18.5 20.3,19.3 19.8,19.8 C19.3,20.3 18.5,20.4 17.9,20 C17.7,19.9 17.5,19.9 17.3,20 C17.1,20.1 17,20.3 17.1,20.5 C17.2,21.2 16.9,21.9 16.2,22.2 C15.5,22.5 14.8,22.2 14.4,21.6 C14.3,21.4 14.1,21.3 13.9,21.4 C13.7,21.4 13.5,21.6 13.5,21.8 C13.3,22.5 12.7,23 12,23 C11.3,23 10.7,22.5 10.5,21.8 C10.5,21.6 10.3,21.4 10.1,21.4 C10.1,21.4 10,21.4 10,21.4 C9.8,21.4 9.7,21.5 9.6,21.6 C9.2,22.2 8.4,22.4 7.8,22.2 C7.1,21.9 6.8,21.2 6.9,20.5 C6.9,20.3 6.9,20.1 6.7,20 C6.5,19.9 6.3,19.9 6.1,20 C5.5,20.4 4.7,20.3 4.2,19.8 C3.7,19.3 3.6,18.5 4,17.9 C4.1,17.7 4.1,17.5 4,17.3 C3.9,17.1 3.7,17 3.5,17.1 C2.8,17.3 2.1,16.9 1.8,16.2 C1.5,15.5 1.8,14.8 2.4,14.4 C2.6,14.3 2.7,14.1 2.6,13.9 C2.6,13.7 2.4,13.5 2.2,13.5 C1.5,13.3 1,12.7 1,12 C1,11.3 1.5,10.7 2.2,10.5 C2.4,10.5 2.6,10.3 2.6,10.1 C2.6,9.9 2.6,9.7 2.4,9.6 C1.8,9.2 1.6,8.5 1.8,7.8 C2.1,7.1 2.8,6.8 3.5,6.9 C3.7,6.9 3.9,6.9 4,6.7 C4.1,6.5 4.1,6.3 4,6.1 C3.6,5.5 3.7,4.7 4.2,4.2 C4.7,3.7 5.5,3.6 6.1,4 C6.3,4.1 6.5,4.1 6.7,4 C6.9,3.9 7,3.7 6.9,3.5 C6.8,2.8 7.1,2.1 7.8,1.8 C8.5,1.5 9.2,1.8 9.6,2.4 C9.7,2.6 9.9,2.7 10.1,2.6 C10.3,2.6 10.5,2.4 10.5,2.2 C10.7,1.5 11.3,1 12,1 C12.7,1 13.3,1.5 13.5,2.2 C13.5,2.4 13.7,2.6 13.9,2.6 C14.1,2.6 14.3,2.6 14.4,2.4 C14.8,1.8 15.6,1.6 16.2,1.8 C16.9,2.1 17.2,2.8 17.1,3.5 C17.1,3.7 17.1,3.9 17.3,4 C17.5,4.1 17.7,4.1 17.9,4 C18.5,3.6 19.3,3.7 19.8,4.2 C20.3,4.7 20.4,5.5 20,6.1 C19.9,6.3 19.9,6.5 20,6.7 C20.1,6.9 20.3,7 20.5,6.9 C21.2,6.7 21.9,7.1 22.2,7.8 C22.5,8.5 22.2,9.2 21.6,9.6 C21.4,9.7 21.3,9.9 21.4,10.1 C21.5,10.3 21.6,10.5 21.8,10.5 C22.5,10.6 23,11.2 23,12 C23,12.7 22.5,13.3 21.8,13.5 Z M16.4,7.6 C16.2,7.4 15.9,7.4 15.7,7.6 L7.7,15.6 C7.5,15.8 7.5,16.1 7.7,16.3 C7.8,16.4 7.9,16.4 8.1,16.4 C8.3,16.4 8.4,16.4 8.5,16.3 L16.5,8.3 C16.5,8.2 16.5,7.8 16.4,7.6 Z M15,13 C13.9,13 13,13.9 13,15 C13,16.1 13.9,17 15,17 C16.1,17 17,16.1 17,15 C17,13.9 16.1,13 15,13 Z M15,16 C14.4,16 14,15.6 14,15 C14,14.4 14.4,14 15,14 C15.6,14 16,14.4 16,15 C16,15.6 15.6,16 15,16 Z"/>
</svg>
