<svg xmlns="http://www.w3.org/2000/svg" viewBox="0 0 24 24">
    <!-- no post-processing -->
    <defs>
        <linearGradient id="ChromeA" x1="11.94" y1="7.7" x2="11.94" y2="16.25" gradientUnits="userSpaceOnUse">
            <stop offset="0" stop-color="#96c1e9"/>
            <stop offset="1" stop-color="#146cb5"/>
        </linearGradient>
    </defs>
    <path d="M12 0a12.23 12.23 0 0 1 10.75 6.77H11.37s-2.15-.07-4 2.54a5.29 5.29 0 0 0-.46 4.44L2.07 5.32A11.85 11.85 0 0 1 12 0z" fill="#e6322a"/>
    <path d="M22.39 18a12.25 12.25 0 0 1-11.26 6l5.7-9.86s1.13-1.82-.21-4.71A5.31 5.31 0 0 0 13 6.75h9.73A11.88 11.88 0 0 1 22.39 18z" fill="#feda00"/>
    <path d="M1.6 18a12.25 12.25 0 0 1 .47-12.69l5.69 9.86s1 1.9 4.19 2.18A5.34 5.34 0 0 0 16 15.53L11.16 24a11.86 11.86 0 0 1-9.56-6z" fill="#65b54c"/>
    <path d="M11.13,24l1.6-6.68A5.39,5.39,0,0,0,16,15.56Z" fill="#60ac48"/>
    <path d="M6.61 12.07a5.33 5.33 0 1 1 5.33 5.34 5.33 5.33 0 0 1-5.33-5.34z" fill="#fff"/>
    <path d="M7.5,12.07a4.44,4.44,0,1,1,4.44,4.45A4.44,4.44,0,0,1,7.5,12.07Z" fill="url(#ChromeA)"/>
    <path d="M22.73,6.75,16.14,8.68A5.36,5.36,0,0,0,13,6.75Z" fill="#f1cf00"/>
    <path d="M6.8,13.51,2.07,5.32,7,10.16a4.78,4.78,0,0,0-.31,2.5Z" fill="#da3027"/>
</svg>