<svg width="24" height="25" viewBox="0 0 24 25" fill="none" xmlns="http://www.w3.org/2000/svg">
<path fill-rule="evenodd" clip-rule="evenodd" d="M6.78968 20.1353C4.26472 19.0865 2.26648 17.0575 1.27749 14.4504C-0.685408 9.2906 1.91006 3.51669 7.07298 1.55501C12.0044 -0.317643 17.3172 1.86265 19.7791 6.85479L20.4789 3.1817L20.5036 3.09494C20.5888 2.87378 20.8224 2.73826 21.0635 2.78418C21.3348 2.83584 21.5129 3.09758 21.4612 3.36879L20.4498 8.68044L20.4286 8.75811C20.3863 8.87499 20.3038 8.96701 20.202 9.02293C20.1933 9.02793 20.1843 9.0327 20.1752 9.0372L20.179 9.03565C20.1705 9.03982 20.1618 9.04376 20.1531 9.04745C20.1399 9.05321 20.1263 9.05844 20.1124 9.06312C20.1028 9.06633 20.0932 9.06924 20.0841 9.07093C20.0753 9.07323 20.0664 9.07529 20.0569 9.0783C19.9238 9.10669 19.789 9.07873 19.6806 9.00831L14.9592 6.71461L14.8818 6.6681C14.6905 6.52813 14.6206 6.26727 14.7278 6.04653L14.7743 5.96923C14.9143 5.77797 15.1752 5.70809 15.396 5.81532L19.0131 7.57148C16.8352 2.83808 11.9575 0.769659 7.42823 2.48962C2.78156 4.25515 0.445667 9.4516 2.21232 14.0956C3.10279 16.4429 4.89998 18.2678 7.17323 19.212C7.42825 19.3179 7.54912 19.6105 7.4432 19.8654C7.33729 20.1204 7.04469 20.2412 6.78968 20.1353ZM7.92344 8.10608C7.72818 7.91082 7.4116 7.91082 7.21634 8.10608C7.02107 8.30135 7.02107 8.61793 7.21634 8.81319L10.0943 11.671C9.92162 11.9849 9.87027 12.3218 9.90692 12.6516C9.95698 13.1021 10.1671 13.5176 10.3879 13.8488C10.6125 14.1857 10.8743 14.474 11.0753 14.675C11.1397 14.7393 11.1988 14.7957 11.2496 14.8428C10.9284 15.4865 10.7553 16.1705 10.8106 16.8299L10.8133 16.8625L10.8203 16.8945C10.9999 17.7194 11.4393 18.5638 11.9742 19.3617C12.5123 20.1645 13.1677 20.9501 13.8096 21.6591C14.3921 22.3024 14.9712 22.891 15.4481 23.3757L15.4482 23.3758L15.5916 23.5216C15.8443 23.7787 16.0594 23.9992 16.2269 24.181C16.4026 24.3717 16.4974 24.4896 16.5334 24.5486L16.5645 24.5996L16.6067 24.6418C16.9437 24.9788 17.3889 25.0412 17.7993 24.9783C18.2016 24.9167 18.6283 24.73 19.0438 24.4852C19.8803 23.9924 20.8009 23.1862 21.6095 22.3026C22.4186 21.4185 23.1468 20.4228 23.5789 19.5313C23.7938 19.0878 23.95 18.6407 23.99 18.2288C24.0302 17.8149 23.9565 17.37 23.625 17.0385L23.578 16.9915L23.5204 16.9584C23.3291 16.8485 22.9522 16.5449 22.3986 16.0863L22.2013 15.9227C21.7064 15.5122 21.1196 15.0254 20.4897 14.5362C19.08 13.4415 17.3644 12.2611 15.8866 11.9104L15.858 11.9036L15.8288 11.9002C15.1987 11.827 14.5874 11.9285 14.0168 12.1625C13.9627 12.1028 13.892 12.0274 13.8074 11.9429C13.6064 11.7419 13.3181 11.48 12.9812 11.2554C12.65 11.0346 12.2346 10.8245 11.7841 10.7744C11.4533 10.7377 11.1154 10.7894 10.8008 10.9633L7.92344 8.10608ZM11.7824 13.9679L11.7885 13.9739C11.9748 13.7244 12.1808 13.4874 12.4004 13.2678C12.6243 13.0439 12.8628 12.8409 13.1137 12.6634L13.1003 12.65C12.9263 12.476 12.6896 12.2628 12.4265 12.0874C12.1577 11.9082 11.8981 11.7933 11.6736 11.7683C11.4754 11.7463 11.292 11.7904 11.1074 11.9749C10.9229 12.1595 10.8788 12.343 10.9008 12.5412C10.9258 12.7657 11.0407 13.0252 11.2199 13.2941C11.3953 13.5572 11.6084 13.7939 11.7824 13.9679ZM15.6847 12.8904C14.8 12.7981 13.8939 13.1885 13.1075 13.9749C12.2425 14.8399 11.7496 15.8839 11.8047 16.7145C11.9508 17.3545 12.3095 18.066 12.8048 18.8048C13.3052 19.5513 13.9251 20.2968 14.5509 20.9879C15.1186 21.615 15.6834 22.189 16.1616 22.6751L16.1617 22.6751L16.3048 22.8207C16.5562 23.0764 16.7822 23.3079 16.9622 23.5033C17.1085 23.6619 17.2456 23.819 17.3411 23.9573C17.3877 23.9889 17.4735 24.0166 17.6479 23.9899C17.7869 23.9686 17.9554 23.9152 18.1501 23.8266L15.1488 20.8783C14.9518 20.6848 14.9489 20.3682 15.1425 20.1712C15.336 19.9742 15.6525 19.9714 15.8495 20.1649L19.0361 23.2951C19.2936 23.1098 19.56 22.895 19.8277 22.658L16.6573 19.5436C16.4603 19.3501 16.4575 19.0335 16.651 18.8365C16.8445 18.6395 17.1611 18.6367 17.3581 18.8302L20.5512 21.967C20.6592 21.8562 20.7662 21.7429 20.8718 21.6275C20.9817 21.5074 21.0894 21.3858 21.1944 21.2633C21.1864 21.2565 21.1785 21.2495 21.1709 21.2422L17.9946 18.2173C17.7947 18.0268 17.787 17.7103 17.9774 17.5104C18.1678 17.3104 18.4843 17.3027 18.6843 17.4931L21.8196 20.4791C21.9919 20.2455 22.1507 20.0135 22.2923 19.7871L19.1357 16.7808C18.9357 16.5904 18.928 16.2739 19.1185 16.0739C19.3089 15.8739 19.6254 15.8662 19.8254 16.0567L22.781 18.8715C22.9056 18.579 22.9755 18.33 22.9947 18.1321C23.0138 17.9357 22.9807 17.8334 22.9444 17.7783C22.6572 17.5961 22.2332 17.2478 21.7607 16.8565L21.5622 16.6918L21.5621 16.6918L21.5619 16.6916L21.5617 16.6915C21.0662 16.2804 20.4924 15.8044 19.8764 15.326C18.4647 14.2298 16.9197 13.1938 15.6847 12.8904Z" fill="#333333"/>
</svg>
