<?xml version="1.0" encoding="UTF-8"?>
<svg width="14px" height="14px" viewBox="0 0 14 14" version="1.1" xmlns="http://www.w3.org/2000/svg" xmlns:xlink="http://www.w3.org/1999/xlink">
    <!-- Generator: Sketch 53.2 (72643) - https://sketchapp.com -->
    <title>Assets / Icons / Close2</title>
    <desc>Created with Sketch.</desc>
    <g id="Assets-/-Icons-/-Close2" stroke="none" stroke-width="1" fill-rule="evenodd">
        <path d="M7.9,7.2 L10.3,4.8 C10.5,4.6 10.5,4.3 10.3,4.1 C10.1,3.9 9.8,3.9 9.6,4.1 L7.2,6.5 L4.8,4.1 C4.6,3.9 4.3,3.9 4.1,4.1 C3.9,4.3 3.9,4.6 4.1,4.8 L6.5,7.2 L4.1,9.6 C3.9,9.8 3.9,10.1 4.1,10.3 C4.2,10.4 4.3,10.4 4.5,10.4 C4.7,10.4 4.8,10.4 4.9,10.3 L7.3,7.9 L9.7,10.3 C9.8,10.4 9.9,10.4 10.1,10.4 C10.3,10.4 10.4,10.4 10.5,10.3 C10.7,10.1 10.7,9.8 10.5,9.6 L7.9,7.2 Z" id="Cross" fill="#000000"></path>
    </g>
</svg>