<svg xmlns="http://www.w3.org/2000/svg" width="14" height="14" viewBox="0 0 14 14">
  <g fill="none" fill-rule="evenodd">
    <path fill="#CCC" d="M14.4,7.2 C14.4,11.2 11.2,14.4 7.2,14.4 C3.2,14.4 -1.82076576e-13,11.2 -1.82076576e-13,7.2 C-1.82076576e-13,3.2 3.2,-1.15463195e-14 7.2,-1.15463195e-14 C11.2,-1.04916076e-14 14.4,3.2 14.4,7.2 L14.4,7.2 Z"/>
    <path fill="#FFF" d="M7.9,7.2 L10.3,4.8 C10.5,4.6 10.5,4.3 10.3,4.1 C10.1,3.9 9.8,3.9 9.6,4.1 L7.2,6.5 L4.8,4.1 C4.6,3.9 4.3,3.9 4.1,4.1 C3.9,4.3 3.9,4.6 4.1,4.8 L6.5,7.2 L4.1,9.6 C3.9,9.8 3.9,10.1 4.1,10.3 C4.2,10.4 4.3,10.4 4.5,10.4 C4.7,10.4 4.8,10.4 4.9,10.3 L7.3,7.9 L9.7,10.3 C9.8,10.4 9.9,10.4 10.1,10.4 C10.3,10.4 10.4,10.4 10.5,10.3 C10.7,10.1 10.7,9.8 10.5,9.6 L7.9,7.2 Z"/>
  </g>
</svg>
