<svg xmlns="http://www.w3.org/2000/svg" width="21" height="21" viewBox="0 0 21 21">
  <path fill="#333" fill-rule="evenodd" d="M17.4339623,14.2641509 L19.1179245,15.9481132 C19.3160377,16.1462264 19.3160377,16.4433962 19.1179245,16.6415094 L16.6415094,19.1179245 C16.4433962,19.3160377 16.1462264,19.3160377 15.9481132,19.1179245 L14.2641509,17.4339623 C13.7688679,17.6320755 13.1745283,17.8301887 12.2830189,18.1273585 L12.2830189,20.504717 C12.2830189,20.8018868 12.0849057,21 11.7877358,21 L9.21226415,21 C8.91509434,21 8.71698113,20.8018868 8.71698113,20.504717 L8.71698113,18.1273585 C7.9245283,17.9292453 7.23113208,17.7311321 6.73584906,17.4339623 L5.05188679,19.1179245 C4.85377358,19.3160377 4.55660377,19.3160377 4.35849057,19.1179245 L1.88207547,16.6415094 C1.68396226,16.4433962 1.68396226,16.1462264 1.88207547,15.9481132 L3.56603774,14.2641509 C3.36792453,13.7688679 3.16981132,13.1745283 2.87264151,12.2830189 L0.495283019,12.2830189 C0.198113208,12.2830189 -1.81188398e-13,12.0849057 -1.81188398e-13,11.7877358 L-1.81188398e-13,9.21226415 C-1.81188398e-13,8.91509434 0.198113208,8.71698113 0.495283019,8.71698113 L2.87264151,8.71698113 C3.07075472,7.9245283 3.26886792,7.23113208 3.56603774,6.73584906 L1.88207547,5.05188679 C1.68396226,4.85377358 1.68396226,4.55660377 1.88207547,4.35849057 L4.35849057,1.88207547 C4.55660377,1.68396226 4.85377358,1.68396226 5.05188679,1.88207547 L6.73584906,3.56603774 C7.23113208,3.36792453 7.8254717,3.16981132 8.71698113,2.87264151 L8.71698113,0.495283019 C8.71698113,0.198113208 8.91509434,-1.0658141e-14 9.21226415,-1.0658141e-14 L11.7877358,-1.0658141e-14 C12.0849057,-1.0658141e-14 12.2830189,0.198113208 12.2830189,0.495283019 L12.2830189,2.97169811 C13.0754717,3.16981132 13.7688679,3.36792453 14.2641509,3.66509434 L15.9481132,1.88207547 C16.1462264,1.68396226 16.4433962,1.68396226 16.6415094,1.88207547 L19.1179245,4.35849057 C19.3160377,4.55660377 19.3160377,4.85377358 19.1179245,5.05188679 L17.4339623,6.73584906 C17.6320755,7.23113208 17.8301887,7.8254717 18.1273585,8.71698113 L20.504717,8.71698113 C20.8018868,8.71698113 21,8.91509434 21,9.21226415 L21,11.7877358 C21,12.0849057 20.8018868,12.2830189 20.504717,12.2830189 L18.1273585,12.2830189 C17.8301887,13.0754717 17.6320755,13.7688679 17.4339623,14.2641509 Z M16.4433962,14.6603774 C16.245283,14.4622642 16.245283,14.2641509 16.3443396,14.0660377 C16.6415094,13.5707547 16.8396226,12.7783019 17.1367925,11.6886792 C17.2358491,11.490566 17.4339623,11.2924528 17.6320755,11.2924528 L19.9103774,11.2924528 L19.9103774,9.70754717 L17.6320755,9.70754717 C17.4339623,9.70754717 17.2358491,9.50943396 17.1367925,9.31132075 C16.8396226,8.22169811 16.6415094,7.42924528 16.3443396,6.93396226 C16.245283,6.73584906 16.245283,6.43867925 16.4433962,6.33962264 L18.1273585,4.65566038 L16.3443396,2.87264151 L14.6603774,4.55660377 C14.4622642,4.75471698 14.2641509,4.75471698 14.0660377,4.65566038 C13.5707547,4.35849057 12.7783019,4.16037736 11.6886792,3.86320755 C11.490566,3.76415094 11.2924528,3.56603774 11.2924528,3.36792453 L11.2924528,0.990566038 L9.70754717,0.990566038 L9.70754717,3.26886792 C9.70754717,3.46698113 9.50943396,3.66509434 9.31132075,3.76415094 C8.22169811,4.06132075 7.42924528,4.35849057 6.93396226,4.65566038 C6.73584906,4.75471698 6.43867925,4.75471698 6.33962264,4.55660377 L4.65566038,2.97169811 L2.97169811,4.65566038 L4.65566038,6.33962264 C4.85377358,6.53773585 4.85377358,6.73584906 4.75471698,6.93396226 C4.35849057,7.42924528 4.06132075,8.22169811 3.86320755,9.31132075 C3.76415094,9.50943396 3.56603774,9.70754717 3.36792453,9.70754717 L0.990566038,9.70754717 L0.990566038,11.2924528 L3.26886792,11.2924528 C3.46698113,11.2924528 3.66509434,11.490566 3.76415094,11.6886792 C4.06132075,12.7783019 4.25943396,13.5707547 4.55660377,14.0660377 C4.65566038,14.2641509 4.65566038,14.5613208 4.45754717,14.6603774 L2.77358491,16.3443396 L4.55660377,18.1273585 L6.24056604,16.4433962 C6.43867925,16.245283 6.63679245,16.245283 6.83490566,16.3443396 C7.33018868,16.6415094 8.12264151,16.8396226 9.21226415,17.1367925 C9.41037736,17.2358491 9.60849057,17.4339623 9.60849057,17.6320755 L9.60849057,19.9103774 L11.1933962,19.9103774 L11.1933962,17.6320755 C11.1933962,17.4339623 11.3915094,17.2358491 11.5896226,17.1367925 C12.6792453,16.8396226 13.4716981,16.6415094 13.9669811,16.3443396 C14.1650943,16.245283 14.4622642,16.245283 14.5613208,16.4433962 L16.245283,18.1273585 L18.0283019,16.3443396 L16.4433962,14.6603774 Z M14.8584906,10.5 C14.8584906,12.9764151 12.8773585,14.8584906 10.5,14.8584906 C8.12264151,14.8584906 6.14150943,12.8773585 6.14150943,10.5 C6.14150943,8.02358491 8.12264151,6.14150943 10.5,6.14150943 C12.8773585,6.14150943 14.8584906,8.02358491 14.8584906,10.5 Z M13.8679245,10.5 C13.8679245,8.61792453 12.3820755,7.13207547 10.5,7.13207547 C8.61792453,7.13207547 7.13207547,8.61792453 7.13207547,10.5 C7.13207547,12.3820755 8.61792453,13.8679245 10.5,13.8679245 C12.3820755,13.8679245 13.8679245,12.3820755 13.8679245,10.5 Z"/>
</svg>
