<svg xmlns="http://www.w3.org/2000/svg" width="24" height="24" viewBox="0 0 24 24">
  <path fill="#333" fill-rule="evenodd" d="M12.0351641,5.98720362e-09 C12.193041,5.98720362e-09 12.3502192,0.00300649278 12.5066423,0.00896795478 C12.5907129,-0.00590522248 12.6770243,-0.00115921039 12.7594404,0.021480022 C18.6977301,0.369964566 23.4916127,4.982633 23.9996213,10.9953778 L23.9837502,11.515968 C23.9738694,11.8400674 23.7082818,12.097681 23.3840313,12.097681 L7.51659383,12.097681 C7.59589669,13.6414154 7.91516751,15.2149771 8.4741556,16.7995866 L11.3999525,16.7999022 C11.7313219,16.7999022 11.99995,17.0685298 11.99995,17.3998987 C11.99995,17.7312676 11.7313219,17.9998952 11.3999525,17.9998952 L8.94256424,17.9997029 C9.66148625,19.6800729 10.6484205,21.3675037 11.9030706,23.0397856 C12.2127617,23.4525628 11.8914337,24.0378167 11.376929,23.9980786 L10.921559,23.9628773 C4.76770074,23.4252281 0,18.0740755 0,11.7555006 C0,11.6760213 0.000772642048,11.5967485 0.00231108987,11.5176888 C0.00209352529,11.5110475 0.00198389427,11.5043788 0.00198389427,11.4976845 C0.00198389427,11.4818558 0.00259683705,11.4661702 0.00380028218,11.4506503 C0.157693367,5.28767439 4.96769588,0.435221419 11.1805116,0.0276653644 C11.2354751,0.0166276028 11.2917474,0.0133150054 11.3475714,0.0177975563 C11.4002785,0.0150278359 11.4530838,0.0125774819 11.5059851,0.0104483851 C11.6724168,0.00343263261 11.8528248,5.98720362e-09 12.0351641,5.98720362e-09 Z M7.6456869,17.9992321 L3.09564558,17.9999587 C4.70882299,20.4096208 7.22601673,22.1466527 10.1524483,22.654075 C9.10303309,21.1111658 8.26717592,19.5538305 7.6456869,17.9992321 Z M6.31541769,12.097681 L1.20516144,12.097681 C1.25596345,13.7785819 1.67960743,15.3761256 2.39575725,16.7998766 L7.20831056,16.7993495 C6.68782629,15.2186611 6.38991008,13.6453947 6.31541769,12.097681 Z M15.6551838,5.99911321 L8.53019172,5.99959459 C7.89601938,7.57332498 7.55389241,9.21440944 7.50347499,10.897688 L16.7905812,10.897614 C16.7276443,9.21074682 16.3471368,7.57012209 15.6551838,5.99911321 Z M7.24260862,5.99957699 L2.90351691,5.99904942 C1.96845187,7.4224935 1.37662256,9.08956106 1.23370513,10.897688 L6.3025922,10.897688 C6.34806409,9.22088637 6.66102977,7.58027735 7.24260862,5.99957699 Z M21.0476143,5.9960629 L20.9999125,5.99996506 L20.9999125,5.99996506 L16.956462,5.99889238 C17.586003,7.5730412 17.933676,9.21310697 17.9913353,10.8971371 L22.7901906,10.897688 C22.6143634,9.08842875 21.9967228,7.42024845 21.0476143,5.9960629 Z M9.83537123,1.40840916 C7.43705764,1.87255577 5.34676564,3.08663319 3.82366471,4.79910428 L7.74141686,4.79922818 C8.28535102,3.62777703 8.98317428,2.49408149 9.83537123,1.40840916 Z M12.0351641,1.19999302 C11.8745353,1.19999302 11.7162407,1.20290216 11.5705404,1.20879767 C10.5462259,2.34777744 9.71524541,3.54909571 9.07741823,4.79922568 L15.0585164,4.7992411 C14.3622926,3.54606214 13.4591577,2.34338911 12.3524538,1.20397563 C12.2454747,1.20147685 12.1404931,1.19999302 12.0351641,1.19999302 Z M14.1531993,1.40445876 L14.2148167,1.47752033 C15.1024218,2.53858252 15.8371268,3.64878825 16.4155304,4.79897073 L20.1216814,4.79946384 C18.5871893,3.08193917 16.5069131,1.86560109 14.1531993,1.40445876 Z M16.7048904,13.7999196 C16.7048904,13.4685507 16.9735184,13.1999231 17.3048879,13.1999231 L19.916077,13.1999231 C20.2474464,13.1999231 20.5160745,13.4685507 20.5160745,13.7999196 L20.5160745,14.5040885 C20.7531119,14.6166784 20.9811438,14.748021 21.1934666,14.8952386 L21.7906837,14.5478147 C22.0779755,14.3806862 22.4463899,14.4789464 22.6122932,14.7669471 L23.9178878,17.0334001 C24.0828744,17.3198093 23.9851501,17.6857115 23.6993324,17.8517213 L23.0977333,18.2011446 C23.1102702,18.335191 23.1167036,18.4681156 23.1167036,18.6003729 C23.1167036,18.7331353 23.1104527,18.8658317 23.0981773,18.9987442 L23.7000101,19.3463801 C23.9866722,19.5119644 24.0850549,19.8784375 23.9198628,20.1653254 L22.6142682,22.4327408 C22.4484105,22.7207845 22.0799916,22.8191062 21.792667,22.6520054 L21.194396,22.3040662 C20.9818576,22.4519741 20.7535286,22.5836407 20.5160745,22.6962394 L20.5160745,23.3998637 C20.5160745,23.7312326 20.2474464,23.9998602 19.916077,23.9998602 L17.3048879,23.9998602 C16.9735184,23.9998602 16.7048904,23.7312326 16.7048904,23.3998637 L16.7048904,22.6974855 C16.4617962,22.583569 16.2286491,22.4508352 16.0135369,22.3023569 L15.4039462,22.65332 C15.1167175,22.8186878 14.7498133,22.7198476 14.5845215,22.4325754 L13.279887,20.1651601 C13.1148743,19.878373 13.2131712,19.5121325 13.4996076,19.3465114 L14.1012229,18.9986501 C14.0892236,18.8662047 14.0831413,18.7334713 14.0831413,18.6003729 C14.0831413,18.4679055 14.0894043,18.3349581 14.1016505,18.2014344 L13.4995526,17.8517213 C13.2136061,17.6856367 13.1159446,17.3195028 13.2811877,17.0330696 L14.5887022,14.7666166 C14.7543027,14.4795638 15.121263,14.3811258 15.4082977,14.5467582 L16.0147802,14.8967268 C16.2295713,14.7490445 16.4623117,14.61671 16.7048904,14.5028427 L16.7048904,13.7999196 Z M17.9048854,14.9009057 C17.9048854,15.1513616 17.7493134,15.3754693 17.5146637,15.4630356 C17.116889,15.6114768 16.7394271,15.8254993 16.4502715,16.0723201 C16.2570469,16.237255 15.9808915,16.2626224 15.7608523,16.1356496 L15.3282757,15.8860327 L14.6195591,17.114526 L15.0516884,17.3655172 C15.2703758,17.4925361 15.3859388,17.7430414 15.340627,17.9918479 C15.3026776,18.2002276 15.2831363,18.4028646 15.2831363,18.6003729 C15.2831363,18.8019924 15.3023965,19.0036131 15.3401919,19.2065357 C15.3867395,19.4564481 15.270744,19.7085693 15.0506734,19.8358168 L14.6185943,20.0856502 L15.3253219,21.3139214 L15.7613638,21.0628766 C15.9819256,20.9358913 16.2586042,20.9618723 16.45167,21.1276984 C16.7400219,21.3753666 17.1164682,21.5890276 17.5135729,21.7363419 C17.7487915,21.8236011 17.9048854,22.0479957 17.9048854,22.2988777 L17.9048854,22.7998672 L19.3160795,22.7998672 L19.3160795,22.2988777 C19.3160795,22.0481538 19.4719796,21.8238656 19.7069871,21.7364922 C20.0941438,21.5925513 20.4625601,21.3804367 20.7568149,21.1276984 C20.9506118,20.9612443 21.2285554,20.9357577 21.4493927,21.0641911 L21.8750408,21.3117373 L22.580955,20.0857819 L22.1484388,19.8359481 C21.9282291,19.7087487 21.8121278,19.4565427 21.858693,19.2065357 C21.8970864,19.0004026 21.9167086,18.7992274 21.9167086,18.6003729 C21.9167086,18.4055549 21.8968342,18.2036701 21.8582579,17.9918479 C21.8129462,17.7430414 21.9285091,17.4925361 22.1471965,17.3655172 L22.5796546,17.1143351 L21.8732532,15.8880542 L21.449456,16.1345931 C21.2291956,16.2627269 20.9520263,16.2377571 20.7582134,16.0723201 C20.463071,15.820389 20.0936305,15.6078981 19.7058949,15.4628838 C19.4714572,15.3752035 19.3160795,15.1512029 19.3160795,14.9009057 L19.3160795,14.3999161 L17.9048854,14.3999161 L17.9048854,14.9009057 Z M19.7999175,18.600388 C19.7999175,17.9372871 19.2628809,17.3998987 18.6009147,17.3998987 C17.9383655,17.3998987 17.3999275,17.9378697 17.3999275,18.600388 C17.3999275,19.2620161 17.9384681,19.7998847 18.6009147,19.7998847 C19.2627786,19.7998847 19.7999175,19.2625987 19.7999175,18.600388 Z M20.9999125,18.600388 C20.9999125,19.9252625 19.9255916,20.9998777 18.6009147,20.9998777 C17.2760639,20.9998777 16.1999325,19.9250892 16.1999325,18.600388 C16.1999325,17.2748991 17.2758591,16.1999057 18.6009147,16.1999057 C19.9257962,16.1999057 20.9999125,17.2747256 20.9999125,18.600388 Z"/>
</svg>
