<?xml version="1.0" encoding="UTF-8"?>
<svg width="21px" height="21px" viewBox="0 0 21 21" version="1.1" xmlns="http://www.w3.org/2000/svg" xmlns:xlink="http://www.w3.org/1999/xlink">
    <!-- Generator: Sketch 53.2 (72643) - https://sketchapp.com -->
    <title>Assets / Icons / Copy</title>
    <desc>Created with Sketch.</desc>
    <g id="Assets-/-Icons-/-Copy" stroke="none" stroke-width="1" fill="none" fill-rule="evenodd">
        <path d="M8.2,16.5 C7.8,17.1 7.4,17.7 7.2,18.3 C7.1,18.7 7,18.9 7,19.1 C6.9,19.7 6,19.6 6,19 C6,18.9 6,18.8 6,18.6 C6,18.3 6.1,18 6.1,17.6 C6.2,16.6 6.5,15.5 6.9,14.6 C8.1,11.9 10.1,10.3 13.3,10.1 L13.3,9 C13.3,8.6 13.8,8.3 14.1,8.6 L17.8,11.5 C18.1,11.7 18.1,12.1 17.8,12.3 L14.1,15.2 C13.8,15.5 13.3,15.2 13.3,14.8 L13.3,13.8 C11,14 9.4,15 8.2,16.5 Z M13.8,12.9 C14.1,12.9 14.3,13.1 14.3,13.4 L14.3,13.8 L16.7,11.9 L14.3,10 L14.3,10.4 C14.3,10.7 14.1,10.9 13.8,10.9 C10.8,10.9 8.9,12.4 7.8,14.8 C7.7,15.1 7.6,15.3 7.5,15.6 C9,13.9 11,12.9 13.8,12.9 Z M20,17.9 C20,18.2 19.8,18.4 19.5,18.4 L14.9,18.4 L14.9,20.5 C14.9,20.8 14.7,21 14.4,21 L2.5,21 C2.2,21 2,20.8 2,20.5 L2,3.1 C2,2.8 2.2,2.6 2.5,2.6 L7.1,2.6 L7.1,0.5 C7.1,0.2 7.3,0 7.6,0 L15.3,0 C15.4,0 15.6,0.1 15.7,0.2 L20,4.5 C20,4.58067702 20,4.58067702 20,4.7 C20,4.8 20,4.8 20,4.9 C20,5.1 20,9.43333333 20,17.9 Z M19,5.3 L15.2,5.3 C14.9,5.3 14.7,5.1 14.7,4.8 L14.7,1 L8.1,1 L8.1,2.6 L10.1,2.6 C10.2,2.6 10.4,2.7 10.5,2.8 L14.7,7.1 C14.9,7.3 14.9,7.6 14.7,7.8 C14.7,7.9 14.5,8 14.4,8 L10.1,8 C9.9,8 9.6,7.7 9.6,7.5 L9.6,3.6 L3,3.6 L3,20 L13.9,20 L13.9,16.3 C13.9,16 14.1,15.8 14.4,15.8 C14.7,15.8 14.9,16 14.9,16.3 L14.9,17.4 L19,17.4 L19,5.3 Z M18.3,4.3 L15.7,1.7 L15.7,4.3 L18.3,4.3 Z M13.2,7 L10.6,4.3 L10.6,7 L13.2,7 Z" id="Shape" fill="#333333"></path>
    </g>
</svg>