<svg xmlns="http://www.w3.org/2000/svg" width="24" height="24" viewBox="0 0 24 24">
  <path fill="#333" fill-rule="evenodd" d="M12,0 C18.6268038,0 24,5.37351898 24,12 C24,18.6284651 18.6278197,24 12,24 C5.37151894,24 0,18.6288037 0,12 C0,5.3731803 5.37253487,0 12,0 Z M12,1.5 C6.20098985,1.5 1.5,6.2015546 1.5,12 C1.5,17.8003007 6.1999816,22.5 12,22.5 C17.7994,22.5 22.5,17.7999647 22.5,12 C22.5,9.70056598 21.7605385,7.57354347 20.5064629,5.84383271 C20.4001403,6.08797077 20.2786488,6.32776933 20.1420569,6.56045791 C19.6529769,7.39362115 19.0211263,8.04885391 18.2236069,8.4476136 C18.116852,8.50099106 17.9945243,8.51441924 17.8787323,8.48547125 C17.1213112,8.29611598 16.2730633,8.42550972 15.5194016,8.76808324 C15.4120694,8.8168706 15.311393,8.86834442 15.2212815,8.91939342 C15.3758397,9.13872547 15.5121533,9.44214137 15.6556647,9.82483828 C15.7425623,10.0565654 15.8224569,10.3023949 15.8940626,10.5479 C15.9099695,10.6024381 15.9242279,10.6526162 15.936746,10.6976591 C15.9817558,10.7139633 16.0390743,10.7226222 16.1111112,10.7226222 C16.244513,10.7226222 16.4026059,10.6910036 16.5641084,10.6371695 C16.6644473,10.6037232 16.7405545,10.5711058 16.7763933,10.5531864 C16.9688876,10.4569392 17.2013734,10.4946665 17.3535535,10.6468466 C17.9666352,11.2599283 17.8994637,12.0457282 17.3764132,12.891489 C17.1636814,13.2354716 16.8835363,13.5838209 16.5113544,13.9891078 C16.3452937,14.1699392 15.8094146,14.7272303 15.7254671,14.8186341 C15.6639039,14.8856654 15.6115692,14.9485816 15.5728636,14.9884083 L15.549,15.009 L15.562491,15.0154955 C15.5792749,15.0269977 15.6005688,15.0465093 15.6271072,15.0699255 C15.6610053,15.0996564 15.6610053,15.0996564 15.6981704,15.1319703 C15.9818673,15.3790049 16.108959,15.5200627 16.1927277,15.7685048 C16.3193079,16.1439179 16.1908807,16.5166262 15.8535535,16.8539534 C15.3710447,17.3364622 14.8857767,17.6546664 14.4857256,17.8424151 C14.3793634,19.0835073 13.6851801,19.874825 12.624295,20.2520286 C12.0707177,20.4488561 11.5836279,20.5004 11,20.5004 C10.2003237,20.5004 9,18.3398174 9,17.5004 C9,17.1849841 9.0789272,16.9745117 9.30278644,16.5267932 C9.45392721,16.2245117 9.5,16.1016508 9.5,16.0004 C9.5,15.9743641 9.44026873,15.8399686 9.32471563,15.666639 C9.26393424,15.5754669 9.19134806,15.4774756 9.10956563,15.3752475 C8.93553784,15.1577128 8.75951945,14.9670262 8.64644664,14.8539534 C8.55267845,14.7601852 8.5,14.6330082 8.5,14.5004 C8.5,13.9022524 8.37102724,13.6515053 8.12508139,13.5427714 C7.88430869,13.4363245 7.58378355,13.4253963 6.77158047,13.4718079 C6.407352,13.4926209 6.22195118,13.5004 6,13.5004 C5.10747905,13.5004 4.52026013,12.9784276 4.21933541,12.1759617 C4.05362035,11.7340549 4,11.3050921 4,11.0004 C4,10.8535339 4.01334161,10.6107166 4.05284729,10.3025723 C4.11856962,9.78993809 4.23709895,9.27631102 4.42363216,8.79132466 C4.88596035,7.58927139 5.69068108,6.75236184 6.90194195,6.51010966 C8.32402697,6.22569266 9.22046157,6.35375475 9.69355343,6.82684661 C9.82572604,6.95901922 9.90858006,7.09912092 9.95431923,7.23336003 C10.2579612,7.45628068 10.7245698,7.4977415 11.4178006,7.38220304 C11.6210844,7.3483224 11.8239522,7.30566327 12.128311,7.23542662 C12.5927136,7.12825681 12.8575252,7.06874448 13.0523402,7.03643643 C13.0564778,6.99705796 13.0606685,6.95577845 13.0648628,6.91278752 C13.0966406,6.58706407 13.1178156,6.26476938 13.1234982,5.96643347 C13.1312,5.56208628 13.1088274,5.2333999 13.0580415,5.02398035 C11.7972292,5.55691848 10.6326539,4.94336052 10.5021406,3.54661615 C10.4234547,2.69897983 11.0763806,2.05388562 12.2325347,1.50343117 C12.1557731,1.50085053 12.0779858,1.5 12,1.5 Z M14.3767331,1.77021949 L14.0700371,1.86405514 C13.826699,1.94118238 13.5879222,2.02375169 13.3581611,2.1114913 C12.1512717,2.57237019 11.4640138,3.08958335 11.4978314,3.45388206 C11.5655289,4.17837461 12.0561061,4.41332996 12.7763933,4.0531864 C13.350198,3.76628402 13.8149712,4.08317482 13.9953544,4.66297783 C14.098163,4.99343393 14.1337417,5.43816872 14.1233168,5.98547764 C14.1170827,6.31276673 14.0942623,6.66010745 14.0601374,7.00988748 C14.0359128,7.25818933 14.0115848,7.4548408 13.9949748,7.57111068 C13.9597856,7.81743505 13.7488253,8.0004 13.5,8.0004 C13.2851692,8.0004 13.1240283,8.03192757 12.3531706,8.20981782 C12.0303364,8.28431801 11.8104634,8.33055299 11.5821996,8.36859696 C10.5197136,8.54567794 9.73055924,8.43806598 9.14644665,7.85395339 C9.079013,7.78651974 9.03283018,7.70180772 9.01220839,7.61022306 L9,7.517 L8.99943457,7.53645564 C8.99813148,7.5443497 8.99482173,7.54232848 8.98644665,7.53395339 C8.79953851,7.34704525 8.2259731,7.26510734 7.09805809,7.49069034 C6.26789883,7.65672219 5.70712115,8.23993097 5.35697777,9.15030374 C5.20199415,9.55326117 5.10097693,9.99100244 5.04472896,10.4297366 C5.01105246,10.6924133 5,10.8935679 5,11.0004 C5,11.1957079 5.04012966,11.5167451 5.1556646,11.8248383 C5.32348988,12.2723724 5.58002097,12.5004 6,12.5004 C6.19703033,12.5004 6.36878108,12.4931937 6.71453068,12.4734366 C7.70836542,12.416646 8.08169799,12.4302217 8.52943256,12.6281675 C9.13143953,12.894318 9.45091915,13.4487607 9.49476544,14.2931922 C9.61228831,14.4188605 9.75088147,14.5761113 9.89043445,14.7505525 C9.98920758,14.8740189 10.0786584,14.9947775 10.1567659,15.1119388 C10.3745462,15.4386091 10.5,15.7208804 10.5,16.0004 C10.5,16.3158159 10.4210729,16.5262883 10.1972136,16.9740068 C10.0460729,17.2762883 10,17.3991492 10,17.5004 C10,17.6328627 10.2206944,18.1930868 10.4995787,18.6950785 C10.7529627,19.1511698 11.0463161,19.5004 11,19.5004 C11.4781006,19.5004 11.8698558,19.4589444 12.2892854,19.3098139 C13.0662009,19.0335773 13.5,18.490525 13.5,17.5004 C13.5,17.2851848 13.6377151,17.0941154 13.8418862,17.0260584 C13.9076499,17.0041371 14.043539,16.9458989 14.2259286,16.8445714 C14.5386534,16.6708354 14.8529204,16.4403729 15.1464467,16.1468466 C15.2055454,16.0877479 15.2255877,16.0689671 15.2349261,16.0706208 L15.238,16.073 L15.2267627,16.059556 C15.2011791,16.0316255 15.144532,15.9758651 15.0414748,15.886126 C15.0046753,15.8541351 15.0046753,15.8541351 14.9654856,15.8197634 C14.6506827,15.5419962 14.5,15.3400173 14.5,15.0004 C14.5,14.6159324 14.9394765,14.1374212 15.7748061,13.3127228 C16.108023,12.9498668 16.3526335,12.6457033 16.5259161,12.3655093 C16.7248574,12.0438257 16.8058936,11.8040803 16.7807227,11.6172758 C16.5580348,11.6834724 16.3334046,11.7226222 16.1111112,11.7226222 C15.7386284,11.7226222 15.4033591,11.6108658 15.1464467,11.3539534 C15.0823673,11.289874 15.0369079,11.209584 15.0149288,11.1216678 C15.0007821,11.0650809 14.9731269,10.9618348 14.9340626,10.8279 C14.8689495,10.6046551 14.7965003,10.3817346 14.7193355,10.1759617 C14.624559,9.92322447 14.5298008,9.71647928 14.4431884,9.57789947 C14.4013916,9.51102451 14.3908615,9.50089701 14.491742,9.50041858 C14.1468247,9.49876779 13.8313621,9.21930184 13.9418833,8.80735915 C13.9848531,8.64719901 14.079908,8.5277167 14.2212901,8.40121684 C14.424778,8.21914878 14.7420917,8.02294718 15.1055986,7.85771676 C15.9888589,7.4562348 16.9833891,7.28735232 17.9271957,7.47212035 C18.465705,7.1619117 18.9148756,6.67564683 19.2796635,6.05421928 C19.4847258,5.70488911 19.6521475,5.33177809 19.7847225,4.95477204 C18.3716748,3.39427524 16.4971374,2.26103504 14.3767331,1.77021949 Z"/>
</svg>
