<?xml version="1.0" encoding="UTF-8"?>
<svg width="24px" height="24px" viewBox="0 0 24 24" version="1.1" xmlns="http://www.w3.org/2000/svg" xmlns:xlink="http://www.w3.org/1999/xlink">
    <!-- Generator: Sketch 53.2 (72643) - https://sketchapp.com -->
    <title>Assets / Icons / OMS / Customers</title>
    <desc>Created with Sketch.</desc>
    <g id="Assets-/-Icons-/-OMS-/-Customers" stroke="none" stroke-width="1" fill-rule="evenodd">
        <path d="M24,21.6011958 C24,21.0017084 23.9,20.3023063 23.9,19.7028188 C23.8,18.8035875 23.7,18.0042709 23.5,17.504698 C23.1,16.2058084 21,15.106748 17,13.6080293 L17,12.708798 C17.1,12.6088834 17.3,12.4090543 17.4,12.1093105 C17.7,11.509823 17.9,10.810421 18,9.91118971 C19,9.51153138 19,7.81298348 18.2,7.21349599 C18.3,7.11358141 18.3,6.91375224 18.4,6.71392308 C18.6,6.11443558 18.8,5.61486267 18.8,5.01537518 C18.8,4.71563143 18.8,4.41588768 18.7,4.11614393 C18.3,2.6174252 15.9,1.41845021 14.3,2.51751062 C14.1,2.71733978 14,3.01708353 14.2,3.21691269 C14.4,3.41674186 14.7,3.51665644 14.9,3.31682728 C15.9,2.6174252 17.6,3.51665644 17.8,4.3159731 C17.8,4.51580226 17.9,4.71563143 17.8,4.91546059 C17.8,5.31511892 17.6,5.71477725 17.4,6.21435016 C17.4,6.11443558 17,7.21349599 17,7.31341057 C17,7.7130689 17.2,8.01281265 17.5,8.01281265 C17.8,8.01281265 17.8,9.01195847 17.5,9.01195847 C17.2,9.01195847 17,9.21178763 17,9.51153138 C17,10.5106772 16.8,11.2100793 16.6,11.7096522 C16.5,12.0093959 16.3,12.1093105 16.3,12.1093105 C16.2,12.2092251 16.1,12.4090543 16.1,12.5089689 L16.1,14.0076876 C16.1,14.2075168 16.2,14.4073459 16.4,14.5072605 C20.2,15.9060647 22.3,17.1050396 22.6,17.9043563 C22.7,18.3040146 22.9,19.0034167 22.9,19.9026479 C23,20.5021354 23,21.1016229 23,21.7011104 C23,21.801025 23,21.9009396 23,22.0008542 L21,22.0008542 C20.7,22.0008542 20.5,22.2006833 20.5,22.5004271 C20.5,22.8001708 20.7,23 21,23 L23.5,23 C23.8,23 24,22.8001708 24,22.5004271 C24,22.3005979 24,22.0008542 24,21.6011958 Z M18.9,19.7028188 C18.8,18.8035875 18.7,18.0042709 18.5,17.504698 C18.2,16.7053813 17.3,16.1058938 15.7,15.4064917 C15.1,15.106748 12.9,14.3074313 12,14.0076876 L12,12.1093105 C12.1,12.0093959 12.3,11.8095668 12.4,11.509823 C12.7,11.0102501 12.9,10.310848 13,9.4116168 C13.9,9.01195847 14,7.31341057 13.2,6.71392308 C13.2,6.71392308 13.2,6.71392308 13.2,6.61400849 C13.3,6.51409391 13.3,6.41417933 13.4,6.31426475 C13.7,5.61486267 13.9,4.91546059 13.8,4.3159731 C13.8,4.11614393 13.8,4.01622935 13.7,3.81640019 C13.1,1.51836479 7.5,1.41845021 6.3,3.41674186 C5.1,3.31682728 4.6,4.21605852 4.7,5.51494809 C4.7,5.81469183 4.8,6.11443558 4.9,6.41417933 C4.9,6.51409391 5,7.01366682 5,7.01366682 L5,9.01195847 C5,10.2109335 5.4,11.1101647 6.2,11.8095668 C6.5,12.0093959 6.7,12.2092251 7,12.3091397 L7,14.1076022 C6.7,14.2075168 6.4,14.3074313 6,14.5072605 C5.6,14.6071751 5.4,14.7070897 5.2,14.8070042 C2.1,15.9060647 0.9,16.6054667 0.5,17.6046126 C0.3,18.1041855 0.2,18.9035021 0.1,19.8027334 C0.1,20.4022209 0,21.0017084 0,21.6011958 C0,22.0008542 0,22.3005979 0,22.5004271 C0,22.8001708 0.2,23 0.5,23 L18.5,23 C18.8,23 19,22.8001708 19,22.5004271 C19,22.3005979 19,22.0008542 19,21.6011958 C19,21.0017084 18.9,20.4022209 18.9,19.7028188 Z M1,22.0008542 C1,21.9009396 1,21.801025 1,21.7011104 C1,21.1016229 1.1,20.4022209 1.1,19.9026479 C1.2,19.0034167 1.3,18.4039292 1.4,17.9043563 C1.6,17.3048688 2.8,16.7053813 5.4,15.8061501 C5.6,15.7062355 5.8,15.7062355 6.2,15.5064063 C6.8,15.3065772 7.2,15.106748 7.6,15.0068334 C7.9,14.9069188 8,14.7070897 8,14.5072605 L8,12.0093959 C8,11.8095668 7.9,11.6097376 7.6,11.509823 C7.5,11.4099084 7.1,11.3099939 6.8,11.0102501 C6.3,10.5106772 6,9.91118971 6,9.01195847 L6,7.01366682 C6,6.91375224 5.8,6.21435016 5.8,6.21435016 C5.8,5.91460642 5.7,5.61486267 5.7,5.41503351 C5.6,4.61571685 5.8,4.3159731 6.5,4.51580226 C6.8,4.51580226 7,4.3159731 7.1,4.11614393 C7.4,2.71733978 12.4,2.71733978 12.8,4.11614393 C12.8,4.21605852 12.8,4.3159731 12.8,4.41588768 C12.8,4.81554601 12.7,5.31511892 12.4,5.91460642 C12.4,6.014521 12.3,6.11443558 12.3,6.21435016 C12.3,6.31426475 12.2,6.31426475 12.2,6.51409391 C12,6.71392308 12,6.81383766 12,7.01366682 C12,7.31341057 12.2,7.51323973 12.5,7.51323973 C12.8,7.51323973 12.8,8.51238556 12.5,8.51238556 C12.2,8.51238556 12,8.71221472 12,9.01195847 C12,10.0111043 11.8,10.7105064 11.6,11.2100793 C11.5,11.509823 11.3,11.6097376 11.3,11.6097376 C11.1,11.6097376 11,11.8095668 11,12.0093959 L11,14.5072605 C11,14.7070897 11.1,14.9069188 11.3,15.0068334 C11.5,15.106748 14.5,16.2058084 15.3,16.5055521 C16.7,17.1050396 17.4,17.6046126 17.6,18.0042709 C17.7,18.4039292 17.9,19.1033313 17.9,20.0025625 C18,20.60205 18,21.2015375 18,21.801025 C18,21.9009396 18,22.0008542 18,22.1007688 L1,22.0008542 L1,22.0008542 Z" id="Shape" fill="#333333"></path>
    </g>
</svg>