<svg xmlns="http://www.w3.org/2000/svg" width="24" height="24" viewBox="0 0 24 24">
  <path fill="#333" fill-rule="evenodd" d="M5.3,12.7 L3.4,11.9 C3.1,11.8 2.9,11.9 2.7,12.2 C2.5,12.5 2.7,12.7 3,12.9 L4.8,13.7 C4.9,13.7 4.9,13.7 5,13.7 C5.2,13.7 5.4,13.6 5.5,13.4 C5.6,13.1 5.5,12.8 5.3,12.7 Z M12,9 C12.3,9 12.5,8.8 12.5,8.5 L12.5,6.5 C12.5,6.2 12.3,6 12,6 C11.7,6 11.5,6.2 11.5,6.5 L11.5,8.5 C11.5,8.8 11.7,9 12,9 Z M5.6,8.9 C5.4,8.7 5.1,8.7 4.9,8.9 C4.7,9.1 4.7,9.4 4.9,9.6 L6.3,11 C6.4,11.1 6.5,11.1 6.7,11.1 C6.9,11.1 7,11.1 7,11.1 C7.2,10.9 7.2,10.6 7,10.4 L5.6,8.9 Z M14.7,9.5 C14.8,9.5 14.8,9.5 14.9,9.5 C15.1,9.5 15.3,9.4 15.4,9.2 L16.2,7.4 C16.3,7.1 16.2,6.9 15.9,6.7 C15.6,6.6 15.4,6.7 15.2,7 L14.4,8.8 C14.3,9.1 14.4,9.4 14.7,9.5 Z M4.5,16 L2.5,16 C2.2,16 2,16.2 2,16.5 C2,16.8 2.2,17 2.5,17 L4.5,17 C4.8,17 5,16.8 5,16.5 C5,16.2 4.8,16 4.5,16 Z M18.5,13.3 C18.6,13.5 18.8,13.6 19,13.6 C19.1,13.6 19.1,13.6 19.2,13.6 L21,12.8 C21.3,12.7 21.4,12.4 21.3,12.1 C21.2,11.8 20.9,11.7 20.6,11.8 L18.8,12.6 C18.5,12.8 18.4,13.1 18.5,13.3 Z M12,4 C5.4,4 0,9.4 0,16 L0,20.5 C0,20.8 0.2,21 0.5,21 L23.5,21 C23.8,21 24,20.8 24,20.5 L24,16 C24,9.4 18.6,4 12,4 Z M23,20 L1,20 L1,16 C1,9.9 5.9,5 12,5 C18.1,5 23,9.9 23,16 L23,20 Z M18.4,9.6 C18.2,9.4 17.9,9.4 17.7,9.6 L13,14.3 C12.7,14.1 12.4,14 12,14 C10.9,14 10,14.9 10,16 C10,17.1 10.9,18 12,18 C13.1,18 14,17.1 14,16 C14,15.6 13.9,15.3 13.7,15 L18.3,10.4 C18.6,10.1 18.6,9.8 18.4,9.6 Z M12,17 C11.4,17 11,16.6 11,16 C11,15.4 11.4,15 12,15 C12.6,15 13,15.4 13,16 C13,16.6 12.6,17 12,17 Z M8.8,7 C8.7,6.8 8.4,6.7 8.2,6.8 C7.9,6.9 7.8,7.2 7.9,7.4 L8.7,9.2 C8.8,9.4 9,9.5 9.2,9.5 C9.3,9.5 9.3,9.5 9.4,9.5 C9.7,9.4 9.8,9.1 9.7,8.8 L8.8,7 Z M19,16.5 C19,16.8 19.2,17 19.5,17 L21.5,17 C21.8,17 22,16.8 22,16.5 C22,16.2 21.8,16 21.5,16 L19.5,16 C19.2,16 19,16.2 19,16.5 Z"/>
</svg>
