<svg width="24" height="25" viewBox="0 0 24 25" fill="none" xmlns="http://www.w3.org/2000/svg">
<path fill-rule="evenodd" clip-rule="evenodd" d="M1.27762 14.4508C2.2666 17.0579 4.26484 19.0869 6.7898 20.1356C7.04482 20.2416 7.33741 20.1208 7.44333 19.8658C7.54924 19.6108 7.42837 19.3183 7.17336 19.2124C4.9001 18.2681 3.10291 16.4433 2.21244 14.0959C0.44579 9.45196 2.78168 4.25551 7.42835 2.48999C11.9576 0.770025 16.8354 2.83844 19.0133 7.57185L15.3961 5.81568C15.1753 5.70845 14.9144 5.77833 14.7744 5.9696L14.7279 6.0469C14.6207 6.26764 14.6906 6.5285 14.8819 6.66847L14.9593 6.71497L19.6807 9.00868C19.7892 9.07909 19.9239 9.10705 20.057 9.07867L20.0676 9.07559L20.0777 9.07296L20.0777 9.07295L20.0842 9.0713C20.0933 9.06961 20.1029 9.0667 20.1125 9.06349C20.1264 9.05881 20.14 9.05357 20.1532 9.04782C20.162 9.04413 20.1706 9.04019 20.1791 9.03602L20.1753 9.03757L20.1844 9.03296L20.192 9.02894L20.2021 9.0233C20.3039 8.96738 20.3864 8.87536 20.4287 8.75848L20.4499 8.68081L21.4613 3.36915C21.513 3.09795 21.3349 2.83621 21.0637 2.78455C20.8225 2.73862 20.5889 2.87414 20.5037 3.0953L20.479 3.18206L19.7792 6.85516C17.3173 1.86301 12.0045 -0.317277 7.07311 1.55538C1.91018 3.51706 -0.685286 9.29097 1.27762 14.4508ZM14.4647 14.6533H13.0001V16.3673H22.0001V14.6533H20.8298V15.3849H18.9111V14.6533H16.3835V15.3849H14.4647V14.6533ZM22.0001 17.3673H13.0001V22.6418H22.0001V17.3673ZM22.0001 13.6533H20.8298V12.8956H18.9111V13.6533H16.3835V12.8956H14.4647V13.6533H13.0001H12.0001V14.6533V22.6418V23.6418H13.0001H22.0001H23.0001V22.6418V14.6533V13.6533H22.0001ZM15.1329 18.0011C15.409 18.0011 15.6329 18.225 15.6329 18.5011V19.6281H16.881V18.5011C16.881 18.225 17.1048 18.0011 17.381 18.0011C17.6571 18.0011 17.881 18.225 17.881 18.5011V19.6281H19.0767V18.5011C19.0767 18.225 19.3005 18.0011 19.5767 18.0011C19.8528 18.0011 20.0767 18.225 20.0767 18.5011V19.6281H20.8534C21.1295 19.6281 21.3534 19.8519 21.3534 20.1281C21.3534 20.4042 21.1295 20.6281 20.8534 20.6281H20.0767V21.545C20.0767 21.8212 19.8528 22.045 19.5767 22.045C19.3005 22.045 19.0767 21.8212 19.0767 21.545V20.6281H17.881V21.545C17.881 21.8212 17.6571 22.045 17.381 22.045C17.1048 22.045 16.881 21.8212 16.881 21.545V20.6281H15.6329V21.545C15.6329 21.8212 15.409 22.045 15.1329 22.045C14.8567 22.045 14.6329 21.8212 14.6329 21.545V20.6281H13.8208C13.5447 20.6281 13.3208 20.4042 13.3208 20.1281C13.3208 19.8519 13.5447 19.6281 13.8208 19.6281H14.6329V18.5011C14.6329 18.225 14.8567 18.0011 15.1329 18.0011Z" fill="#333333"/>
</svg>
