<?xml version="1.0" encoding="UTF-8"?>
<svg width="14px" height="14px" viewBox="0 0 14 14" version="1.1" xmlns="http://www.w3.org/2000/svg" xmlns:xlink="http://www.w3.org/1999/xlink">
    <!-- Generator: Sketch 53.2 (72643) - https://sketchapp.com -->
    <title>Assets / Icons / Calendar / Date</title>
    <desc>Created with Sketch.</desc>
    <g id="Assets-/-Icons-/-Calendar-/-Date" stroke="none" stroke-width="1" fill="none" fill-rule="evenodd" stroke-linecap="round" stroke-linejoin="round">
        <g id="Group" stroke="#232323">
            <polyline id="Stroke-1362" points="2.625 1.45833333 0.291666667 1.45833333 0.291666667 13.7083333 13.7083333 13.7083333 13.7083333 1.45833333 11.375 1.45833333"></polyline>
            <polygon id="Stroke-1363" points="4.375 2.625 2.625 2.625 2.625 0.291666667 4.375 0.291666667"></polygon>
            <polygon id="Stroke-1364" points="11.375 2.625 9.625 2.625 9.625 0.291666667 11.375 0.291666667"></polygon>
            <path d="M4.375,1.45833333 L9.625,1.45833333" id="Stroke-1365"></path>
            <path d="M0.291666667,4.375 L13.7083333,4.375" id="Stroke-1366"></path>
            <polyline id="Stroke-1367" points="5.54166667 11.375 5.54166667 6.70833333 4.375 7.875"></polyline>
            <path d="M4.375,11.375 L6.70833333,11.375" id="Stroke-1368"></path>
            <polyline id="Stroke-1369" points="8.16666667 11.375 9.91666667 6.70833333 7 6.70833333 7 7.29166667"></polyline>
            <path d="M7.875,9.04166667 L9.625,9.04166667" id="Stroke-1370"></path>
        </g>
    </g>
</svg>