<?xml version="1.0" encoding="UTF-8"?>
<svg width="21px" height="21px" viewBox="0 0 21 21" version="1.1" xmlns="http://www.w3.org/2000/svg" xmlns:xlink="http://www.w3.org/1999/xlink">
    <!-- Generator: Sketch 53.2 (72643) - https://sketchapp.com -->
    <title>Assets / Icons / Scope / Dependent Scope</title>
    <desc>Created with Sketch.</desc>
    <g id="Assets-/-Icons-/-Scope-/-Dependent-Scope" stroke="none" stroke-width="1" fill-rule="evenodd">
        <path d="M12.2436796,17.7662798 L6.13132041,17.7662798 C6.22425178,18.0182902 6.275,18.2907187 6.275,18.575 C6.275,19.8659656 5.2284656,20.9125 3.9375,20.9125 C2.6465344,20.9125 1.6,19.8659656 1.6,18.575 C1.6,17.2840344 2.6465344,16.2375 3.9375,16.2375 C4.49947362,16.2375 5.01512823,16.4358152 5.41829798,16.7662798 L12.956702,16.7662798 C13.2201635,16.5503293 13.5316595,16.3908106 13.8727261,16.3061874 L14.0068576,15.6532516 L3.81767011,15.6532516 C3.61149236,15.6532516 3.42645558,15.5266957 3.35169663,15.334549 L0.0708486772,6.90205791 C-0.0566813617,6.57427804 0.185106991,6.22076058 0.536822151,6.22076058 L15.944559,6.22076058 L16.9265071,1.44075863 C16.9742703,1.20825303 17.1789186,1.04137178 17.4162795,1.04137178 L19.9508282,1.04137178 C20.2269705,1.04137178 20.4508282,1.26522941 20.4508282,1.54137178 C20.4508282,1.81751416 20.2269705,2.04137178 19.9508282,2.04137178 L17.8240065,2.04137178 L14.898387,16.2829261 C15.9686274,16.4969424 16.775,17.441802 16.775,18.575 C16.775,19.8659656 15.7284656,20.9125 14.4375,20.9125 C13.1465344,20.9125 12.1,19.8659656 12.1,18.575 C12.1,18.2907187 12.1507482,18.0182902 12.2436796,17.7662798 Z M9.46345215,10.7801302 L10.6694546,9.55327421 C10.8630359,9.35634558 11.1796067,9.35363205 11.3765354,9.54721336 C11.573464,9.74079468 11.5761775,10.0573655 11.3825962,10.2542942 L9.2885563,12.3845432 C9.09262423,12.5838632 8.77134671,12.5838632 8.57541465,12.3845432 L6.48137473,10.2542942 C6.28779341,10.0573655 6.29050695,9.74079468 6.48743558,9.54721336 C6.68436421,9.35363205 7.00093507,9.35634558 7.19451638,9.55327421 L8.46345215,10.8441518 L8.46345215,7.22076058 L1.26786948,7.22076058 L4.15964523,14.6532516 L14.212286,14.6532516 L15.7391306,7.22076058 L9.46345215,7.22076058 L9.46345215,10.7801302 Z M3.9375,19.9125 C4.67618085,19.9125 5.275,19.3136809 5.275,18.575 C5.275,17.8363191 4.67618085,17.2375 3.9375,17.2375 C3.19881915,17.2375 2.6,17.8363191 2.6,18.575 C2.6,19.3136809 3.19881915,19.9125 3.9375,19.9125 Z M14.4375,19.9125 C15.1761809,19.9125 15.775,19.3136809 15.775,18.575 C15.775,17.8363191 15.1761809,17.2375 14.4375,17.2375 C13.6988191,17.2375 13.1,17.8363191 13.1,18.575 C13.1,19.3136809 13.6988191,19.9125 14.4375,19.9125 Z" id="Mask" fill="#333333"></path>
    </g>
</svg>