<?xml version="1.0" encoding="UTF-8"?>
<svg width="15px" height="15px" viewBox="0 0 15 15" version="1.1" xmlns="http://www.w3.org/2000/svg" xmlns:xlink="http://www.w3.org/1999/xlink">
    <!-- Generator: Sketch 53.2 (72643) - https://sketchapp.com -->
    <title>Assets / Icons / Dot Menu</title>
    <desc>Created with Sketch.</desc>
    <g id="Assets-/-Icons-/-Dot-Menu" stroke="none" stroke-width="1" fill="none" fill-rule="evenodd">
        <path d="M2.5,9 C1.67157288,9 1,8.32842712 1,7.5 C1,6.67157288 1.67157288,6 2.5,6 C3.32842712,6 4,6.67157288 4,7.5 C4,8.32842712 3.32842712,9 2.5,9 Z M7.5,9 C6.67157288,9 6,8.32842712 6,7.5 C6,6.67157288 6.67157288,6 7.5,6 C8.32842712,6 9,6.67157288 9,7.5 C9,8.32842712 8.32842712,9 7.5,9 Z M12.5,9 C11.6715729,9 11,8.32842712 11,7.5 C11,6.67157288 11.6715729,6 12.5,6 C13.3284271,6 14,6.67157288 14,7.5 C14,8.32842712 13.3284271,9 12.5,9 Z" fill="#333333"></path>
    </g>
</svg>