<?xml version="1.0" encoding="UTF-8"?>
<svg width="21px" height="21px" viewBox="0 0 21 21" version="1.1" xmlns="http://www.w3.org/2000/svg" xmlns:xlink="http://www.w3.org/1999/xlink">
    <!-- Generator: Sketch 53.2 (72643) - https://sketchapp.com -->
    <title>Assets / Icons / Edit</title>
    <desc>Created with Sketch.</desc>
    <g id="Assets-/-Icons-/-Edit" stroke="none" stroke-width="1" fill="none" fill-rule="evenodd">
        <path d="M7.1625566,18.6855797 C7.15603101,18.6929152 7.14925216,18.7001046 7.14222006,18.7071367 C7.13517241,18.7141844 7.12796672,18.7209776 7.12061439,18.7275165 L6.93219739,18.9159094 C6.86637603,18.9817223 6.78349056,19.0278556 6.6928716,19.0491159 L1.30453827,20.3132825 C0.94325229,20.3980445 0.618780344,20.0735614 0.70355473,19.7122783 L1.9677214,14.3247783 C1.98898221,14.2341711 2.03510978,14.1512961 2.10091262,14.0854806 L2.28983159,13.8965253 C2.29634032,13.8892112 2.30310088,13.8820423 2.31011328,13.8750299 C2.31710236,13.8680409 2.32424687,13.8613019 2.33153568,13.8548132 L13.3308258,2.85340783 C13.3316485,2.85257785 13.3324746,2.85175003 13.3333042,2.8509244 L14.5030049,1.68100331 C14.5057501,1.67812614 14.5085362,1.67527366 14.5113633,1.67244661 C14.5141671,1.66964278 14.5169959,1.66687922 14.5198491,1.66415591 L15.1003396,1.08355381 C15.9472542,0.237722152 17.3194956,0.237722152 18.1654701,1.08369663 L19.9341131,2.85150651 C20.7790357,3.69751233 20.7790357,5.06857125 19.9338641,5.91590939 L19.3787968,6.47090545 C19.3685479,6.48335133 19.3576057,6.49541776 19.3459701,6.50705339 C19.3343188,6.51870463 19.3222356,6.52966064 19.309772,6.53992143 L18.192426,7.65712426 C18.1811998,7.67098158 18.169123,7.68437754 18.1561958,7.69724226 C18.1438449,7.70953346 18.1310128,7.72104603 18.1177605,7.73178011 L7.1625566,18.6855797 Z M3.37134428,14.2291542 L6.78807776,17.6458876 L17.0952838,7.34000334 L13.6851797,3.91333521 L3.37134428,14.2291542 Z M2.8158286,15.087852 L1.86136465,19.1554918 L5.92912393,18.2011474 L2.8158286,15.087852 Z M14.3922207,3.2061582 L17.8024379,6.63293993 L18.2836247,6.15181484 L14.8650489,2.73323905 L14.3922207,3.2061582 Z M15.5720877,2.02606428 L18.9907769,5.44475341 L19.2263275,5.20923293 C19.6816309,4.75276209 19.6816309,4.013821 19.2268633,3.55847004 L17.4584466,1.79088672 C17.0028377,1.33527785 16.2634124,1.33527785 15.8072541,1.79085273 L15.5720877,2.02606428 Z" id="Mask" fill="#333333"></path>
    </g>
</svg>