<svg xmlns="http://www.w3.org/2000/svg" width="24" height="24" viewBox="0 0 24 24">
  <path fill="#333" fill-rule="evenodd" d="M19.1459,9.5 C19.4220424,9.5 19.6459,9.72385763 19.6459,10 L19.6459,10 L19.645,11.038 L19.8407928,11.1266902 C20.0957933,11.2503406 20.3413448,11.3920808 20.5715178,11.5493378 L20.5715178,11.5493378 L20.726,11.661 L21.6147616,11.1456466 C21.8274372,11.022111 22.0933517,11.0729888 22.2469507,11.2541356 L22.2469507,11.2541356 L22.2989622,11.3280857 L23.9309622,14.1560857 C24.0689861,14.3952595 23.9869878,14.7010387 23.7478139,14.8390624 L23.7478139,14.8390624 L22.855,15.354 L22.8729541,15.4950956 C22.8808804,15.5770503 22.8868669,15.658725 22.8908718,15.7401867 L22.8908718,15.7401867 L22.8969,15.984 C22.8969,16.1455461 22.888936,16.3073889 22.8733174,16.4708727 L22.8733174,16.4708727 L22.856,16.614 L23.749656,17.1298465 C23.9622748,17.2524423 24.0507867,17.5076038 23.970993,17.7308039 L23.970993,17.7308039 L23.9330948,17.8126844 L22.3030948,20.6406844 C22.1650133,20.8802515 21.8587016,20.962256 21.6193963,20.8237215 L21.6193963,20.8237215 L20.727,20.306 L20.5725295,20.4190165 C20.3428021,20.5761121 20.0975725,20.7179628 19.8426196,20.8421301 L19.8426196,20.8421301 L19.645,20.932 L19.6459,21.969 C19.6459,22.2144599 19.4690248,22.4186084 19.2357756,22.4609443 L19.2357756,22.4609443 L19.1459,22.469 L15.8809,22.469 C15.6047576,22.469 15.3809,22.2451424 15.3809,21.969 L15.3809,21.969 L15.38,20.932 L15.1754935,20.83951 C14.9166472,20.7144844 14.6684575,20.5724966 14.4378646,20.4161799 L14.4378646,20.4161799 L14.283,20.305 L13.3808287,20.8246294 C13.1682937,20.946637 12.9036222,20.8952574 12.7506475,20.7146243 L12.7506475,20.7146243 L12.6988378,20.6409143 L11.0668378,17.8129143 C10.9287783,17.5736788 11.0108581,17.2678186 11.250144,17.1298465 L11.250144,17.1298465 L12.142,16.614 L12.126492,16.4746955 L12.1088285,16.2291642 L12.1029,15.984 C12.1029,15.8217943 12.1109932,15.659005 12.1268459,15.4950956 L12.1268459,15.4950956 L12.143,15.354 L11.2519861,14.8390624 C11.0393074,14.7163287 10.9509221,14.4609607 11.0309706,14.2377366 L11.0309706,14.2377366 L11.0689704,14.1558561 L12.7029704,11.3278561 C12.8409887,11.0889849 13.1463986,11.0070374 13.3854567,11.1447317 L13.3854567,11.1447317 L14.284,11.662 L14.4389211,11.5521515 C14.6699965,11.3956542 14.9185525,11.2537536 15.1774352,11.1292506 L15.1774352,11.1292506 L15.38,11.037 L15.3809,10 C15.3809,9.75454011 15.5577752,9.55039163 15.7910244,9.50805567 L15.7910244,9.50805567 L15.8809,9.5 Z M18.645,10.5 L16.38,10.5 L16.3809,11.373 C16.3809,11.5521539 16.2853829,11.7151045 16.1347011,11.8038237 L16.1347011,11.8038237 L16.05495,11.8417287 C15.5314963,12.0360994 15.0350611,12.3167545 14.6516024,12.6442215 C14.4906918,12.7816362 14.2607034,12.8028813 14.0773433,12.6972683 L14.0773433,12.6972683 L13.318,12.26 L12.185,14.222 L12.9388139,14.6579376 C13.0961935,14.748759 13.1898199,14.9161858 13.1889203,15.0934106 L13.1889203,15.0934106 L13.1804508,15.1825302 C13.1292374,15.4575653 13.1029,15.7233945 13.1029,15.984 C13.1029,16.2478115 13.1287558,16.5132795 13.1795074,16.7867739 C13.2181769,16.9951595 13.1212638,17.2052853 12.937656,17.3111535 L12.937656,17.3111535 L12.182,17.746 L13.315,19.709 L14.0779713,19.2713706 C14.2350705,19.1811864 14.4262285,19.1840112 14.5788431,19.2730853 L14.5788431,19.2730853 L14.6516024,19.3247785 C15.034348,19.6516365 15.5304915,19.9325966 16.0564617,20.1298354 C16.2516136,20.2030174 16.3809,20.3895777 16.3809,20.598 L16.3809,20.598 L16.38,21.469 L18.645,21.469 L18.6459,20.598 C18.6459,20.4193523 18.7408859,20.2567665 18.8909192,20.1678738 L18.8909192,20.1678738 L18.9703383,20.1298354 C19.4839398,19.9372348 19.9699345,19.6580563 20.3601976,19.3247785 C20.5214134,19.1871031 20.7519277,19.1660637 20.9354037,19.2722785 L20.9354037,19.2722785 L21.686,19.707 L22.816,17.746 L22.062144,17.3111535 C21.9052187,17.2206705 21.8115798,17.0539961 21.8118749,16.8772908 L21.8118749,16.8772908 L21.8199921,16.7884085 C21.8708862,16.508971 21.8969,16.2441642 21.8969,15.984 C21.8969,15.7233945 21.8705626,15.4575653 21.8193492,15.1825302 C21.7805422,14.9741227 21.8773765,14.7638959 22.0609861,14.6579376 L22.0609861,14.6579376 L22.814,14.222 L21.683,12.262 L20.9360384,12.6963534 C20.7787074,12.7877413 20.5866147,12.785441 20.4332893,12.6961092 L20.4332893,12.6961092 L20.3601976,12.6442215 C19.9692342,12.3103456 19.4831687,12.0315934 18.97185,11.8417287 C18.7759094,11.7689713 18.6459,11.5820128 18.6459,11.373 L18.6459,11.373 L18.645,10.5 Z M17.4993,13.3084 C18.9771326,13.3084 20.1753,14.5069477 20.1753,15.9844 C20.1753,17.4633523 18.9776325,18.6614 17.4993,18.6614 C16.0209675,18.6614 14.8233,17.4633523 14.8233,15.9844 C14.8233,14.5069477 16.0214674,13.3084 17.4993,13.3084 Z M17.4993,14.3084 C16.5738232,14.3084 15.8233,15.0591615 15.8233,15.9844 C15.8233,16.9111385 16.5733234,17.6614 17.4993,17.6614 C18.4252766,17.6614 19.1753,16.9111385 19.1753,15.9844 C19.1753,15.0591615 18.4247768,14.3084 17.4993,14.3084 Z M19.974,2 C21.0304802,2 21.9160478,2.81758623 21.9943711,3.85097062 L22,4 L22,8.5 C22,8.77614237 21.7761424,9 21.5,9 C21.2545401,9 21.0503916,8.82312484 21.0080557,8.58987563 L21,8.5 L21,4 C21,3.88482227 20.979175,3.77365967 20.9410423,3.6699602 L11.2854433,11.3905177 C11.1289226,11.5156658 10.9159768,11.5335199 10.7433581,11.4440921 L10.6608572,11.3904382 L1.04372448,3.69767848 C1.02604247,3.75674208 1.01344955,3.8183 1.00645021,3.88183877 L1,4 L1,15 C1,15.5200168 1.37011495,15.936533 1.85914927,15.9933822 L1.974,16 L9.5,16 C9.77614237,16 10,16.2238576 10,16.5 C10,16.7454599 9.82312484,16.9496084 9.58987563,16.9919443 L9.5,17 L1.974,17 C0.921476626,17 0.07969209,16.1861995 0.00534085813,15.1495456 L3.55271368e-15,15 L3.55271368e-15,4 C3.55271368e-15,2.9427916 0.793683681,2.0815761 1.82509792,2.00546809 L1.974,2 L19.974,2 Z M19.974,3 L1.974,3 C1.91260989,3 1.8526945,3.00557204 1.79470021,3.01626178 L10.973,10.359 L20.1558268,3.01620825 C20.1323367,3.01198086 20.1085862,3.0085542 20.0846069,3.00595927 L19.974,3 Z"/>
</svg>
