<svg xmlns="http://www.w3.org/2000/svg" width="24" height="24" viewBox="0 0 24 24">
  <path fill="#333" fill-rule="evenodd" d="M19.5,-1.77635684e-14 C19.7454599,-1.77635684e-14 19.9496084,0.176875161 19.9919443,0.410124368 L20,0.5 L20,8.486 L23.7832644,11.087979 C23.7972097,11.097609 23.8058014,11.1040972 23.8142024,11.1108849 L23.7832644,11.087979 C23.8084004,11.10526 23.8316617,11.1246284 23.8528803,11.1457645 C23.8610613,11.153801 23.8690127,11.1623063 23.8767019,11.1711364 C23.88643,11.1823769 23.895375,11.1935879 23.9038117,11.2051442 C23.907644,11.210372 23.9118918,11.2164499 23.9160251,11.2226499 L23.9302284,11.2452372 C23.9358576,11.2547444 23.9411698,11.2644345 23.9461563,11.2742908 L23.9160251,11.2226499 C23.9364892,11.2533459 23.9531111,11.2854818 23.9660044,11.3184902 C23.9715731,11.3330523 23.9766182,11.3480426 23.9809493,11.3632742 C23.9836803,11.3723913 23.9860519,11.3817503 23.9881446,11.3911447 C23.9889496,11.3953557 23.9897385,11.3991118 23.9904845,11.4028795 L23.9952213,11.4302067 C23.997805,11.4486346 23.9993452,11.4671338 23.9998595,11.485616 L24,11.5 L24,22 C24,23.0539541 23.183733,23.9181281 22.1492093,23.9945117 L22,24 L2,24 C0.946045915,24 0.0818719427,23.183733 0.00548826356,22.1492093 L0,22 L0,11.5 L0.000140515329,11.485616 C0.000701566161,11.4654536 0.00248349015,11.4452709 0.00550924594,11.4251827 L0,11.5 C0,11.4631331 0.0040640316,11.4267953 0.0118952731,11.3915509 C0.0248876585,11.3326414 0.0487343085,11.2755107 0.0839748528,11.2226499 C0.119393981,11.1695212 0.163221385,11.1253579 0.212515446,11.0907482 L0.216735589,11.087979 L4,8.486 L4,0.5 C4,0.254540111 4.17687516,0.0503916296 4.41012437,0.00805566941 L4.5,-1.77635684e-14 L19.5,-1.77635684e-14 Z M19,0.999 L5,0.999 L5,13.898 L6.7773501,15.0839749 C7.00711444,15.2371511 7.06920138,15.5475858 6.91602515,15.7773501 C6.7798685,15.9815851 6.51945827,16.0533342 6.30189943,15.9591765 L6.2226499,15.9160251 L1,12.435 L1,22 C1,22.5124392 1.38640848,22.9354505 1.88345779,22.9932662 L2,23 L22,23 C22.5124392,23 22.9354505,22.6135915 22.9932662,22.1165422 L23,22 L23,12.434 L17.7773501,15.9160251 C17.5475858,16.0692014 17.2371511,16.0071144 17.0839749,15.7773501 C16.9478182,15.5731151 16.981746,15.3051406 17.1523373,15.1405316 L17.2226499,15.0839749 L19,13.897 L19,0.999 Z M15.5,16 C15.5851518,16 15.6684021,16.0217352 15.7421072,16.0625244 L15.8123475,16.1095656 L20.8123475,20.1095656 C21.0279785,20.2820704 21.0629392,20.5967166 20.8904344,20.8123475 C20.7370968,21.0040195 20.47145,21.0529396 20.2628659,20.9402888 L20.1876525,20.8904344 L15.323,16.999 L8.676,16.999 L3.81234752,20.8904344 C3.62067555,21.043772 3.35076933,21.0331862 3.17200088,20.8774963 L3.1095656,20.8123475 C2.95622802,20.6206756 2.96681377,20.3507693 3.12250373,20.1720009 L3.18765248,20.1095656 L8.18765248,16.1095656 C8.25414487,16.0563717 8.3327303,16.021338 8.41576513,16.0071458 L8.5,16 L15.5,16 Z M4,9.7 L1.392,11.493 L4,13.232 L4,9.7 Z M20,9.701 L20,13.231 L22.606,11.493 L20,9.701 Z M8.6800999,3.50005062 C8.95621432,3.49612127 9.18323465,3.71677086 9.18716401,3.99288527 C9.19109336,4.26899969 8.97044377,4.49602002 8.69432935,4.49994861 L8.27760165,4.50320939 L8.12170464,4.5 C8.01285353,4.5 7.94971943,4.56351572 7.89789084,4.83893987 L7.86787507,5.03081051 L7.83892086,5.28066202 L7.80056356,5.67605708 C7.73066687,6.35697452 7.58854766,6.87546025 7.30989178,7.22371662 L7.291,7.244 L7.32189039,7.27971073 C7.57693935,7.59923171 7.71713427,8.06088152 7.79080012,8.65806224 L7.86162535,9.37852845 L7.88964652,9.59952351 L7.9196979,9.7658425 C7.96181028,9.95433147 8.01347907,10.0161037 8.09127436,10.0275039 L8.12170464,10.0295669 L8.68721463,10.0295669 C8.963357,10.0295669 9.18721568,10.2534245 9.18721568,10.5295669 C9.18721568,10.7750268 9.01033947,10.9791752 8.77709026,11.0215112 L8.68721463,11.0295669 L8.12170464,11.0295669 C7.26992965,11.0295669 7.0049015,10.5954388 6.87634653,9.55345445 L6.81566902,8.93828681 C6.73130722,8.07277802 6.58559205,7.78469978 6.10226147,7.75301292 L5.99999996,7.75 C5.37100721,7.75 5.33516174,6.85922791 5.89416513,6.75911772 L5.99999996,6.75 L6.09934198,6.74683276 C6.54201994,6.71682794 6.69714745,6.46746814 6.78736981,5.73775702 L6.8286845,5.33629004 C6.95063691,4.03441936 7.17655543,3.49994861 8.14861655,3.50072478 L8.33083767,3.50318339 L8.6800999,3.50005062 Z M15.565511,3.49999895 C16.417286,3.49999895 16.6823141,3.93412703 16.8108691,4.97611137 L16.8715466,5.591279 C16.9559084,6.45678779 17.1016236,6.74486604 17.5849542,6.77655289 L17.6872157,6.77956581 C18.3162084,6.77956581 18.3520539,7.6703379 17.7930505,7.77044809 L17.6872157,7.77956581 L17.5878737,7.78273306 C17.1451957,7.81273787 16.9900682,8.06209767 16.8998458,8.79180879 L16.8585311,9.19327577 C16.7365787,10.4951465 16.5106602,11.0296172 15.5385991,11.028841 L15.356378,11.0263824 L15.0071157,11.0295152 C14.7310013,11.0334445 14.503981,10.812795 14.5000516,10.5366805 C14.4961223,10.2605661 14.7167719,10.0335458 14.9928863,10.0296172 L15.409614,10.0263564 L15.565511,10.0295658 C15.6743621,10.0295658 15.7374962,9.96605009 15.7893248,9.69062595 L15.8193406,9.49875531 L15.8482948,9.2489038 L15.8866521,8.85350873 C15.9565488,8.17259129 16.098668,7.65410556 16.3773239,7.30584919 L16.3962156,7.28556581 L16.3653253,7.24985508 C16.1102763,6.9303341 15.9700814,6.46868429 15.8964155,5.87150357 L15.8255903,5.15103737 L15.7975691,4.93004231 L15.7675177,4.76372331 C15.7254054,4.57523434 15.6737366,4.51346207 15.5959413,4.50206192 L15.565511,4.49999895 L15.000001,4.49999895 C14.7238586,4.49999895 14.5,4.27614132 14.5,3.99999895 C14.5,3.75453906 14.6768762,3.55039058 14.9101254,3.50805461 L15.000001,3.49999895 L15.565511,3.49999895 Z M10.8102878,4.95603593 C11.4246541,4.95603593 11.7534657,5.33998872 12.2346852,6.35357101 L12.4139542,6.1317314 L12.6147457,5.8887544 L12.7903393,5.6839307 C13.1943275,5.2235863 13.4379772,5.00226706 13.7329264,4.96260665 L13.8334331,4.95603593 L14.6305403,4.95603593 C14.9066827,4.95603593 15.1305403,5.17989356 15.1305403,5.45603593 C15.1305403,5.70149582 14.9536652,5.9056443 14.720416,5.94798026 L14.6305403,5.95603593 L13.8772449,5.95672339 C13.9102844,5.95824653 13.912828,5.96272133 13.9012672,5.97414965 L13.885612,5.98804402 C13.8423061,6.02539126 13.7919447,6.07375081 13.7346333,6.13302979 L13.5419548,6.34353217 L13.2867349,6.64450272 L12.699,7.374 L12.7897302,7.56672362 C12.8148142,7.61849862 12.8392082,7.6679802 12.8629223,7.71521485 L12.9971306,7.97203125 L13.1155127,8.17715172 C13.2445838,8.38717046 13.3423438,8.49619758 13.4122956,8.52017282 L13.4405825,8.52528713 L14.1769959,8.52528713 C14.4531383,8.52528713 14.6769959,8.74914476 14.6769959,9.02528713 C14.6769959,9.27074702 14.5001208,9.47489551 14.2668716,9.51723147 L14.1769959,9.52528713 L13.4405825,9.52528713 C12.8881101,9.52528713 12.5563455,9.26098417 12.1585952,8.54016453 L11.998,8.232 L11.7555322,8.51516504 C11.1733903,9.174225 10.7826814,9.48028908 10.3810661,9.52064998 L10.2526165,9.52520826 L9.5532417,9.52022448 C9.27710836,9.51799094 9.05506871,9.29232999 9.05730225,9.01619665 C9.05953579,8.74006331 9.28519674,8.51802365 9.56133008,8.5202572 L10.2881,8.52528713 C10.2985865,8.52528713 10.3157481,8.51750179 10.3391078,8.50220981 L10.4273049,8.43409261 L10.6230709,8.25112493 L10.8864169,7.97622349 L11.2076856,7.61503189 L11.4492748,7.32908545 L11.533,7.225 L11.4347035,7.00590315 L11.2880156,6.69949578 L11.1581492,6.44822113 L11.0461624,6.25044874 L10.9531134,6.10454815 C10.8976285,6.02420937 10.8554742,5.97736482 10.8280614,5.96184055 L10.8102878,5.95603593 L9.94253248,5.95603593 C9.6663901,5.95603593 9.44253248,5.73217831 9.44253248,5.45603593 C9.44253248,5.21057604 9.61940764,5.00642756 9.85265685,4.9640916 L9.94253248,4.95603593 L10.8102878,4.95603593 Z"/>
</svg>
