<svg xmlns="http://www.w3.org/2000/svg" width="25" height="25" viewBox="0 0 25 25">
  <path fill="#333" fill-rule="evenodd" d="M0.146446609,4.64644661 L0.0885911588,4.7156945 C-0.0464048927,4.91056264 -0.0271197425,5.17998704 0.146446609,5.35355339 L6.793,12 L0.146446609,18.6464466 C-0.0488155365,18.8417088 -0.0488155365,19.1582912 0.146446609,19.3535534 L4.64644661,23.8535534 L4.7156945,23.9114088 C4.91056264,24.0464049 5.17998704,24.0271197 5.35355339,23.8535534 L12,17.207 L18.6464466,23.8535534 C18.8417088,24.0488155 19.1582912,24.0488155 19.3535534,23.8535534 L23.8535534,19.3535534 L23.9114088,19.2843055 C24.0464049,19.0894374 24.0271197,18.820013 23.8535534,18.6464466 L17.207,12 L23.8535534,5.35355339 C24.0488155,5.15829124 24.0488155,4.84170876 23.8535534,4.64644661 L19.3535534,0.146446609 L19.2843055,0.0885911588 C19.0894374,-0.0464048927 18.820013,-0.0271197425 18.6464466,0.146446609 L12,6.793 L5.35355339,0.146446609 C5.15829124,-0.0488155365 4.84170876,-0.0488155365 4.64644661,0.146446609 L0.146446609,4.64644661 Z M19,1.207 L22.793,5 L16.1464466,11.6464466 L16.0885912,11.7156945 C15.9535951,11.9105626 15.9728803,12.179987 16.1464466,12.3535534 L22.793,19 L19,22.793 L12.3535534,16.1464466 L12.2843055,16.0885912 C12.0894374,15.9535951 11.820013,15.9728803 11.6464466,16.1464466 L5,22.793 L1.207,19 L7.85355339,12.3535534 L7.91140884,12.2843055 C8.04640489,12.0894374 8.02711974,11.820013 7.85355339,11.6464466 L1.207,5 L5,1.207 L11.6464466,7.85355339 C11.8417088,8.04881554 12.1582912,8.04881554 12.3535534,7.85355339 L19,1.207 Z" transform="translate(.5 .5)"/>
</svg>
