<?xml version="1.0" encoding="UTF-8"?>
<svg width="24px" height="24px" viewBox="0 0 24 24" version="1.1" xmlns="http://www.w3.org/2000/svg" xmlns:xlink="http://www.w3.org/1999/xlink">
    <!-- Generator: Sketch 53.2 (72643) - https://sketchapp.com -->
    <title>Assets / Icons / Export</title>
    <desc>Created with Sketch.</desc>
    <g id="Assets-/-Icons-/-Export" stroke="none" stroke-width="1" fill="none" fill-rule="evenodd">
        <path d="M8.9,4.9 L12,1.7 L12,12.5 C12,12.8 12.2,13 12.5,13 C12.8,13 13,12.8 13,12.5 L13,1.7 L16.1,4.8 C16.2,5 16.4,5 16.5,5 C16.6,5 16.8,5 16.9,4.9 C17.1,4.7 17.1,4.4 16.9,4.2 L12.9,0.2 C12.9,0.2 12.8,0.1 12.7,0.1 C12.6,0 12.4,0 12.3,0 C12.2,0 12.2,0.1 12.1,0.1 L8.1,4.1 C8,4.3 8,4.7 8.1,4.9 C8.2,5.1 8.7,5 8.9,4.9 Z M16,21 L20,21 C20.3,21 20.5,20.8 20.5,20.5 C20.5,20.2 20.3,20 20,20 L16,20 C15.7,20 15.5,20.2 15.5,20.5 C15.5,20.8 15.7,21 16,21 Z M24,17.5 C24,17.4 24,17.4 24,17.5 C24,17.4 23.9,17.3 23.9,17.3 L23.9,17.3 L18.9,11.3 C18.8,11.2 18.7,11.1 18.5,11.1 L17.5,11.1 C17.2,11.1 17,11.3 17,11.6 C17,11.9 17.2,12.1 17.5,12.1 L18.3,12.1 L22.5,17.1 L1.6,17.1 L5.8,12.1 L7,12.1 C7.3,12.1 7.5,11.9 7.5,11.6 C7.5,11.3 7.3,11 7,11 L5.5,11 C5.4,11 5.2,11.1 5.1,11.2 L0.1,17.2 L0.1,17.2 C0.1,17.3 0,17.3 0,17.4 C0,17.4 0,17.4 0,17.5 L0,17.5 L0,21.5 C3.60822483e-16,22.9 1.1,24 2.5,24 L21.5,24 C22.9,24 24,22.9 24,21.5 L24,17.5 L24,17.5 Z M23,21.5 C23,22.3 22.3,23 21.5,23 L2.5,23 C1.7,23 1,22.3 1,21.5 L1,18 L23,18 L23,21.5 Z" id="Shape" fill="#333333"></path>
    </g>
</svg>