<svg xmlns="http://www.w3.org/2000/svg" width="21" height="21" viewBox="0 0 21 21">
  <path fill="#232323" fill-rule="evenodd" d="M3.6,3.9 L10.3,10.6 C10.4,10.8 10.4,10.9 10.4,11 L10.4,16.9 L11.4,16 L11.4,11 C11.4,10.9 11.4,10.8 11.5,10.7 L18.2,4 L3.6,4 L3.6,3.9 Z M10,18.5 C9.9,18.5 9.9,18.5 9.8,18.5 C9.6,18.4 9.5,18.3 9.5,18.1 L9.5,11.2 L2.1,3.8 C2,3.7 2,3.5 2,3.3 C2.1,3.1 2.3,3 2.5,3 L19.3,3 C19.5,3 19.7,3.1 19.7,3.3 C19.8,3.5 19.7,3.7 19.6,3.8 L12.3,11.2 L12.3,16.2 C12.3,16.3 12.3,16.4 12.2,16.5 L10.3,18.4 C10.2,18.5 10.1,18.5 10,18.5 L10,18.5 Z"/>
</svg>
