<svg xmlns="http://www.w3.org/2000/svg" width="24" height="24" viewBox="0 0 24 24">
  <path fill="#333" fill-rule="evenodd" d="M7.45793675,11 L16.5066971,11 C16.4580648,9.28926535 16.107877,7.61384675 15.4572754,6 L8.51530754,6 C7.86640352,7.60810427 7.51394659,9.28362995 7.45793675,11 Z M7.45869662,12 C7.51430985,13.6421015 7.83665011,15.3163289 8.4257174,17 L15.4771375,17 C16.094563,15.3210132 16.4354928,13.6467125 16.5009227,12 L7.45869662,12 Z M22.9557034,11 C22.7921619,9.16367563 22.1822813,7.46086299 21.2344997,6 L16.4976168,6 C17.093396,7.61532602 17.4096505,9.2899701 17.4463803,11 L22.9557034,11 Z M23,12 L17.4361571,12 C17.3675519,13.6455754 17.0439403,15.3191933 16.4653226,17 L21.8107597,17 C22.5717164,15.5019593 23,13.8034225 23,12 Z M1.02247668,11 L6.51979753,11 C6.57165159,9.28939328 6.89697753,7.61472164 7.49673592,6 L2.64864324,6 C1.71899323,7.46402916 1.14052851,9.16820834 1.02247668,11 Z M1.00383096,12.0000001 C1.04982226,13.799065 1.50821143,15.4988928 2.28697715,17.000001 L7.4219431,17 C6.87306545,15.3187642 6.57230793,13.6451374 6.52050576,12 L1.00382766,12 Z M8.96140752,5 L15.0117386,5 C14.3326755,3.61060706 13.4235542,2.27259398 12.2851406,1.00357717 C12.1903963,1.0011971 12.0953447,1 12,1 C11.8816527,1 11.7983206,1 11.7085641,1 C10.5608643,2.26395735 9.64514412,3.60342336 8.96140752,5 Z M20.5022197,5 C18.8259563,2.96304571 16.4280814,1.54513742 13.6898222,1.12750217 C14.688793,2.36296012 15.4887174,3.65858761 16.0895925,5 L20.5022197,5 Z M3.36819143,5 L7.90679757,5 C8.51429422,3.64827118 9.32059683,2.34355754 10.326297,1.10065006 C7.5009127,1.49199741 5.04826956,2.92909394 3.36819143,5 Z M8.80656728,18 C9.49320909,19.6672397 10.4405145,21.339324 11.6484836,22.9943395 C11.7651918,22.9981036 11.8823728,23 12,23 C12.0259446,23 12.0518674,22.9999114 12.0777683,22.9997344 C13.3528583,21.3481228 14.3522273,19.6739914 15.0768606,18 L8.80656728,18 Z M21.2344997,18 L16.0912614,18 C15.4279506,19.642277 14.5217779,21.2874646 13.3727432,22.9161811 C16.6751617,22.5096699 19.5125252,20.6541649 21.2344997,18 Z M2.87207031,18 C4.55337442,20.5648423 7.23236984,22.39118 10.3489489,22.8734914 C9.26050118,21.2583281 8.40306247,19.6275413 7.77738752,18 L2.87207031,18 Z M24,12 C24,18.7 18.6,24 12,24 C5.4,24 0,18.4 0,11.7 C0,5.3 5,0.2 11.5,0 C11.7,0 11.8,0 12,0 C18.7,0 24,5.3 24,12 Z"/>
</svg>
