<svg xmlns="http://www.w3.org/2000/svg" width="24" height="24" viewBox="0 0 24 24"><path fill="#333" fill-rule="evenodd" d="M19.1124576,7.99508187 C19.274287,7.77132789 19.5868642,7.72112814 19.8106181,7.88295759 C20.0216019,8.03555104 20.2302145,8.19250179 20.4363636,8.35346554 C21.367999,9.08089762 22.2129121,9.85942668 22.9567728,10.6383637 C23.0871893,10.7749299 23.2098645,10.9067227 23.3245662,11.0329511 L23.770342,11.541957 L23.8915413,11.6896455 C24.0356128,11.8715323 24.0356203,12.1286366 23.8915593,12.3105318 L23.7120419,12.5272329 L23.6447456,12.6058087 C23.4478713,12.8342536 23.2182022,13.0880997 22.9575938,13.3610246 C22.2143749,14.1393688 21.3701824,14.9173051 20.4393301,15.644184 C17.7581326,17.7378629 14.9081955,19.0001 11.9996,19.0001 C10.949806,19.0001 9.89858165,18.8327644 8.85168118,18.5133339 C8.58755987,18.4327452 8.43877732,18.1533025 8.51936606,17.8891812 C8.5999548,17.6250599 8.87939751,17.4762773 9.14351882,17.5568661 C10.0987601,17.8483294 11.0522027,18.0001 11.9996,18.0001 C14.6490045,18.0001 17.3025674,16.8248371 19.8238699,14.856016 C20.7138926,14.1610199 21.5228876,13.4155187 22.2343562,12.6704254 L22.5842248,12.29506 L22.845,11.999 L22.7413564,11.8803057 C22.6402396,11.7661224 22.5311815,11.6459877 22.414432,11.5206988 L22.2335702,11.3289997 C21.521459,10.5833093 20.7117419,9.8372109 19.820934,9.14165736 C19.6243281,8.98814509 19.4255054,8.83855979 19.2245819,8.69324241 C19.0008279,8.53141297 18.9506281,8.21883585 19.1124576,7.99508187 Z M11.9998,5.0002 C12.8739327,5.0002 13.7509817,5.11671997 14.6276117,5.34077181 C14.895154,5.40915111 15.0566075,5.68146937 14.9882282,5.94901167 C14.9198489,6.21655397 14.6475306,6.37800749 14.3799883,6.30962819 C13.5821401,6.10571164 12.7879511,6.0002 11.9998,6.0002 C9.35083458,6.0002 6.69735512,7.17546602 4.17589366,9.14429292 C3.28581154,9.83929367 2.47673061,10.5848001 1.76516129,11.3298989 L1.58443686,11.5214458 L1.25775824,11.8807668 L1.153,12 L1.41566931,12.295517 L1.76590094,12.6711398 C2.47810874,13.4167439 3.2879515,14.1627565 4.17891753,14.8582309 C4.37090306,15.0080918 4.56500745,15.1542135 4.76112272,15.2962781 C4.98475494,15.4582757 5.03471961,15.7708905 4.87272194,15.9945227 C4.71072428,16.2181549 4.39810949,16.2681196 4.17447728,16.1061219 C3.96855449,15.9569529 3.76489987,15.8036418 3.56359925,15.6465096 C2.63179756,14.9191595 1.78675034,14.1407173 1.04278511,13.3618666 C0.847132571,13.1570397 0.668901439,12.9629517 0.508875241,12.7822717 L0.107891812,12.3106963 C-0.0362224624,12.1287954 -0.0362314836,11.8716422 0.107870028,11.6897312 L0.354722203,11.3944602 C0.453174682,11.2802389 0.559826322,11.1596673 0.674444991,11.0335357 L1.04196996,10.6392511 C1.78528345,9.8609124 2.62955408,9.08298133 3.56045634,8.35610708 C6.24180738,6.26243398 9.09164042,5.0002 11.9998,5.0002 Z M12,7.5 C12.2761424,7.5 12.5,7.72385763 12.5,8 C12.5,8.27614237 12.2761424,8.5 12,8.5 C10.0667776,8.5 8.5,10.0665071 8.5,12 C8.5,12.2761424 8.27614237,12.5 8,12.5 C7.72385763,12.5 7.5,12.2761424 7.5,12 C7.5,9.51418366 9.51453153,7.5 12,7.5 Z M16,11.5 C16.2761424,11.5 16.5,11.7238576 16.5,12 C16.5,14.4858163 14.4854685,16.5 12,16.5 C11.7238576,16.5 11.5,16.2761424 11.5,16 C11.5,15.7238576 11.7238576,15.5 12,15.5 C13.9332224,15.5 15.5,13.9334929 15.5,12 C15.5,11.7238576 15.7238576,11.5 16,11.5 Z M21.3964466,1.89644661 C21.5917088,1.70118446 21.9082912,1.70118446 22.1035534,1.89644661 C22.2771197,2.07001296 22.2964049,2.33943736 22.1614088,2.5343055 L22.1035534,2.60355339 L2.60355339,22.1035534 C2.40829124,22.2988155 2.09170876,22.2988155 1.89644661,22.1035534 C1.72288026,21.929987 1.70359511,21.6605626 1.83859116,21.4656945 L1.89644661,21.3964466 L21.3964466,1.89644661 Z"/></svg>