<svg width="24" height="24" viewBox="0 0 24 24" fill="none" xmlns="http://www.w3.org/2000/svg">
<g clip-path="url(#clip0_441_1046)">
<path fill-rule="evenodd" clip-rule="evenodd" d="M19.1125 7.99508C19.2743 7.77133 19.5869 7.72113 19.8106 7.88296C20.0216 8.03555 20.2302 8.1925 20.4364 8.35347C21.368 9.0809 22.2129 9.85943 22.9568 10.6384C23.0872 10.7749 23.2099 10.9067 23.3246 11.033L23.7704 11.542L23.8916 11.6896C24.0356 11.8715 24.0356 12.1286 23.8916 12.3105L23.7121 12.5272L23.6448 12.6058C23.4479 12.8343 23.2182 13.0881 22.9576 13.361C22.2144 14.1394 21.3702 14.9173 20.4393 15.6442C17.7581 17.7379 14.9082 19.0001 11.9996 19.0001C10.9498 19.0001 9.8986 18.8328 8.8517 18.5133C8.58758 18.4327 8.4388 18.1533 8.51938 17.8892C8.59997 17.6251 8.87941 17.4763 9.14354 17.5569C10.0988 17.8483 11.0522 18.0001 11.9996 18.0001C14.649 18.0001 17.3026 16.8248 19.8239 14.856C20.7139 14.161 21.5229 13.4155 22.2344 12.6704L22.5842 12.2951L22.845 11.999L22.7414 11.8803C22.6403 11.7661 22.5312 11.646 22.4144 11.5207L22.2336 11.329C21.5215 10.5833 20.7118 9.83721 19.821 9.14166C19.6243 8.98815 19.4255 8.83856 19.2246 8.69324C19.0008 8.53141 18.9506 8.21884 19.1125 7.99508ZM11.9998 5.0002C12.874 5.0002 13.751 5.11672 14.6276 5.34077C14.8952 5.40915 15.0566 5.68147 14.9882 5.94901C14.9199 6.21655 14.6475 6.37801 14.38 6.30963C13.5822 6.10571 12.788 6.0002 11.9998 6.0002C9.35085 6.0002 6.69737 7.17547 4.17591 9.14429C3.28583 9.83929 2.47675 10.5848 1.76518 11.3299L1.58445 11.5214L1.25778 11.8808L1.15302 12L1.41569 12.2955L1.76592 12.6711C2.47813 13.4167 3.28797 14.1628 4.17893 14.8582C4.37092 15.0081 4.56502 15.1542 4.76114 15.2963C4.98477 15.4583 5.03474 15.7709 4.87274 15.9945C4.71074 16.2182 4.39813 16.2681 4.17449 16.1061C3.96857 15.957 3.76492 15.8036 3.56362 15.6465C2.63181 14.9192 1.78677 14.1407 1.0428 13.3619C0.84715 13.157 0.668918 12.963 0.508892 12.7823L0.107909 12.3107C-0.0362056 12.1288 -0.0362146 11.8716 0.107887 11.6897L0.354739 11.3945C0.453192 11.2802 0.559843 11.1597 0.674462 11.0335L1.04199 10.6393C1.7853 9.86091 2.62957 9.08298 3.56047 8.35611C6.24182 6.26243 9.09166 5.0002 11.9998 5.0002ZM12 7.5C12.2762 7.5 12.5 7.72386 12.5 8C12.5 8.27614 12.2762 8.5 12 8.5C10.0668 8.5 8.50002 10.0665 8.50002 12C8.50002 12.2761 8.27616 12.5 8.00002 12.5C7.72388 12.5 7.50002 12.2761 7.50002 12C7.50002 9.51418 9.51455 7.5 12 7.5ZM16 11.5C16.2762 11.5 16.5 11.7239 16.5 12C16.5 14.4858 14.4855 16.5 12 16.5C11.7239 16.5 11.5 16.2761 11.5 16C11.5 15.7239 11.7239 15.5 12 15.5C13.9332 15.5 15.5 13.9335 15.5 12C15.5 11.7239 15.7239 11.5 16 11.5ZM21.3965 1.89645C21.5917 1.70118 21.9083 1.70118 22.1036 1.89645C22.2771 2.07001 22.2964 2.33944 22.1614 2.53431L22.1036 2.60355L2.60357 22.1036C2.40831 22.2988 2.09173 22.2988 1.89646 22.1036C1.7229 21.93 1.70361 21.6606 1.83861 21.4657L1.89646 21.3964L21.3965 1.89645Z" fill="#333333"/>
</g>
<defs>
<clipPath id="clip0_441_1046">
<rect width="24" height="24" fill="white"/>
</clipPath>
</defs>
</svg>
