<svg width="24" height="24" viewBox="0 0 24 24" xmlns="http://www.w3.org/2000/svg"><path d="M19,11.9997 C19.2761424,11.9997 19.5,12.2235576 19.5,12.4997 L19.5,12.4997 L19.499,13.427 L19.6566047,13.4993986 C19.8927357,13.6141055 20.1201337,13.7455983 20.333298,13.8914866 L20.333298,13.8914866 L20.454,13.979 L21.2488074,13.518378 C21.4614547,13.3948233 21.7273591,13.4456535 21.8809858,13.6267593 L21.8809858,13.6267593 L21.9330095,13.7006945 L23.4330095,16.2986945 C23.5710492,16.5377793 23.4891945,16.8434968 23.2501586,16.9816211 L23.2501586,16.9816211 L22.452,17.442 L22.4770891,17.7000633 L22.487,17.9997 C22.487,18.1009077 22.4837801,18.2019589 22.4774041,18.3030612 L22.4774041,18.3030612 L22.453,18.557 L23.2507352,19.0175345 C23.4634351,19.1401635 23.5519352,19.395446 23.4720275,19.6186882 L23.4720275,19.6186882 L23.4340817,19.7005805 L21.9350817,22.2985805 C21.7969257,22.5380263 21.4906825,22.6199209 21.2514505,22.481395 L21.2514505,22.481395 L20.455,22.02 L20.3344481,22.1085643 C20.1215026,22.2544443 19.8941477,22.3858782 19.6577156,22.5006509 L19.6577156,22.5006509 L19.499,22.572 L19.5,23.4997 C19.5,23.7451599 19.3231248,23.9493084 19.0898756,23.9916443 L19.0898756,23.9916443 L19,23.9997 L16,23.9997 C15.7238576,23.9997 15.5,23.7758424 15.5,23.4997 L15.5,23.4997 L15.499,22.573 L15.3337173,22.4981037 C15.0934298,22.3824996 14.8631184,22.250938 14.6492717,22.1058155 L14.6492717,22.1058155 L14.529,22.019 L13.7218347,22.4823834 C13.5093376,22.604308 13.2447593,22.5529424 13.0917988,22.3723845 L13.0917988,22.3723845 L13.0399905,22.2987055 L11.5399905,19.7007055 C11.4018553,19.4614554 11.4839285,19.1555203 11.7232648,19.0175345 L11.7232648,19.0175345 L12.521,18.557 L12.496601,18.299951 L12.487,17.9997 C12.487,17.8523742 12.494511,17.7040106 12.5091349,17.5530613 L12.5091349,17.5530613 L12.522,17.443 L11.7246695,16.9815217 C11.5122149,16.8586446 11.4240411,16.603368 11.5041288,16.3802746 L11.5041288,16.3802746 L11.5421348,16.2984446 L13.0441348,13.7004446 C13.1822478,13.4615515 13.4877822,13.3797106 13.7268155,13.5175808 L13.7268155,13.5175808 L14.529,13.98 L14.6503936,13.8942641 C14.8644713,13.7491306 15.0948649,13.6174886 15.3348619,13.5019407 L15.3348619,13.5019407 L15.499,13.426 L15.5,12.4997 C15.5,12.2542401 15.6768752,12.0500916 15.9101244,12.0077557 L15.9101244,12.0077557 L16,11.9997 Z M18.499,12.999 L16.499,12.999 L16.5,13.7617 C16.5,13.9407606 16.4045809,14.1036441 16.2540185,14.1923955 L16.2540185,14.1923955 L16.1743286,14.2303252 C15.6966614,14.4080174 15.2437535,14.6641912 14.8960185,14.9616512 C14.735023,15.0993703 14.5047086,15.1206727 14.3211845,15.0148192 L14.3211845,15.0148192 L13.659,14.632 L12.657,16.365 L13.3163305,16.7468783 C13.4727338,16.837337 13.566111,17.0035437 13.5660253,17.1798189 L13.5660253,17.1798189 L13.5580529,17.2684915 C13.511165,17.5283285 13.487,17.7686607 13.487,17.9997 C13.487,18.2373819 13.5103696,18.4787947 13.5561109,18.7332306 C13.5934315,18.9408265 13.4964651,19.1495152 13.3137352,19.2548655 L13.3137352,19.2548655 L12.656,19.633 L13.657,21.367 L14.3221653,20.9850166 C14.4795575,20.8947096 14.6710764,20.8977544 14.8237717,20.9872694 L14.8237717,20.9872694 L14.8965463,21.0392008 C15.242943,21.3363508 15.6947614,21.5916758 16.1743286,21.7700748 C16.370124,21.8429107 16.5,22.0297959 16.5,22.2387 L16.5,22.2387 L16.499,22.999 L18.499,22.999 L18.5,22.2387 C18.5,22.0596394 18.5954191,21.8967559 18.7459815,21.8080045 L18.7459815,21.8080045 L18.8256714,21.7700748 C19.2929259,21.5962562 19.7345932,21.3427534 20.0884537,21.0392008 C20.2496875,20.9008895 20.480715,20.8795567 20.6645495,20.986005 L20.6645495,20.986005 L21.318,21.365 L22.317,19.633 L21.6602648,19.2548655 C21.5031454,19.1642806 21.4094794,18.9973313 21.4099758,18.8204234 L21.4099758,18.8204234 L21.4182131,18.731447 C21.463795,18.4830721 21.487,18.2410768 21.487,17.9997 C21.487,17.7651226 21.4629345,17.5235841 21.4162734,17.2702812 C21.3779518,17.0622495 21.4746881,16.852612 21.6578414,16.7467789 L21.6578414,16.7467789 L22.316,16.365 L21.317,14.635 L20.6651926,15.014022 C20.5077428,15.1055052 20.3154767,15.1031439 20.1620923,15.0136362 L20.1620923,15.0136362 L20.0889815,14.9616512 C19.7336822,14.6577206 19.2911159,14.4034705 18.8256714,14.2303252 C18.629876,14.1574893 18.5,13.9706041 18.5,13.7617 L18.5,13.7617 L18.499,12.999 Z M11.5,0 C11.5289644,0 11.5576698,0.00251316923 11.5858244,0.00741874956 L11.5,0 C11.53718,0 11.5734121,0.00405810679 11.6082776,0.0117555499 C11.627752,0.0161752938 11.6470999,0.0217060499 11.6660321,0.0283713194 C11.6767797,0.032003496 11.6875823,0.0362330462 11.6981944,0.04081971 C11.7122274,0.0470222758 11.7258544,0.0536592396 11.7391668,0.06090986 C11.7513627,0.0674500504 11.7634712,0.0747354237 11.7752322,0.0825044328 C11.7813925,0.0866293699 11.7874946,0.090849458 11.7935072,0.0952091774 L11.805052,0.103808328 C11.8176175,0.113497606 11.8297092,0.123771313 11.8412864,0.134588748 L11.8535534,0.146446609 L16.8535534,5.14644661 L16.8654113,5.15871357 C16.8762287,5.17029076 16.8865024,5.18238246 16.8961917,5.19494796 L16.8535534,5.14644661 C16.8776939,5.17058707 16.8991102,5.19694105 16.9176052,5.22503102 C16.9252646,5.23652877 16.9325499,5.24863729 16.9393234,5.26106504 C16.9465411,5.27453926 16.9531837,5.28820982 16.9591906,5.30215157 C16.963767,5.31241775 16.9679965,5.32322028 16.9718538,5.33419807 C16.9779762,5.35206799 16.9831476,5.36993766 16.9873149,5.38808049 C16.9890356,5.39509078 16.9905746,5.40257807 16.9919443,5.41012437 L16.9939073,5.42216869 L16.9939073,5.42216869 L17,5.50109091 L16.9879988,11.0010909 L15.9880012,10.9989091 L15.999,6 L11.5,6 C11.2545401,6 11.0503916,5.82312484 11.0080557,5.58987563 L11,5.5 L11,1 L1,1 L1,21 L11,21 L11,22 L0.5,22 C0.254540111,22 0.0503916296,21.8231248 0.00805566941,21.5898756 L0,21.5 L0,0.5 C0,0.254540111 0.176875161,0.0503916296 0.410124368,0.00805566941 L0.5,0 L11.5,0 Z M17.4863,15.5 C18.8674424,15.5 19.9863,16.6188576 19.9863,18 C19.9863,19.3804491 18.8671357,20.5 17.4863,20.5 C16.1061576,20.5 14.9863,19.3801424 14.9863,18 C14.9863,16.6191643 16.1058509,15.5 17.4863,15.5 Z M17.4863,16.5 C16.6580583,16.5 15.9863,17.1715263 15.9863,18 C15.9863,18.8278576 16.6584424,19.5 17.4863,19.5 C18.3147737,19.5 18.9863,18.8282417 18.9863,18 C18.9863,17.1711424 18.3151576,16.5 17.4863,16.5 Z M6.11135339,8.41104661 C6.28491974,8.58461296 6.30420489,8.85403736 6.16920884,9.0489055 L6.11135339,9.11815339 L3.695,11.534 L6.11128956,13.9499828 C6.28488724,14.1235178 6.30422103,14.3929387 6.16926016,14.5878312 L6.11141721,14.6570896 C5.9378822,14.8306872 5.66846129,14.850021 5.47356878,14.7150602 L5.40431044,14.6572172 L2.63431044,11.8882172 C2.4606906,11.71466 2.44137692,11.4451978 2.5763848,11.2503036 L2.63424661,11.1810466 L5.40424661,8.41104661 C5.59950876,8.21578446 5.91609124,8.21578446 6.11135339,8.41104661 Z M9.5030055,8.35319116 L9.57225339,8.41104661 L12.3422534,11.1810466 C12.5158419,11.3546351 12.5351069,11.6241009 12.4000639,11.8189707 L12.3421896,11.8882172 L9.57218956,14.6572172 C9.37689216,14.8524441 9.06030968,14.8523869 8.86508279,14.6570896 C8.69154777,14.4834919 8.67231126,14.214064 8.80734249,14.0192202 L8.86521044,13.9499828 L11.281,11.534 L8.86514661,9.11815339 C8.69158026,8.94458704 8.67229511,8.67516264 8.80729116,8.4802945 L8.86514661,8.41104661 C9.03871296,8.23748026 9.30813736,8.21819511 9.5030055,8.35319116 Z M12,1.707 L12,5 L15.293,5 L12,1.707 Z" fill="#333"/></svg>