<?xml version="1.0" encoding="UTF-8"?>
<svg width="24px" height="24px" viewBox="0 0 24 24" version="1.1" xmlns="http://www.w3.org/2000/svg" xmlns:xlink="http://www.w3.org/1999/xlink">
    <!-- Generator: Sketch 53.2 (72643) - https://sketchapp.com -->
    <title>Assets / Icons / Import</title>
    <desc>Created with Sketch.</desc>
    <g id="Assets-/-Icons-/-Import" stroke="none" stroke-width="1" fill="none" fill-rule="evenodd">
        <path d="M16.175,8.1 L13.075,11.3 L13.075,0.5 C13.075,0.2 12.875,0 12.575,0 C12.275,0 12.075,0.2 12.075,0.5 L12.075,11.3 L8.975,8.2 C8.875,8 8.675,8 8.575,8 C8.475,8 8.275,8 8.175,8.1 C7.975,8.3 7.975,8.6 8.175,8.8 L12.175,12.8 C12.175,12.8 12.275,12.9 12.375,12.9 C12.475,13 12.675,13 12.775,13 C12.875,13 12.875,12.9 12.975,12.9 L16.975,8.9 C17.075,8.7 17.075,8.3 16.975,8.1 C16.875,7.9 16.375,8 16.175,8.1 Z M16,21 L20,21 C20.3,21 20.5,20.8 20.5,20.5 C20.5,20.2 20.3,20 20,20 L16,20 C15.7,20 15.5,20.2 15.5,20.5 C15.5,20.8 15.7,21 16,21 Z M23.9,17.3 L18.9,11.3 C18.8,11.2 18.7,11.1 18.5,11.1 L17.5,11.1 C17.2,11.1 17,11.3 17,11.6 C17,11.9 17.2,12.1 17.5,12.1 L18.3,12.1 L22.5,17.1 L1.6,17.1 L5.8,12.1 L7,12.1 C7.3,12.1 7.5,11.9 7.5,11.6 C7.5,11.3 7.3,11 7,11 L5.5,11 C5.4,11 5.2,11.1 5.1,11.2 L0.1,17.2 C0.1,17.3 0,17.3 0,17.4 C0,17.4 0,17.4 0,17.5 L0,21.5 C3.60822483e-16,22.9 1.1,24 2.5,24 L21.5,24 C22.9,24 24,22.9 24,21.5 L24,17.5 C24,17.4 23.9,17.3 23.9,17.3 Z M23,21.5 C23,22.3 22.3,23 21.5,23 L2.5,23 C1.7,23 1,22.3 1,21.5 L1,18 L23,18 L23,21.5 Z" id="Shape" fill="#333333"></path>
    </g>
</svg>