<svg xmlns="http://www.w3.org/2000/svg" width="24" height="24" viewBox="0 0 24 24">
  <path fill="#333" fill-rule="evenodd" d="M11.8063167,4.9 L14.9063167,1.7 L14.9063167,12.5 C14.9063167,12.8 15.1063167,13 15.4063167,13 C15.7063167,13 15.9063167,12.8 15.9063167,12.5 L15.9063167,1.7 L19.0063167,4.8 C19.2063167,5 19.5063167,5 19.7063167,4.8 C19.9063167,4.6 19.9063167,4.3 19.7063167,4.1 L15.7063167,0.1 C15.7063167,0.1 15.6063167,0 15.5063167,0 C15.5063167,3.60822483e-16 15.3063167,3.60822483e-16 15.2063167,3.60822483e-16 C15.1063167,3.60822483e-16 15.1063167,0.1 15.0063167,0.1 C15.0063167,0.1 15.0063167,0.1 15.0063167,0.1 L11.0063167,4.1 C10.8063167,4.3 10.8063167,4.6 11.0063167,4.8 C11.2063167,5 11.6063167,5 11.8063167,4.9 Z M9.00631668,12.9 C9.00631668,12.9 9.00631668,12.9 9.00631668,12.9 C9.10631668,12.9 9.10631668,13 9.20631668,13 C9.30631668,13 9.30631668,13 9.40631668,13 C9.40631668,13 9.40631668,13 9.40631668,13 C9.50631668,13 9.50631668,13 9.60631668,13 C9.70631668,13 9.70631668,12.9 9.80631668,12.9 C9.80631668,12.9 9.80631668,12.9 9.80631668,12.9 L13.8063167,8.9 C14.0063167,8.7 14.0063167,8.4 13.8063167,8.2 C13.6063167,8 13.3063167,8 13.1063167,8.2 L9.90631668,11.3 L9.90631668,0.5 C9.90631668,0.2 9.70631668,0 9.40631668,0 C9.10631668,0 8.90631668,0.2 8.90631668,0.5 L8.90631668,11.3 L5.80631668,8.1 C5.60631668,8 5.20631668,8 5.00631668,8.1 C4.90631668,8.3 4.90631668,8.7 5.00631668,8.9 L9.00631668,12.9 Z M15.9063167,21 L19.9063167,21 C20.2063167,21 20.4063167,20.8 20.4063167,20.5 C20.4063167,20.2 20.2063167,20 19.9063167,20 L15.9063167,20 C15.6063167,20 15.4063167,20.2 15.4063167,20.5 C15.4063167,20.8 15.6063167,21 15.9063167,21 Z M23.9063167,17.5 C23.9063167,17.4 23.9063167,17.4 23.9063167,17.5 C23.9063167,17.4 23.8063167,17.3 23.8063167,17.2 C23.8063167,17.2 23.8063167,17.2 23.8063167,17.2 L18.8063167,11.2 C18.2063167,11.1 18.0063167,11.4 18.2063167,12 L22.4063167,17 L1.50631668,17 L5.70631668,12 C6.00631668,11.2 5.80631668,11 5.10631668,11.2 L0.10631668,17.2 C0.10631668,17.2 0.10631668,17.2 0.10631668,17.2 C0.10631668,17.3 0.00631667954,17.3 0.00631667954,17.4 C0.00631667954,17.4 0.00631667954,17.4 0.00631667954,17.5 C0.00631667954,17.5 0.00631667954,17.5 0.00631667954,17.5 L0.00631667954,21.5 C-0.0936833205,22.9 1.00631668,24 2.40631668,24 L21.4063167,24 C22.8063167,24 23.9063167,22.9 23.9063167,21.5 L23.9063167,17.5 C23.9063167,17.5 23.9063167,17.5 23.9063167,17.5 Z M22.9063167,21.5 C22.9063167,22.3 22.2063167,23 21.4063167,23 L2.40631668,23 C1.60631668,23 0.90631668,22.3 0.90631668,21.5 L0.90631668,18 L22.9063167,18 L22.9063167,21.5 Z"/>
</svg>
