<svg xmlns="http://www.w3.org/2000/svg" width="21" height="21" viewBox="0 0 21 21">
  <path fill="#333" fill-rule="evenodd" d="M9.6,16 L9.6,9 L8.3,9 L8.3,8 L10.1,8 C10.4,8 10.6,8.2 10.6,8.5 L10.6,16 L12.8,16 L12.8,17 L7.4,17 L7.4,16 L9.6,16 Z M9.7,4 C10.2,4 10.6,4.4 10.6,4.9 C10.6,5.4 10.2,5.8 9.7,5.8 C9.2,5.8 8.8,5.4 8.8,4.9 C8.7,4.5 9.1,4 9.7,4 Z M19.4,10.3 C19.4,5.2 15.3,1.1 10.2,1.1 C5.1,1.1 1,5.2 1,10.3 C1,15.4 5.1,19.5 10.2,19.5 C15.2,19.6 19.4,15.4 19.4,10.3 Z M20.4,10.3 C20.4,16 15.8,20.5 10.2,20.5 C4.5,20.5 -1.81188398e-13,15.9 -1.81188398e-13,10.3 C-1.81188398e-13,4.7 4.4,0 10.1,0 C15.8,0 20.4,4.6 20.4,10.3 Z"/>
</svg>
