<svg version="1.1" viewBox="0 0 24.3 20.301" xmlns="http://www.w3.org/2000/svg">
    <path d="m11.521 10.585c0.134 0 0.242 0.113 0.242 0.252v2.517c0 0.139-0.108 0.252-0.242 0.252h-0.242v6.293a0.25 0.25 0 0 1-0.198 0.248l-0.043 4e-3h-10.162c-0.134 0-0.242-0.113-0.242-0.252v-6.293h-0.242c-0.119 0-0.218-0.089-0.238-0.206l-4e-3 -0.046v-2.517c0-0.139 0.108-0.252 0.242-0.252zm-0.726 3.021h-9.677v6.041h9.677zm0.484-2.517h-10.645v2.014h10.645zm12.629-0.504c0.134 0 0.242 0.113 0.242 0.252v2.517c0 0.139-0.108 0.252-0.242 0.252h-0.242v6.293a0.25 0.25 0 0 1-0.198 0.248l-0.043 4e-3h-10.162c-0.134 0-0.242-0.113-0.242-0.252v-6.293h-0.242c-0.119 0-0.218-0.089-0.238-0.206l-4e-3 -0.045v-2.517c0-0.139 0.108-0.252 0.242-0.252h11.129zm-0.726 3.021h-9.677v6.041h9.677zm0.484-2.517h-10.645v2.014h10.645zm-5.951-10.939c0.134 0 0.242 0.113 0.242 0.252v2.517c0 0.139-0.108 0.252-0.242 0.252h-0.242v6.293a0.25 0.25 0 0 1-0.199 0.248l-0.043 4e-3h-10.162c-0.134 0-0.242-0.113-0.242-0.252v-6.293h-0.242c-0.119 0-0.218-0.089-0.238-0.206l-4e-3 -0.045v-2.518c0-0.139 0.108-0.252 0.242-0.252h11.129zm-0.726 3.021h-9.678v6.041h9.677v-6.041zm0.484-2.517h-10.646v2.014h10.645v-2.015z" fill="#333" fill-rule="evenodd" stroke="#333" stroke-width=".3"/>
    <path d="m4.795 14.933h2.323m10.064 0h2.323m-8.516-10.435h2.323" stroke-width="1" stroke="#333" stroke-linecap="round" stroke-linejoin="round"/>
</svg>
