<?xml version="1.0" encoding="UTF-8"?>
<svg width="24px" height="24px" viewBox="0 0 24 24" version="1.1" xmlns="http://www.w3.org/2000/svg" xmlns:xlink="http://www.w3.org/1999/xlink">
    <!-- Generator: Sketch 53.2 (72643) - https://sketchapp.com -->
    <title>Assets / Icons / Settings / Key</title>
    <desc>Created with Sketch.</desc>
    <g id="Assets-/-Icons-/-Settings-/-Key" stroke="none" stroke-width="1" fill-rule="evenodd">
        <path d="M2.5,23.7579816 C1.9,23.7579816 1.2,23.5579816 0.7,23.0579816 C0.2,22.5579816 -1.11910481e-13,21.9579816 -1.11910481e-13,21.2579816 C-1.11910481e-13,20.5579816 0.3,19.9579816 0.7,19.4579816 L10.3,9.85798161 C9.1,7.25798161 9.7,4.15798161 11.8,2.05798161 C13.9,-0.0420183911 17.3,-0.642018391 20,0.757981609 C20.1,0.857981609 20.2,0.957981609 20.3,1.15798161 C20.3,1.35798161 20.3,1.45798161 20.2,1.55798161 L17.1,4.75798161 L17.1,6.85798161 L19.1,6.85798161 L22.3,3.65798161 C22.2,3.65798161 22.4,3.55798161 22.5,3.55798161 C22.7,3.55798161 22.8,3.65798161 22.9,3.85798161 C24.3,6.55798161 23.8,9.85798161 21.6,11.9579816 L21.6,11.9579816 C19.5,14.0579816 16.4,14.5579816 13.8,13.3579816 L4.2,22.9579816 C3.8,23.4579816 3.1,23.7579816 2.5,23.7579816 Z M16.7,0.957981609 C15.1,0.957981609 13.6,1.55798161 12.4,2.75798161 C10.5,4.65798161 10.1,7.45798161 11.3,9.75798161 C11.4,9.95798161 11.4,10.1579816 11.2,10.3579816 L1.4,20.1579816 C1.1,20.4579816 1,20.8579816 1,21.2579816 C1,21.6579816 1.2,22.0579816 1.4,22.3579816 C2,22.9579816 3,22.9579816 3.5,22.3579816 L13.3,12.5579816 C13.5,12.3579816 13.7,12.3579816 13.9,12.4579816 C16.2,13.6579816 19,13.1579816 20.9,11.3579816 L20.9,11.3579816 C22.6,9.65798161 23.1,7.15798161 22.3,5.05798161 L19.4,7.65798161 C19.3,7.75798161 19.2,7.75798161 19,7.75798161 L16.4,7.75798161 C16.1,7.75798161 15.9,7.55798161 15.9,7.25798161 L15.9,4.45798161 C15.9,4.35798161 16,4.15798161 16,4.15798161 L18.7,1.35798161 C18.1,1.05798161 17.4,0.957981609 16.7,0.957981609 Z" id="Shape" fill="#333333"></path>
    </g>
</svg>