<svg xmlns="http://www.w3.org/2000/svg" width="24" height="24" viewBox="0 0 24 24">
  <path fill="#333" fill-rule="evenodd" d="M2.32298137,1.30434783 C1.7604056,1.30434783 1.30434783,1.7604056 1.30434783,2.32298137 L1.30434783,21.6770186 C1.30434783,22.2395944 1.7604056,22.6956522 2.32298137,22.6956522 L21.6770186,22.6956522 C22.2395944,22.6956522 22.6956522,22.2395944 22.6956522,21.6770186 L22.6956522,2.32298137 C22.6956522,1.7604056 22.2395944,1.30434783 21.6770186,1.30434783 L2.32298137,1.30434783 Z M2.08695652,0 L21.9130435,0 C23.0656377,0 24,0.934362261 24,2.08695652 L24,21.9130435 C24,23.0656377 23.0656377,24 21.9130435,24 L2.08695652,24 C0.934362261,24 0,23.0656377 0,21.9130435 L0,2.08695652 C0,0.934362261 0.934362261,0 2.08695652,0 Z M8.34782609,2.86956522 C8.78004893,2.86956522 9.13043478,3.21995107 9.13043478,3.65217391 L9.13030435,5.47756522 L12.5217391,5.47826087 C12.953962,5.47826087 13.3043478,5.82864672 13.3043478,6.26086957 C13.3043478,6.69309241 12.953962,7.04347826 12.5217391,7.04347826 L11.0127673,7.04271688 C10.6379048,8.1191625 10.0168214,9.21007333 9.25218398,10.173134 C10.3291046,11.0458702 11.2887861,11.4689941 12.6794903,11.7551943 C13.1028413,11.8423179 13.3754075,12.2561393 13.2882839,12.6794903 C13.2011603,13.1028413 12.7873389,13.3754075 12.3639879,13.2882839 C10.7025276,12.9463634 9.50199038,12.4052337 8.19610286,11.3333997 C6.95846368,12.5095592 5.51873924,13.3043478 4.17391304,13.3043478 C3.7416902,13.3043478 3.39130435,12.953962 3.39130435,12.5217391 C3.39130435,12.0895163 3.7416902,11.7391304 4.17391304,11.7391304 C5.94491738,11.7391304 8.30784918,9.39159528 9.33166979,7.04292098 L4.17391304,7.04347826 C3.7416902,7.04347826 3.39130435,6.69309241 3.39130435,6.26086957 C3.39130435,5.82864672 3.7416902,5.47826087 4.17391304,5.47826087 L7.56430435,5.47756522 L7.56521739,3.65217391 C7.56521739,3.21995107 7.91560324,2.86956522 8.34782609,2.86956522 Z M16.6956522,10.6956522 C18.2753052,10.6956522 19.5652174,11.7854522 19.5652174,13.461854 L19.5652174,19.826087 C19.5652174,20.2583098 19.2148315,20.6086957 18.7826087,20.6086957 C18.3503858,20.6086957 18,20.2583098 18,19.826087 L17.999087,17.9996522 L15.391087,17.9996522 L15.3913043,19.826087 C15.3913043,20.2583098 15.0409185,20.6086957 14.6086957,20.6086957 C14.1764728,20.6086957 13.826087,20.2583098 13.826087,19.826087 L13.826087,13.461854 C13.826087,11.7854522 15.1159992,10.6956522 16.6956522,10.6956522 Z M16.6956522,12.2608696 C15.9274791,12.2608696 15.3913043,12.7138642 15.3913043,13.461854 L15.391087,16.4346522 L17.999087,16.4346522 L18,13.461854 C18,12.7138642 17.4638252,12.2608696 16.6956522,12.2608696 Z"/>
</svg>
