<svg xmlns="http://www.w3.org/2000/svg" width="21" height="21" viewBox="0 0 21 21">
  <path fill="#333" fill-rule="evenodd" d="M4,18 L4,16 L2,16 L2,18 L4,18 Z M4.5,19 L1.5,19 C1.2,19 1,18.7 1,18.5 L1,15.5 C1,15.2 1.2,15 1.5,15 L4.5,15 C4.8,15 5,15.2 5,15.5 L5,18.5 C5,18.7 4.8,19 4.5,19 Z M7.5,4 L18.5,4 C19.2,4 19.2,5 18.5,5 L7.5,5 C6.8,5 6.8,4 7.5,4 Z M4,6 L4,4 L2,4 L2,6 L4,6 Z M4.5,7 L1.5,7 C1.2,7 1,6.7 1,6.5 L1,3.5 C1,3.2 1.2,3 1.5,3 L4.5,3 C4.8,3 5,3.2 5,3.5 L5,6.5 C5,6.7 4.8,7 4.5,7 Z M7.5,10 L18.5,10 C19.2,10 19.2,11 18.5,11 L7.5,11 C6.8,11 6.8,10 7.5,10 Z M4,12 L4,10 L2,10 L2,12 L4,12 Z M4.5,13 L1.5,13 C1.2,13 1,12.7 1,12.5 L1,9.5 C1,9.2 1.2,9 1.5,9 L4.5,9 C4.8,9 5,9.2 5,9.5 L5,12.5 C5,12.7 4.8,13 4.5,13 Z M7.5,16 L18.5,16 C19.2,16 19.2,17 18.5,17 L7.5,17 C6.8,17 6.8,16 7.5,16 Z"/>
</svg>
