<svg xmlns="http://www.w3.org/2000/svg" width="24" height="24" viewBox="0 0 24 24">
  <path fill="#333" fill-rule="evenodd" d="M15.4666667,0 C15.7284905,0 15.9462489,0.184565385 15.9914073,0.427955862 L16,0.52173913 L16,4.89440994 C16,5.1825585 15.7612185,5.41614907 15.4666667,5.41614907 C15.2048428,5.41614907 14.9870844,5.23158368 14.941926,4.98819321 L14.9333333,4.89440994 L14.9333333,1.04295652 L1.06666667,1.04295652 L1.06666667,22.956 L14.9333333,22.956 L14.9333333,20.2206211 C14.9333333,19.9644891 15.1220002,19.7514646 15.3707993,19.7072879 L15.4666667,19.698882 C15.7284905,19.698882 15.9462489,19.8834474 15.9914073,20.1268378 L16,20.2206211 L16,23.4782609 C16,23.7343929 15.8113332,23.9474174 15.562534,23.9915941 L15.4666667,24 L0.533333333,24 C0.271509452,24 0.0537510716,23.8154346 0.00859271404,23.5720441 L0,23.4782609 L0,0.52173913 C0,0.265607073 0.188666838,0.0525825701 0.437465992,0.00840591591 L0.533333333,0 L15.4666667,0 Z M18.8035555,6.11113193 L18.8699731,6.17730595 L23.8699701,12.1356358 C23.9447152,12.224707 23.987236,12.3340227 23.9975325,12.4461271 C23.9989527,12.4634134 24,12.4815905 24,12.5 L23.9974814,12.5544268 C23.990112,12.6338364 23.9665709,12.711832 23.9268582,12.7822079 L23.8699701,12.8643642 L18.8699731,18.822694 C18.6842197,19.0440501 18.3679957,19.0603633 18.163667,18.8591305 C17.9820415,18.6802569 17.949963,18.3897047 18.0755373,18.1718804 L18.1300334,18.0939656 L22.405,13 L4.52631579,13 C4.23563961,13 4,12.7761424 4,12.5 C4,12.2545401 4.18618438,12.0503916 4.43170986,12.0080557 L4.52631579,12 L22.406,12 L18.1300334,6.90603439 C17.9649193,6.70927343 17.9584712,6.41673378 18.1025833,6.2128219 L18.163667,6.14086953 C18.3452925,5.96199593 18.6153291,5.95501048 18.8035555,6.11113193 Z"/>
</svg>
