<svg xmlns="http://www.w3.org/2000/svg" width="24" height="24" viewBox="0 0 24 24">
  <path fill="#333" fill-rule="evenodd" d="M11.5280248,0.00210971502 C11.5456255,0.00071029323 11.56339,6.66133815e-15 11.5812682,6.66133815e-15 C11.7563047,6.66133815e-15 11.8972991,0.0680838923 11.9843897,0.184389741 L16.8368829,5.03688287 C16.8538014,5.05137898 16.869545,5.06712258 16.8840411,5.08404113 L16.9,5.1 C16.9,5.10127305 16.9000162,5.1025623 16.9000482,5.10386735 C16.9634448,5.18724679 16.9988704,5.29579378 16.9988704,5.42205359 C16.9988704,5.43755484 16.9983364,5.4527891 16.9972823,5.46774258 C16.9990305,5.47933731 17,5.49015343 17,5.5 L17,10 L16,10 L16,5.92205359 L11.51331,5.92205359 C11.21331,5.92205359 11.01331,5.72205359 11.01331,5.42205359 L11.01331,1 L1,1 L1,21 L11,21 L11,22 L0.5,22 C0.2,22 0,21.8 0,21.5 L0,0.5 C0,0.2 0.2,0 0.5,0 L11.5,0 C11.5086384,0 11.5180229,0.000746211971 11.5280248,0.00210971502 Z M15.2103247,4.91032471 L12.0812682,1.78126823 L12.0812682,4.88184273 L15.2103247,4.91032471 Z M3.5,7 C3.2,7 3,6.8 3,6.5 C3,6.2 3.2,6 3.5,6 L8,6 C8.3,6 8.5,6.2 8.5,6.5 C8.5,6.8 8.3,7 8,7 L3.5,7 Z M3.5,10 C3.2,10 3,9.8 3,9.5 C3,9.2 3.2,9 3.5,9 L11.5,9 C11.8,9 12,9.2 12,9.5 C12,9.8 11.8,10 11.5,10 L3.5,10 Z M3.5,13 C3.2,13 3,12.8 3,12.5 C3,12.2 3.2,12 3.5,12 L9.5,12 C9.8,12 10,12.2 10,12.5 C10,12.8 9.8,13 9.5,13 L3.5,13 Z M3.5,16 C3.2,16 3,15.8 3,15.5 C3,15.2 3.2,15 3.5,15 L8.5,15 C8.8,15 9,15.2 9,15.5 C9,15.8 8.8,16 8.5,16 L3.5,16 Z M24,17.5 C24,21.1 21.1,24 17.5,24 C13.9,24 11,21.1 11,17.5 C11,13.9 13.9,11 17.5,11 C21.1,11 24,13.9 24,17.5 Z M23,17.5 C23,14.5 20.5,12 17.5,12 C14.5,12 12,14.5 12,17.5 C12,20.5 14.5,23 17.5,23 C20.5,23 23,20.5 23,17.5 Z M18,17 L19.5,17 C19.8,17 20,17.2 20,17.5 C20,17.8 19.8,18 19.5,18 L17.5,18 C17.2,18 17,17.8 17,17.5 L17,14 C17,13.7 17.2,13.5 17.5,13.5 C17.8,13.5 18,13.7 18,14 L18,17 Z"/>
</svg>
