<svg xmlns="http://www.w3.org/2000/svg" width="24" height="24" viewBox="0 0 24 24">
  <path fill="#333" fill-rule="evenodd" d="M20.6464466,11.6464466 C20.8417088,11.4511845 21.1582912,11.4511845 21.3535534,11.6464466 L21.3535534,11.6464466 L23.8535534,14.1464466 C24.0488155,14.3417088 24.0488155,14.6582912 23.8535534,14.8535534 L23.8535534,14.8535534 L16.3515534,22.3555534 L16.3515534,22.3555534 C16.3190097,22.3880971 16.283096,22.4152168 16.2449356,22.4369126 C16.2108971,22.4561579 16.1739424,22.4717386 16.1353606,22.482762 L16.2112588,22.4543902 C16.1976901,22.4607858 16.1838931,22.4665371 16.1699139,22.471644 L16.1353606,22.482762 L12.6353606,23.482762 C12.2581846,23.5905265 11.9094735,23.2418154 12.017238,22.8646394 L12.017238,22.8646394 L13.017238,19.3646394 C13.0205869,19.3529184 13.0243564,19.3413475 13.0285343,19.3299475 C13.0334629,19.3161069 13.0392142,19.3023099 13.0456098,19.2887412 C13.0513233,19.276959 13.0572218,19.2656152 13.0635449,19.2545151 C13.0847832,19.216904 13.1119029,19.1809903 13.1444466,19.1484466 Z M13.744,20.455 L13.225,22.274 L15.044,21.755 L13.744,20.455 Z M16.9939428,5.42239391 L17,5.50137719 L16.9819981,12.0363772 L15.9820019,12.0336228 L15.998,6 L11.5,6 C11.2545401,6 11.0503916,5.82312484 11.0080557,5.58987563 L11,5.5 L11,1 L1,1 L1,21 L11,21 L11,22 L0.5,22 C0.254540111,22 0.0503916296,21.8231248 0.00805566941,21.5898756 L-1.42108547e-14,21.5 L-1.42108547e-14,0.5 C-1.42108547e-14,0.254540111 0.176875161,0.0503916296 0.410124368,0.00805566941 L0.5,1.77635684e-14 L11.5,1.77635684e-14 C11.5289644,1.77635684e-14 11.5576698,0.00251316923 11.5858244,0.00741874956 L11.5,1.77635684e-14 C11.53718,1.77635684e-14 11.5734121,0.00405810679 11.6082776,0.0117555499 C11.627752,0.0161752938 11.6470999,0.0217060499 11.6660321,0.0283713194 C11.6767797,0.032003496 11.6875823,0.0362330462 11.6981944,0.04081971 C11.7122274,0.0470222758 11.7258544,0.0536592396 11.7391668,0.06090986 C11.7513627,0.0674500504 11.7634712,0.0747354237 11.7752322,0.0825044328 C11.7813925,0.0866293699 11.7874946,0.090849458 11.7935072,0.0952091774 L11.805052,0.103808328 C11.8176175,0.113497606 11.8297092,0.123771313 11.8412864,0.134588748 L11.8535534,0.146446609 L16.8535534,5.14644661 L16.8654113,5.15871357 C16.8762287,5.17029076 16.8865024,5.18238246 16.8961917,5.19494796 L16.8535534,5.14644661 C16.8777119,5.17060508 16.8991419,5.19698016 16.9176461,5.22509324 C16.9252646,5.23652877 16.9325499,5.24863729 16.9393234,5.26106504 C16.9460119,5.27357186 16.9521693,5.28613455 16.9577891,5.29892993 C16.9633616,5.31127723 16.9683748,5.32406798 16.9728642,5.33710256 C16.9780698,5.35260169 16.9827131,5.36859599 16.9865529,5.3848132 C16.9886127,5.39304989 16.9903879,5.40154903 16.9919443,5.41012437 L16.9939428,5.42239391 L16.9939428,5.42239391 Z M19,14.707 L14.205,19.502 L15.998,21.295 L20.793,16.5 L19,14.707 Z M8.4814,15 C8.75754237,15 8.9814,15.2238576 8.9814,15.5 C8.9814,15.7454599 8.80452484,15.9496084 8.57127563,15.9919443 L8.4814,16 L3.4814,16 C3.20525763,16 2.9814,15.7761424 2.9814,15.5 C2.9814,15.2545401 3.15827516,15.0503916 3.39152437,15.0080557 L3.4814,15 L8.4814,15 Z M21,12.707 L19.707,14 L21.5,15.793 L22.793,14.5 L21,12.707 Z M9.4814,12 C9.75754237,12 9.9814,12.2238576 9.9814,12.5 C9.9814,12.7454599 9.80452484,12.9496084 9.57127563,12.9919443 L9.4814,13 L3.4814,13 C3.20525763,13 2.9814,12.7761424 2.9814,12.5 C2.9814,12.2545401 3.15827516,12.0503916 3.39152437,12.0080557 L3.4814,12 L9.4814,12 Z M11.4814,9 C11.7575424,9 11.9814,9.22385763 11.9814,9.5 C11.9814,9.74545989 11.8045248,9.94960837 11.5712756,9.99194433 L11.4814,10 L3.4814,10 C3.20525763,10 2.9814,9.77614237 2.9814,9.5 C2.9814,9.25454011 3.15827516,9.05039163 3.39152437,9.00805567 L3.4814,9 L11.4814,9 Z M7.9814,6 C8.25754237,6 8.4814,6.22385763 8.4814,6.5 C8.4814,6.74545989 8.30452484,6.94960837 8.07127563,6.99194433 L7.9814,7 L3.4814,7 C3.20525763,7 2.9814,6.77614237 2.9814,6.5 C2.9814,6.25454011 3.15827516,6.05039163 3.39152437,6.00805567 L3.4814,6 L7.9814,6 Z M15.293,5 L12,1.707 L12,5 L15.293,5 Z"/>
</svg>
