<svg xmlns="http://www.w3.org/2000/svg" width="24" height="24" viewBox="0 0 24 24">
  <path fill="#333" fill-rule="evenodd" d="M20.647423,12.1464702 C20.8426814,11.9511858 21.159282,11.9511753 21.3545534,12.1464466 L21.3545534,12.1464466 L23.8545534,14.6464466 C24.0498063,14.8416996 24.0498169,15.1582639 23.854577,15.3535298 L23.854577,15.3535298 L16.3535534,22.8555534 L16.3535534,22.8555534 C16.3210097,22.8880971 16.285096,22.9152168 16.2469356,22.9369126 C16.2129068,22.9561538 16.1759475,22.9717371 16.1373606,22.982762 L16.2132588,22.9543902 C16.1996901,22.9607858 16.1858931,22.9665371 16.1719139,22.971644 L16.1373606,22.982762 L12.6373606,23.982762 C12.2601846,24.0905265 11.9114735,23.7418154 12.019238,23.3646394 L12.019238,23.3646394 L13.019238,19.8646394 C13.0225865,19.8529199 13.0263554,19.8413506 13.0305326,19.829952 C13.0354629,19.8161069 13.0412142,19.8023099 13.0476098,19.7887412 C13.0533177,19.7769701 13.0592152,19.7656276 13.0655371,19.7545288 C13.0867832,19.716904 13.1139029,19.6809903 13.1464466,19.6484466 Z M13.746,20.955 L13.227,22.774 L15.045,22.254 L13.746,20.955 Z M11.5,1.77635684e-14 C11.5289644,1.77635684e-14 11.5576698,0.00251316923 11.5858244,0.00741874956 L11.5,1.77635684e-14 C11.53718,1.77635684e-14 11.5734121,0.00405810679 11.6082776,0.0117555499 C11.627752,0.0161752938 11.6470999,0.0217060499 11.6660321,0.0283713194 C11.6767797,0.032003496 11.6875823,0.0362330462 11.6981944,0.04081971 C11.7122274,0.0470222758 11.7258544,0.0536592396 11.7391668,0.06090986 C11.7513627,0.0674500504 11.7634712,0.0747354237 11.7752322,0.0825044328 C11.7813925,0.0866293699 11.7874946,0.090849458 11.7935072,0.0952091774 L11.805052,0.103808328 C11.8176175,0.113497606 11.8297092,0.123771313 11.8412864,0.134588748 L11.8535534,0.146446609 L16.8535534,5.14644661 L16.8654113,5.15871357 C16.8762287,5.17029076 16.8865024,5.18238246 16.8961917,5.19494796 L16.8535534,5.14644661 C16.8776252,5.17051844 16.8989891,5.19679203 16.917449,5.22479402 C16.9252646,5.23652877 16.9325499,5.24863729 16.9393234,5.26106504 C16.9463408,5.27414565 16.9529777,5.28777256 16.9589828,5.30166987 C16.963767,5.31241775 16.9679965,5.32322028 16.9718538,5.33419807 C16.978294,5.35290006 16.9838247,5.37224798 16.9881784,5.39190902 C16.9895896,5.39781538 16.9908237,5.40395012 16.9919443,5.41012437 C16.992995,5.41655007 16.9933917,5.41892848 16.9937713,5.42131063 L17,5.5 L17,13 L16,13 L16,6 L11.5,6 C11.2545401,6 11.0503916,5.82312484 11.0080557,5.58987563 L11,5.5 L11,1 L1,1 L1,21 L9.5,21 L9.5,22 L0.5,22 C0.254540111,22 0.0503916296,21.8231248 0.00805566941,21.5898756 L2.30926389e-14,21.5 L2.30926389e-14,0.5 C2.30926389e-14,0.254540111 0.176875161,0.0503916296 0.410124368,0.00805566941 L0.5,1.77635684e-14 L11.5,1.77635684e-14 Z M19,15.206 L14.206,20.001 L15.999,21.794 L20.794,17 L19,15.206 Z M21.001,13.207 L19.707,14.499 L21.501,16.293 L22.794,15 L21.001,13.207 Z M12,1.707 L12,5 L15.294,5 L12,1.707 Z"/>
</svg>
