<svg width="16" height="16" viewBox="0 0 16 16" fill="none" xmlns="http://www.w3.org/2000/svg">
<path d="M6.5 2.98C6.77614 2.98 7 3.20386 7 3.48C7 3.72546 6.82312 3.92961 6.58988 3.97194L6.5 3.98H1V14.98H12V9.52C12 9.27454 12.1769 9.07039 12.4101 9.02806L12.5 9.02C12.7455 9.02 12.9496 9.19687 12.9919 9.43012L13 9.52V15.48C13 15.7255 12.8231 15.9296 12.5899 15.9719L12.5 15.98H0.5C0.25454 15.98 0.0503916 15.8031 0.00805567 15.5699L0 15.48V3.48C0 3.23454 0.176875 3.03039 0.410124 2.98806L0.5 2.98H6.5ZM9.41012 0.00805567L9.5 0L15.5115 0.000132377C15.5324 0.000610998 15.5532 0.0023875 15.5739 0.00546187L15.5 0L15.5534 0.00282096L15.6281 0.0166083L15.691 0.0377922L15.767 0.077188L15.8221 0.117584L15.8536 0.146447L15.891 0.188338L15.9333 0.250235L15.9624 0.309405L15.9834 0.371861L15.9979 0.454214L16 0.5V6.5C16 6.77614 15.7761 7 15.5 7C15.2545 7 15.0504 6.82312 15.0081 6.58988L15 6.5V1.706L3.85355 12.8536C3.65829 13.0488 3.34171 13.0488 3.14645 12.8536C2.97288 12.68 2.9536 12.4106 3.08859 12.2157L3.14645 12.1464L14.292 1H9.5C9.25454 1 9.05039 0.823125 9.00806 0.589876L9 0.5C9 0.25454 9.17688 0.0503916 9.41012 0.00805567Z" fill="#333333"/>
</svg>
