<svg xmlns="http://www.w3.org/2000/svg" width="16" height="16" viewBox="0 0 16 16"><path fill="#333" d="M6.5,2.98 C6.77614237,2.98 7,3.20385763 7,3.48 C7,3.72545989 6.82312484,3.92960837 6.58987563,3.97194433 L6.5,3.98 L1,3.98 L1,14.98 L12,14.98 L12,9.52 C12,9.27454011 12.1768752,9.07039163 12.4101244,9.02805567 L12.5,9.02 C12.7454599,9.02 12.9496084,9.19687516 12.9919443,9.43012437 L13,9.52 L13,15.48 C13,15.7254599 12.8231248,15.9296084 12.5898756,15.9719443 L12.5,15.98 L0.5,15.98 C0.254540111,15.98 0.0503916296,15.8031248 0.00805566941,15.5698756 L0,15.48 L0,3.48 C0,3.23454011 0.176875161,3.03039163 0.410124368,2.98805567 L0.5,2.98 L6.5,2.98 Z M9.41012437,0.00805566941 L9.5,0 L15.5115408,0.000132376874 C15.5324012,0.0006109983 15.5532373,0.00238749635 15.5739178,0.00546187104 L15.5,0 L15.5534276,0.00282096186 L15.6281458,0.0166082551 L15.6910366,0.0377922373 L15.7670103,0.0771880058 L15.8221372,0.117583716 L15.8535534,0.146446609 L15.891039,0.188337752 L15.9332526,0.250234852 L15.9623894,0.3094049 L15.9833892,0.371860863 L15.997912,0.454213822 L16,0.5 L16,6.5 C16,6.77614237 15.7761424,7 15.5,7 C15.2545401,7 15.0503916,6.82312484 15.0080557,6.58987563 L15,6.5 L15,1.706 L3.85355339,12.8535534 C3.65829124,13.0488155 3.34170876,13.0488155 3.14644661,12.8535534 C2.97288026,12.679987 2.95359511,12.4105626 3.08859116,12.2156945 L3.14644661,12.1464466 L14.292,1 L9.5,1 C9.25454011,1 9.05039163,0.823124839 9.00805567,0.589875632 L9,0.5 C9,0.254540111 9.17687516,0.0503916296 9.41012437,0.00805566941 Z"/></svg>