<svg xmlns="http://www.w3.org/2000/svg" viewBox="0 0 24 24">
    <!-- no post-processing -->
    <defs>
        <linearGradient id="OperaA" x1="12" y1=".26" x2="12" y2="24.09" gradientUnits="userSpaceOnUse">
            <stop offset=".46" stop-color="#e52d37"/>
            <stop offset="1" stop-color="#981917"/>
        </linearGradient>
        <linearGradient id="OperaB" x1="15.95" y1="22.29" x2="15.95" y2="1.71" gradientUnits="userSpaceOnUse">
            <stop offset="0" stop-color="#e94d50"/>
            <stop offset="1" stop-color="#941914"/>
        </linearGradient>
    </defs>
    <path d="M19.28 2.46A12 12 0 1 0 24 12a12 12 0 0 0-4.72-9.54zm-11 16.09A10.86 10.86 0 0 1 7.9 5.92h0a5.25 5.25 0 0 1 4.17-2.33c3.33 0 6 3.78 6 8.44s-2.71 8.45-6 8.45a5.09 5.09 0 0 1-3.83-1.92z" fill="url(#OperaA)"/>
    <path d="M24,12a12,12,0,0,1-4.72,9.54,9.15,9.15,0,0,1-3.61.75,9.34,9.34,0,0,1-7.42-3.74,5.09,5.09,0,0,0,3.83,1.92c3.33,0,6-3.78,6-8.45s-2.71-8.44-6-8.44A5.25,5.25,0,0,0,7.91,5.91a9.41,9.41,0,0,1,7.76-4.2,9.15,9.15,0,0,1,3.61.75A12,12,0,0,1,24,12Z" fill="url(#OperaB)"/>
</svg>