<svg width="354" height="354" viewBox="0 0 354 354" fill="none" xmlns="http://www.w3.org/2000/svg">
	<g clip-path="url(#clip0_2_1387)">
		<path d="M0 241.41C0 175.92 50.53 129.43 119.66 129.43C188.79 129.43 238.91 175.92 238.91 241.41C238.91 306.9 188.78 353.38 119.66 353.38C50.54 353.38 0 306.9 0 241.41ZM175.04 241.41C175.04 203.81 151.19 181.18 119.66 181.18C88.13 181.18 63.87 203.82 63.87 241.41C63.87 279 88.13 301.64 119.66 301.64C151.19 301.64 175.04 279 175.04 241.41Z" fill="black"/>
		<path d="M353.14 165.06H275.66C275.66 116.77 236.37 77.48 188.08 77.48V0C279.1 0 353.15 74.05 353.15 165.06H353.14Z" fill="#E00600"/>
	</g>
	<defs>
		<clipPath id="clip0_2_1387">
			<rect width="353.14" height="353.38" fill="white"/>
		</clipPath>
	</defs>
</svg>
