<svg xmlns="http://www.w3.org/2000/svg" width="24" height="24" viewBox="0 0 24 24">
  <path fill="#333" d="M12.1212737,0.0149273899 L12.1993631,0.0414649719 L23.6993631,5.04146497 C23.7267178,5.05378722 23.7458342,5.06406299 23.7642168,5.07551155 L23.6993631,5.04146497 C23.7308114,5.05513816 23.7601438,5.07165577 23.78719,5.09058546 C23.8752368,5.15228138 23.9440986,5.24234048 23.9776191,5.35045242 C23.9802724,5.36045426 23.9832498,5.37111525 23.9858736,5.38187225 C23.9952103,5.41944845 24,5.45894924 24,5.5 L23.9953562,5.43148585 C23.9967469,5.44147074 23.9978376,5.45151191 23.998623,5.46159578 L24,5.5 L24,18.5 C24,18.6960717 23.8853986,18.8740482 23.7069015,18.9551832 L23.7069015,18.9551832 L12.7069015,23.9551832 C12.6983028,23.9590917 12.6896739,23.9627354 12.6810221,23.9661191 C12.6644847,23.9727264 12.6477069,23.9782939 12.6306305,23.982966 C12.620519,23.9856515 12.6101188,23.9881575 12.5997187,23.9903149 C12.572237,23.9960541 12.5437253,23.9994522 12.5148271,24.0003058 C12.5014662,24.0007477 12.488556,24.0006156 12.4757251,23.9999825 C12.4670436,23.999429 12.4607455,23.9989604 12.4544383,23.998368 C12.4364185,23.9967958 12.4185026,23.9941212 12.4008462,23.9904983 L12.3904992,23.9880981 L12.3904992,23.9880981 L12.3744849,23.9843374 C12.3533008,23.9787756 12.3325557,23.9718389 12.3123792,23.9636106 L12.3076923,23.9615385 L8.11432939,22.2143039 C7.85942874,22.1080953 7.73889002,21.8153584 7.84509862,21.5604578 C7.93950627,21.3338794 8.1812943,21.2134636 8.41288432,21.2640954 L8.49894478,21.291227 L12,22.75 L12,10.833 L1,6.25 L1,18.166 L1.66956979,18.4456541 C1.89614815,18.5400617 2.01656399,18.7818498 1.96593211,19.0134398 L1.93880056,19.0995002 C1.84439291,19.3260786 1.60260489,19.4464944 1.37101486,19.3958626 L1.28495441,19.368731 L0.307692308,18.9615385 C0.147986477,18.8949944 0.0360024157,18.7517347 0.0072662723,18.5850485 L0,18.5 L0,5.5 L0.000261662773,5.48059656 C0.000995508743,5.46203925 0.00276487427,5.44359664 0.00553689598,5.42535217 L0,5.5 C0,5.45998969 0.00456440138,5.4214232 0.0131339416,5.38467337 C0.0169397718,5.36998047 0.0211530399,5.35526567 0.0260244955,5.34077917 C0.0315748534,5.32261012 0.0387562627,5.30467967 0.0468964169,5.287344 C0.0491575156,5.28372548 0.051376597,5.27915382 0.053665113,5.27461569 C0.0628828278,5.25536515 0.0731857541,5.2378939 0.0844589219,5.22118267 C0.0896903619,5.2139764 0.0953028029,5.20607213 0.101150512,5.19832596 C0.114371261,5.1805673 0.128643394,5.16419047 0.143874622,5.14882541 C0.146734857,5.14594128 0.149900432,5.14280918 0.153111875,5.13971631 C0.200589899,5.09587346 0.246688688,5.0654823 0.296626138,5.04311459 L0.300636944,5.04146497 L11.8006369,0.0414649719 C11.9023643,-0.00276433146 12.0151307,-0.0116101921 12.1212737,0.0149273899 Z M3.97267123,15.0674776 C4.99377958,14.0472295 6.49125771,13.7663134 7.79554839,14.3190245 C8.12583688,14.4589887 8.20563603,14.8909416 7.94715575,15.1396753 L7.94715575,15.1396753 L6.60445396,16.431939 L6.60445396,17.425939 L7.59945396,17.425939 L8.89175427,16.0840962 C9.11989856,15.8471313 9.50199604,15.8946635 9.67172912,16.1588147 L9.67172912,16.1588147 L9.71247951,16.2361756 C10.2637941,17.540178 9.98468461,19.0093693 8.96326123,20.0299316 C8.04649024,20.9482486 6.71990797,21.2687813 5.5110051,20.9206164 L5.5110051,20.9206164 L5.43745396,20.895939 L2.83943318,23.4947737 C2.78560777,23.5472916 2.70868751,23.6111734 2.61009303,23.677149 L2.61009303,23.677149 L2.50432643,23.7434792 C1.90095763,24.0980698 1.20669408,24.1124825 0.593239927,23.5478093 L0.593239927,23.5478093 L0.534281025,23.4913673 L0.371442461,23.3092933 C-0.0880238492,22.7287303 -0.0530937435,22.0865148 0.280581463,21.5245821 C0.369628975,21.3746198 0.460405096,21.2622765 0.532845501,21.1888084 L0.532845501,21.1888084 L3.11945396,18.593939 L3.09509424,18.5190572 C2.76429265,17.3749038 3.02480991,16.1295108 3.82573255,15.2237099 L3.82573255,15.2237099 Z M6.50756303,15.0417845 C5.9022234,15.023285 5.30214145,15.2291843 4.82046621,15.6440275 L4.82046621,15.6440275 L4.67962899,15.7747333 C3.95513926,16.4992231 3.76002654,17.5874199 4.15767782,18.5288513 C4.23675546,18.716066 4.1946478,18.9325193 4.05115362,19.076436 L4.05115362,19.076436 L1.24298032,21.8928684 L1.17219893,21.9847138 L1.14041764,22.0351521 C0.9885,22.2909922 0.983930789,22.5088263 1.20978842,22.7516687 L1.20978842,22.7516687 L1.25514704,22.7976512 L1.35159492,22.878993 C1.5660328,23.0353152 1.76744252,23.0166323 1.99765898,22.8813376 L1.99765898,22.8813376 L2.08955554,22.8211801 C2.11340753,22.8037557 2.12980084,22.7900519 2.13669993,22.7833468 L2.13669993,22.7833468 L4.95438617,19.9656606 C5.09835629,19.8216905 5.31524648,19.7793979 5.50275955,19.8587304 C6.43792725,20.2543782 7.52764107,20.0525662 8.25600574,19.3229738 C8.7594648,18.8199389 9.0097268,18.1735652 8.98910375,17.5162583 L8.98910375,17.5162583 L8.98345396,17.429939 L8.1720744,18.273412 C8.09667101,18.3517306 7.99836307,18.4027964 7.89247687,18.4200899 L7.89247687,18.4200899 L7.81188076,18.4266259 L6.10396414,18.4266259 C5.82782176,18.4266259 5.60396414,18.2027683 5.60396414,17.9266259 L5.60396414,17.9266259 L5.60396414,16.2194617 C5.60396414,16.0835213 5.65931519,15.9534408 5.75726863,15.8591809 L5.75726863,15.8591809 L6.60045396,15.047939 Z M23,6.276 L13,10.821 L13,22.723 L23,18.177 L23,6.276 Z M3.64605009,9.5215423 L3.7236068,9.5527864 L9.7236068,12.5527864 C9.86476681,12.6233664 9.96259986,12.75536 9.99128976,12.9069957 L10,13 L10,14.5410822 C10,14.8172245 9.77614237,15.0410822 9.5,15.0410822 C9.25454011,15.0410822 9.05039163,14.864207 9.00805567,14.6309578 L9,14.5410822 L9,13.309 L4,10.809 L4,13.9778457 C4,14.2233056 3.82312484,14.4274541 3.58987563,14.46979 L3.5,14.4778457 C3.25454011,14.4778457 3.05039163,14.3009705 3.00805567,14.0677213 L3,13.9778457 L3,10 C3,9.65690061 3.3332929,9.424522 3.64605009,9.5215423 Z M7.175,3.143 L1.776,5.49 L12.491,9.954 L17.098,7.86 L7.175,3.143 Z M12,1.045 L8.392,2.614 L18.289,7.319 L22.269,5.51 L12,1.045 Z"/>
</svg>
