<?xml version="1.0" encoding="UTF-8"?>
<svg width="24px" height="24px" viewBox="0 0 24 24" version="1.1" xmlns="http://www.w3.org/2000/svg" xmlns:xlink="http://www.w3.org/1999/xlink">
    <!-- Generator: Sketch 53.2 (72643) - https://sketchapp.com -->
    <title>Assets / Icons / OMS / Orders</title>
    <desc>Created with Sketch.</desc>
    <g id="Assets-/-Icons-/-OMS-/-Orders" stroke="none" stroke-width="1" fill-rule="evenodd">
        <path d="M3.3,15.38 L8.8,17.78 C9.1,17.972 9.5,17.684 9.5,17.3 L9.5,12.5 C9.5,12.308 9.4,12.116 9.2,12.02 L3.7,9.62 C3.4,9.524 3,9.716 3,10.1 L3,14.9 C3,15.092 3.1,15.284 3.3,15.38 Z M4,10.868 L8.5,12.788 L8.5,16.532 L4,14.612 L4,10.868 Z M24,5.78 C24,5.684 24,5.684 23.9,5.588 C23.9,5.588 23.9,5.588 23.9,5.492 L23.8,5.396 C23.8,5.396 23.8,5.396 23.7,5.396 L23.7,5.396 L12.2,0.5 C12.1,0.5 11.9,0.5 11.8,0.5 L0.3,5.3 L0.3,5.3 C0.3,5.3 0.3,5.3 0.2,5.3 L0.1,5.396 C0.1,5.396 0.1,5.396 0.1,5.492 C0,5.588 0,5.684 0,5.78 L0,5.78 L0,18.26 C0,18.452 0.1,18.644 0.3,18.74 L11.8,23.54 C11.8,23.54 11.8,23.54 11.9,23.54 L12,23.54 L12.1,23.54 C12.1,23.54 12.1,23.54 12.2,23.54 L23.7,18.74 C23.9,18.644 24,18.452 24,18.26 L24,5.78 L24,5.78 Z M12,1.46 L22.2,5.78 L17.6,7.7 L8.3,2.996 L12,1.46 Z M11.5,22.292 L1,17.972 L1,6.548 L11.5,10.964 L11.5,22.292 Z M12,10.1 L1.8,5.78 L7.2,3.476 L16.5,8.18 L12,10.1 Z M23,17.972 L12.5,22.388 L12.5,10.868 L23,6.548 L23,17.972 Z" id="Shape" fill="#333333"></path>
    </g>
</svg>