<?xml version="1.0" encoding="UTF-8"?>
<svg width="24px" height="24px" viewBox="0 0 24 24" version="1.1" xmlns="http://www.w3.org/2000/svg" xmlns:xlink="http://www.w3.org/1999/xlink">
    <!-- Generator: Sketch 53.2 (72643) - https://sketchapp.com -->
    <title>Assets / Icons / OMS / Organization</title>
    <desc>Created with Sketch.</desc>
    <g id="Assets-/-Icons-/-OMS-/-Organization" stroke="none" stroke-width="1" fill="none" fill-rule="evenodd">
        <path d="M7.96359884,12.5249458 C7.96359884,12.824295 8.16394095,13.0238612 8.46445412,13.0238612 L14.4747174,13.0238612 C14.7752306,13.0238612 14.9755727,12.824295 14.9755727,12.5249458 C14.9755727,11.0281996 14.3745463,10.1301518 13.2726647,9.53145336 C13.4730068,9.13232104 13.673349,8.73318872 13.673349,8.3340564 C13.673349,7.13665944 12.6716384,6.13882863 11.4695858,6.13882863 C10.2675331,6.13882863 9.26582255,7.13665944 9.26582255,8.3340564 C9.26582255,8.73318872 9.36599361,9.23210412 9.66650677,9.53145336 C8.56462517,10.0303688 7.96359884,11.0281996 7.96359884,12.5249458 Z M10.6682173,10.1301518 C11.0689015,10.0303688 11.1690726,9.43167028 10.7683884,9.23210412 C10.4678752,9.03253796 10.2675331,8.63340564 10.2675331,8.23427332 C10.2675331,7.53579176 10.7683884,7.03687636 11.4695858,7.03687636 C12.1707831,7.03687636 12.6716384,7.53579176 12.6716384,8.23427332 C12.6716384,8.63340564 12.4712963,9.03253796 12.1707831,9.23210412 C11.87027,9.43167028 11.87027,10.0303688 12.2709542,10.1301518 C13.2726647,10.4295011 13.8736911,11.0281996 13.9738621,12.0260304 L8.96530939,12.0260304 C9.1656515,11.0281996 9.66650677,10.4295011 10.6682173,10.1301518 Z M8.56462517,20.9067245 C8.76496728,20.6073753 8.86513833,20.308026 8.86513833,19.9088937 C8.86513833,18.8112798 7.96359884,18.0130152 6.9618883,18.0130152 C5.8600067,18.0130152 5.05863826,18.9110629 5.05863826,19.9088937 C5.05863826,20.308026 5.15880931,20.6073753 5.35915142,20.9067245 C4.45761193,21.4056399 3.95675666,22.2039046 3.95675666,23.4013015 C3.95675666,23.7006508 4.15709877,23.9002169 4.45761193,23.9002169 L9.46616466,23.9002169 C9.76667783,23.9002169 9.96701993,23.7006508 9.96701993,23.4013015 C9.96701993,22.2039046 9.46616466,21.4056399 8.56462517,20.9067245 Z M4.9584672,22.9023861 C5.05863826,22.2039046 5.45932248,21.8047722 6.26069091,21.505423 C6.66137513,21.4056399 6.76154619,20.8069414 6.36086197,20.6073753 C6.16051986,20.4078091 5.96017775,20.208243 5.96017775,19.8091106 C5.96017775,19.3101952 6.36086197,18.9110629 6.86171724,18.9110629 C7.36257251,18.9110629 7.76325673,19.3101952 7.76325673,19.8091106 C7.76325673,20.1084599 7.56291462,20.4078091 7.36257251,20.6073753 C7.06205935,20.8069414 7.06205935,21.4056399 7.46274357,21.505423 C8.26411201,21.8047722 8.66479622,22.2039046 8.76496728,22.9023861 L4.9584672,22.9023861 Z M2.45419084,12.5249458 C2.15367767,12.5249458 1.95333557,12.7245119 1.95333557,13.0238612 L1.95333557,23.5010846 C1.95333557,23.8004338 2.15367767,24 2.45419084,24 C2.754704,24 2.95504611,23.8004338 2.95504611,23.5010846 L2.95504611,13.0238612 C2.95504611,12.7245119 2.754704,12.5249458 2.45419084,12.5249458 Z M23.7906255,11.626898 L12.2709542,1.14967462 C12.0706121,0.95010846 11.7700989,0.95010846 11.5697568,1.14967462 L0.150256582,11.626898 C-0.0500855273,11.8264642 -0.0500855273,12.1258134 0.150256582,12.3253796 C0.350598691,12.5249458 0.651111855,12.5249458 0.851453964,12.3253796 L11.970441,2.2472885 L23.1895991,12.4251627 C23.3899413,12.6247289 23.6904544,12.6247289 23.8907965,12.4251627 C24.0911386,12.1258134 23.9909676,11.8264642 23.7906255,11.626898 Z M21.4866912,12.5249458 C21.1861781,12.5249458 20.9858359,12.7245119 20.9858359,13.0238612 L20.9858359,23.5010846 C20.9858359,23.8004338 21.1861781,24 21.4866912,24 C21.7872044,24 21.9875465,23.8004338 21.9875465,23.5010846 L21.9875465,13.0238612 C21.9875465,12.7245119 21.7872044,12.5249458 21.4866912,12.5249458 Z M5.96017775,15.5184382 L5.96017775,17.2147505 C5.96017775,17.5140998 6.16051986,17.7136659 6.46103302,17.7136659 C6.76154619,17.7136659 6.9618883,17.5140998 6.9618883,17.2147505 L6.9618883,16.0173536 L15.9772832,16.0173536 L15.9772832,17.2147505 C15.9772832,17.5140998 16.1776253,17.7136659 16.4781385,17.7136659 C16.7786516,17.7136659 16.9789938,17.5140998 16.9789938,17.2147505 L16.9789938,15.5184382 C16.9789938,15.2190889 16.7786516,15.0195228 16.4781385,15.0195228 L11.970441,15.0195228 L11.970441,13.5227766 C11.970441,13.2234273 11.7700989,13.0238612 11.4695858,13.0238612 C11.1690726,13.0238612 10.9687305,13.2234273 10.9687305,13.5227766 L10.9687305,15.0195228 L6.46103302,15.0195228 C6.16051986,15.0195228 5.96017775,15.2190889 5.96017775,15.5184382 Z M17.5800201,20.9067245 C17.7803622,20.6073753 17.8805332,20.308026 17.8805332,19.9088937 C17.8805332,18.8112798 16.9789938,18.0130152 15.9772832,18.0130152 C14.8754016,18.0130152 14.0740332,18.9110629 14.0740332,19.9088937 C14.0740332,20.308026 14.1742042,20.6073753 14.3745463,20.9067245 C13.4730068,21.4056399 12.9721516,22.2039046 12.9721516,23.4013015 C12.9721516,23.7006508 13.1724937,23.9002169 13.4730068,23.9002169 L18.4815596,23.9002169 C18.7820727,23.9002169 18.9824149,23.7006508 18.9824149,23.4013015 C18.9824149,22.2039046 18.4815596,21.4056399 17.5800201,20.9067245 Z M13.9738621,22.9023861 C14.0740332,22.2039046 14.4747174,21.8047722 15.2760858,21.505423 C15.67677,21.4056399 15.7769411,20.8069414 15.3762569,20.6073753 C15.1759148,20.4078091 14.9755727,20.208243 14.9755727,19.8091106 C14.9755727,19.3101952 15.3762569,18.9110629 15.8771122,18.9110629 C16.3779674,18.9110629 16.7786516,19.3101952 16.7786516,19.8091106 C16.7786516,20.1084599 16.5783095,20.4078091 16.3779674,20.6073753 C16.0774543,20.8069414 16.0774543,21.4056399 16.4781385,21.505423 C17.2795069,21.8047722 17.6801911,22.2039046 17.7803622,22.9023861 L13.9738621,22.9023861 Z" id="Shape" fill="#333333"></path>
    </g>
</svg>