<svg xmlns="http://www.w3.org/2000/svg" width="24" height="24" viewBox="0 0 24 24">
  <path fill="#333" fill-rule="evenodd" d="M20.1217075,16.002 C21.42345,16.002 22.477487,17.0556729 22.477487,18.3577794 C22.477487,19.0347942 22.1918242,19.6452151 21.7344113,20.0749752 C23.020563,20.6779357 23.9109838,21.9857198 23.9109838,23.502 C23.9109838,23.7474599 23.7341086,23.9516084 23.5008594,23.9939443 L23.4109838,24.002 L16.8322457,24.002 C16.5561033,24.002 16.3322457,23.7781424 16.3322457,23.502 C16.3322457,21.9854312 17.222421,20.6776918 18.5092034,20.072326 C18.0515909,19.6452151 17.7659281,19.0347942 17.7659281,18.3577794 C17.7659281,17.0556729 18.8199651,16.002 20.1217075,16.002 Z M12.2005782,16.002 C13.5023206,16.002 14.5563576,17.0556729 14.5563576,18.3577794 C14.5563576,19.0347942 14.2706948,19.6452151 13.8132819,20.0749752 C15.0997639,20.6778165 15.9898544,21.9855034 15.9898544,23.502 C15.9898544,23.7474599 15.8129792,23.9516084 15.57973,23.9939443 L15.4898544,24.002 L8.91204422,24.002 C8.63590185,24.002 8.41204422,23.7781424 8.41204422,23.502 C8.41204422,21.9856232 9.30204793,20.6778824 10.5883934,20.0724398 C10.1304615,19.6452151 9.84479873,19.0347942 9.84479873,18.3577794 C9.84479873,17.0556729 10.8988357,16.002 12.2005782,16.002 Z M4.20336182,16.002 C5.5051043,16.002 6.55914125,17.0556729 6.55914125,18.3577794 C6.55914125,19.0347942 6.27347848,19.6452151 5.81606556,20.0749752 C7.10221734,20.6779357 7.99263807,21.9857198 7.99263807,23.502 C7.99263807,23.7474599 7.81576291,23.9516084 7.5825137,23.9939443 L7.49263807,24.002 L0.9139,24.002 C0.637757625,24.002 0.4139,23.7781424 0.4139,23.502 C0.4139,21.9854312 1.3040753,20.6776918 2.59085772,20.072326 C2.13324517,19.6452151 1.8475824,19.0347942 1.8475824,18.3577794 C1.8475824,17.0556729 2.90161935,16.002 4.20336182,16.002 Z M20.1216147,20.7135589 C18.8109912,20.7135589 17.7125962,21.6155012 17.4130024,22.832691 L17.377155,23.0005704 L22.866,23.001 C22.6500548,21.8105286 21.6788224,20.8839276 20.466366,20.734631 L20.2915725,20.7186461 L20.1216147,20.7135589 Z M12.2004854,20.7135589 C10.8905474,20.7135589 9.79234289,21.6155891 9.49279083,22.8327305 L9.45694827,23.0006024 L14.944,23.001 C14.7289924,21.8102776 13.758145,20.883885 12.5453502,20.7346255 L12.3705034,20.7186447 L12.2004854,20.7135589 Z M4.20326903,20.7135589 C2.89264554,20.7135589 1.79425045,21.6155012 1.49465669,22.832691 L1.45880933,23.0005704 L6.947,23.001 C6.73167934,21.8105286 5.76047539,20.8839276 4.54802023,20.734631 L4.37322675,20.7186461 L4.20326903,20.7135589 Z M20.1217075,17.002 C19.3721725,17.002 18.7659281,17.608035 18.7659281,18.3577794 C18.7659281,19.1063865 19.3728908,19.7135589 20.1217075,19.7135589 C20.8705242,19.7135589 21.477487,19.1063865 21.477487,18.3577794 C21.477487,17.608035 20.8712426,17.002 20.1217075,17.002 Z M12.2005782,17.002 C11.4510431,17.002 10.8447987,17.608035 10.8447987,18.3577794 C10.8447987,19.1063865 11.4517615,19.7135589 12.2005782,19.7135589 C12.9493948,19.7135589 13.5563576,19.1063865 13.5563576,18.3577794 C13.5563576,17.608035 12.9501132,17.002 12.2005782,17.002 Z M4.20336182,17.002 C3.45382678,17.002 2.8475824,17.608035 2.8475824,18.3577794 C2.8475824,19.1063865 3.45454513,19.7135589 4.20336182,19.7135589 C4.95217852,19.7135589 5.55914125,19.1063865 5.55914125,18.3577794 C5.55914125,17.608035 4.95289687,17.002 4.20336182,17.002 Z M12.0004,0.0161 C13.8086775,0.0161 15.2744,1.48109259 15.2744,3.2891 C15.2744,4.38384431 14.7364726,5.35294917 13.9104124,5.94690569 C15.6895477,6.69194519 16.9385,8.45040078 16.9385,10.5 C16.9385,10.7454599 16.7616248,10.9496084 16.5283756,10.9919443 L16.4385,11 L12.4999,10.9991 L12.4999,12.0001 L19.5,12.0005 C19.7454599,12.0005 19.9496084,12.1773752 19.9919443,12.4106244 L20,12.5005 L20,14.4585 C20,14.7346424 19.7761424,14.9585 19.5,14.9585 C19.2545401,14.9585 19.0503916,14.7816248 19.0080557,14.5483756 L19,14.4585 L19,13 L12.4999,12.9991 L12.5,14.479 C12.5,14.7551424 12.2761424,14.979 12,14.979 C11.7545401,14.979 11.5503916,14.8021248 11.5080557,14.5688756 L11.5,14.479 L11.4999,12.9991 L5,13 L5,14.4585 C5,14.7039599 4.82312484,14.9081084 4.58987563,14.9504443 L4.5,14.9585 C4.25454011,14.9585 4.05039163,14.7816248 4.00805567,14.5483756 L4,14.4585 L4,12.5005 C4,12.2550401 4.17687516,12.0508916 4.41012437,12.0085557 L4.5,12.0005 L11.4999,12.0001 L11.4999,10.9991 L7.5625,11 C7.28635763,11 7.0625,10.7761424 7.0625,10.5 C7.0625,8.45112272 8.31137354,6.69256791 10.0894006,5.94538471 C9.26363744,5.35291144 8.7264,4.38403621 8.7264,3.2891 C8.7264,1.48045763 10.1907576,0.0161 12.0004,0.0161 Z M11.9995,6.562 C10.0973315,6.562 8.50969225,7.91270882 8.14250382,9.70666815 L8.10787356,9.90053285 L8.094,9.999 L15.906,9.999 L15.8931335,9.9003856 C15.6242693,8.14073201 14.1905402,6.76387797 12.402375,6.5823364 L12.2022726,6.56712538 L11.9995,6.562 Z M12.0004,1.0161 C10.7430424,1.0161 9.7264,2.03274237 9.7264,3.2891 C9.7264,4.54458419 10.7431691,5.5611 12.0004,5.5611 C13.2563774,5.5611 14.2744,4.54383784 14.2744,3.2891 C14.2744,2.03348888 13.2565042,1.0161 12.0004,1.0161 Z"/>
</svg>
