<?xml version="1.0" encoding="UTF-8"?>
<svg width="21px" height="21px" viewBox="0 0 21 21" version="1.1" xmlns="http://www.w3.org/2000/svg" xmlns:xlink="http://www.w3.org/1999/xlink">
    <!-- Generator: Sketch 53.2 (72643) - https://sketchapp.com -->
    <title>Assets / Icons / Check Mark / Outlined</title>
    <desc>Created with Sketch.</desc>
    <g id="Assets-/-Icons-/-Check-Mark-/-Outlined" stroke="none" stroke-width="1" fill="none" fill-rule="evenodd">
        <path d="M6.7826087,12.0516851 L16.7563411,2.14525178 C16.9513259,1.95158274 17.2660654,1.95158274 17.4610502,2.14525178 L20.3523545,5.01704665 C20.5492152,5.21257896 20.5492152,5.53101078 20.3523545,5.72654309 L7.1349632,18.8547482 C6.93997848,19.0484173 6.62523891,19.0484173 6.43025419,18.8547482 L0.647645492,13.1111585 C0.450784836,12.9156262 0.450784836,12.5971943 0.647645492,12.401662 L3.53894984,9.52986716 C3.73393456,9.33619812 4.04867413,9.33619812 4.24365886,9.52986716 L6.7826087,12.0516851 Z M7.1349632,13.1111585 C6.93997848,13.3048275 6.62523891,13.3048275 6.43025419,13.1111585 L3.89130435,10.5893406 L1.7095127,12.7564103 L6.7826087,17.7952748 L19.2904873,5.37179487 L17.1086957,3.20472517 L7.1349632,13.1111585 Z" id="Mask" fill="#333333"></path>
    </g>
</svg>