<svg xmlns="http://www.w3.org/2000/svg" width="24" height="24" viewBox="0 0 24 24">
  <path fill="#333" fill-rule="evenodd" d="M6.503,10.2225031 C6.89137624,10.2225031 7.2756878,10.2536456 7.6532791,10.3152009 C7.92582367,10.3596314 8.11074667,10.6165904 8.06631618,10.889135 C8.02188569,11.1616796 7.76492663,11.3466026 7.49238206,11.3021721 C7.1679652,11.2492853 6.83746097,11.2225031 6.503,11.2225031 L6.448,11.222 L6.39097758,11.287336 C5.85230001,11.9036106 5.4117484,12.5506713 5.06949611,13.2220125 L7.42931415,13.2229031 C7.70545652,13.2229031 7.92931415,13.4467607 7.92931415,13.7229031 C7.92931415,13.968363 7.75243899,14.1725114 7.51918978,14.2148474 L7.42931415,14.2229031 L4.63833259,14.2224451 C4.35147348,15.0305632 4.19820281,15.8673349 4.17879488,16.7224667 L7.49997333,16.7225031 C7.77611571,16.7224883 8,16.946334 8,17.2224764 C8,17.4679363 7.82314882,17.6720942 7.58990187,17.7144426 L7.50002667,17.7225031 L4.21636241,17.7222966 C4.29621882,18.5455394 4.49664168,19.3817228 4.81786516,20.2220586 L8.22643916,20.2238599 C8.31909602,20.0041015 8.40689485,19.7815743 8.49029711,19.5557665 C8.64093361,19.1479251 8.76737534,18.703763 8.86933649,18.2232594 L8.94121279,17.8560674 L9.92541627,18.0331083 C9.80324714,18.7122692 9.6377468,19.3353264 9.42835703,19.9022396 L9.305,20.222 L11.6877598,20.2232896 C12.2042248,19.3344301 12.5,18.3011291 12.5,17.1985031 C12.5,17.0003817 12.4905388,16.8036989 12.4717486,16.6088727 C12.4452387,16.3340057 12.6465718,16.0896915 12.9214388,16.0631816 C13.1963057,16.0366717 13.4406199,16.2380049 13.4671298,16.5128719 C13.4889977,16.7396084 13.5,16.9683285 13.5,17.1985031 C13.5,21.0783137 10.358474,24.2225031 6.482,24.2225031 C6.39194736,24.2225031 6.30228814,24.2207331 6.2130532,24.217226 C6.20041025,24.2175786 6.18729335,24.216866 6.17422894,24.2156425 C2.51930371,24.0509564 -0.414135313,20.9724371 -0.498148944,17.2458315 C-0.499819486,17.2385697 -0.499999999,17.2307708 -0.499999999,17.2229297 L-0.498940846,17.2058269 C-0.499645982,17.1644632 -0.5,17.1230209 -0.5,17.0815031 C-0.5,15.749412 -0.129045415,14.5169403 0.518716931,13.475003 C0.522155747,13.4690971 0.525832275,13.4629691 0.529634488,13.4569282 C1.70465655,11.5807383 3.77889537,10.326682 6.19951449,10.2289649 L6.503,10.2225031 Z M7.76113411,21.2232309 L5.25659827,21.2223402 C5.58721644,21.8901351 5.99383402,22.5583515 6.47656774,23.222609 C6.47931695,23.2225026 6.48065843,23.2225031 6.482,23.2225031 L6.526,23.221 L6.68623933,23.001297 C7.09678361,22.4167735 7.45153237,21.8280221 7.76113411,21.2232309 Z M4.15266931,21.2229536 L2.08057544,21.2226972 C2.88964059,22.1278255 3.95753936,22.7869703 5.1603927,23.0696367 C4.76500914,22.4563993 4.42943503,21.8400892 4.15266931,21.2229536 Z M10.9601902,21.2232436 L8.87541176,21.2229816 C8.57855263,21.8524279 8.23939179,22.4636449 7.84832502,23.0669077 C9.0694356,22.7833469 10.1493041,22.1267139 10.9601902,21.2232436 Z M3.21276567,17.7225067 L0.532952712,17.7230763 C0.626180281,18.6264365 0.913792957,19.4750307 1.35193908,20.2226652 L3.75552438,20.2222995 C3.46605257,19.3844491 3.28507467,18.5484007 3.21276567,17.7225067 Z M24.0007887,-0.5 C24.2769311,-0.5 24.5007887,-0.276142375 24.5007887,0 C24.5007887,0.245459889 24.3239136,0.44960837 24.0906644,0.491944331 L24.0007887,0.5 L21.991,0.5 L19.2978655,13.1379894 C20.0053673,13.4461238 20.5,14.1515496 20.5,14.9725031 C20.5,16.0770726 19.6045695,16.9725031 18.5,16.9725031 C17.3954305,16.9725031 16.5,16.0770726 16.5,14.9725031 C16.5,14.7964175 16.5227559,14.6256468 16.5654872,14.4629714 L11.9345128,14.4629714 C11.9772441,14.6256468 12,14.7964175 12,14.9725031 C12,16.0770726 11.1045695,16.9725031 10,16.9725031 C8.8954305,16.9725031 8,16.0770726 8,14.9725031 C8,13.8679336 8.8954305,12.9725031 10,12.9725031 C10.502077,12.9725031 10.9609436,13.1575094 11.3121469,13.4630693 L17.1878531,13.4630693 C17.493833,13.1968554 17.8815343,13.0221474 18.308334,12.9815682 L18.46976,12.222 L10.4497184,12.2225031 C10.2775113,12.2225031 10.1196399,12.1341539 10.0287826,11.9923776 L9.9891823,11.9171989 L7.11875325,5.12744705 C6.9910034,4.82526582 7.18370403,4.49334605 7.4923825,4.44012457 L7.57928939,4.43275123 L20.13076,4.432 L21.0979195,-0.104239929 C21.1409651,-0.306176844 21.3024171,-0.457727962 21.5001891,-0.492460477 L21.5869328,-0.5 L24.0007887,-0.5 Z M3.58326342,14.2223295 L1.2387917,14.2223453 C0.821279473,14.9660324 0.564433194,15.812968 0.510606603,16.7218318 L3.17843,16.7227967 C3.19501518,15.8714157 3.32989347,15.0347677 3.58326342,14.2223295 Z M10,13.9725031 C9.44771525,13.9725031 9,14.4202183 9,14.9725031 C9,15.5247878 9.44771525,15.9725031 10,15.9725031 C10.5522847,15.9725031 11,15.5247878 11,14.9725031 C11,14.7863535 10.9491373,14.6120836 10.8605512,14.4628327 L10.7741341,14.4636951 C10.5150375,14.4636951 10.3019701,14.2666212 10.2766527,14.0141945 C10.1903797,13.9862558 10.0967959,13.9725031 10,13.9725031 Z M19.0731138,14.1529225 L19.035413,14.227135 C18.9611233,14.3469364 18.8383882,14.4313466 18.6971226,14.4561556 L18.6103788,14.4636951 L17.6394488,14.4628327 C17.5508627,14.6120836 17.5,14.7863535 17.5,14.9725031 C17.5,15.5247878 17.9477153,15.9725031 18.5,15.9725031 C19.0522847,15.9725031 19.5,15.5247878 19.5,14.9725031 C19.5,14.6334197 19.3312326,14.3337541 19.0731138,14.1529225 Z M5.02427042,11.3956589 L4.90242773,11.425614 C3.73197445,11.73026 2.7133475,12.3630466 1.95155363,13.2215298 L3.96060627,13.2225435 C4.24024923,12.5942211 4.59477074,11.9836744 5.02427042,11.3956589 Z M14.03176,5.432 L8.332,5.432 L10.781,11.222 L18.68276,11.222 L19.91676,5.432 L15.03176,5.432 L15.00476,7.771 L16.1444057,6.61369231 C16.3379871,6.41676368 16.6545579,6.41405015 16.8514865,6.60763147 C17.0265342,6.77970375 17.048128,7.04895295 16.9148072,7.24497103 L16.8575474,7.31471227 L14.8632237,9.34352087 C14.6890618,9.52069422 14.4158616,9.54038015 14.2196912,9.40257865 L14.150082,9.34352087 L12.1557583,7.31471227 C11.962177,7.11778364 11.9648905,6.80121278 12.1618191,6.60763147 C12.3368668,6.43555918 12.6064466,6.41858407 12.8001505,6.55524544 L12.8688999,6.61369231 L14.00476,7.769 L14.03176,5.432 Z M5.57682951,4.22250301 C5.85297189,4.22250301 6.07682951,4.44636064 6.07682951,4.72250301 C6.07682951,4.99864539 5.85297189,5.22250301 5.57682951,5.22250301 C2.94157893,5.22250301 2.21943677,5.96006705 2.18946756,8.49279139 L2.189,8.619 L3.07081216,7.85264724 C3.25601247,7.69155284 3.52612567,7.69102386 3.71114887,7.83922624 L3.77621194,7.90175079 C3.93730634,8.0869511 3.93783532,8.3570643 3.78963294,8.5420875 L3.72710839,8.60715057 L2.02016036,10.0926782 C1.97452436,10.1325024 1.92158339,10.1641761 1.86360186,10.1854214 C1.85438261,10.1881561 1.84473872,10.191368 1.83502574,10.1942775 C1.81541209,10.2007973 1.79495149,10.2055622 1.77405144,10.2090314 C1.77039256,10.2090525 1.76741594,10.2095183 1.76443625,10.2099572 C1.74160544,10.2138982 1.71754459,10.2157294 1.69306766,10.2158031 L1.68283275,10.2152389 C1.67442818,10.215097 1.66602718,10.2147441 1.65763826,10.2141805 L1.69306766,10.2158031 C1.62855605,10.215996 1.56686135,10.203963 1.51017772,10.1818851 C1.50394016,10.1790416 1.49710222,10.1762227 1.49031708,10.1732461 C1.46824905,10.1638982 1.44761892,10.1529727 1.42790356,10.140713 C1.42709734,10.1399026 1.4261258,10.1392956 1.4251559,10.138685 L1.41656725,10.1334504 C1.39580542,10.1197521 1.37612415,10.1045469 1.35767965,10.0879898 L1.35057664,10.0812678 L-0.24496513,8.59585654 C-0.447077954,8.40769433 -0.45838716,8.09131391 -0.270224948,7.88920108 C-0.102969649,7.70954524 0.165593869,7.68064781 0.365160067,7.80859647 L0.436430514,7.86394127 L1.189,8.565 L1.18988743,8.47821096 C1.23463714,5.41638548 2.3653535,4.22250301 5.57682951,4.22250301 Z"/>
</svg>
