<?xml version="1.0" encoding="UTF-8"?>
<svg width="21px" height="21px" viewBox="0 0 21 21" version="1.1" xmlns="http://www.w3.org/2000/svg" xmlns:xlink="http://www.w3.org/1999/xlink">
    <!-- Generator: Sketch 53.2 (72643) - https://sketchapp.com -->
    <title>Assets / Icons / OMS / Pause</title>
    <desc>Created with Sketch.</desc>
    <g id="Assets-/-Icons-/-OMS-/-Pause" stroke="none" stroke-width="1" fill="none" fill-rule="evenodd">
        <path d="M8.69177777,7.08424444 L7.08424444,7.08424444 L7.08424444,13.9068444 L8.69177777,13.9068444 L8.69177777,7.08424444 Z M9.19177777,14.9068444 L6.58424444,14.9068444 C6.30810206,14.9068444 6.08424444,14.6829868 6.08424444,14.4068444 L6.08424444,6.58424444 C6.08424444,6.30810206 6.30810206,6.08424444 6.58424444,6.08424444 L9.19177777,6.08424444 C9.46792014,6.08424444 9.69177777,6.30810206 9.69177777,6.58424444 L9.69177777,14.4068444 C9.69177777,14.6829868 9.46792014,14.9068444 9.19177777,14.9068444 Z M19.9910889,10.4955444 C19.9910889,5.25097648 15.739857,1 10.4955444,1 C5.25066957,1 1,5.25066957 1,10.4955444 C1,15.7404193 5.25066957,19.9910889 10.4955444,19.9910889 C15.739857,19.9910889 19.9910889,15.7401124 19.9910889,10.4955444 Z M20.9910889,10.4955444 C20.9910889,16.2924106 16.2921283,20.9910889 10.4955444,20.9910889 C4.69838482,20.9910889 5.5067062e-14,16.292704 5.5067062e-14,10.4955444 C5.5067062e-14,4.69838482 4.69838482,5.5067062e-14 10.4955444,5.5067062e-14 C16.2921283,5.5067062e-14 20.9910889,4.69867828 20.9910889,10.4955444 Z M11.7993111,14.9068444 C11.5231687,14.9068444 11.2993111,14.6829868 11.2993111,14.4068444 L11.2993111,6.58424444 C11.2993111,6.30810206 11.5231687,6.08424444 11.7993111,6.08424444 L14.4068444,6.08424444 C14.6829868,6.08424444 14.9068444,6.30810206 14.9068444,6.58424444 L14.9068444,14.4068444 C14.9068444,14.6829868 14.6829868,14.9068444 14.4068444,14.9068444 L11.7993111,14.9068444 Z M13.9068444,13.9068444 L13.9068444,7.08424444 L12.2993111,7.08424444 L12.2993111,13.9068444 L13.9068444,13.9068444 Z" id="Mask" fill="#333333"></path>
    </g>
</svg>