<?xml version="1.0" encoding="UTF-8"?>
<svg width="21px" height="21px" viewBox="0 0 21 21" version="1.1" xmlns="http://www.w3.org/2000/svg" xmlns:xlink="http://www.w3.org/1999/xlink">
    <!-- Generator: Sketch 53.2 (72643) - https://sketchapp.com -->
    <title>Assets / Icons / Plus</title>
    <desc>Created with Sketch.</desc>
    <g id="Assets-/-Icons-/-Plus" stroke="none" stroke-width="1" fill="none" fill-rule="evenodd">
        <path d="M15.5,10 L11.1,10 L11.1,5.5 C11.1,5.2 10.9,5 10.6,5 C10.3,5 10.1,5.2 10.1,5.5 L10.1,10 L5.5,10 C5.2,10 5,10.3 5,10.5 C5,10.7 5.2,11 5.5,11 L10.1,11 L10.1,15.5 C10.1,15.8 10.3,16 10.6,16 C10.9,16 11.1,15.8 11.1,15.5 L11.1,11 L15.5,11 C15.8,11 16,10.8 16,10.5 C16,10.2 15.8,10 15.5,10 Z" id="Path" fill="#000000"></path>
    </g>
</svg>