<svg xmlns="http://www.w3.org/2000/svg" width="24" height="24" viewBox="0 0 24 24">
  <path fill="#333" fill-rule="evenodd" d="M8.5,21 L1.5,21 C1.22385763,21 1,21.2238576 1,21.5 L1,23.5 C1,23.7761424 1.22385763,24 1.5,24 L8.5,24 C8.77614237,24 9,23.7761424 9,23.5 L9,21.5 C9,21.2238576 8.77614237,21 8.5,21 Z M8,22 L8,23 L2,23 L2,22 L8,22 Z M16.5,9 L16.5113359,9.00012778 C16.5327448,9.00061037 16.5541285,9.00245997 16.5753447,9.00567644 L16.5,9 C16.5353751,9 16.5698922,9.00367368 16.6031905,9.01066034 C16.6196997,9.01414306 16.6368356,9.0186662 16.6537388,9.02411164 C16.6666596,9.02826323 16.6789671,9.03279825 16.6910366,9.03779224 C16.7047846,9.04345908 16.7185886,9.04989874 16.7321351,9.05700224 C16.7440467,9.06329334 16.7556825,9.07001934 16.7670103,9.07718801 C16.7791878,9.08484665 16.7909554,9.09302185 16.8024313,9.10175969 C16.8157542,9.11192025 16.8288187,9.1229392 16.8412864,9.13458875 C16.8456325,9.13865079 16.8497698,9.14265635 16.853854,9.14674744 L16.864439,9.15767597 C16.8778391,9.17193624 16.8904117,9.18698315 16.9020802,9.20274003 L16.853854,9.14674744 C16.8792393,9.17217596 16.9013169,9.19965567 16.9200875,9.22865205 C16.9295284,9.2433324 16.9381565,9.25831383 16.9460061,9.27375753 C16.95142,9.28436229 16.956412,9.29514769 16.9609993,9.30606275 C16.9669546,9.3201926 16.9723394,9.33483565 16.9770412,9.3497814 C16.9817943,9.36505877 16.9857581,9.38018271 16.9890034,9.39542882 C16.9899978,9.39986139 16.9910104,9.40497916 16.9919443,9.41012437 L16.9948943,9.42851678 C16.9973763,9.44579526 16.9989534,9.46317858 16.9996256,9.48059018 L17,9.5 L17,13.458 C17,13.7341424 16.7761424,13.958 16.5,13.958 C16.2545401,13.958 16.0503916,13.7811248 16.0080557,13.5478756 L16,13.458 L16,10.705 L7.43925256,19.251854 C7.24382441,19.44695 6.92724203,19.4466807 6.73214603,19.2512526 C6.55872737,19.0775386 6.53967137,18.8080979 6.67483312,18.6133447 L6.73274744,18.544146 L15.291,10 L12,10 C11.7545401,10 11.5503916,9.82312484 11.5080557,9.58987563 L11.5,9.5 C11.5,9.25454011 11.6768752,9.05039163 11.9101244,9.00805567 L12,9 L16.5,9 Z M21.4997,0 C22.8255967,0 23.9097717,1.03113919 23.9943843,2.3355767 L23.9997,2.5 L23.999898,4.48979673 C23.9999659,4.49318964 24,4.49659083 24,4.5 L23.999,4.51 L23.9997,13.5 C23.9997,14.8245657 22.9679958,15.9099653 21.6640555,15.9946779 L21.4997,16 L13.9687,16 C13.6925576,16 13.4687,15.7761424 13.4687,15.5 C13.4687,15.2545401 13.6455752,15.0503916 13.8788244,15.0080557 L13.9687,15 L21.4997,15 C22.2790788,15 22.9201113,14.404402 22.9928301,13.6443347 L22.9997,13.5 L22.999,5 L3.999,5 L3.9997,13.5 C3.9997,14.2785803 4.59543256,14.9203174 5.35538901,14.9931218 L5.4997,15 L6.9697,15 C7.24584237,15 7.4697,15.2238576 7.4697,15.5 C7.4697,15.7454599 7.29282484,15.9496084 7.05957563,15.9919443 L6.9697,16 L5.4997,16 C4.17505759,16 3.08972861,14.9673002 3.00502172,13.664236 L2.9997,13.5 L2.9997,2.5 C2.9997,1.17439769 4.03147806,0.0899518156 5.33535337,0.00531710894 L5.4997,0 L21.4997,0 Z M21.4997,1 L5.4997,1 C4.7201784,1 4.07927185,1.59484686 4.00656839,2.35553272 L3.9997,2.5 L3.999,4 L22.999,4 L22.9997,2.5 C22.9997,1.71989871 22.4051933,1.07950365 21.6442273,1.00686237 L21.4997,1 Z M10.5,2 C10.776,2 11,2.224 11,2.5 C11,2.776 10.776,3 10.5,3 C10.224,3 10,2.776 10,2.5 C10,2.224 10.224,2 10.5,2 Z M8.5,2 C8.776,2 9,2.224 9,2.5 C9,2.776 8.776,3 8.5,3 C8.225,3 8,2.776 8,2.5 C8,2.224 8.225,2 8.5,2 Z M6.5,2 C6.777,2 7,2.224 7,2.5 C7,2.776 6.777,3 6.5,3 C6.225,3 6,2.776 6,2.5 C6,2.224 6.225,2 6.5,2 Z"/>
</svg>
