<?xml version="1.0" encoding="UTF-8"?>
<svg width="24px" height="24px" viewBox="0 0 24 24" version="1.1" xmlns="http://www.w3.org/2000/svg" xmlns:xlink="http://www.w3.org/1999/xlink">
    <!-- Generator: Sketch 53.2 (72643) - https://sketchapp.com -->
    <title>Assets / Icons / OMS / Price</title>
    <desc>Created with Sketch.</desc>
    <g id="Assets-/-Icons-/-OMS-/-Price" stroke="none" stroke-width="1" fill="none" fill-rule="evenodd">
        <path d="M11.4163228,14.1704782 C12.2174682,14.968815 13.4191864,14.968815 14.2203319,14.1704782 C14.6209046,13.7713098 15.2217637,13.7713098 15.6223364,14.1704782 C16.0229091,14.5696466 16.0229091,15.1683992 15.6223364,15.5675676 C15.2217637,15.966736 14.6209046,15.966736 14.2203319,15.5675676 L13.5193296,16.2661123 C14.2203319,16.964657 15.2217637,17.0644491 15.922766,16.5654886 L16.3233387,16.964657 L17.024341,16.2661123 L16.7239114,15.966736 C17.2246273,15.1683992 17.1244841,14.1704782 16.4234819,13.5717256 C15.6223364,12.7733888 14.4206182,12.7733888 13.6194728,13.5717256 C13.2189,13.970894 12.6180409,13.970894 12.2174682,13.5717256 C11.8168955,13.1725572 11.8168955,12.5738046 12.2174682,12.1746362 C12.6180409,11.7754678 13.2189,11.7754678 13.6194728,12.1746362 L14.320475,11.4760915 C13.6194728,10.7775468 12.6180409,10.6777547 11.9170387,11.1767152 L11.5164659,10.7775468 L10.8154637,11.4760915 L11.2160364,11.8752599 C10.7153205,12.5738046 10.8154637,13.5717256 11.4163228,14.1704782 Z M23.9342205,14.6694387 L9.31331594,0.1995842 C9.31331594,0.0997920998 9.11302957,0 9.01288639,0 L0.500715911,0 C0.200286364,0 0,0.1995842 0,0.498960499 L0,8.98128898 C0,9.08108108 0.100143182,9.28066528 0.100143182,9.38045738 L14.6209046,23.8503119 C14.821191,24.049896 15.1216205,24.049896 15.3219069,23.8503119 L23.8340773,15.3679834 C24.0343637,15.1683992 24.0343637,14.8690229 23.9342205,14.6694387 Z M15.0214773,22.7525988 L1.00143182,8.78170478 L1.00143182,0.997920998 L8.81260003,0.997920998 L22.8326455,14.968815 L15.0214773,22.7525988 Z M5.50787502,2.99376299 C4.10587047,2.99376299 3.00429546,4.09147609 3.00429546,5.48856549 C3.00429546,6.88565489 4.10587047,7.98336798 5.50787502,7.98336798 C6.90987957,7.98336798 8.01145457,6.88565489 8.01145457,5.48856549 C8.01145457,4.09147609 6.90987957,2.99376299 5.50787502,2.99376299 Z M5.50787502,6.98544699 C4.70672956,6.98544699 4.00572728,6.28690229 4.00572728,5.48856549 C4.00572728,4.69022869 4.70672956,3.99168399 5.50787502,3.99168399 C6.30902047,3.99168399 7.01002275,4.69022869 7.01002275,5.48856549 C7.01002275,6.28690229 6.30902047,6.98544699 5.50787502,6.98544699 Z" id="Shape" fill="#333333"></path>
    </g>
</svg>