<svg xmlns="http://www.w3.org/2000/svg" width="24" height="24" viewBox="0 0 24 24">
  <path fill="#333" d="M8.992,-0.0004 C9.0981248,-0.0004 9.20076975,0.033338409 9.2855961,0.0948736113 L9.34565083,0.146144074 L23.8536508,14.6621441 C24.0271427,14.8357317 24.0463778,15.1051117 23.9113845,15.2999407 L23.8535326,15.3691742 L15.3685326,23.8531742 C15.1949674,24.0267189 14.9255633,24.0459986 14.730704,23.9110154 L14.6614588,23.8531656 L10.7080128,19.8999921 C10.5127439,19.7047367 10.512733,19.3881542 10.7079884,19.1928853 C10.8815488,19.019313 11.1509725,19.0000186 11.3458453,19.1350079 L11.4150952,19.1928609 L15.015,22.7926 L22.793,15.0146 L8.785,0.9996 L0.999,0.9996 L1.007,8.7906 L4.76795564,12.6928301 C4.93829838,12.8695613 4.95262194,13.139295 4.81406251,13.3316457 L4.75494246,13.3998172 C4.57821128,13.5701599 4.3084776,13.5844835 4.11612685,13.445924 L4.04795543,13.386804 L0.147999895,9.34058692 C0.0807228705,9.27078678 0.0356800464,9.18348003 0.0173120885,9.08965784 L0.00800022177,8.99407092 L-4.85545115e-09,0.50007092 C-4.85545115e-09,0.254447653 0.176678476,0.0500541584 0.410067366,0.00766576788 L0.499999995,-0.0004 L8.992,-0.0004 Z M3.97267123,15.0674776 C4.99377958,14.0472295 6.49125771,13.7663134 7.79554839,14.3190245 C8.12583688,14.4589887 8.20563603,14.8909416 7.94715575,15.1396753 L7.94715575,15.1396753 L6.60445396,16.431939 L6.60445396,17.425939 L7.59945396,17.425939 L8.89175427,16.0840962 C9.11989856,15.8471313 9.50199604,15.8946635 9.67172912,16.1588147 L9.67172912,16.1588147 L9.71247951,16.2361756 C10.2637941,17.540178 9.98468461,19.0093693 8.96326123,20.0299316 C8.04649024,20.9482486 6.71990797,21.2687813 5.5110051,20.9206164 L5.5110051,20.9206164 L5.43745396,20.895939 L2.83943318,23.4947737 C2.78560777,23.5472916 2.70868751,23.6111734 2.61009303,23.677149 L2.61009303,23.677149 L2.50432643,23.7434792 C1.90095763,24.0980698 1.20669408,24.1124825 0.593239927,23.5478093 L0.593239927,23.5478093 L0.534281025,23.4913673 L0.371442461,23.3092933 C-0.0880238492,22.7287303 -0.0530937435,22.0865148 0.280581463,21.5245821 C0.369628975,21.3746198 0.460405096,21.2622765 0.532845501,21.1888084 L0.532845501,21.1888084 L3.11945396,18.593939 L3.09509424,18.5190572 C2.76429265,17.3749038 3.02480991,16.1295108 3.82573255,15.2237099 L3.82573255,15.2237099 Z M6.50756303,15.0417845 C5.9022234,15.023285 5.30214145,15.2291843 4.82046621,15.6440275 L4.82046621,15.6440275 L4.67962899,15.7747333 C3.95513926,16.4992231 3.76002654,17.5874199 4.15767782,18.5288513 C4.23675546,18.716066 4.1946478,18.9325193 4.05115362,19.076436 L4.05115362,19.076436 L1.24298032,21.8928684 L1.17219893,21.9847138 L1.14041764,22.0351521 C0.9885,22.2909922 0.983930789,22.5088263 1.20978842,22.7516687 L1.20978842,22.7516687 L1.25514704,22.7976512 L1.35159492,22.878993 C1.5660328,23.0353152 1.76744252,23.0166323 1.99765898,22.8813376 L1.99765898,22.8813376 L2.08955554,22.8211801 C2.11340753,22.8037557 2.12980084,22.7900519 2.13669993,22.7833468 L2.13669993,22.7833468 L4.95438617,19.9656606 C5.09835629,19.8216905 5.31524648,19.7793979 5.50275955,19.8587304 C6.43792725,20.2543782 7.52764107,20.0525662 8.25600574,19.3229738 C8.7594648,18.8199389 9.0097268,18.1735652 8.98910375,17.5162583 L8.98910375,17.5162583 L8.98345396,17.429939 L8.1720744,18.273412 C8.09667101,18.3517306 7.99836307,18.4027964 7.89247687,18.4200899 L7.89247687,18.4200899 L7.81188076,18.4266259 L6.10396414,18.4266259 C5.82782176,18.4266259 5.60396414,18.2027683 5.60396414,17.9266259 L5.60396414,17.9266259 L5.60396414,16.2194617 C5.60396414,16.0835213 5.65931519,15.9534408 5.75726863,15.8591809 L5.75726863,15.8591809 L6.60045396,15.047939 Z M11.5164659,10.7775468 L11.9170387,11.1767152 C12.6180409,10.6777547 13.6194728,10.7775468 14.320475,11.4760915 L14.320475,11.4760915 L13.6194728,12.1746362 C13.2189,11.7754678 12.6180409,11.7754678 12.2174682,12.1746362 C11.8168955,12.5738046 11.8168955,13.1725572 12.2174682,13.5717256 C12.6180409,13.970894 13.2189,13.970894 13.6194728,13.5717256 C14.4206182,12.7733888 15.6223364,12.7733888 16.4234819,13.5717256 C17.1244841,14.1704782 17.2246273,15.1683992 16.7239114,15.966736 L16.7239114,15.966736 L17.024341,16.2661123 L16.3233387,16.964657 L15.922766,16.5654886 C15.2217637,17.0644491 14.2203319,16.964657 13.5193296,16.2661123 L13.5193296,16.2661123 L14.2203319,15.5675676 C14.6209046,15.966736 15.2217637,15.966736 15.6223364,15.5675676 C16.0229091,15.1683992 16.0229091,14.5696466 15.6223364,14.1704782 C15.2217637,13.7713098 14.6209046,13.7713098 14.2203319,14.1704782 C13.4191864,14.968815 12.2174682,14.968815 11.4163228,14.1704782 C10.8154637,13.5717256 10.7153205,12.5738046 11.2160364,11.8752599 L11.2160364,11.8752599 L10.8154637,11.4760915 L11.5164659,10.7775468 Z M5.5,3 C6.88014237,3 8,4.11985763 8,5.5 C8,6.88014237 6.88014237,8 5.5,8 C4.11985763,8 3,6.88014237 3,5.5 C3,4.11985763 4.11985763,3 5.5,3 Z M5.5,4 C4.67214237,4 4,4.67214237 4,5.5 C4,6.32785763 4.67214237,7 5.5,7 C6.32785763,7 7,6.32785763 7,5.5 C7,4.67214237 6.32785763,4 5.5,4 Z"/>
</svg>
