<?xml version="1.0" encoding="UTF-8"?>
<svg width="21px" height="21px" viewBox="0 0 21 21" version="1.1" xmlns="http://www.w3.org/2000/svg" xmlns:xlink="http://www.w3.org/1999/xlink">
    <!-- Generator: Sketch 53.2 (72643) - https://sketchapp.com -->
    <title>Assets / Icons / Print</title>
    <desc>Created with Sketch.</desc>
    <g id="Assets-/-Icons-/-Print" stroke="none" stroke-width="1" fill="none" fill-rule="evenodd">
        <path d="M16.2329243,5.42208459 C16.1932042,5.43223993 16.1515804,5.4376389 16.1086957,5.4376389 L13.5,5.4376389 C13.2238576,5.4376389 13,5.21378128 13,4.9376389 L13,2 L5.34782609,2 L5.34782609,4.92857143 C5.34782609,5.2047138 5.12396846,5.42857143 4.84782609,5.42857143 C4.57168371,5.42857143 4.34782609,5.2047138 4.34782609,4.92857143 L4.34782609,1.5 C4.34782609,1.22385763 4.57168371,1 4.84782609,1 L13.5434783,1 C13.6748405,1 13.8009261,1.05169579 13.894479,1.14391227 L16.5031747,3.71534085 C16.598503,3.80930737 16.6521739,3.93757342 16.6521739,4.07142857 L16.6521739,4.92857143 C16.6521739,5.17722237 16.47067,5.3834808 16.2329243,5.42208459 Z M15.6521739,4.4376389 L15.6521739,4.28064562 L14,2.65207419 L14,4.4376389 L15.6521739,4.4376389 Z M4.34782609,15.7142857 L2.23913043,15.7142857 C1.0080639,15.7142857 0,14.7206227 0,13.5 L0,8.35714286 C0,7.13652013 1.0080639,6.14285714 2.23913043,6.14285714 L18.7608696,6.14285714 C19.9925438,6.14285714 21,7.13626367 21,8.35714286 L21,13.5 C21,14.7208792 19.9925438,15.7142857 18.7608696,15.7142857 L16.6521739,15.7142857 L16.6521739,19.5 C16.6521739,19.7761424 16.4283163,20 16.1521739,20 L4.84782609,20 C4.57168371,20 4.34782609,19.7761424 4.34782609,19.5 L4.34782609,15.7142857 Z M4.34782609,14.7142857 L4.34782609,12.6428571 C4.34782609,12.3667148 4.57168371,12.1428571 4.84782609,12.1428571 L16.1521739,12.1428571 C16.4283163,12.1428571 16.6521739,12.3667148 16.6521739,12.6428571 L16.6521739,14.7142857 L18.7608696,14.7142857 C19.4433782,14.7142857 20,14.1654264 20,13.5 L20,8.35714286 C20,7.69171643 19.4433782,7.14285714 18.7608696,7.14285714 L2.23913043,7.14285714 C1.55715349,7.14285714 1,7.6920513 1,8.35714286 L1,13.5 C1,14.1650916 1.55715349,14.7142857 2.23913043,14.7142857 L4.34782609,14.7142857 Z M15.6521739,13.1428571 L5.34782609,13.1428571 L5.34782609,19 L15.6521739,19 L15.6521739,13.1428571 Z M3.47826087,9.21428571 C3.47826087,9.0180513 3.31502042,8.85714286 3.10869565,8.85714286 C2.90286393,8.85714286 2.73913043,9.01842584 2.73913043,9.21428571 C2.73913043,9.40966299 2.90324045,9.57142857 3.10869565,9.57142857 C3.31464405,9.57142857 3.47826087,9.41003768 3.47826087,9.21428571 Z M4.47826087,9.21428571 C4.47826087,9.96541182 3.86388585,10.5714286 3.10869565,10.5714286 C2.35415086,10.5714286 1.73913043,9.96519415 1.73913043,9.21428571 C1.73913043,8.46273754 2.35392643,7.85714286 3.10869565,7.85714286 C3.86411001,7.85714286 4.47826087,8.46252013 4.47826087,9.21428571 Z M6.58695652,14.8571429 C6.31081415,14.8571429 6.08695652,14.6332852 6.08695652,14.3571429 C6.08695652,14.0810005 6.31081415,13.8571429 6.58695652,13.8571429 L14.4130435,13.8571429 C14.6891859,13.8571429 14.9130435,14.0810005 14.9130435,14.3571429 C14.9130435,14.6332852 14.6891859,14.8571429 14.4130435,14.8571429 L6.58695652,14.8571429 Z M6.58695652,16.5714286 C6.31081415,16.5714286 6.08695652,16.3475709 6.08695652,16.0714286 C6.08695652,15.7952862 6.31081415,15.5714286 6.58695652,15.5714286 L14.4130435,15.5714286 C14.6891859,15.5714286 14.9130435,15.7952862 14.9130435,16.0714286 C14.9130435,16.3475709 14.6891859,16.5714286 14.4130435,16.5714286 L6.58695652,16.5714286 Z M6.58695652,18.2857143 C6.31081415,18.2857143 6.08695652,18.0618567 6.08695652,17.7857143 C6.08695652,17.5095719 6.31081415,17.2857143 6.58695652,17.2857143 L14.4130435,17.2857143 C14.6891859,17.2857143 14.9130435,17.5095719 14.9130435,17.7857143 C14.9130435,18.0618567 14.6891859,18.2857143 14.4130435,18.2857143 L6.58695652,18.2857143 Z" id="Mask" fill="#333333"></path>
    </g>
</svg>