<svg xmlns="http://www.w3.org/2000/svg" width="24" height="24" viewBox="0 0 24 24">
  <path fill="#333" fill-rule="evenodd" d="M5.5,2.5 C5.63260824,2.5 5.7597852,2.55267842 5.85355339,2.64644661 L7.70710678,4.5 L18.5,4.5 C18.7761424,4.5 19,4.72385763 19,5 L19,6.5 L20.5,6.5 C20.7761424,6.5 21,6.72385763 21,7 L21,8.5 L22.5,8.5 C22.7761424,8.5 23,8.72385763 23,9 L23,21 C23,21.2761424 22.7761424,21.5 22.5,21.5 L4.5,21.5 C4.22385763,21.5 4,21.2761424 4,21 L4,9 C4,8.72385763 4.22385763,8.5 4.5,8.5 L20,8.5 L20,7.5 L3,7.5 L3,19 C3,19.2761424 2.77614237,19.5 2.5,19.5 C2.22385763,19.5 2,19.2761424 2,19 L2,7 C2,6.72385763 2.22385763,6.5 2.5,6.5 L18,6.5 L18,5.5 L7.5,5.5 C7.36739176,5.5 7.2402148,5.44732158 7.14644661,5.35355339 L5.29289322,3.5 L1,3.5 L1,17 C1,17.2761424 0.776142375,17.5 0.5,17.5 C0.223857625,17.5 0,17.2761424 0,17 L0,3 C0,2.72385763 0.223857625,2.5 0.5,2.5 L5.5,2.5 Z M22,9.5 L5,9.5 L5,20.5 L22,20.5 L22,9.5 Z M19,13 C19.2761424,13 19.5,13.2238576 19.5,13.5 L19.5008006,14.0856324 C20.0828087,14.2918151 20.5,14.8473823 20.5,15.5 C20.5,15.7761424 20.2761424,16 20,16 C19.7238576,16 19.5,15.7761424 19.5,15.5 C19.5,15.2241175 19.2759132,15 19.0003596,15 C18.7241424,15 18.5,15.2240618 18.5,15.5 C18.5,15.7759382 18.7241424,16 19.0003596,16 C19.8282287,16 20.5,16.6718634 20.5,17.5 C20.5,18.1530325 20.0829284,18.7083607 19.5008767,18.9144235 L19.5,19.428 C19.5,19.7041424 19.2761424,19.928 19,19.928 C18.7238576,19.928 18.5,19.7041424 18.5,19.428 L18.4995411,18.9144412 C17.9171751,18.7084164 17.5,18.1531639 17.5,17.5 C17.5,17.2238576 17.7238576,17 18,17 C18.2761424,17 18.5,17.2238576 18.5,17.5 C18.5,17.7763532 18.7238384,18 19.0003596,18 C19.2762172,18 19.5,17.7762976 19.5,17.5 C19.5,17.2241175 19.2759132,17 19.0003596,17 C18.1719381,17 17.5,16.3283034 17.5,15.5 C17.5,14.8472508 17.9172949,14.2917594 18.4996172,14.0856147 L18.5,13.5 C18.5,13.2238576 18.7238576,13 19,13 Z M8.84792695,13 C10.2327154,13 11.0460318,14.3974353 10.5470889,15.7245427 C11.2553306,16.3911071 11.5898161,17.4837885 11.5824265,18.9664919 C11.5810551,19.2416582 11.3576024,19.464 11.0824327,19.464 L7.00012251,19.464 C6.72489432,19.464 6.50141719,19.2415672 6.500128,18.966342 C6.49321028,17.4894972 6.76675669,16.4167902 7.36371293,15.7691852 C6.770013,14.5211223 7.46367561,13 8.84792695,13 Z M8.84792695,14 C8.20788792,14 7.88549943,14.8825462 8.40518443,15.5661165 C8.57816751,15.7936507 8.52555016,16.1196352 8.28976406,16.2811898 C7.84143498,16.5883732 7.56544491,17.3080914 7.51025339,18.464 L10.5697471,18.464 C10.504068,17.3495297 10.1870836,16.6364687 9.65158455,16.287692 C9.42675736,16.1412594 9.35758532,15.8434771 9.49484486,15.6129352 C9.96546376,14.822481 9.56180352,14 8.84792695,14 Z M16.0571052,10 C16.2429531,10 16.4134668,10.1030795 16.499834,10.2676399 L17.5495062,12.2676399 C17.7242411,12.6005724 17.4827778,13 17.1067773,13 L16.606,13 L16.6067773,14.5 C16.6067773,14.7761424 16.3829197,15 16.1067773,15 L12.1067773,15 C11.830635,15 11.6067773,14.7761424 11.6067773,14.5 L11.606,13 L11.1067773,13 C10.7644947,13 10.5234085,12.6638236 10.6331952,12.3396257 L11.310477,10.3396257 C11.3792255,10.1366125 11.5697213,10 11.7840592,10 L16.0571052,10 Z M15.606,13 L12.606,13 L12.6067773,14 L15.6067773,14 L15.606,13 Z M15.7548435,11 L12.1426302,11 L11.8039893,12 L16.2796795,12 L15.7548435,11 Z"/>
</svg>
