<svg xmlns="http://www.w3.org/2000/svg" width="24" height="24" viewBox="0 0 24 24">
  <path fill="#333" fill-rule="evenodd" d="M3.97267123,15.0674776 C4.99377958,14.0472295 6.49125771,13.7663134 7.79554839,14.3190245 C8.12583688,14.4589887 8.20563603,14.8909416 7.94715575,15.1396753 L7.94715575,15.1396753 L6.60445396,16.431939 L6.60445396,17.425939 L7.59945396,17.425939 L8.89175427,16.0840962 C9.11989856,15.8471313 9.50199604,15.8946635 9.67172912,16.1588147 L9.67172912,16.1588147 L9.71247951,16.2361756 C10.2637941,17.540178 9.98468461,19.0093693 8.96326123,20.0299316 C8.04649024,20.9482486 6.71990797,21.2687813 5.5110051,20.9206164 L5.5110051,20.9206164 L5.43745396,20.895939 L2.83943318,23.4947737 C2.78560777,23.5472916 2.70868751,23.6111734 2.61009303,23.677149 L2.61009303,23.677149 L2.50432643,23.7434792 C1.90095763,24.0980698 1.20669408,24.1124825 0.593239927,23.5478093 L0.593239927,23.5478093 L0.534281025,23.4913673 L0.371442461,23.3092933 C-0.0880238492,22.7287303 -0.0530937435,22.0865148 0.280581463,21.5245821 C0.369628975,21.3746198 0.460405096,21.2622765 0.532845501,21.1888084 L0.532845501,21.1888084 L3.11945396,18.593939 L3.09509424,18.5190572 C2.76429265,17.3749038 3.02480991,16.1295108 3.82573255,15.2237099 L3.82573255,15.2237099 Z M6.50756303,15.0417845 C5.9022234,15.023285 5.30214145,15.2291843 4.82046621,15.6440275 L4.82046621,15.6440275 L4.67962899,15.7747333 C3.95513926,16.4992231 3.76002654,17.5874199 4.15767782,18.5288513 C4.23675546,18.716066 4.1946478,18.9325193 4.05115362,19.076436 L4.05115362,19.076436 L1.24298032,21.8928684 L1.17219893,21.9847138 L1.14041764,22.0351521 C0.9885,22.2909922 0.983930789,22.5088263 1.20978842,22.7516687 L1.20978842,22.7516687 L1.25514704,22.7976512 L1.35159492,22.878993 C1.5660328,23.0353152 1.76744252,23.0166323 1.99765898,22.8813376 L1.99765898,22.8813376 L2.08955554,22.8211801 C2.11340753,22.8037557 2.12980084,22.7900519 2.13669993,22.7833468 L2.13669993,22.7833468 L4.95438617,19.9656606 C5.09835629,19.8216905 5.31524648,19.7793979 5.50275955,19.8587304 C6.43792725,20.2543782 7.52764107,20.0525662 8.25600574,19.3229738 C8.7594648,18.8199389 9.0097268,18.1735652 8.98910375,17.5162583 L8.98910375,17.5162583 L8.98345396,17.429939 L8.1720744,18.273412 C8.09667101,18.3517306 7.99836307,18.4027964 7.89247687,18.4200899 L7.89247687,18.4200899 L7.81188076,18.4266259 L6.10396414,18.4266259 C5.82782176,18.4266259 5.60396414,18.2027683 5.60396414,17.9266259 L5.60396414,17.9266259 L5.60396414,16.2194617 C5.60396414,16.0835213 5.65931519,15.9534408 5.75726863,15.8591809 L5.75726863,15.8591809 L6.60045396,15.047939 Z M5.5,2.5 C5.63260824,2.5 5.7597852,2.55267842 5.85355339,2.64644661 L7.70710678,4.5 L18.5,4.5 C18.7761424,4.5 19,4.72385763 19,5 L19,6.5 L20.5,6.5 C20.7761424,6.5 21,6.72385763 21,7 L21,8.5 L22.0263158,8.5 C22.5229956,8.5 22.9368243,8.8686502 22.9934086,9.34885799 L23,9.46153846 L23,20.5384615 C23,21.0343108 22.6216485,21.4383788 22.1393386,21.4935729 L22.0263158,21.5 L9.48656223,21.5 C9.21041986,21.5 8.98656223,21.2761424 8.98656223,21 C8.98656223,20.7545401 9.16343739,20.5503916 9.3966866,20.5080557 L9.48656223,20.5 L22,20.5 L22,9.5 L5,9.5 L5,13.4215562 C5,13.6670161 4.82312484,13.8711646 4.58987563,13.9135006 L4.5,13.9215562 C4.25454011,13.9215562 4.05039163,13.7446811 4.00805567,13.5114319 L4,13.4215562 L4,9.46153846 C4,8.96568923 4.37835152,8.56162122 4.86066141,8.50642707 L4.97368421,8.5 L20,8.5 L20,7.5 L3,7.5 L3,15.1127543 L3,15.1127543 C3,15.3888966 2.77614237,15.6127543 2.5,15.6127543 C2.22385763,15.6127543 2,15.3888966 2,15.1127543 L2,7 C2,6.72385763 2.22385763,6.5 2.5,6.5 L18,6.5 L18,5.5 L7.5,5.5 C7.36739176,5.5 7.2402148,5.44732158 7.14644661,5.35355339 L5.29289322,3.5 L1,3.5 L1,17 C1,17.2761424 0.776142375,17.5 0.5,17.5 C0.223857625,17.5 0,17.2761424 0,17 L0,3 C0,2.72385763 0.223857625,2.5 0.5,2.5 L5.5,2.5 Z M19,13 C19.2761424,13 19.5,13.2238576 19.5,13.5 L19.5008006,14.0856324 C20.0828087,14.2918151 20.5,14.8473823 20.5,15.5 C20.5,15.7761424 20.2761424,16 20,16 C19.7238576,16 19.5,15.7761424 19.5,15.5 C19.5,15.2241175 19.2759132,15 19.0003596,15 C18.7241424,15 18.5,15.2240618 18.5,15.5 C18.5,15.7759382 18.7241424,16 19.0003596,16 C19.8282287,16 20.5,16.6718634 20.5,17.5 C20.5,18.1530325 20.0829284,18.7083607 19.5008767,18.9144235 L19.5,19.428 C19.5,19.7041424 19.2761424,19.928 19,19.928 C18.7238576,19.928 18.5,19.7041424 18.5,19.428 L18.4995411,18.9144412 C17.9171751,18.7084164 17.5,18.1531639 17.5,17.5 C17.5,17.2238576 17.7238576,17 18,17 C18.2761424,17 18.5,17.2238576 18.5,17.5 C18.5,17.7763532 18.7238384,18 19.0003596,18 C19.2762172,18 19.5,17.7762976 19.5,17.5 C19.5,17.2241175 19.2759132,17 19.0003596,17 C18.1719381,17 17.5,16.3283034 17.5,15.5 C17.5,14.8472508 17.9172949,14.2917594 18.4996172,14.0856147 L18.5,13.5 C18.5,13.2238576 18.7238576,13 19,13 Z M10.9645845,16.2409717 C11.3760634,16.7998291 11.6112043,17.5183702 11.6112043,18.4680562 C11.6112043,18.8764545 11.361155,18.9940319 11.028002,19.0289785 C10.9012419,19.0422752 10.7392066,19.0395405 10.5309822,19.0233482 C10.255671,19.0019389 10.0498428,18.7613994 10.0712521,18.4860882 C10.0902826,18.2413672 10.2824529,18.0515463 10.5182824,18.0274215 L10.5872107,18.026 L10.5869875,18.009277 C10.5390972,17.5817394 10.4218159,17.2445675 10.2498102,16.9675288 L10.1593149,16.8338805 C9.99558763,16.6115115 10.0431262,16.2985186 10.2654953,16.1347913 C10.4878643,15.9710641 10.8008572,16.0186027 10.9645845,16.2409717 Z M8.88631613,13 C9.78552337,13 10.7804393,13.8329586 10.6987027,15.0649728 C10.6804226,15.3405094 10.442237,15.549057 10.1667003,15.5307769 C9.89116369,15.5124967 9.68261609,15.2743111 9.70089625,14.9987745 C9.7402144,14.4061322 9.25511537,14 8.88631613,14 C8.75947996,14 8.65418944,14.0226183 8.5687964,14.058635 L8.51005432,14.0867077 L8.43901013,14.1341679 C8.23137319,14.2485551 7.96532743,14.2018531 7.81039599,14.0114671 C7.65546454,13.8210812 7.66379797,13.551096 7.81863856,13.3705091 L7.89690006,13.2967989 L7.97894275,13.2405633 C8.03757105,13.2041377 8.10465917,13.1690882 8.18017376,13.137238 C8.38503129,13.0508341 8.62166946,13 8.88631613,13 Z M16.0571052,10 C16.2429531,10 16.4134668,10.1030795 16.499834,10.2676399 L17.5495062,12.2676399 C17.7242411,12.6005724 17.4827778,13 17.1067773,13 L16.606,13 L16.6067773,14.5 C16.6067773,14.7761424 16.3829197,15 16.1067773,15 L12.1067773,15 C11.830635,15 11.6067773,14.7761424 11.6067773,14.5 L11.606,13 L11.1067773,13 C10.7644947,13 10.5234085,12.6638236 10.6331952,12.3396257 L11.310477,10.3396257 C11.3792255,10.1366125 11.5697213,10 11.7840592,10 L16.0571052,10 Z M15.606,13 L12.606,13 L12.6067773,14 L15.6067773,14 L15.606,13 Z M15.7548435,11 L12.1426302,11 L11.8039893,12 L16.2796795,12 L15.7548435,11 Z"/>
</svg>
