<svg xmlns="http://www.w3.org/2000/svg" width="24" height="24" viewBox="0 0 24 24">
  <path fill="#333" fill-rule="evenodd" d="M23.5000824,14 C23.7762248,14 24.0000824,14.2238576 24.0000824,14.5 L24.0000824,22.5 C24.0000824,22.7761424 23.7762248,23 23.5000824,23 L19.5000824,23 C19.22394,23 19.0000824,22.7761424 19.0000824,22.5 L19.0031699,21.8221629 C17.5813879,22.3083444 14.6221835,23.328146 13.9320367,23.5339624 C12.4596922,23.9730467 11.4961266,24.0946166 10.4829725,23.931218 C9.52206126,23.776245 8.56516192,23.3845929 6.82482557,22.4832618 C6.30260954,22.2128028 3.91319663,20.9435918 4.09746695,21.0410006 C2.76520995,20.3367441 1.58745425,19.7281399 0.276490258,19.0727116 C-0.0287777105,18.9200901 -0.0947979579,18.5132445 0.146543493,18.2719228 C1.31339546,17.1051665 2.33334894,16.7730911 3.651012,17.1488964 L7.02058882,18.2151826 C7.11433244,17.5712397 7.52948279,17 8.26603985,17 L11.8405079,17 C11.8353399,17 12.0802605,16.8261527 12.362668,16.6281726 L12.6089533,16.4560571 C12.8545018,16.2850154 13.0829638,16.1276704 13.1604559,16.078303 C14.2446063,15.3876303 15.2856328,15 16.4362526,15 L19,15 L19.0000824,14.5 C19.0000824,14.2238576 19.22394,14 19.5000824,14 L23.5000824,14 Z M19,16 L16.4362526,16 C15.5063618,16 14.6355862,16.3242367 13.6977515,16.921697 C13.5306551,17.028148 13.3663484,17.1397141 13.1743028,17.2754734 C13.1025206,17.326217 12.7987468,17.5439226 12.7234873,17.5967481 C12.3053008,17.8902781 12.1055042,18 11.8405079,18 L8.26603985,18 C7.91142992,18 7.91142992,19 8.26603985,19 L13.8830611,19 L13.8830611,20 L8.26603985,20 C7.74457201,20 7.3842048,19.7136741 7.1849382,19.3179356 L3.36302144,18.1064201 C2.61873194,17.8942675 2.05096987,17.9882988 1.37999788,18.508091 C2.23240161,18.9386883 3.04693716,19.3590469 3.90849538,19.8111949 L4.557,20.153 L4.56689969,20.1581295 C4.74103798,20.2509522 6.80767262,21.3482224 7.28471423,21.5952852 C8.93559149,22.4502849 9.81639953,22.8107934 10.6421923,22.9439749 C11.4819875,23.0794146 12.3054676,22.9755188 13.6462531,22.5756682 C14.3717003,22.3593245 17.7596269,21.1888202 19.0033334,20.7654307 L19,16 Z M23.0000824,15 L20.0000824,15 L20.0000824,22 L23.0000824,22 L23.0000824,15 Z M11.4980824,-1.0658141e-14 C11.7742248,-1.0658141e-14 11.9980824,0.223857625 11.9980824,0.5 L11.9980824,1.90837701 C12.5242367,2.15583347 12.9798599,2.41475981 13.3604912,2.70712174 L14.4994855,2.02246316 C14.7391144,1.87842028 15.050294,1.95886452 15.1900919,2.2009945 L16.6900919,4.7989945 C16.8281968,5.03819215 16.7461929,5.34405821 16.506952,5.48208799 L15.3131028,6.17087768 C15.3997953,6.7279505 15.3987504,7.27599223 15.313436,7.82885547 L16.5070769,8.51798412 C16.7462293,8.65605475 16.8281686,8.96185665 16.6900919,9.2010055 L15.1900919,11.7990055 C15.050234,12.0412394 14.7388667,12.1216305 14.4992232,11.9773791 L13.3619067,11.2927808 C12.9811625,11.5847055 12.5264288,11.8430631 11.9980824,12.0921636 L11.9980824,13.5 C11.9980824,13.7761424 11.7742248,14 11.4980824,14 L8.4980824,14 C8.22194003,14 7.9980824,13.7761424 7.9980824,13.5 L7.9980824,12.1578876 C7.40423527,11.9794768 6.98160257,11.7230192 6.50956015,11.3080163 C6.5033566,11.3025623 6.49736501,11.2972862 6.4915097,11.2921197 L5.24183263,11.9861182 C5.00321157,12.1186346 4.70240944,12.035298 4.56600071,11.7988805 L3.06700071,9.20088047 C2.92893685,8.96159434 3.01109331,8.65568804 3.25046243,8.51776811 L4.44655494,7.82860237 C4.36093676,7.27169169 4.36347923,6.72382296 4.44964412,6.17014859 L3.26308457,5.48143507 C3.02396357,5.34264232 2.9428761,5.0361299 3.08208443,4.79725061 L4.59608443,2.19925061 C4.73389389,1.96277176 5.03622616,1.88104617 5.27440986,2.01588762 L6.49435717,2.7065288 C6.49878232,2.70261626 6.50327734,2.69864807 6.50786921,2.69459982 C6.97948673,2.27881668 7.40272241,2.02185356 7.9980824,1.84308362 L7.9980824,0.5 C7.9980824,0.223857625 8.22194003,-1.0658141e-14 8.4980824,-1.0658141e-14 L11.4980824,-1.0658141e-14 Z M10.9980824,1 L8.9980824,1 L8.9980824,2.23 C8.9980824,2.46438898 8.83526251,2.66731884 8.60644426,2.71811649 C7.96642461,2.86020085 7.61728711,3.04965573 7.16917783,3.44471375 C7.09855304,3.50697734 7.05120155,3.55018453 6.90182028,3.68777255 C6.7421084,3.83487559 6.50571035,3.86208453 6.31675494,3.75511238 L5.21145972,3.12937847 L4.19826789,4.86799959 L5.25708023,5.48256493 C5.44514073,5.59172069 5.54109352,5.80990561 5.49443677,6.0222847 C5.34950871,6.68198972 5.34510613,7.31574137 5.49129655,7.97707898 C5.53840866,8.19020519 5.44182649,8.40926217 5.25270237,8.51823189 L4.18319488,9.13446175 L5.18634528,10.8730773 L6.31933217,10.2438818 C6.50752324,10.1393713 6.7414807,10.1670403 6.90010119,10.3125664 C7.0568799,10.4564028 7.09905541,10.4947653 7.16983432,10.5569916 C7.61900807,10.9518892 7.96783607,11.1411125 8.60644426,11.2828835 C8.83526251,11.3336812 8.9980824,11.536611 8.9980824,11.771 L8.9980824,13 L10.9980824,13 L10.9980824,11.771 C10.9980824,11.5733383 11.1145275,11.3942298 11.2951828,11.3140189 C12.009185,10.9970019 12.5832152,10.67255 12.9777515,10.3119365 C13.1411444,10.1625924 13.3832884,10.1384607 13.5729416,10.2526209 L14.5786792,10.8580164 L15.574061,9.13401503 L14.5070879,8.51801588 C14.3184257,8.40909491 14.2219988,8.19055927 14.2687138,7.97778026 C14.4130177,7.32049926 14.4154415,6.6861243 14.2680193,6.02360212 C14.220577,5.8103943 14.3170206,5.59106622 14.5062128,5.48191201 L15.574061,4.86586002 L14.5785233,3.14171371 L13.5706793,3.74753684 C13.3807574,3.86170041 13.1383485,3.83723905 12.9750636,3.68743357 C12.5820639,3.32687664 12.0053246,3.00086455 11.2959471,2.68731971 C11.1148806,2.60728834 10.9980824,2.42796484 10.9980824,2.23 L10.9980824,1 Z M9.8781824,4.5002 C11.2590181,4.5002 12.3781824,5.61975085 12.3781824,7.0002 C12.3781824,8.38064915 11.2590181,9.5002 9.8781824,9.5002 C8.49942666,9.5002 7.3781824,8.37972955 7.3781824,7.0002 C7.3781824,5.62067045 8.49942666,4.5002 9.8781824,4.5002 Z M9.8781824,5.5002 C9.05155692,5.5002 8.3781824,6.17310981 8.3781824,7.0002 C8.3781824,7.82729019 9.05155692,8.5002 9.8781824,8.5002 C10.7066561,8.5002 11.3781824,7.8284417 11.3781824,7.0002 C11.3781824,6.1719583 10.7066561,5.5002 9.8781824,5.5002 Z"/>
</svg>
