<svg width="24" height="24" viewBox="0 0 24 24" fill="none" xmlns="http://www.w3.org/2000/svg">
<g clip-path="url(#clip0_935_16320)">
<path d="M15.925 13C18.3025 13 20.23 14.9272 20.23 17.305C20.23 18.314 19.8829 19.2419 19.3017 19.9758L22.4732 23.1468C22.6684 23.342 22.6684 23.6586 22.4732 23.8539C22.2996 24.0275 22.0302 24.0467 21.8353 23.9117L21.766 23.8539L18.5946 20.6826C17.8609 21.2633 16.9334 21.61 15.925 21.61C13.5475 21.61 11.62 19.6829 11.62 17.305C11.62 14.9272 13.5475 13 15.925 13ZM15.925 14C14.0998 14 12.62 15.4795 12.62 17.305C12.62 19.1305 14.0998 20.61 15.925 20.61C17.7502 20.61 19.23 19.1305 19.23 17.305C19.23 15.4795 17.7502 14 15.925 14ZM15.5003 -0.000366211C15.7458 -0.000366211 15.9499 0.176509 15.9922 0.409758L16.0003 0.499634V2.49963C16.0003 2.61272 15.962 2.72158 15.893 2.80914L15.8356 2.87054L14.0122 4.51887C13.1443 5.30192 12.9382 6.58574 13.5164 7.6052C13.6725 7.88086 13.8183 8.13041 13.9712 8.38509L14.7609 9.67221L14.8613 9.84147L15.0457 10.1654C15.2382 10.5137 15.4167 10.8732 15.6053 11.2967C15.7176 11.5489 15.6041 11.8445 15.3518 11.9568C15.0996 12.0691 14.804 11.9557 14.6917 11.7034C14.5147 11.3059 14.3489 10.972 14.1704 10.6489L13.8712 10.1335L13.3567 9.29886L13.1136 8.89928L12.8039 8.3737C12.7521 8.28407 12.6998 8.19266 12.6464 8.09828C11.871 6.73107 12.1038 5.02306 13.1948 3.91744L13.342 3.77673L15 2.27603V0.999034H4V2.27103L5.78818 3.81628C6.96216 4.83053 7.32139 6.48635 6.69569 7.88968L6.60847 8.07122C4.86034 11.4533 3.47448 14.793 2.89702 17.5282C2.15504 21.0425 2.84703 22.9052 5.30754 22.9961L5.5003 22.9996H13.0003C13.2764 22.9996 13.5003 23.2235 13.5003 23.4996C13.5003 23.7451 13.3234 23.9492 13.0902 23.9916L13.0003 23.9996H5.5003C2.06361 23.9996 1.04555 21.4567 1.91859 17.3216C2.51909 14.4773 3.93389 11.0678 5.71993 7.61242C6.22277 6.63759 6.03271 5.46038 5.26722 4.69632L5.13434 4.57291L3.17334 2.87791C3.08543 2.80193 3.02743 2.69837 3.00775 2.58563L3.0003 2.49963V0.499634C3.0003 0.254174 3.17718 0.0500254 3.41043 0.00768946L3.5003 -0.000366211H15.5003Z" fill="black"/>
</g>
<defs>
<clipPath id="clip0_935_16320">
<rect width="24" height="24" fill="white"/>
</clipPath>
</defs>
</svg>
