<?xml version="1.0" encoding="UTF-8"?>
<svg width="24px" height="24px" viewBox="0 0 24 24" version="1.1" xmlns="http://www.w3.org/2000/svg" xmlns:xlink="http://www.w3.org/1999/xlink">
    <!-- Generator: Sketch 53.2 (72643) - https://sketchapp.com -->
    <title>Assets / Icons / Query</title>
    <desc>Created with Sketch.</desc>
    <g id="Assets-/-Icons-/-Query" stroke="none" stroke-width="1" fill="none" fill-rule="evenodd" stroke-linecap="round" stroke-linejoin="round">
        <path d="M20.5,10.5 C20.5,16.022 16.023,20.5 10.5,20.5 C4.977,20.5 0.5,16.022 0.5,10.5 C0.5,4.978 4.977,0.5 10.5,0.5 C16.023,0.5 20.5,4.978 20.5,10.5 L20.5,10.5 Z M17.5723,17.5732 L23.5003,23.5002 M15.3789,15.0488 L16.8789,12.4508 L15.3789,11.5858 C15.5339,10.8798 15.5449,10.1698 15.3779,9.4148 L16.8789,8.5488 L15.3789,5.9508 L13.9349,6.8188 C13.4019,6.3318 12.6189,5.9508 12.1189,5.7298 L12.1189,3.9998 L9.1189,3.9998 L9.1189,5.7298 C8.1189,5.9528 7.7169,6.3318 7.1849,6.8198 L5.6499,5.9508 L4.1359,8.5488 L5.6279,9.4148 C5.4729,10.1158 5.4569,10.8248 5.6239,11.5858 L4.1209,12.4508 L5.6209,15.0488 L7.1839,14.1808 C7.7169,14.6698 8.1189,15.0488 9.1189,15.2708 L9.1189,16.9998 L12.1189,16.9998 L12.1189,15.2708 C12.6189,15.0488 13.4019,14.6698 13.9369,14.1808 L15.3789,15.0488 L15.3789,15.0488 Z M12.5,10.5 C12.5,11.604 11.605,12.5 10.5,12.5 C9.396,12.5 8.5,11.604 8.5,10.5 C8.5,9.396 9.396,8.5 10.5,8.5 C11.605,8.5 12.5,9.396 12.5,10.5 L12.5,10.5 Z" id="Stroke-1127" stroke="#333333"></path>
    </g>
</svg>