<svg xmlns="http://www.w3.org/2000/svg" width="16" height="16" viewBox="0 0 16 16">
  <path fill-rule="evenodd" d="M14.0606602,1.93933983 C14.609835,2.48851461 14.6441584,3.35757702 14.1636304,3.94673776 L14.0606602,4.06066017 L10.121,8 L14.0606602,11.9393398 C14.6464466,12.5251263 14.6464466,13.4748737 14.0606602,14.0606602 C13.5114854,14.609835 12.642423,14.6441584 12.0532622,14.1636304 L11.9393398,14.0606602 L8,10.121 L4.06066017,14.0606602 C3.47487373,14.6464466 2.52512627,14.6464466 1.93933983,14.0606602 C1.39016504,13.5114854 1.35584162,12.642423 1.83636956,12.0532622 L1.93933983,11.9393398 L5.879,8 L1.93933983,4.06066017 C1.35355339,3.47487373 1.35355339,2.52512627 1.93933983,1.93933983 C2.48851461,1.39016504 3.35757702,1.35584162 3.94673776,1.83636956 L4.06066017,1.93933983 L8,5.879 L11.9393398,1.93933983 C12.5251263,1.35355339 13.4748737,1.35355339 14.0606602,1.93933983 Z"/>
</svg>
