<svg width="24" height="24" viewBox="0 0 24 24" fill="none" xmlns="http://www.w3.org/2000/svg">
<g clip-path="url(#clip0_817_13991)">
<path fill-rule="evenodd" clip-rule="evenodd" d="M7.33913 3.8674C7.54204 3.6801 7.55469 3.36377 7.36739 3.16086C7.18009 2.95795 6.86376 2.9453 6.66085 3.1326L0.160849 9.1326C0.00957118 9.27224 -0.0406506 9.49033 0.0343167 9.68207C0.109284 9.87381 0.294114 10 0.499989 10H18.5C18.7761 10 19 9.77614 19 9.5C19 9.22386 18.7761 9 18.5 9H1.77881L7.33913 3.8674ZM5.5 14C5.22386 14 5 14.2239 5 14.5C5 14.7761 5.22386 15 5.5 15H22.2212L16.6609 20.1326C16.458 20.3199 16.4453 20.6362 16.6326 20.8391C16.8199 21.042 17.1362 21.0547 17.3391 20.8674L23.8391 14.8674C23.9904 14.7278 24.0406 14.5097 23.9657 14.3179C23.8907 14.1262 23.7059 14 23.5 14H5.5Z" fill="#333333"/>
</g>
<defs>
<clipPath id="clip0_817_13991">
<rect width="24" height="24" fill="white"/>
</clipPath>
</defs>
</svg>
