<svg xmlns="http://www.w3.org/2000/svg" width="24" height="24" viewBox="0 0 24 24">
  <path fill="#333" fill-rule="evenodd" d="M15.8931177,2.7903044 C19.6380589,4.37172259 22.0134956,8.0321794 22.0051997,12.0292901 C22.0046033,12.3054319 21.7802804,12.5288232 21.5041386,12.5282485 C21.2279968,12.5276739 21.0046055,12.303351 21.0051801,12.0272092 C21.012667,8.4293437 18.8747509,5.13489714 15.504109,3.7115385 C10.9247365,1.7778667 5.64571616,3.92236184 3.71121278,8.50135935 C1.777896,13.0799807 3.9230944,18.3602429 8.50185083,20.2946444 C13.0777259,22.2257747 18.3115136,20.1919864 20.3730825,15.4489689 L16.7233158,17.133859 C16.5005181,17.2368724 16.2409877,17.1620033 16.1046715,16.9680564 L16.0596411,16.8898593 C15.9566277,16.6670616 16.0314967,16.4075312 16.2254437,16.2712151 L16.3036407,16.2261846 L21.1279964,13.995581 C21.3969321,13.8712351 21.7060896,14.0072936 21.8056274,14.2723204 L21.8307003,14.3652589 L22.7410218,19.6964234 C22.7875016,19.968626 22.6045172,20.2269691 22.3323147,20.273449 C22.0903568,20.3147645 21.8593497,20.1747748 21.7783576,19.9519794 L21.7552891,19.8647419 L21.1299823,16.1996774 C18.7473624,21.1956855 13.0761553,23.3105171 8.11285812,21.2158852 C3.02530309,19.06653 0.641826259,13.1997614 2.790009,8.1122789 C4.93943513,3.02455613 10.8049731,0.64180007 15.8931177,2.7903044 Z M15.851812,6.68247889 C16.0493516,6.82817951 16.1086549,7.09170284 16.0042732,7.30454546 L15.9574076,7.38165667 L11.9494076,12.8156665 C11.8740052,12.9178963 11.7633426,12.9866121 11.6407949,13.0100092 L11.5470209,13.0188754 L6.74026891,13.0188754 C6.46412654,13.0188754 6.24026891,12.7950178 6.24026891,12.5188754 C6.24026891,12.2734155 6.41714407,12.069267 6.65039328,12.0269311 L6.74026891,12.0188754 L11.2941246,12.0180156 L15.1526342,6.78807446 C15.3165474,6.56584243 15.62958,6.51856568 15.851812,6.68247889 Z"/>
</svg>
