<svg xmlns="http://www.w3.org/2000/svg" width="24" height="24" viewBox="0 0 24 24">
  <path fill="#333" d="M21.0674281,9.99502847 L21.1291615,10.0703587 L23.9151615,14.2213587 C24.0690508,14.4506461 24.0079286,14.7612722 23.7786413,14.9151615 C23.5748303,15.051952 23.3067517,15.0188569 23.1416135,14.8487778 L23.0848385,14.7786413 L21.3060028,12.1283907 C21.1630915,16.0599657 18.2510373,19.6645065 14.2829347,20.6012635 C11.2338897,21.3227538 8.07845713,20.4068006 5.88590813,18.246895 C5.68918705,18.0531028 5.68681275,17.7365292 5.88060498,17.5398081 C6.07439721,17.343087 6.39097079,17.3407127 6.58769187,17.534505 C8.53768219,19.4554632 11.3421163,20.2695291 14.0529218,19.6280759 C17.74289,18.7569786 20.4130924,15.2782825 20.3082409,11.615215 L17.8916923,14.5065936 C17.7343066,14.6949557 17.4676779,14.738206 17.2615408,14.6211376 L17.1874064,14.5696923 C16.9990443,14.4123066 16.955794,14.1456779 17.0728624,13.9395408 L17.1243077,13.8654064 L20.2643707,10.1040304 C20.2894026,10.0675064 20.3192574,10.0342846 20.3532272,10.0054033 L20.3303077,10.0284064 C20.5226456,9.79821285 20.8653948,9.7921831 21.0674281,9.99502847 Z M18.9551321,5.88083829 C19.1381381,6.08763145 19.1188549,6.40362611 18.9120617,6.58663213 C18.7052686,6.76963815 18.3892739,6.75035486 18.2062679,6.54356171 C16.2666461,4.35182773 13.2719521,3.37132883 10.3716412,4.05780921 C6.24562714,5.03240841 3.4340336,9.07876399 4.0042612,13.2205763 L6.53505851,10.1916653 C6.69241531,10.0032791 6.95903731,9.95998781 7.1651924,10.0770246 L7.23933466,10.1284585 C7.42772095,10.2858153 7.47101219,10.5524373 7.35397541,10.7585924 L7.30254149,10.8327347 L4.09754149,14.6697347 C3.90524041,14.899956 3.56249544,14.9060403 3.36043019,14.7032297 L3.29868481,14.6279102 L0.511684807,10.4769102 C0.357757413,10.2476484 0.418828008,9.9370122 0.648089799,9.78308481 C0.851878057,9.64626046 1.11996215,9.67931106 1.28512862,9.84936271 L1.34191519,9.9194898 L2.9314093,12.2881031 C2.86332126,8.02782206 5.87252976,4.09301859 10.141536,3.08464348 C13.4038693,2.31247524 16.773619,3.41577191 18.9551321,5.88083829 Z"/>
</svg>
