<?xml version="1.0" encoding="UTF-8"?>
<svg width="24px" height="24px" viewBox="0 0 24 24" version="1.1" xmlns="http://www.w3.org/2000/svg" xmlns:xlink="http://www.w3.org/1999/xlink">
    <!-- Generator: Sketch 53.2 (72643) - https://sketchapp.com -->
    <title>Assets / Icons / Reorder</title>
    <desc>Created with Sketch.</desc>
    <g id="Assets-/-Icons-/-Reorder" stroke="none" stroke-width="1" fill="none" fill-rule="evenodd">
        <path d="M13.5218727,11.95 C13.5218727,11.15 12.8218727,10.45 12.0218727,10.45 C11.2218727,10.45 10.5218727,11.15 10.5218727,11.95 C10.5218727,12.75 11.2218727,13.45 12.0218727,13.45 C12.8218727,13.45 13.5218727,12.75 13.5218727,11.95 Z M14.5218727,11.95 C14.5218727,13.35 13.4218727,14.45 12.0218727,14.45 C10.6218727,14.45 9.52187272,13.35 9.52187272,11.95 C9.52187272,10.55 10.6218727,9.45 12.0218727,9.45 C13.4218727,9.45 14.5218727,10.55 14.5218727,11.95 Z M12.0218727,1.15 L7.62187272,5.95 L16.3218727,5.95 L12.0218727,1.15 Z M17.5218727,6.95 L6.52187272,6.95 C6.12187272,6.95 5.82187272,6.45 6.12187272,6.15 L11.6218727,0.15 C11.8218727,-0.05 12.1218727,-0.05 12.3218727,0.15 L17.8218727,6.15 C18.2218727,6.45 17.9218727,6.95 17.5218727,6.95 Z M12.0218727,22.75 L16.4218727,17.95 L7.62187272,17.95 L12.0218727,22.75 Z M6.52187272,16.95 L17.5218727,16.95 C17.9218727,16.95 18.2218727,17.45 17.9218727,17.75 L12.4218727,23.75 C12.2218727,23.95 11.9218727,23.95 11.7218727,23.75 L6.22187272,17.75 C5.82187272,17.45 6.12187272,16.95 6.52187272,16.95 Z" id="Reorder" fill="#333333"></path>
    </g>
</svg>