<svg xmlns="http://www.w3.org/2000/svg" width="24" height="24" viewBox="0 0 24 24">
  <path fill="#333" fill-rule="evenodd" d="M20.5,24 L3.5,24 C3.2,24 3,23.8 3,23.5 L3,0.5 C3,0.2 3.2,0 3.5,0 L14.5,0 C14.5,0 14.5,0 14.5,0 C14.6,0 14.8,0.1 14.9,0.1 L20.9,6.1 C20.9,6.2 21,6.4 21,6.5 C21,6.5 21,6.5 21,6.5 L21,23.5 C21,23.8 20.8,24 20.5,24 Z M4,23 L20,23 L20,7 L14.5,7 C14.2,7 14,6.8 14,6.5 L14,1 L4,1 L4,23 Z M15,6 L19.3,6 L15,1.7 L15,6 Z M14.5,20 C12.6,20 11,18.4 11,16.5 C11,14.6 12.6,13 14.5,13 C16.4,13 18,14.6 18,16.5 C18,18.4 16.4,20 14.5,20 Z M13,18.5 C13.4,18.8 13.9,19 14.5,19 C15.9,19 17,17.9 17,16.5 C17,15.3 16.1,14.3 15,14 L15,16.5 C15,16.6 14.9,16.8 14.8,16.9 L13,18.5 Z M14,14 C12.9,14.2 12,15.2 12,16.5 C12,17 12.1,17.4 12.3,17.8 L14,16.3 L14,14 Z M9,20 L7,20 C6.7,20 6.5,19.8 6.5,19.5 C6.5,19.2 6.7,19 7,19 L9,19 C9.3,19 9.5,19.2 9.5,19.5 C9.5,19.8 9.3,20 9,20 Z M9,17 L7,17 C6.7,17 6.5,16.8 6.5,16.5 C6.5,16.2 6.7,16 7,16 L9,16 C9.3,16 9.5,16.2 9.5,16.5 C9.5,16.8 9.3,17 9,17 Z M9,14 L7,14 C6.7,14 6.5,13.8 6.5,13.5 C6.5,13.2 6.7,13 7,13 L9,13 C9.3,13 9.5,13.2 9.5,13.5 C9.5,13.8 9.3,14 9,14 Z M16,11 L7,11 C6.7,11 6.5,10.8 6.5,10.5 C6.5,10.2 6.7,10 7,10 L16,10 C16.3,10 16.5,10.2 16.5,10.5 C16.5,10.8 16.3,11 16,11 Z M12,8 L7,8 C6.7,8 6.5,7.8 6.5,7.5 C6.5,7.2 6.7,7 7,7 L12,7 C12.3,7 12.5,7.2 12.5,7.5 C12.5,7.8 12.3,8 12,8 Z"/>
</svg>
