<svg xmlns="http://www.w3.org/2000/svg" width="24" height="24" viewBox="0 0 24 24">
  <g fill="none" fill-rule="evenodd">
    <path fill="#333" d="M6.503 10.2225031C10.3833626 10.2225031 13.5 13.3235489 13.5 17.1985031 13.5 21.0783137 10.358474 24.2225031 6.482 24.2225031 2.631322 24.2225031-.5 20.9861907-.5 17.0815031-.5 13.3379417 2.42969784 10.3811472 6.19951449 10.2289649L6.19951449 10.2289649zM7.74832804 21.222801L5.25706401 21.2232808C5.57496815 21.8652573 5.96310863 22.5076213 6.42158918 23.1464813L6.477 23.2225031C6.49737651 23.2225031 6.51273953 23.2224454 6.52808887 23.2223302L6.38525308 23.4157323C6.93117138 22.6881095 7.38547838 21.9552065 7.74832804 21.222801zM4.1525829 21.2227609L2.08146 21.2236866C2.89064463 22.1285583 3.95857352 22.787441 5.16139938 23.0698731 4.76564232 22.4575738 4.42964319 21.8405808 4.1525829 21.2227609zM10.9597775 21.2237034L8.85262429 21.2228895C8.5760728 21.8392305 8.24084036 22.454742 7.84699659 23.0661005 9.06863742 22.7837541 10.1487158 22.1271837 10.9597775 21.2237034zM3.2127836 17.7227114L.532952712 17.7230763C.626180281 18.6264365.913792957 19.4750307 1.35193908 20.2226652L3.75569616 20.2227967C3.46614809 19.3848491 3.28511888 18.5487022 3.2127836 17.7227114zM8.7894424 17.7225001L4.21645935 17.7232954C4.2964127 18.5465426 4.49693078 19.3827266 4.81824778 20.2230595L8.18728029 20.2227452C8.50881677 19.3822599 8.7094594 18.5459146 8.7894424 17.7225001zM12.4774934 17.7232769L9.79303486 17.7228825C9.72060038 18.5489407 9.53941924 19.3851432 9.24966644 20.2231338L11.6877598 20.2232896C12.1214076 19.4769623 12.3994679 18.6288028 12.4774934 17.7232769zM3.58321778 14.2224758L1.2387917 14.2223453C.821126524 14.9663049.564245033 15.8135885.510547529 16.7228307L3.17842828 16.7228848C3.19500488 15.8715245 3.32986854 15.0348962 3.58321778 14.2224758zM8.36773191 14.2226922L4.63816558 14.2229156C4.35141399 15.030888 4.19819904 15.8675008 4.17879488 16.7224667L8.82712738 16.722857C8.80781846 15.8676967 8.65459524 15.0308781 8.36773191 14.2226922zM11.7135657 14.222166L9.4229113 14.222961C9.67615118 15.0351804 9.81094108 15.8715749 9.82747924 16.7226783L12.4816072 16.7227756C12.4111256 15.8154979 12.1405961 14.9675834 11.7135657 14.222166zM5.02432038 11.3955906L4.90242773 11.425614C3.73152043 11.7303782 2.71255728 12.3635375 1.95066725 13.2225289L3.96058484 13.2225916C4.24024196 12.594228 4.59478725 11.9836421 5.02432038 11.3955906zM6.503 11.2225031C6.48455364 11.2225031 6.46615286 11.2225845 6.44778547 11.2227478L6.58807105 11.0679763C5.95859598 11.7497839 5.45215369 12.4711741 5.06898764 13.22301L7.9369101 13.2228972C7.59458607 12.5512633 7.15386559 11.9039058 6.6149221 11.2873344L6.557 11.2235031zM7.98796147 11.4044187L8.09823625 11.5584472C8.47588042 12.0963255 8.79165612 12.6524215 9.04563796 13.2231721L10.9936412 13.2225363C10.2113253 12.3446267 9.1714054 11.7009218 7.98796147 11.4044187zM18.0149362 18.2241328L17.9795 18.222503C18.0768069 18.222212 18.1677049 18.2497369 18.2446641 18.2975931 18.2455008 18.2984255 18.2464605 18.2990251 18.2474186 18.2996283L18.2560004 18.3048557C18.2767622 18.3185539 18.2964435 18.3337592 18.314888 18.3503162L18.3219978 18.3570454 19.9175396 19.8424567C20.1196524 20.0306189 20.1309616 20.3469993 19.9427994 20.5491122 19.7755441 20.728768 19.5069806 20.7576654 19.3074144 20.6297168L19.2361439 20.574372 18.4827382 19.8715007 18.4826802 19.9600951C18.4379305 23.0219206 17.3072142 24.2158031 14.0957382 24.2158031 13.8195958 24.2158031 13.5957382 23.9919454 13.5957382 23.7158031 13.5957382 23.4396607 13.8195958 23.2158031 14.0957382 23.2158031 16.7309887 23.2158031 17.4531309 22.478239 17.4831001 19.9455147L17.4827382 19.8185007 16.6017623 20.585666C16.416562 20.7467604 16.1464488 20.7472894 15.9614256 20.599087L15.8963625 20.5365625C15.7352681 20.3513622 15.7347391 20.0812489 15.8829415 19.8962257L15.9454661 19.8311627 17.6461292 18.3511994C17.7344003 18.2715358 17.8512377 18.2228889 17.9795 18.222503L17.9897417 18.2230743C17.9981463 18.2232162 18.0065473 18.2235691 18.0149362 18.2241328z"/>
    <path fill="#333" d="M24.0007887,-0.5 C24.2769311,-0.5 24.5007887,-0.276142375 24.5007887,0 C24.5007887,0.245459889 24.3239136,0.44960837 24.0906644,0.491944331 L24.0007887,0.5 L21.991,0.5 L19.2978655,13.1379894 C20.0053673,13.4461238 20.5,14.1515496 20.5,14.9725031 C20.5,16.0770726 19.6045695,16.9725031 18.5,16.9725031 C17.3954305,16.9725031 16.5,16.0770726 16.5,14.9725031 C16.5,14.7964175 16.5227559,14.6256468 16.5654872,14.4629714 L14.0957382,14.4636951 C13.8195958,14.4636951 13.5957382,14.2398375 13.5957382,13.9636951 C13.5957382,13.7182352 13.7726133,13.5140867 14.0058625,13.4717508 L14.0957382,13.4636951 L17.1878531,13.4630693 C17.493833,13.1968554 17.8815343,13.0221474 18.308334,12.9815682 L18.46976,12.222 L12.3820053,12.2225031 C12.1058629,12.2225031 11.8820053,11.9986454 11.8820053,11.7225031 C11.8820053,11.4770432 12.0588804,11.2728947 12.2921296,11.2305587 L12.3820053,11.2225031 L18.68276,11.222 L19.91676,5.432 L15.03176,5.432 L15.00476,7.771 L16.1444057,6.61369231 C16.3379871,6.41676368 16.6545579,6.41405015 16.8514865,6.60763147 C17.0265342,6.77970375 17.048128,7.04895295 16.9148072,7.24497103 L16.8575474,7.31471227 L14.8632237,9.34352087 C14.6890618,9.52069422 14.4158616,9.54038015 14.2196912,9.40257865 L14.150082,9.34352087 L12.1557583,7.31471227 C11.962177,7.11778364 11.9648905,6.80121278 12.1618191,6.60763147 C12.3368668,6.43555918 12.6064466,6.41858407 12.8001505,6.55524544 L12.8688999,6.61369231 L14.00476,7.769 L14.03176,5.432 L8.332,5.432 L10.1184292,9.65481276 C10.2140092,9.88089906 10.1305881,10.1378083 9.93223404,10.267628 L9.8525889,10.3100447 C9.6265026,10.4056248 9.36959338,10.3222037 9.23977361,10.1238495 L9.19735693,10.0442044 L7.11875325,5.12744705 C6.9910034,4.82526582 7.18370403,4.49334605 7.4923825,4.44012457 L7.57928939,4.43275123 L20.13076,4.432 L21.0979195,-0.104239929 C21.1409651,-0.306176844 21.3024171,-0.457727962 21.5001891,-0.492460477 L21.5869328,-0.5 L24.0007887,-0.5 Z M19.0731138,14.1529225 L19.035413,14.227135 C18.9611233,14.3469364 18.8383882,14.4313466 18.6971226,14.4561556 L18.6103788,14.4636951 L17.6394488,14.4628327 C17.5508627,14.6120836 17.5,14.7863535 17.5,14.9725031 C17.5,15.5247878 17.9477153,15.9725031 18.5,15.9725031 C19.0522847,15.9725031 19.5,15.5247878 19.5,14.9725031 C19.5,14.6334197 19.3312326,14.3337541 19.0731138,14.1529225 Z"/>
  </g>
</svg>
