<svg xmlns="http://www.w3.org/2000/svg" viewBox="0 0 24 24">
    <!-- no post-processing -->
    <g transform="translate(4 2)">
        <linearGradient id="SafariA" gradientUnits="userSpaceOnUse" x1="7.998" y1="21.994" x2="7.998" y2="-2.012">
            <stop offset=".25" stop-color="#dbdbda"/>
            <stop offset="1" stop-color="#fff"/>
        </linearGradient>
        <circle cx="8" cy="10" r="12" fill="url(#SafariA)"/>
        <radialGradient id="SafariB" cx="-295.722" cy="521.844" r=".059" gradientTransform="matrix(229.4 0 0 -229.4 67848.1016 119718.5)" gradientUnits="userSpaceOnUse">
            <stop offset="0" stop-color="#2abce1"/>
            <stop offset=".114" stop-color="#2abbe1"/>
            <stop offset="1" stop-color="#3375f8"/>
        </radialGradient>
        <circle cx="8" cy="10" r="11.1" fill="url(#SafariB)"/>
        <g transform="translate(9.688 8.719)">
            <path d="M-1.7-7.1c-.1 0-.1-.1-.1-.1v-2c0-.1.1-.1.1-.1l.1.1v2c.1 0 0 .1-.1.1h0z" fill="#f3f3f3"/>
            <path d="M-1.7-7.1c-.1 0-.1-.1-.1-.1v-2c0-.1.1-.1.1-.1.1 0 .2.1.2.1v2c0 0-.1.1-.2.1h0zm0-2.2c-.1 0-.1.1-.1.1v2c0 .1.1.1.1.1.1 0 .1-.1.1-.1v-2c.1-.1 0-.1-.1-.1h0z" fill="#fff"/>
            <path d="M-.7-8.2c-.1 0-.1-.1-.1-.1l.1-.9c0-.1.1-.1.2-.1s.1.1.1.1l-.1.9c-.1.1-.2.1-.2.1h0z" fill="#f3f3f3"/>
            <path d="M-.7-8.2c-.1 0-.1-.1-.1-.1l.1-.9c0-.1.1-.1.2-.1s.1.1.1.1l-.1.9c-.1.1-.1.2-.2.1h0zm.1-1.1c-.1 0-.1 0-.1.1l-.1.9c0 .1 0 .1.1.1s.1 0 .1-.1l.1-.9c0 0-.1-.1-.1-.1h0z" fill="#fff"/>
            <path d="M0-6.9C-.1-7-.2-7-.1-7.1L.2-9c0-.1.1-.1.2-.1s.1.1.1.2L.1-7.1c0 .1-.1.2-.1.2h0z" fill="#f3f3f3"/>
            <path d="M0-6.9C-.1-7-.2-7-.2-7.1L.2-9c0-.1.1-.1.2-.1s.1 0 .1.1L.2-7.1c-.1.1-.1.2-.2.2h0zm.4-2.2c-.1 0-.1 0-.2.1l-.4 1.9c.1.1.1.1.2.1s.1 0 .2-.1L.5-9c0-.1 0-.1-.1-.1h0z" fill="#fff"/>
            <path d="M1.1-7.8C1-7.8 1-7.9 1-8l.2-.8c0-.1.1-.1.2-.1s.1.1.1.2l-.2.8c-.1.1-.1.1-.2.1h0z" fill="#f3f3f3"/>
            <path d="M1.1-7.8C1-7.8 1-7.9 1-8l.2-.8c0-.1.1-.1.2-.1s.1.1.1.2l-.2.8c0 .1-.1.1-.2.1h0zm.3-1.1c-.1 0-.1 0-.2.1L1-8c0 .1 0 .1.1.2.1 0 .1 0 .2-.1l.2-.8c0-.1 0-.2-.1-.2h0z" fill="#fff"/>
            <path d="M1.6-6.5c-.1 0-.1-.1-.1-.2l.7-1.8c0-.1.1-.1.2-.1s.1.1.1.2l-.8 1.9s-.1.1-.1 0h0z" fill="#f3f3f3"/>
            <path d="M1.6-6.5c-.1 0-.1-.1-.1-.2l.8-1.8c0-.1.1-.1.2-.1s.1.1.1.2l-.8 1.9c-.1 0-.2.1-.2 0h0zm.8-2c-.1 0-.1 0-.2.1l-.7 1.8c0 .1 0 .1.1.2.1 0 .1 0 .2-.1l.8-1.8c-.1-.1-.1-.2-.2-.2h0z" fill="#fff"/>
            <path d="M2.8-7.1c-.1 0-.1-.1-.1-.2l.5-.7c0-.1.1-.1.2-.1v.2l-.4.8s-.1.1-.2 0h0z" fill="#f3f3f3"/>
            <path d="M2.8-7.1c-.1 0-.1-.1-.1-.2l.5-.7c0-.1.1-.1.2-.1s.1.1.1.2l-.5.8s-.1.1-.2 0h0zm.5-1c-.1 0-.1 0-.2.1l-.3.8c0 .1 0 .1.1.2.1 0 .1 0 .2-.1l.4-.8-.2-.2h0z" fill="#fff"/>
            <path d="M3-5.7c-.1 0-.1-.1 0-.2l1.1-1.6c0-.1.1-.1.2 0 .1 0 .1.1 0 .2L3.2-5.7s-.1.1-.2 0h0z" fill="#f3f3f3"/>
            <path d="M3-5.7c-.1 0-.1-.1 0-.2l1.1-1.6c0-.1.1-.1.2 0 .1 0 .1.1 0 .2L3.2-5.7c0 .1-.1.1-.2 0h0zm1.2-1.8H4L3-5.9v.2h.2l1.1-1.6c0-.1 0-.2-.1-.2h0z" fill="#fff"/>
            <path d="M4.4-6c-.1 0-.1-.1 0-.2l.5-.7c0-.1.1-.1.2 0 .1 0 .1.1 0 .2l-.5.7h-.2 0z" fill="#f3f3f3"/>
            <path d="M4.4-6c-.1 0-.1-.1 0-.2l.5-.7c0-.1.1-.1.2 0 .1 0 .1.1 0 .2l-.5.7h-.2 0zm.7-.9h-.2l-.6.7v.2h.2l.5-.7c.1-.1.1-.2.1-.2h0z" fill="#fff"/>
            <path d="M4.3-4.6c-.1-.1-.1-.1 0-.2l1.4-1.4c.1-.1.1 0 .2 0s0 .2 0 .2L4.5-4.6h-.2 0z" fill="#f3f3f3"/>
            <path d="M4.3-4.6c-.1-.1-.1-.2 0-.2l1.4-1.4c.1-.1.2-.1.2 0v.2L4.5-4.6h-.2 0zm1.6-1.6h-.2L4.3-4.8v.2c0 .1.1 0 .2 0L5.9-6v-.2h0z" fill="#fff"/>
            <path d="M5.7-4.7v-.2l.7-.6h.2v.2l-.7.6c-.1.1-.2.1-.2 0h0z" fill="#f3f3f3"/>
            <path d="M5.7-4.7c-.1-.1 0-.2 0-.2l.7-.6c.1-.1.2 0 .2 0 .1.1 0 .2 0 .2l-.7.6c-.1.1-.2.1-.2 0h0zm.8-.7c0-.1-.1-.1-.2 0l-.6.5s-.1.1 0 .2c0 .1.1.1.2 0l.7-.6c0 0 0-.1-.1-.1h0z" fill="#fff"/>
            <path d="M5.3-3.3v-.2L7-4.6h.2v.2L5.5-3.3h-.2 0z" fill="#f3f3f3"/>
            <path d="M5.3-3.3v-.2L7-4.6h.2v.2L5.5-3.3h-.2 0zm1.9-1.3c0-.1-.1-.1-.2 0L5.4-3.5c-.1 0-.1.1 0 .2 0 .1.1.1.2 0l1.6-1.1c0 0 0-.1 0-.2h0z" fill="#fff"/>
            <path d="M6.7-3.2v-.2l.8-.4c.1 0 .1 0 .2.1v.2l-.8.4c-.1 0-.1 0-.2-.1h0z" fill="#f3f3f3"/>
            <path d="M6.7-3.1v-.2l.8-.4c.1 0 .2 0 .2.1v.2l-.8.3c-.1.1-.2 0-.2 0h0zm1-.6c0-.1-.1-.1-.2 0l-.7.4c-.1 0-.1.1 0 .2 0 .1.1.1.2 0l.8-.4c-.1-.1-.1-.1-.1-.2h0z" fill="#fff"/>
            <path d="M6.1-1.9c0-.1 0-.2.1-.2L8-2.8c.1 0 .2 0 .2.1s0 .2-.1.2l-1.8.7c-.1 0-.2 0-.2-.1h0z" fill="#f3f3f3"/>
            <path d="M6.1-1.9c0-.1 0-.2.1-.2L8-2.8c.1 0 .2 0 .2.1s0 .2-.1.2l-1.8.7c-.1 0-.2 0-.2-.1h0zm2-.9H8l-1.8.7c-.1.1-.1.1-.1.2s.1.1.2.1l1.8-.8c0 0 .1-.1 0-.2h0z" fill="#fff"/>
            <path d="M7.4-1.4c0-.1 0-.2.1-.2l.8-.3c.1 0 .1 0 .2.1 0 .1 0 .1-.1.2l-.8.2c-.1.1-.2 0-.2 0h0z" fill="#f3f3f3"/>
            <path d="M7.4-1.4c0-.1 0-.2.1-.2l.8-.3c.1 0 .2 0 .2.1s0 .2-.1.2l-.8.3c-.1 0-.2-.1-.2-.1h0zm1.1-.4c0-.1-.1-.1-.2-.1l-.8.3c-.1 0-.1.1-.1.2s.1.1.2.1l.8-.3c.1-.1.1-.1.1-.2h0z" fill="#fff"/>
            <path d="M6.6-.3c0-.1 0-.1.1-.2l1.9-.4c.1 0 .1 0 .2.1 0 .1 0 .2-.1.2l-2 .4c-.1 0-.1 0-.1-.1h0z" fill="#f3f3f3"/>
            <path d="M6.5-.3c0-.1 0-.2.1-.2l1.9-.4c.1 0 .2 0 .2.1s0 .2-.1.2l-1.9.4c-.1 0-.1 0-.2-.1h0zm2.2-.4c0-.1-.1-.1-.1-.1l-1.9.3c-.1 0-.1.1-.1.1 0 .1.1.1.1.1l1.9-.4c.1.1.1 0 .1 0h0z" fill="#fff"/>
            <path d="M7.8.4c0-.1 0-.1.1-.2l.9-.1c.1 0 .1 0 .1.1s0 .1-.1.2l-.9.1c-.1 0-.1 0-.1-.1h0z" fill="#f3f3f3"/>
            <path d="M7.8.4c0-.1 0-.2.1-.2l.9-.1c.1 0 .1 0 .2.1 0 .1 0 .2-.1.2l-1 .1c-.1 0-.1 0-.1-.1h0zM8.9.3c0-.1-.1-.1-.1-.1l-.9.1c-.1 0-.1.1-.1.1 0 .1.1.1.1.1l.9-.1.1-.1h0z" fill="#fff"/>
            <path d="M6.7 1.3c0-.1.1-.1.1-.1h2c.1 0 .1.1.1.1s0 .2-.1.2h-2c0 0-.1-.1-.1-.2h0z" fill="#f3f3f3"/>
            <path d="M6.7 1.3c0-.1.1-.2.1-.2h2c.1 0 .1.1.1.2s-.1.1-.1.1h-2c0 .1-.1 0-.1-.1h0zm2.2 0c0-.1-.1-.1-.1-.1h-2c-.1 0-.1.1-.1.1 0 .1.1.1.1.1h2c.1 0 .1 0 .1-.1h0z" fill="#fff"/>
            <path d="M7.8 2.3c0-.1.1-.1.1-.1l.9.1c.1 0 .1.1.1.2s-.1.1-.1.1l-.9-.2c-.1 0-.1-.1-.1-.1h0z" fill="#f3f3f3"/>
            <path d="M7.7 2.3c0-.1.1-.1.2-.1l.9.1c.1 0 .1.1.1.2s-.1.1-.1.1l-.9-.2c-.1 0-.2-.1-.2-.1h0zm1.2 0c0-.1 0-.1-.1-.1l-.9-.1c-.1 0-.1 0-.1.1s0 .1.1.1l.9.1c0 .1.1 0 .1-.1h0z" fill="#fff"/>
            <path d="M6.5 2.9c0-.1.1-.1.2-.1l1.9.4c.1 0 .1.1.1.2s-.1.1-.2.1l-1.9-.4s-.1-.1-.1-.2h0z" fill="#f3f3f3"/>
            <path d="M6.5 2.9c0-.1.1-.1.2-.1l1.9.4c.1 0 .1.1.1.2s-.1.1-.2.1l-1.9-.4s-.1-.1-.1-.2h0zm2.2.5c0-.1 0-.1-.1-.2l-1.9-.4c-.1 0-.1 0-.2.1 0 .1 0 .1.1.2l1.9.4c.1 0 .2-.1.2-.1h0z" fill="#fff"/>
            <path d="M7.4 4.1c0-.1.1-.2.2-.1l.8.2c.1 0 .1.1.1.2s-.1.1-.2.1l-.8-.3c-.1 0-.1-.1-.1-.1h0z" fill="#f3f3f3"/>
            <path d="M7.4 4.1c0-.1.1-.2.2-.1l.8.2c.1 0 .1.1.1.2s-.1.1-.2.1l-.8-.3c-.1 0-.1 0-.1-.1h0zm1.1.3c0-.1 0-.1-.1-.2L7.5 4s-.1 0-.1.1 0 .1.1.2l.8.2c.1 0 .2-.1.2-.1h0z" fill="#fff"/>
            <path d="M6.1 4.5c0-.1.1-.1.2-.1l1.8.8c.1 0 .1.1.1.2s-.1.1-.2.1l-1.9-.8s-.1-.1 0-.2h0z" fill="#f3f3f3"/>
            <path d="M6.1 4.5c0-.1.1-.1.2-.1l1.8.8c.1 0 .1.1.1.2s-.1.1-.2.1l-1.9-.8s-.1-.1 0-.2h0zm2 .9c0-.1 0-.1-.1-.2l-1.8-.8c-.1 0-.1 0-.2.1 0 .1 0 .1.1.2l1.8.8c.1 0 .2-.1.2-.1h0z" fill="#fff"/>
            <path d="M6.7 5.8c0-.1.1-.1.2-.1l.8.4c.1 0 .1.1.1.2s-.1.1-.2.1L6.7 6c0-.1-.1-.2 0-.2h0z" fill="#f3f3f3"/>
            <path d="M6.7 5.8c0-.1.1-.1.2-.1l.8.4c.1 0 .1.1.1.2s-.1.1-.2.1L6.7 6c0-.1-.1-.2 0-.2h0zm1 .5c0-.1 0-.1-.1-.2l-.8-.4c-.1 0-.1 0-.2.1 0 .1 0 .1.1.2l.8.4c.1 0 .2 0 .2-.1h0z" fill="#fff"/>
            <path d="M5.3 6c0-.1.1-.1.2 0l1.6 1c.1 0 .1.1 0 .2 0 .1-.1.1-.2 0L5.3 6.1s-.1-.1 0-.1h0z" fill="#f3f3f3"/>
            <path d="M5.3 5.9c0-.1.1-.1.2 0L7.1 7c.1 0 .1.1 0 .2 0 .1-.1.1-.2 0l-1.6-1c-.1-.1-.1-.2 0-.3h0zm1.8 1.3V7L5.5 5.9h-.2v.2L7 7.2c0 .1.1 0 .1 0h0z" fill="#fff"/>
            <path d="M5.6 7.3c0-.1.1-.1.2 0l.7.5c.1 0 .1.1 0 .2 0 .1-.1.1-.2 0l-.6-.5c-.1 0-.1-.1-.1-.2h0z" fill="#f3f3f3"/>
            <path d="M5.6 7.3c0-.1.1-.1.2 0l.7.5c.1 0 .1.1 0 .2 0 .1-.1.1-.2 0l-.6-.5c-.1 0-.1-.1-.1-.2h0zm.9.7v-.2l-.7-.5h-.2c-.1 0 0 .1 0 .2l.8.5c0 .1.1.1.1 0h0z" fill="#fff"/>
            <path d="M4.2 7.2c.1-.1.1-.1.2 0l1.4 1.4c.1.1 0 .1 0 .2-.1.1-.1.1-.2 0L4.2 7.4v-.2h0z" fill="#f3f3f3"/>
            <path d="M4.2 7.2c.1-.1.2-.1.2 0l1.4 1.4c.1.1.1.2 0 .2-.1.1-.1.1-.2 0L4.2 7.4v-.2h0zm1.6 1.6v-.2L4.4 7.2h-.2c-.1 0 0 .1 0 .2l1.4 1.4h.2 0z" fill="#fff"/>
            <path d="M4.3 8.6h.2l.6.7v.2h-.2l-.6-.7v-.2h0z" fill="#f3f3f3"/>
            <path d="M4.3 8.6c.1-.1.2 0 .2 0l.6.7c.1.1 0 .2 0 .2-.1.1-.2 0-.2 0l-.6-.7v-.2h0zm.8.9c.1 0 .1-.1 0-.2l-.6-.7s-.1-.1-.2 0c-.1 0-.1.1 0 .2l.6.7c0 0 .1 0 .2 0h0z" fill="#fff"/>
            <path d="M3 8.3h.2l1.1 1.6v.2h-.2L2.9 8.5c0-.1 0-.2.1-.2h0z" fill="#f3f3f3"/>
            <path d="M3 8.3h.2l1.1 1.6v.2h-.2L2.9 8.5c0-.1 0-.2.1-.2h0zm1.2 1.8c.1 0 .1-.1 0-.2l-1-1.6c0-.1-.1-.1-.2 0-.1 0-.1.1 0 .2l1 1.6h.2 0z" fill="#fff"/>
            <path d="M2.8 9.7H3l.4.8c0 .1 0 .2-.1.2h-.2l-.4-.9s0-.1.1-.1h0z" fill="#f3f3f3"/>
            <path d="M2.8 9.6H3l.4.8c0 .1 0 .2-.1.2h-.2l-.4-.8s0-.1.1-.2h0zm.5 1c.1 0 .1-.1 0-.2L3 9.7c0-.1-.1-.1-.2 0-.1 0-.1.1 0 .2l.4.8c0-.1.1 0 .1-.1h0z" fill="#fff"/>
            <path d="M1.5 9c.1 0 .2 0 .2.1l.8 1.8c0 .1 0 .1-.1.2-.1 0-.2 0-.2-.1l-.7-1.8c-.1-.1 0-.1 0-.2h0z" fill="#f3f3f3"/>
            <path d="M1.5 9c.1 0 .2 0 .2.1l.8 1.8c0 .1 0 .2-.1.2s-.2 0-.2-.1l-.7-1.8c-.1-.1 0-.1 0-.2h0zm.9 2.1c.1 0 .1-.1.1-.2l-.8-1.8c0-.1-.1-.1-.2-.1s-.1.1-.1.2l.8 1.8c.1.1.1.1.2.1h0z" fill="#fff"/>
            <path d="M1.1 10.4c.1 0 .2 0 .2.1l.3.8c0 .1 0 .1-.1.2-.1 0-.2 0-.2-.1l-.3-.9s0-.1.1-.1h0z" fill="#f3f3f3"/>
            <path d="M1.1 10.4c.1 0 .2 0 .2.1l.3.8c0 .1 0 .2-.1.2s-.2 0-.2-.1l-.3-.9s0-.1.1-.1h0zm.3 1c.1 0 .1-.1.1-.2l-.3-.8c0-.1-.1-.1-.2-.1v.2l.3.8c0 .1.1.2.1.1h0z" fill="#fff"/>
            <path d="M0 9.5c.1 0 .1 0 .2.1l.4 1.9c0 .1 0 .1-.1.2-.1 0-.2 0-.2-.1l-.4-1.9c-.1-.1 0-.2.1-.2h0z" fill="#f3f3f3"/>
            <path d="M0 9.5c.1 0 .2 0 .2.1l.4 1.9c0 .1 0 .2-.1.2s-.2 0-.2-.1l-.4-1.9c-.1-.1 0-.2.1-.2h0zm.4 2.2c.1 0 .1-.1.1-.2L.1 9.6 0 9.5c-.1 0-.1.1-.1.2l.4 1.9c0 .1 0 .1.1.1h0z" fill="#fff"/>
            <path d="M-.7 10.7c.1 0 .1 0 .2.1l.1.9c0 .1 0 .1-.1.1s-.1 0-.2-.1l-.1-.9c-.1 0 0-.1.1-.1h0z" fill="#f3f3f3"/>
            <path d="M-.7 10.7c.1 0 .2 0 .2.1l.1.9c0 .1 0 .1-.1.2-.1 0-.2 0-.2-.1l-.1-.9c-.1-.1 0-.2.1-.2h0zm.1 1.1c.1 0 .1-.1.1-.1l-.1-.9c0-.1-.1-.1-.1-.1-.1 0-.1.1-.1.1l.1.9c0 .1 0 .2.1.1h0z" fill="#fff"/>
            <path d="M-1.7 9.7c.1 0 .1.1.1.1v2c0 .1-.1.1-.1.1l-.1-.1v-2c0-.1 0-.1.1-.1h0z" fill="#f3f3f3"/>
            <path d="M-1.7 9.7c.1 0 .1.1.1.1v2c0 .1-.1.1-.1.1-.1 0-.2-.1-.2-.1v-2c0-.1.1-.1.2-.1h0zm0 2.2c.1 0 .1-.1.1-.1v-2c0-.1-.1-.1-.1-.1-.1 0-.1.1-.1.1v2s0 .1.1.1h0z" fill="#fff"/>
            <path d="M-2.6 10.7c.1 0 .1.1.1.1l-.1.9c0 .1-.1.1-.2.1s-.1-.1-.1-.1l.1-.9c0 0 .1-.1.2-.1h0z" fill="#f3f3f3"/>
            <path d="M-2.6 10.7c.1 0 .1.1.1.1l-.1.9c0 .1-.1.1-.2.1s-.1-.1-.1-.2l.1-.9c0 .1.1 0 .2 0h0zm-.1 1.2c.1 0 .1 0 .1-.1l.1-.9c0-.1 0-.1-.1-.1s-.1 0-.1.1l-.1.9c0 0 0 0 .1.1h0z" fill="#fff"/>
            <path d="M-3.3 9.5c.1 0 .1.1.1.2l-.4 1.9c0 .1-.1.1-.2.1s-.1-.1-.1-.2l.4-1.9s.1-.1.2-.1h0z" fill="#f3f3f3"/>
            <path d="M-3.3 9.5c.1 0 .1.1.1.2l-.4 1.9c0 .1-.1.1-.2.1s-.1-.1-.1-.2l.4-1.9c0-.1.1-.1.2-.1h0zm-.5 2.2c.1 0 .1 0 .1-.1l.4-1.9c0-.1 0-.1-.1-.2-.1 0-.1 0-.1.1l-.4 1.9c0 .1 0 .2.1.2h0z" fill="#fff"/>
            <path d="M-4.5 10.4c.1 0 .1.1.1.2l-.2.8c0 .1-.1.1-.2.1s-.1-.1-.1-.2l.2-.8c.1-.1.2-.2.2-.1h0z" fill="#f3f3f3"/>
            <path d="M-4.5 10.3c.1 0 .1.1.1.2l-.2.8c0 .1-.1.1-.2.1s-.1-.1-.1-.2l.2-.8c.1 0 .1-.1.2-.1h0zm-.3 1.1c.1 0 .1 0 .2-.1l.2-.8c0-.1 0-.1-.1-.2-.1 0-.1 0-.2.1l-.2.8c0 .2.1.2.1.2h0z" fill="#fff"/>
            <path d="M-4.9 9c.1 0 .1.1.1.2l-.8 1.8c0 .1-.1.1-.2.1s-.1-.1-.1-.2l.8-1.8c0-.1.1-.1.2-.1h0z" fill="#f3f3f3"/>
            <path d="M-4.9 9c.1 0 .1.1.1.2l-.8 1.8c0 .1-.1.1-.2.1s-.1-.1-.1-.2l.8-1.8c0-.1.1-.1.2-.1h0zm-.9 2.1c.1 0 .1 0 .2-.1l.8-1.8c0-.1 0-.1-.1-.2-.1 0-.2 0-.2.1l-.8 1.8c0 .1.1.2.1.2h0z" fill="#fff"/>
            <path d="M-6.2 9.6c.1 0 .1.1.1.2l-.4.8c0 .1-.1.1-.2.1s-.1-.1-.1-.2l.4-.8c.1-.1.1-.1.2-.1h0z" fill="#f3f3f3"/>
            <path d="M-6.2 9.6c.1 0 .1.1.1.2l-.4.8c0 .1-.1.1-.2.1s-.1-.1-.1-.2l.4-.8c0-.1.1-.1.2-.1h0zm-.5 1c.1 0 .1 0 .2-.1l.4-.8c0-.1 0-.1-.1-.2-.1 0-.1 0-.2.1l-.4.8c0 .1 0 .2.1.2h0z" fill="#fff"/>
            <path d="M-6.4 8.2c.1 0 .1.1 0 .2L-7.5 10c0 .1-.1.1-.2 0-.1 0-.1-.1 0-.2l1.1-1.6h.2 0z" fill="#f3f3f3"/>
            <path d="M-6.4 8.2c.1 0 .1.1 0 .2L-7.5 10c0 .1-.1.1-.2 0-.1 0-.1-.1 0-.2l1.1-1.6h.2 0zm-1.2 1.9h.2l1.1-1.6v-.2h-.2l-1.1 1.6c-.1.1-.1.1 0 .2h0z" fill="#fff"/>
            <path d="M-7.8 8.6c.1 0 .1.1 0 .2l-.5.7c0 .1-.1.1-.2 0-.1 0-.1-.1 0-.2l.5-.7c.1 0 .2-.1.2 0h0z" fill="#f3f3f3"/>
            <path d="M-7.7 8.6c.1 0 .1.1 0 .2l-.5.7c0 .1-.1.1-.2 0-.1 0-.1-.1 0-.2l.4-.7c.1-.1.2-.1.3 0h0zm-.7.9h.2l.5-.7v-.2h-.2l-.5.7c-.1.1-.1.1 0 .2h0z" fill="#fff"/>
            <path d="M-7.7 7.2c.1.1.1.1 0 .2L-9 8.8c-.1.1-.1 0-.2 0s-.1-.1 0-.2l1.4-1.4c0-.1.1-.1.1 0h0z" fill="#f3f3f3"/>
            <path d="M-7.7 7.2c.1.1.1.2 0 .2L-9 8.8c-.1.1-.1.1-.2 0s-.1-.1 0-.2l1.4-1.4c0-.1.1-.1.1 0h0zm-1.5 1.6h.2l1.4-1.4v-.2c0-.1-.1 0-.2 0l-1.4 1.4c-.1 0-.1.1 0 .2h0z" fill="#fff"/>
            <path d="M-9.1 7.3v.2l-.6.5h-.2c-.1 0 0-.1 0-.2l.7-.6s.1 0 .1.1h0z" fill="#f3f3f3"/>
            <path d="M-9.1 7.3c.1.1 0 .2 0 .2l-.6.5c-.1.1-.2 0-.2 0-.1-.1 0-.2 0-.2l.7-.6s.1 0 .1.1h0zm-.8.7c0 .1.1.1.2 0l.7-.6s.1-.1 0-.2c0-.1-.1-.1-.2 0l-.7.6c-.1.1-.1.1 0 .2h0z" fill="#fff"/>
            <path d="M-8.7 5.9v.2l-1.6 1.1h-.2V7l1.6-1.1c.1-.1.2 0 .2 0h0z" fill="#f3f3f3"/>
            <path d="M-8.7 5.9v.2l-1.6 1.1h-.2V7l1.6-1.1c.1-.1.2-.1.2 0h0zm-1.8 1.2c0 .1.1.1.2 0L-8.7 6c.1 0 .1-.1 0-.2 0-.1-.1-.1-.2 0L-10.5 7c-.1 0-.1.1 0 .1h0z" fill="#fff"/>
            <path d="M-10.1 5.7v.2l-.8.4c-.1 0-.1 0-.2-.1V6l.8-.4c.1 0 .2.1.2.1h0z" fill="#f3f3f3"/>
            <path d="M-10.1 5.7v.2l-.8.4c-.1 0-.2 0-.2-.1V6l.8-.4c.1 0 .2 0 .2.1h0zm-1 .6c0 .1.1.1.2 0l.8-.4c.1 0 .1-.1 0-.2 0-.1-.1-.1-.2 0l-.7.4c-.1 0-.1.1-.1.2h0z" fill="#fff"/>
            <path d="M-9.5 4.5c0 .1 0 .2-.1.2l-1.8.8c-.1 0-.1 0-.2-.1 0-.1 0-.2.1-.2l1.8-.8c.1 0 .2 0 .2.1h0z" fill="#f3f3f3"/>
            <path d="M-9.4 4.5c0 .1 0 .2-.1.2l-1.8.8c-.1 0-.2 0-.2-.1s0-.2.1-.2l1.8-.8c0-.1.1 0 .2.1h0zm-2.1.8c0 .1.1.1.2.1l1.8-.8c.1 0 .1-.1.1-.2s-.1-.1-.2-.1l-1.8.8c-.1.1-.1.1-.1.2h0z" fill="#fff"/>
            <path d="M-10.8 4c0 .1 0 .2-.1.2l-.8.3c-.1 0-.1 0-.2-.1 0-.1 0-.2.1-.2l.8-.3c.1 0 .2 0 .2.1h0z" fill="#f3f3f3"/>
            <path d="M-10.8 4c0 .1 0 .2-.1.2l-.8.3c-.1 0-.2 0-.2-.1s0-.2.1-.2l.8-.3c.1 0 .2 0 .2.1h0zm-1.1.3c0 .1.1.1.2.1l.8-.3c.1 0 .1-.1.1-.2s-.1-.1-.2-.1l-.8.3c-.1.1-.1.2-.1.2h0z" fill="#fff"/>
            <path d="M-9.9 2.9c0 .1-.1.1-.1.1l-2 .4c-.1 0-.1 0-.2-.1 0-.1 0-.2.1-.2l1.9-.4c.2.1.3.1.3.2h0z" fill="#f3f3f3"/>
            <path d="M-9.9 2.9c0 .1-.1.1-.1.2l-2 .3c-.1 0-.1 0-.2-.1 0-.1 0-.2.1-.2l1.9-.4c.2 0 .3.1.3.2h0zm-2.2.4c0 .1.1.1.1.1l2-.4c.1 0 .1-.1.1-.2s-.1-.1-.1-.1l-2 .5c-.1 0-.1 0-.1.1h0z" fill="#fff"/>
            <path d="M-11.1 2.2c0 .1 0 .1-.1.2l-.9.1c-.1 0-.1 0-.1-.1s0-.1.1-.2l.9-.1c0-.1.1 0 .1.1h0z" fill="#f3f3f3"/>
            <path d="M-11.1 2.2c0 .1 0 .2-.1.2l-.9.1c-.1 0-.1 0-.2-.1 0-.1 0-.2.1-.2l.9-.1c.1-.1.2 0 .2.1h0zm-1.2.1c0 .1.1.1.1.1l.9-.1c.1 0 .1-.1.1-.1 0-.1-.1-.1-.1-.1l-.9.1c0 0-.1 0-.1.1h0z" fill="#fff"/>
            <path d="M-10.1 1.3c0 .1-.1.1-.1.1h-2c-.1 0-.1-.1-.1-.1l.1-.1h2c.1-.1.1 0 .1.1h0z" fill="#f3f3f3"/>
            <path d="M-10.1 1.3c0 .1-.1.2-.1.2h-2c-.1 0-.1-.1-.1-.2s.1-.1.1-.1h2c.1-.1.1 0 .1.1h0zm-2.2-.1c0 .1.1.1.1.1h2c.1 0 .1-.1.1-.1 0-.1-.1-.1-.1-.1h-2c0 0-.1.1-.1.1h0z" fill="#fff"/>
            <path d="M-11.1.3c0 .1-.1.1-.1.1l-.9-.1c-.1 0-.1-.1-.1-.2s.1-.1.1-.1l.9.1c0 .1.1.1.1.2h0z" fill="#e2e2e2"/>
            <path d="M-11.1.3c0 .1-.1.1-.2.1l-.9-.1c-.1 0-.1-.1-.1-.2s.1-.1.2-.1l.9.1c0 .1.1.1.1.2h0zm-1.2-.1c0 .1 0 .1.1.1l.9.1c.1 0 .1 0 .1-.1s0-.1-.1-.1l-.9-.1c0 0-.1.1-.1.1h0z" fill="#fff"/>
            <path d="M-9.9-.4c0 .1-.1.1-.2.1L-12-.7c-.1 0-.1-.1-.1-.2s.1-.1.2-.1l1.9.4c0 .1.1.1.1.2h0z" fill="#f3f3f3"/>
            <path d="M-9.9-.4c0 .1-.1.1-.2.1L-12-.6c-.1 0-.1-.1-.1-.2s.1-.1.2-.1l1.9.4c.1 0 .1 0 .1.1h0zm-2.2-.4c0 .1 0 .1.1.1l1.9.4c.1 0 .1 0 .1-.1s0-.1-.1-.1L-12-.9s-.1 0-.1.1h0z" fill="#fff"/>
            <path d="M-10.8-1.5c0 .1-.1.1-.2.1l-.8-.2c-.1 0-.1-.1-.1-.2s.1-.1.2-.1l.8.2c.1 0 .2.1.1.2h0z" fill="#f3f3f3"/>
            <path d="M-10.8-1.5c0 .1-.1.1-.2.1l-.8-.2c-.1 0-.1-.1-.1-.2s.1-.1.2-.1l.8.2c.1 0 .2.1.1.2h0zm-1.1-.3c0 .1 0 .1.1.2l.8.2c.1 0 .1 0 .1-.1s0-.1-.1-.2l-.8-.2c0 0 0 0-.1.1h0z" fill="#fff"/>
            <path d="M-9.4-2c0 .1-.1.1-.2.1l-1.8-.8c-.1 0-.1-.1-.1-.2s.1-.1.2-.1l1.8.8c.1.1.1.2.1.2h0z" fill="#f3f3f3"/>
            <path d="M-9.4-1.9c0 .1-.1.1-.2.1l-1.8-.8c-.1 0-.1-.1-.1-.2s.1-.1.2-.1l1.8.8c.1 0 .1.1.1.2h0zm-2.1-.9c0 .1 0 .1.1.2l1.8.8c.1 0 .1 0 .2-.1 0-.1 0-.1-.1-.2l-1.8-.8c-.1 0-.2 0-.2.1h0z" fill="#fff"/>
            <path d="M-10.1-3.2c0 .1-.1.1-.2.1l-.7-.4c-.1 0-.1-.1-.1-.2s.1-.1.2-.1l.8.4c.1 0 .1.1 0 .2h0z" fill="#f3f3f3"/>
            <path d="M-10-3.2c0 .1-.1.1-.2.1l-.8-.4c-.1 0-.1-.1-.1-.2s.1-.1.2-.1l.8.4c.1 0 .1.1.1.2h0zm-1.1-.5c0 .1 0 .1.1.2l.8.4c.1 0 .1 0 .2-.1 0-.1 0-.1-.1-.2l-.8-.4c0 0-.1 0-.2.1h0z" fill="#fff"/>
            <path d="M-8.7-3.4c0 .1-.1.1-.2 0l-1.6-1.1c-.1 0-.1-.1 0-.2 0-.1.1-.1.2 0l1.6 1.1c.1.1.1.1 0 .2h0z" fill="#f3f3f3"/>
            <path d="M-8.7-3.4c0 .1-.1.1-.2 0l-1.6-1.1c-.1 0-.1-.1 0-.2 0-.1.1-.1.2 0l1.6 1.1c.1.1.1.1 0 .2h0zm-1.8-1.2v.2l1.6 1.1h.2v-.2l-1.6-1.1c-.1-.1-.2-.1-.2 0h0z" fill="#fff"/>
            <path d="M-9-4.8c0 .1-.1.1-.2 0l-.7-.5c-.1 0-.1-.1 0-.2 0-.1.1-.1.2 0l.7.6v.1h0z" fill="#f3f3f3"/>
            <path d="M-9-4.7c0 .1-.1.1-.2 0l-.7-.5c-.1 0-.1-.1 0-.2s.1-.1.2 0l.7.4v.3h0zm-.9-.8v.2l.7.5h.2c.1 0 0-.1 0-.2l-.7-.5h-.2 0z" fill="#fff"/>
            <path d="M-7.6-4.7c-.1.1-.1.1-.2 0L-9.2-6c-.1-.1 0-.1 0-.2.1-.1.1-.1.2 0l1.4 1.4v.1h0z" fill="#f3f3f3"/>
            <path d="M-7.6-4.7c-.1.1-.1.1-.2 0L-9.2-6c-.1-.1-.1-.2 0-.2.1-.1.1-.1.2 0l1.4 1.4v.1h0zm-1.6-1.5v.2l1.4 1.4h.2c.1 0 0-.1 0-.2L-9-6.2c-.1-.1-.1-.1-.2 0h0z" fill="#fff"/>
            <path d="M-7.7-6.1h-.2l-.6-.7V-7h.2l.6.7c.1.1 0 .2 0 .2h0z" fill="#f3f3f3"/>
            <path d="M-7.7-6.1c-.1.1-.1 0-.2 0l-.6-.7c-.1-.1 0-.2 0-.2h.2l.6.7c.1.1.1.2 0 .2h0zm-.7-.8c-.1 0-.1.1 0 .2l.6.7s.1.1.2 0c.1 0 .1-.1 0-.2l-.6-.7c-.1-.1-.2-.1-.2 0h0z" fill="#fff"/>
            <path d="M-6.4-5.7h-.2l-1.1-1.6v-.2h.2l1.1 1.6c.1.1.1.2 0 .2h0z" fill="#f3f3f3"/>
            <path d="M-6.4-5.7h-.2l-1.1-1.6v-.2h.2l1.1 1.6c.1.1.1.2 0 .2h0zm-1.2-1.8c-.1 0-.1.1 0 .2l1.1 1.6c0 .1.1.1.2 0 .1 0 .1-.1 0-.2l-1.1-1.6c-.1-.1-.1-.1-.2 0h0z" fill="#fff"/>
            <path d="M-6.2-7.1h-.2l-.4-.8c0-.1 0-.2.1-.2h.2l.4.8c0 .1 0 .2-.1.2h0z" fill="#f3f3f3"/>
            <path d="M-6.2-7.1h-.2l-.4-.8c0-.1 0-.2.1-.2h.2l.4.8c0 .1 0 .2-.1.2h0zm-.5-1c-.1 0-.1.1 0 .2l.4.8c0 .1.1.1.2 0 .1 0 .1-.1 0-.2l-.5-.7c0-.1-.1-.1-.1-.1h0z" fill="#fff"/>
            <path d="M-4.9-6.5c-.1 0-.2 0-.2-.1l-.8-1.8c0-.1 0-.1.1-.2.1 0 .2 0 .2.1l.8 1.8c0 .1 0 .2-.1.2h0z" fill="#f3f3f3"/>
            <path d="M-4.9-6.5c-.1 0-.2 0-.2-.1l-.8-1.8c0-.1 0-.2.1-.2s.2 0 .2.1l.8 1.8c0 .1 0 .2-.1.2h0zm-.9-2c-.1 0-.1.1-.1.2l.8 1.8h.2c.1 0 .1-.1.1-.2l-.8-1.8c0 0-.1 0-.2 0h0z" fill="#fff"/>
            <path d="M-4.5-7.8c-.1 0-.2 0-.2-.1l-.3-.8c0-.1 0-.2.1-.2s.1 0 .2.1l.3.8c.1.1 0 .2-.1.2h0z" fill="#f3f3f3"/>
            <path d="M-4.4-7.8c-.1 0-.2 0-.2-.1l-.3-.8c0-.1 0-.2.1-.2s.2 0 .2.1l.3.8c0 .1-.1.2-.1.2h0zm-.4-1.1c-.1 0-.1.1-.1.2l.3.8c0 .1.1.1.2.1s0-.1 0-.2l-.3-.8c0-.1 0-.1-.1-.1h0z" fill="#fff"/>
            <path d="M-3.3-6.9c-.1 0-.2 0-.2-.1l-.4-2c0-.1 0-.1.1-.2.1 0 .1 0 .2.1l.4 1.9c0 .2-.1.2-.1.3h0z" fill="#f3f3f3"/>
            <path d="M-3.3-6.9c-.1 0-.2 0-.2-.1l-.4-2c0-.1 0-.2.1-.2s.2 0 .2.1l.4 1.9c0 .2-.1.2-.1.3h0zm-.5-2.2c-.1 0-.1.1-.1.1l.4 1.9c0 .1.1.2.2.1 0 0 .1 0 .1-.1L-3.6-9c-.1-.1-.1-.1-.2-.1h0z" fill="#fff"/>
            <path d="M-2.6-8.2c-.1 0-.1 0-.2-.1l-.1-.9c0-.1 0-.1.1-.1s.1 0 .2.1l.1.9c0 .1-.1.1-.1.1h0z" fill="#f3f3f3"/>
            <path d="M-2.6-8.2c-.1 0-.2 0-.2-.1l-.1-.9c0-.1 0-.1.1-.2.1 0 .2 0 .2.1l.1.9c0 .2 0 .2-.1.2h0zm-.2-1.1c-.1 0-.1.1-.1.1l.1.9c0 .1.1.1.1.1.1 0 .1-.1.1-.1l-.1-.9c.1 0 0-.1-.1-.1h0z" fill="#fff"/>
            <linearGradient id="SafariC" gradientUnits="userSpaceOnUse" x1="-305.413" y1="513.124" x2="-305.435" y2="513.084" gradientTransform="matrix(229.4 0 0 -229.4 70061.3984 117709.6016)">
                <stop offset="0" stop-opacity="0"/>
                <stop offset="1"/>
            </linearGradient>
            <circle cx="-1.6" cy="1.3" r="11.1" fill="url(#SafariC)" fill-opacity=".2"/>
        </g>
        <path d="M15.8 3l-9 5.7h0 0 0l-5.6 9.2 8.2-6.6h0 0L15.8 3z" fill-opacity=".05"/>
        <path d="M15.6 2.4L6.7 8.7l2.6 2.6 6.3-8.9" fill="#cd151e"/>
        <path d="M6.7,8.7L8.1,10l7.5-7.6L6.7,8.7z" fill="#fa5153"/>
        <path d="M6.7 8.7l2.6 2.6-8.9 6.3 6.3-8.9z" fill="#acacac"/>
        <path d="M.5 17.6L8.1 10 6.7 8.7.5 17.6z" fill="#eee"/>
    </g>
</svg>