<svg xmlns="http://www.w3.org/2000/svg" width="21" height="21" viewBox="0 0 21 21">
  <path fill="#333" fill-rule="evenodd" d="M13.3694433,16.1 C13.6133508,15.869702 13.904315,15.6924874 14.2232434,15.5922219 L14.344105,15 L4.61961524,15 C4.41961524,15 4.21961524,14.9 4.11961524,14.7 L1.01961524,6.7 C0.919615242,6.3 1.21961524,6 1.51961524,6 L16.1808397,6 L17.1196152,1.4 C17.1196152,1.2 17.4196152,1 17.6196152,1 L20.0196152,1 C20.3196152,1 20.5196152,1.2 20.5196152,1.5 C20.5196152,1.8 20.3196152,2.1 20.0196152,2.1 L18.0196152,2.1 L15.2569156,15.5451383 C16.2530864,15.7536162 17.0196152,16.6618288 17.0196152,17.8 C17.0196152,19 16.0196152,20 14.8196152,20 C13.6196152,20 12.6196152,19 12.6196152,17.8 C12.6196152,17.56 12.6596152,17.324 12.7332152,17.1 L6.91792099,17.1 C6.98391867,17.319477 7.01961524,17.554384 7.01961524,17.8 C7.01961524,19 6.01961524,20 4.81961524,20 C3.61961524,20 2.61961524,19 2.61961524,17.8 C2.61961524,16.6 3.61961524,15.5 4.81961524,15.5 C5.38867799,15.5 5.91276401,15.7248836 6.30655805,16.1 L13.3694433,16.1 Z M14.5481867,14 L15.9767581,7 L2.31961524,7 L5.01961524,14 L14.5481867,14 Z M4.81961524,19 C5.51961524,19 6.01961524,18.4 6.01961524,17.8 C6.01961524,17.1 5.41961524,16.6 4.81961524,16.6 C4.21961524,16.6 3.61961524,17.2 3.61961524,17.8 C3.51961524,18.5 4.11961524,19 4.81961524,19 Z M14.8196152,19 C15.5196152,19 16.0196152,18.4 16.0196152,17.8 C16.0196152,17.1 15.4196152,16.6 14.8196152,16.6 C14.1196152,16.6 13.6196152,17.2 13.6196152,17.8 C13.5196152,18.5 14.1196152,19 14.8196152,19 Z"/>
</svg>
