<svg xmlns="http://www.w3.org/2000/svg" width="24" height="24" viewBox="0 0 24 24">
  <path fill="#333" fill-rule="evenodd" d="M4,23 L4,20.5 C4,20.3 4.2,20 4.5,20 L19.5,20 C19.8,20 20,20.2 20,20.5 L20,23 L23,23 L23,1 L20,1 L20,5.5 C20,5.8 19.8,6 19.5,6 L4.5,6 C4.2,6 4,5.8 4,5.5 L4,1 L3.7,1 L1,3.7 L1,23 L4,23 Z M23.5,0 C23.8,0 24,0.3 24,0.5 L24,23.5 C24,23.8 23.8,24 23.5,24 L0.5,24 C0.2,24 0,23.8 0,23.5 L0,3.5 C0,3.4 0.1,3.2 0.1,3.1 L3.1,0.1 C3.2,0.1 3.4,0 3.5,0 L23.5,0 Z M19,1 L5,1 L5,5 L19,5 L19,1 Z M19,23 L19,21 L5,21 L5,23 L19,23 Z M16.5,11.5 C16.5,14 14.5,16 12,16 C9.5,16 7.5,14 7.5,11.5 C7.5,9 9.5,7 12,7 C14.5,7 16.5,9 16.5,11.5 Z M15.5,11.5 C15.5,9.6 13.9,8 12,8 C10.1,8 8.5,9.6 8.5,11.5 C8.5,13.4 10.1,15 12,15 C13.9,15 15.5,13.5 15.5,11.5 Z M14.5,19 C14.2,19 14,18.8 14,18.5 C14,18.2 14.2,18 14.5,18 L19.5,18 C19.8,18 20,18.2 20,18.5 C20,18.8 19.8,19 19.5,19 L14.5,19 Z M10,10.5 C10,10.2 10.2,10 10.5,10 C10.8,10 11,10.2 11,10.5 L11,12.5 C11,12.8 10.8,13 10.5,13 C10.2,13 10,12.8 10,12.5 L10,10.5 Z M13,11.5 C13,12.1 12.6,12.5 12,12.5 C11.4,12.5 11,12.1 11,11.5 C11,10.9 11.4,10.5 12,10.5 C12.6,10.5 13,11 13,11.5 Z"/>
</svg>
