<svg width="24" height="24" viewBox="0 0 24 24" fill="none" xmlns="http://www.w3.org/2000/svg">
<g clip-path="url(#clip0_818_14020)">
<path fill-rule="evenodd" clip-rule="evenodd" d="M11.5 0C11.7761 0 12 0.223858 12 0.5V6H17.5C17.7761 6 18 6.22386 18 6.5C18 6.77614 17.7761 7 17.5 7H11.5C11.2239 7 11 6.77614 11 6.5V0.5C11 0.223858 11.2239 0 11.5 0Z" fill="#333333"/>
<path fill-rule="evenodd" clip-rule="evenodd" d="M0 0.5C0 0.223858 0.223858 0 0.5 0H11.5C11.6326 0 11.7598 0.0526784 11.8536 0.146447L17.8536 6.14645C17.9473 6.24021 18 6.36739 18 6.5V13C18 13.2761 17.7761 13.5 17.5 13.5C17.2239 13.5 17 13.2761 17 13V6.70711L11.2929 1H1V23H10C10.2761 23 10.5 23.2239 10.5 23.5C10.5 23.7761 10.2761 24 10 24H0.5C0.223858 24 0 23.7761 0 23.5V0.5ZM21.001 11.999C21.1336 11.999 21.2608 12.0517 21.3546 12.1455L23.8546 14.6455C24.0498 14.8407 24.0498 15.1573 23.8546 15.3526L16.3536 22.8546C16.3409 22.8672 16.3276 22.8792 16.3137 22.8904C16.2587 22.9348 16.1965 22.9658 16.1315 22.9835L12.6374 23.9818C12.4628 24.0317 12.2749 23.983 12.1465 23.8546C12.0181 23.7262 11.9694 23.5383 12.0192 23.3637L13.0164 19.8735C13.0382 19.7907 13.0815 19.7123 13.1464 19.6474L13.1511 19.6429L20.6474 12.1455C20.7412 12.0517 20.8684 11.999 21.001 11.999ZM13.7473 20.9554L13.228 22.773L15.0456 22.2537L13.7473 20.9554ZM16 21.7939L14.2071 20.001L19.0012 15.2062L20.7941 16.9991L16 21.7939ZM21.001 13.2062L19.7083 14.4991L21.5012 16.292L22.7939 14.999L21.001 13.2062ZM3.5 7C3.22386 7 3 7.22386 3 7.5V10.5C3 10.7761 3.22386 11 3.5 11H8.5C8.77614 11 9 10.7761 9 10.5V9H11V13.5V18H9V17.5C9 17.2239 8.77614 17 8.5 17H3.5C3.22386 17 3 17.2239 3 17.5V20.5C3 20.7761 3.22386 21 3.5 21H8.5C8.77614 21 9 20.7761 9 20.5V19H11.5C11.7761 19 12 18.7761 12 18.5V14H14C14.2761 14 14.5 13.7761 14.5 13.5C14.5 13.2239 14.2761 13 14 13H12V8.5C12 8.22386 11.7761 8 11.5 8H9V7.5C9 7.22386 8.77614 7 8.5 7H3.5ZM8 8V8.5V10H4V8H8ZM8 18V18.5V20H4V18H8ZM3 12.5C3 12.2239 3.22386 12 3.5 12H8.5C8.77614 12 9 12.2239 9 12.5V15.5C9 15.7761 8.77614 16 8.5 16H3.5C3.22386 16 3 15.7761 3 15.5V12.5ZM4 13V15H8V13H4Z" fill="#333333"/>
</g>
<defs>
<clipPath id="clip0_818_14020">
<rect width="24" height="24" fill="white"/>
</clipPath>
</defs>
</svg>
