<?xml version="1.0" encoding="UTF-8"?>
<svg width="21px" height="21px" viewBox="0 0 21 21" version="1.1" xmlns="http://www.w3.org/2000/svg" xmlns:xlink="http://www.w3.org/1999/xlink">
    <!-- Generator: Sketch 53.2 (72643) - https://sketchapp.com -->
    <title>Assets / Icons / Search</title>
    <desc>Created with Sketch.</desc>
    <g id="Assets-/-Icons-/-Search" stroke="none" stroke-width="1" fill="none" fill-rule="evenodd">
        <path d="M1,7.167 C1,3.767 3.766,1 7.166,1 C10.566,1 13.333,3.767 13.333,7.167 C13.333,10.567 10.566,13.334 7.166,13.334 C3.766,13.334 1,10.567 1,7.167 M20.021,19.314 L12.568,11.862 C13.664,10.603 14.333,8.963 14.333,7.167 C14.333,3.215 11.118,0 7.166,0 C3.215,0 0,3.215 0,7.167 C0,11.119 3.215,14.334 7.166,14.334 C8.963,14.334 10.603,13.665 11.861,12.569 L19.313,20.021 C19.411,20.119 19.539,20.167 19.667,20.167 C19.795,20.167 19.923,20.119 20.021,20.021 C20.216,19.826 20.216,19.509 20.021,19.314" id="Mask" fill="#000000"></path>
    </g>
</svg>