<svg xmlns="http://www.w3.org/2000/svg" width="24" height="24" viewBox="0 0 24 24">
  <path fill="#333" fill-rule="evenodd" d="M20.1217075,16.002 C21.42345,16.002 22.477487,17.0556729 22.477487,18.3577794 C22.477487,19.0347942 22.1918242,19.6452151 21.7344113,20.0749752 C23.020563,20.6779357 23.9109838,21.9857198 23.9109838,23.502 C23.9109838,23.7474599 23.7341086,23.9516084 23.5008594,23.9939443 L23.4109838,24.002 L16.8322457,24.002 C16.5561033,24.002 16.3322457,23.7781424 16.3322457,23.502 C16.3322457,21.9854312 17.222421,20.6776918 18.5092034,20.072326 C18.0515909,19.6452151 17.7659281,19.0347942 17.7659281,18.3577794 C17.7659281,17.0556729 18.8199651,16.002 20.1217075,16.002 Z M12.2005782,16.002 C13.5023206,16.002 14.5563576,17.0556729 14.5563576,18.3577794 C14.5563576,19.0347942 14.2706948,19.6452151 13.8132819,20.0749752 C15.0997639,20.6778165 15.9898544,21.9855034 15.9898544,23.502 C15.9898544,23.7474599 15.8129792,23.9516084 15.57973,23.9939443 L15.4898544,24.002 L8.91204422,24.002 C8.63590185,24.002 8.41204422,23.7781424 8.41204422,23.502 C8.41204422,21.9856232 9.30204793,20.6778824 10.5883934,20.0724398 C10.1304615,19.6452151 9.84479873,19.0347942 9.84479873,18.3577794 C9.84479873,17.0556729 10.8988357,16.002 12.2005782,16.002 Z M4.20336182,16.002 C5.5051043,16.002 6.55914125,17.0556729 6.55914125,18.3577794 C6.55914125,19.0347942 6.27347848,19.6452151 5.81606556,20.0749752 C7.10221734,20.6779357 7.99263807,21.9857198 7.99263807,23.502 C7.99263807,23.7474599 7.81576291,23.9516084 7.5825137,23.9939443 L7.49263807,24.002 L0.9139,24.002 C0.637757625,24.002 0.4139,23.7781424 0.4139,23.502 C0.4139,21.9854312 1.3040753,20.6776918 2.59085772,20.072326 C2.13324517,19.6452151 1.8475824,19.0347942 1.8475824,18.3577794 C1.8475824,17.0556729 2.90161935,16.002 4.20336182,16.002 Z M20.1216147,20.7135589 C18.8109912,20.7135589 17.7125962,21.6155012 17.4130024,22.832691 L17.377155,23.0005704 L22.866,23.001 C22.6500548,21.8105286 21.6788224,20.8839276 20.466366,20.734631 L20.2915725,20.7186461 L20.1216147,20.7135589 Z M12.2004854,20.7135589 C10.8905474,20.7135589 9.79234289,21.6155891 9.49279083,22.8327305 L9.45694827,23.0006024 L14.944,23.001 C14.7289924,21.8102776 13.758145,20.883885 12.5453502,20.7346255 L12.3705034,20.7186447 L12.2004854,20.7135589 Z M4.20326903,20.7135589 C2.89264554,20.7135589 1.79425045,21.6155012 1.49465669,22.832691 L1.45880933,23.0005704 L6.947,23.001 C6.73167934,21.8105286 5.76047539,20.8839276 4.54802023,20.734631 L4.37322675,20.7186461 L4.20326903,20.7135589 Z M20.1217075,17.002 C19.3721725,17.002 18.7659281,17.608035 18.7659281,18.3577794 C18.7659281,19.1063865 19.3728908,19.7135589 20.1217075,19.7135589 C20.8705242,19.7135589 21.477487,19.1063865 21.477487,18.3577794 C21.477487,17.608035 20.8712426,17.002 20.1217075,17.002 Z M12.2005782,17.002 C11.4510431,17.002 10.8447987,17.608035 10.8447987,18.3577794 C10.8447987,19.1063865 11.4517615,19.7135589 12.2005782,19.7135589 C12.9493948,19.7135589 13.5563576,19.1063865 13.5563576,18.3577794 C13.5563576,17.608035 12.9501132,17.002 12.2005782,17.002 Z M4.20336182,17.002 C3.45382678,17.002 2.8475824,17.608035 2.8475824,18.3577794 C2.8475824,19.1063865 3.45454513,19.7135589 4.20336182,19.7135589 C4.95217852,19.7135589 5.55914125,19.1063865 5.55914125,18.3577794 C5.55914125,17.608035 4.95289687,17.002 4.20336182,17.002 Z M12.003,0.378052174 C12.1601209,0.378052174 12.3081035,0.451908011 12.4025601,0.577466474 C12.7861817,1.08740392 13.3586574,1.37770435 13.995,1.37770435 C14.5320572,1.37770435 15.0620497,1.16092609 15.7051212,0.691305505 C16.0118987,0.467272785 16.4343268,0.654728054 16.4931084,1.01019355 L16.5,1.09509565 L16.5,7.27770435 L16.4834753,7.40518618 C16.3373978,7.95918554 15.8899868,8.73978695 14.9807405,9.50249423 C14.3238073,10.0535526 13.5020596,10.5100264 12.5007321,10.8442249 L12.4999,12.0000522 L19.5,12.0005 C19.7454599,12.0005 19.9496084,12.1773752 19.9919443,12.4106244 L20,12.5005 L20,14.4585 C20,14.7346424 19.7761424,14.9585 19.5,14.9585 C19.2545401,14.9585 19.0503916,14.7816248 19.0080557,14.5483756 L19,14.4585 L19,13 L12.4999,12.9990522 L12.5,14.479 C12.5,14.7551424 12.2761424,14.979 12,14.979 C11.7545401,14.979 11.5503916,14.8021248 11.5080557,14.5688756 L11.5,14.479 L11.4999,12.9990522 L5,13 L5,14.4585 C5,14.7039599 4.82312484,14.9081084 4.58987563,14.9504443 L4.5,14.9585 C4.25454011,14.9585 4.05039163,14.7816248 4.00805567,14.5483756 L4,14.4585 L4,12.5005 C4,12.2550401 4.17687516,12.0508916 4.41012437,12.0085557 L4.5,12.0005 L11.4999,12.0000522 L11.5002853,10.8445644 C10.498497,10.5103355 9.6764152,10.0537393 9.01925948,9.50249423 C8.1749594,8.79426604 7.72887433,8.07060873 7.55249774,7.52727962 L7.51652468,7.40518618 L7.5,7.27770435 L7.5,1.09509565 C7.5,0.686002167 7.96450298,0.450039498 8.29487882,0.691305505 C8.93743328,1.1605485 9.4685498,1.37770435 10.005,1.37770435 C10.6413426,1.37770435 11.2138183,1.08740392 11.5974399,0.577466474 C11.6918965,0.451908011 11.8398791,0.378052174 12.003,0.378052174 Z M11.9999,1.612 L11.8238345,1.76045291 C11.3100178,2.15774212 10.6788949,2.37770435 10.005,2.37770435 C9.58028593,2.37770435 9.17238026,2.28985778 8.75962844,2.11529539 L8.55274843,2.02079311 L8.4999,1.993 L8.4999,7.202 L8.51846631,7.25242645 C8.53546882,7.29539839 8.55802901,7.34692706 8.58680336,7.40597073 L8.63470756,7.50004227 L8.69242534,7.604605 C8.91129754,7.98647293 9.22803462,8.37238506 9.66192796,8.73634985 C10.2192628,9.20386164 10.9262617,9.59736509 11.8033552,9.89149775 L12.1402783,9.99708996 L11.9999,9.953 L12.1966448,9.89149775 C12.8544649,9.67089826 13.4166068,9.39440269 13.8916897,9.07271084 L14.1220161,8.9081481 L14.338072,8.73634985 C14.7719654,8.37238506 15.0887025,7.98647293 15.3075747,7.604605 C15.3703634,7.4950571 15.4176931,7.40007405 15.4517796,7.32317169 L15.4815337,7.25242645 L15.4999,7.202 L15.4999,1.992 L15.4471978,2.02095575 C15.115332,2.18369546 14.7889533,2.29099393 14.4566821,2.34236398 L14.206196,2.37039733 L13.995,2.37770435 C13.3211051,2.37770435 12.6899822,2.15774212 12.1761655,1.76045291 L12.0093401,1.62151399 L11.9999,1.612 Z M11.9999,2.70521739 C12.2453599,2.70521739 12.4495084,2.88209255 12.4918443,3.11534176 L12.4999,3.20521739 L12.499,4.75905217 L14.0194,4.75982609 C14.2955424,4.75982609 14.5194,4.98368371 14.5194,5.25982609 C14.5194,5.50528598 14.3425248,5.70943446 14.1092756,5.75177042 L14.0194,5.75982609 L12.499,5.75905217 L12.4999,7.34678261 C12.4999,7.62292498 12.2760424,7.84678261 11.9999,7.84678261 C11.7544401,7.84678261 11.5502916,7.66990745 11.5079557,7.43665824 L11.4999,7.34678261 L11.499,5.75905217 L10.0194,5.75982609 C9.74325763,5.75982609 9.5194,5.53596846 9.5194,5.25982609 C9.5194,5.0143662 9.69627516,4.81021772 9.92952437,4.76788176 L10.0194,4.75982609 L11.499,4.75905217 L11.4999,3.20521739 C11.4999,2.92907502 11.7237576,2.70521739 11.9999,2.70521739 Z"/>
</svg>
