<svg xmlns="http://www.w3.org/2000/svg" width="24" height="24" viewBox="0 0 24 24">
  <path fill="#333" fill-rule="evenodd" d="M12,7 C13.7,7 15,5.7 15,4 C15,2.3 13.7,1 12,1 C10.3,1 9,2.3 9,4 C9,5.7 10.3,7 12,7 Z M12,2 C13.1,2 14,2.9 14,4 C14,5.1 13.1,6 12,6 C10.9,6 10,5.1 10,4 C10,2.9 10.9,2 12,2 Z M19,7 C20.1,7 21,6.1 21,5 C21,3.9 20.1,3 19,3 C17.9,3 17,3.9 17,5 C17,6.1 17.9,7 19,7 Z M19,4 C19.6,4 20,4.4 20,5 C20,5.6 19.6,6 19,6 C18.4,6 18,5.6 18,5 C18,4.4 18.4,4 19,4 Z M5,7 C6.1,7 7,6.1 7,5 C7,3.9 6.1,3 5,3 C3.9,3 3,3.9 3,5 C3,6.1 3.9,7 5,7 Z M5,4 C5.6,4 6,4.4 6,5 C6,5.6 5.6,6 5,6 C4.4,6 4,5.6 4,5 C4,4.4 4.4,4 5,4 Z M17,18.2 C16.7,18.2 16.5,18.4 16.5,18.7 C16.5,19 16.7,19.2 17,19.2 C21.6,19.6 22.9,20.3 23.1,20.5 C22.7,21 18.8,22 12,22 C5.2,22 1.3,21 1,20.5 C1.1,20.3 2.5,19.5 7,19.2 C7.3,19.2 7.5,18.9 7.5,18.7 C7.5,18.4 7.2,18.2 7,18.2 C2.3,18.6 0,19.4 0,20.5 C0,22.9 10.8,23 12,23 C13.2,23 24,22.9 24,20.5 C24,19.4 21.7,18.6 17,18.2 Z M9.5,18 L14.5,18 C14.8,18 15,17.8 15,17.5 L15,11 C15,9.3 13.7,8 12,8 C10.3,8 9,9.3 9,11 L9,17.5 C9,17.8 9.2,18 9.5,18 Z M10,11 C10,9.9 10.9,9 12,9 C13.1,9 14,9.9 14,11 L14,17 L10,17 L10,11 Z M17.5,16 L20.5,16 C20.8,16 21,15.8 21,15.5 L21,10 C21,8.9 20.1,8 19,8 C17.9,8 17,8.9 17,10 L17,15.5 C17,15.8 17.2,16 17.5,16 Z M18,10 C18,9.4 18.4,9 19,9 C19.6,9 20,9.4 20,10 L20,15 L18,15 L18,10 Z M3.5,16 L6.5,16 C6.8,16 7,15.8 7,15.5 L7,10 C7,8.9 6.1,8 5,8 C3.9,8 3,8.9 3,10 L3,15.5 C3,15.8 3.2,16 3.5,16 Z M4,10 C4,9.4 4.4,9 5,9 C5.6,9 6,9.4 6,10 L6,15 L4,15 L4,10 Z"/>
</svg>
