<svg xmlns="http://www.w3.org/2000/svg" width="21" height="21" viewBox="0 0 21 21">
  <path fill="#333" fill-rule="evenodd" d="M20.1249565,14.4368396 C20.1249565,11.296421 17.5783866,8.74959976 14.4377166,8.74959976 C11.2970467,8.74959976 8.7504768,11.296421 8.7504768,14.4368396 C8.7504768,17.5783845 11.296423,20.1240795 14.4377166,20.1240795 C17.5790103,20.1240795 20.1249565,17.5783845 20.1249565,14.4368396 Z M20.9999165,14.4368396 C20.9999165,18.0616308 18.062218,20.9990394 14.4377166,20.9990394 C10.8132153,20.9990394 7.87551683,18.0616308 7.87551683,14.4368396 C7.87551683,10.8132132 10.8138003,7.87463979 14.4377166,7.87463979 C18.0616329,7.87463979 20.9999165,10.8132132 20.9999165,14.4368396 Z M0.875837016,13.1243996 L5.68811689,13.1243996 C5.92973041,13.1243996 6.12559687,13.3202661 6.12559687,13.5618796 C6.12559687,13.8034932 5.92973041,13.9993596 5.68811689,13.9993596 L0.438357028,13.9993596 C0.196743502,13.9993596 0.000877039998,13.8034932 0.000877039998,13.5618796 L0.000877039998,3.93731989 C0.000877039998,3.69570637 0.196743502,3.4998399 0.438357028,3.4998399 L12.6877967,3.4998399 C12.9294102,3.4998399 13.1252767,3.69570637 13.1252767,3.93731989 L13.1252767,5.68723985 C13.1252767,5.92885337 12.9294102,6.12471983 12.6877967,6.12471983 C12.4461832,6.12471983 12.2503167,5.92885337 12.2503167,5.68723985 L12.2503167,4.37479988 L0.875837016,4.37479988 L0.875837016,13.1243996 Z M9.00674665,0.874959976 L4.11940708,0.874959976 L1.49452715,3.4998399 L11.6316266,3.4998399 L9.00674665,0.874959976 Z M12.6877967,4.37479988 L0.438357028,4.37479988 C0.0486039847,4.37479988 -0.146585058,3.90357185 0.129011962,3.62797483 L3.62885187,0.128134922 C3.71089528,0.0460915093 3.82217003,3.73034936e-14 3.93819693,3.73034936e-14 L9.18795679,3.73034936e-14 C9.3039837,3.73034936e-14 9.41525844,0.0460915093 9.49730186,0.128134922 L12.9971418,3.62797483 C13.2727388,3.90357185 13.0775497,4.37479988 12.6877967,4.37479988 Z M14.8751966,15.3117996 C14.8751966,15.5534131 14.6793302,15.7492796 14.4377166,15.7492796 C14.1961031,15.7492796 14.0002367,15.5534131 14.0002367,15.3117996 L14.0002367,10.9369997 C14.0002367,10.6953862 14.1961031,10.4995197 14.4377166,10.4995197 C14.6793302,10.4995197 14.8751966,10.6953862 14.8751966,10.9369997 L14.8751966,15.3117996 Z M14.4377166,16.6242395 C14.1962277,16.6242395 14.0002367,16.8202306 14.0002367,17.0617195 C14.0002367,17.3032085 14.1962277,17.4991995 14.4377166,17.4991995 C14.6792056,17.4991995 14.8751966,17.3032085 14.8751966,17.0617195 C14.8751966,16.8202306 14.6792056,16.6242395 14.4377166,16.6242395 M6.12559687,0.437479988 C6.12559687,0.195866462 6.32146334,3.73034936e-14 6.56307686,3.73034936e-14 C6.80469039,3.73034936e-14 7.00055685,0.195866462 7.00055685,0.437479988 L7.00055685,3.93731989 C7.00055685,4.17893342 6.80469039,4.37479988 6.56307686,4.37479988 C6.32146334,4.37479988 6.12559687,4.17893342 6.12559687,3.93731989 L6.12559687,0.437479988 Z"/>
</svg>
