<?xml version="1.0" encoding="UTF-8"?>
<svg width="21px" height="21px" viewBox="0 0 21 21" version="1.1" xmlns="http://www.w3.org/2000/svg" xmlns:xlink="http://www.w3.org/1999/xlink">
    <!-- Generator: Sketch 53.2 (72643) - https://sketchapp.com -->
    <title>Assets / Icons / OMS / Stop</title>
    <desc>Created with Sketch.</desc>
    <g id="Assets-/-Icons-/-OMS-/-Stop" stroke="none" stroke-width="1" fill="none" fill-rule="evenodd">
        <path d="M19.99,10.495 C19.99,5.25149729 15.7382357,1 10.495,1 C5.25058867,1 1,5.2508556 1,10.495 C1,15.7391444 5.25058867,19.99 10.495,19.99 C15.7382357,19.99 19.99,15.7385027 19.99,10.495 Z M20.99,10.495 C20.99,16.2908015 16.2905064,20.99 10.495,20.99 C4.69828987,20.99 -1.08357767e-13,16.2914151 -1.08357767e-13,10.495 C-1.08357767e-13,4.69858491 4.69828987,-4.4408921e-14 10.495,-4.4408921e-14 C16.2905064,-4.4408921e-14 20.99,4.69919848 20.99,10.495 Z M13.6253774,10.5989473 L16.194556,13.1673993 C16.3898653,13.3626534 16.3898877,13.6792744 16.194606,13.8745561 L13.8561351,16.213027 C13.6608534,16.4083087 13.3442324,16.4082863 13.1489783,16.212977 L10.5805263,13.6437984 L8.01207431,16.212977 C7.81682026,16.4082863 7.5001992,16.4083087 7.30491753,16.213027 L4.96644661,13.8745561 C4.77116494,13.6792744 4.77118733,13.3626534 4.96649661,13.1673993 L7.5356752,10.5989473 L4.96649661,8.03049531 C4.77118733,7.83524126 4.77116494,7.5186202 4.96644661,7.32333853 L7.30491753,4.98486761 C7.5001992,4.78958594 7.81682026,4.78960833 8.01207431,4.98491761 L10.5805263,7.5540962 L13.1489783,4.98491761 C13.3442324,4.78960833 13.6608534,4.78958594 13.8561351,4.98486761 L16.194606,7.32333853 C16.3898877,7.5186202 16.3898653,7.83524126 16.194556,8.03049531 L13.6253774,10.5989473 Z M12.5275105,10.9525509 C12.3321816,10.7572773 12.3321816,10.4406177 12.5275105,10.2453441 L15.0967391,7.67684213 L13.4654749,6.045578 L10.8969729,8.6148066 C10.7016993,8.81013542 10.3850397,8.81013542 10.1897661,8.6148066 L7.62126413,6.045578 L5.99,7.67684213 L8.5592286,10.2453441 C8.75455742,10.4406177 8.75455742,10.7572773 8.5592286,10.9525509 L5.99,13.5210529 L7.62126413,15.1523171 L10.1897661,12.5830885 C10.3850397,12.3877596 10.7016993,12.3877596 10.8969729,12.5830885 L13.4654749,15.1523171 L15.0967391,13.5210529 L12.5275105,10.9525509 Z" id="Mask" fill="#333333"></path>
    </g>
</svg>