<?xml version="1.0" encoding="UTF-8"?>
<svg width="24px" height="24px" viewBox="0 0 24 24" version="1.1" xmlns="http://www.w3.org/2000/svg" xmlns:xlink="http://www.w3.org/1999/xlink">
    <!-- Generator: Sketch 53.2 (72643) - https://sketchapp.com -->
    <title>Assets / Icons / OMS / Stores</title>
    <desc>Created with Sketch.</desc>
    <g id="Assets-/-Icons-/-OMS-/-Stores" stroke="none" stroke-width="1" fill-rule="evenodd">
        <path d="M24,6.3 C23.9,6.3 23.9,6.3 24,6.3 L22,2.3 C21.9,2.1 21.7,2 21.5,2 L2.5,2 C2.3,2 2.1,2.1 2.1,2.3 L0.1,6.3 C0.1,6.3 0.1,6.3 0.1,6.3 C0,6.4 0,6.4 0,6.5 L0,7.5 C0,8.9 0.8,10.1 2,10.7 L2,22.6 C2,22.8 2.2,23 2.5,23 L21.5,23 C21.8,23 22,22.8 22,22.5 L22,10.7 C23.2,10.1 24,8.9 24,7.5 L24,6.5 C24,6.4 24,6.4 24,6.3 Z M21.2,3 L22.7,6 L18.9,6 L18.1,3 L21.2,3 Z M12.5,3 L17.1,3 L17.9,6 L12.5,6 L12.5,3 L12.5,3 Z M12.5,7 L18,7 L18,9.3 C17.3,10.3 16.1,11 15,11 C14,11 13.2,10.6 12.5,9.9 L12.5,7 Z M6.9,3 L11.5,3 L11.5,6 L6.1,6 L6.9,3 Z M6,7 L11.5,7 L11.5,9.9 C10.8,10.6 10,11 9,11 C7.9,11 6.7,10.3 6,9.3 L6,7 Z M2.8,3 L5.9,3 L5.1,6 L1.3,6 L2.8,3 Z M2.7,9.8 C1.7,9.5 1,8.6 1,7.5 L1,7 L5,7 L5,9.3 C4.5,9.8 4,10 3.5,10 C3.2,10 3,9.9 2.7,9.8 C2.7,9.9 2.7,9.8 2.7,9.8 Z M19,22 L15,22 L15,14 L19,14 L19,22 Z M21,22 L20,22 L20,13.5 C20,13.2 19.8,13 19.5,13 L14.5,13 C14.2,13 14,13.2 14,13.5 L14,22 L3,22 L3,10.9 C3.2,11 3.3,11 3.5,11 C4.2,11 4.8,10.7 5.4,10.2 C6.3,11.3 7.6,12 9,12 C10.1,12 11.2,11.6 12,10.8 C12.8,11.5 13.9,12 15,12 C16.4,12 17.7,11.3 18.6,10.2 C19.2,10.7 19.8,11 20.5,11 C20.7,11 20.8,11 21,10.9 L21,22 Z M23,7.5 C23,8.9 21.9,10 20.5,10 C20,10 19.5,9.8 19,9.3 L19,7 L23,7 L23,7.5 Z M17.5,19 C17.8,19 18,18.8 18,18.5 C18,18.2 17.8,18 17.5,18 C17.2,18 17,18.2 17,18.5 C17,18.8 17.2,19 17.5,19 Z M12.5,13 L4.5,13 C4.2,13 4,13.2 4,13.5 L4,19.5 C4,19.8 4.2,20 4.5,20 L12.5,20 C12.8,20 13,19.8 13,19.5 L13,13.5 C13,13.2 12.8,13 12.5,13 Z M12,19 L5,19 L5,14 L12,14 L12,19 Z" id="Shape" fill="#333333"></path>
    </g>
</svg>