<svg width="24" height="24" viewBox="0 0 24 24" fill="none" xmlns="http://www.w3.org/2000/svg">
<path fill-rule="evenodd" clip-rule="evenodd" d="M0.819756 8.81763C3.52251 6.56949 5.49974 5.9302 7.10239 6.00592C8.72725 6.0827 10.0736 6.89189 11.555 7.8195L11.6885 7.90317C13.1004 8.78827 14.6414 9.75432 16.5467 9.976C18.5403 10.208 20.8481 9.62293 23.7887 7.54398C24.0141 7.38456 24.0677 7.07255 23.9083 6.84706C23.7489 6.62158 23.4368 6.56802 23.2114 6.72744C20.4019 8.7137 18.3373 9.17759 16.6623 8.9827C14.9844 8.78748 13.6133 7.92875 12.1516 7.01324L12.0857 6.97196C10.6321 6.06177 9.07356 5.09794 7.14959 5.00704C5.20341 4.91508 2.98793 5.71343 0.18027 8.04883C-0.0320291 8.22542 -0.0609778 8.54067 0.115611 8.75297C0.2922 8.96527 0.607457 8.99422 0.819756 8.81763ZM0.819756 18.0837C3.52251 15.8356 5.49974 15.1963 7.10239 15.272C8.72725 15.3488 10.0736 16.158 11.555 17.0856L11.6885 17.1693L11.6885 17.1693C13.1004 18.0544 14.6414 19.0204 16.5467 19.2421C18.5403 19.4741 20.8481 18.889 23.7887 16.8101C24.0141 16.6507 24.0677 16.3387 23.9083 16.1132C23.7489 15.8877 23.4368 15.8341 23.2114 15.9936C20.4019 17.9798 18.3373 18.4437 16.6623 18.2488C14.9844 18.0536 13.6133 17.1949 12.1516 16.2794L12.0857 16.2381C10.6321 15.3279 9.07356 14.3641 7.14959 14.2732C5.20341 14.1812 2.98793 14.9795 0.18027 17.3149C-0.0320291 17.4915 -0.0609778 17.8068 0.115611 18.0191C0.2922 18.2314 0.607457 18.2603 0.819756 18.0837Z" fill="#333333"/>
</svg>
