<svg width="24" height="24" viewBox="0 0 24 24" fill="none" xmlns="http://www.w3.org/2000/svg">
<path d="M23.5 2.49976C23.7761 2.49976 24 2.72361 24 2.99976V15.0001C24 15.2455 23.8231 15.4497 23.5899 15.492L23.5 15.5001L13 15.4998V20.4998L18.5 20.5001C18.7761 20.5001 19 20.7239 19 21.0001C19 21.2455 18.8231 21.4497 18.5899 21.492L18.5 21.5001H5.5C5.22386 21.5001 5 21.2762 5 21.0001C5 20.7546 5.17688 20.5504 5.41012 20.5081L5.5 20.5001L12 20.4998V15.4998L0.5 15.5001C0.25454 15.5001 0.0503916 15.3232 0.00805567 15.0899L0 15.0001V2.99976C0 2.72361 0.223858 2.49976 0.5 2.49976H23.5ZM1.5 20.5001C1.776 20.5001 2 20.7231 2 21.0001C2 21.2751 1.776 21.5001 1.5 21.5001C1.224 21.5001 1 21.2751 1 21.0001C1 20.7231 1.224 20.5001 1.5 20.5001ZM3.5 20.5001C3.776 20.5001 4 20.7231 4 21.0001C4 21.2751 3.776 21.5001 3.5 21.5001C3.224 21.5001 3 21.2751 3 21.0001C3 20.7231 3.224 20.5001 3.5 20.5001ZM20.5 20.5001C20.776 20.5001 21 20.7231 21 21.0001C21 21.2751 20.776 21.5001 20.5 21.5001C20.224 21.5001 20 21.2751 20 21.0001C20 20.7231 20.224 20.5001 20.5 20.5001ZM22.5 20.5001C22.776 20.5001 23 20.7231 23 21.0001C23 21.2751 22.776 21.5001 22.5 21.5001C22.224 21.5001 22 21.2751 22 21.0001C22 20.7231 22.224 20.5001 22.5 20.5001ZM23 9.49976H1V14.4998H23V9.49976ZM3.5 10.5001C4.32814 10.5001 5 11.1719 5 12.0001C5 12.8289 4.32841 13.5001 3.5 13.5001C2.67086 13.5001 2 12.8292 2 12.0001C2 11.1716 2.67113 10.5001 3.5 10.5001ZM14 11.0001C14.5523 11.0001 15 11.4471 15 12.0001C15 12.5514 14.552 13.0001 14 13.0001C13.448 13.0001 13 12.5514 13 12.0001C13 11.4471 13.4477 11.0001 14 11.0001ZM17 11.0001C17.5523 11.0001 18 11.4471 18 12.0001C18 12.5514 17.552 13.0001 17 13.0001C16.448 13.0001 16 12.5514 16 12.0001C16 11.4471 16.4477 11.0001 17 11.0001ZM20 11.0001C20.5523 11.0001 21 11.4471 21 12.0001C21 12.5514 20.552 13.0001 20 13.0001C19.448 13.0001 19 12.5514 19 12.0001C19 11.4471 19.4477 11.0001 20 11.0001ZM3.5 11.5001C3.22357 11.5001 3 11.7238 3 12.0001C3 12.2769 3.22314 12.5001 3.5 12.5001C3.77628 12.5001 4 12.2765 4 12.0001C4 11.7242 3.77586 11.5001 3.5 11.5001ZM23 3.49976H1V8.49976H23V3.49976ZM3.5 4.50006C4.32814 4.50006 5 5.17191 5 6.00006C5 6.82893 4.32841 7.50006 3.5 7.50006C2.67086 7.50006 2 6.8292 2 6.00006C2 5.17165 2.67113 4.50006 3.5 4.50006ZM14 5.00006C14.5523 5.00006 15 5.4471 15 6.00006C15 6.55139 14.552 7.00006 14 7.00006C13.448 7.00006 13 6.55139 13 6.00006C13 5.4471 13.4477 5.00006 14 5.00006ZM17 5.00006C17.5523 5.00006 18 5.4471 18 6.00006C18 6.55139 17.552 7.00006 17 7.00006C16.448 7.00006 16 6.55139 16 6.00006C16 5.4471 16.4477 5.00006 17 5.00006ZM20 5.00006C20.5523 5.00006 21 5.4471 21 6.00006C21 6.55139 20.552 7.00006 20 7.00006C19.448 7.00006 19 6.55139 19 6.00006C19 5.4471 19.4477 5.00006 20 5.00006ZM3.5 5.50006C3.22357 5.50006 3 5.72378 3 6.00006C3 6.27691 3.22314 6.50006 3.5 6.50006C3.77628 6.50006 4 6.27649 4 6.00006C4 5.7242 3.77586 5.50006 3.5 5.50006Z" fill="#333333"/>
</svg>
