<svg width="24" height="25" viewBox="0 0 24 25" fill="none" xmlns="http://www.w3.org/2000/svg">
<path fill-rule="evenodd" clip-rule="evenodd" d="M1.27762 14.4508C2.2666 17.0579 4.26484 19.0869 6.7898 20.1356C7.04482 20.2416 7.33741 20.1208 7.44333 19.8658C7.54924 19.6108 7.42837 19.3183 7.17336 19.2124C4.9001 18.2681 3.10291 16.4433 2.21244 14.0959C0.44579 9.45196 2.78168 4.25551 7.42835 2.48999C11.9576 0.770025 16.8354 2.83844 19.0133 7.57185L15.3961 5.81568C15.1753 5.70845 14.9144 5.77833 14.7744 5.9696L14.7279 6.0469C14.6207 6.26764 14.6906 6.5285 14.8819 6.66847L14.9593 6.71497L19.6807 9.00868C19.7892 9.07909 19.9239 9.10705 20.057 9.07867C20.0642 9.07639 20.071 9.07466 20.0777 9.07295C20.0799 9.0724 20.082 9.07186 20.0842 9.0713C20.0933 9.06961 20.1029 9.0667 20.1125 9.06349C20.1264 9.05881 20.14 9.05357 20.1532 9.04782C20.162 9.04413 20.1706 9.04019 20.1791 9.03602L20.1753 9.03757C20.181 9.03479 20.1865 9.03191 20.192 9.02894C20.1954 9.02709 20.1988 9.02521 20.2021 9.0233C20.3039 8.96738 20.3864 8.87536 20.4287 8.75848L20.4499 8.68081L21.4613 3.36915C21.513 3.09795 21.3349 2.83621 21.0637 2.78455C20.8225 2.73862 20.5889 2.87414 20.5037 3.0953L20.479 3.18206L19.7792 6.85516C17.3173 1.86301 12.0045 -0.317277 7.07311 1.55538C1.91018 3.51706 -0.685286 9.29097 1.27762 14.4508ZM17.0001 13.4998C14.5134 13.4998 12.5001 15.5148 12.5001 17.9998C12.5001 20.4848 14.5134 22.4998 17.0001 22.4998C19.4849 22.4998 21.5001 20.4847 21.5001 17.9998C21.5001 15.515 19.4849 13.4998 17.0001 13.4998ZM11.5001 17.9998C11.5001 14.9628 13.9608 12.4998 17.0001 12.4998C20.0372 12.4998 22.5001 14.9627 22.5001 17.9998C22.5001 21.037 20.0372 23.4998 17.0001 23.4998C13.9608 23.4998 11.5001 21.0368 11.5001 17.9998ZM17.5001 15.4998C17.5001 15.2237 17.2762 14.9998 17.0001 14.9998C16.7239 14.9998 16.5001 15.2237 16.5001 15.4998V18.9998C16.5001 19.276 16.7239 19.4998 17.0001 19.4998H19.0001C19.2762 19.4998 19.5001 19.276 19.5001 18.9998C19.5001 18.7237 19.2762 18.4998 19.0001 18.4998H17.5001V15.4998Z" fill="#333333"/>
</svg>
