<svg xmlns="http://www.w3.org/2000/svg" width="21" height="21" viewBox="0 0 21 21">
  <path fill="#333" fill-rule="evenodd" d="M1,5 L11,5 L11,3 L1,3 L1,5 Z M10.001,19 L20.001,19 L20.001,17 L10.001,17 L10.001,19 Z M10.001,12 L20.001,12 L20.001,10 L10.001,10 L10.001,12 Z M9.501,13 L20.501,13 C20.777,13 21.001,12.776 21.001,12.5 L21.001,9.5 C21.001,9.224 20.777,9 20.501,9 L9.501,9 C9.225,9 9.001,9.224 9.001,9.5 L9.001,10 L5.997,10 L5.997,6 L11.5,6 C11.776,6 12,5.776 12,5.5 L12,2.5 C12,2.224 11.776,2 11.5,2 L0.5,2 C0.224,2 0,2.224 0,2.5 L0,5.5 C0,5.776 0.224,6 0.5,6 L4.997,6 L4.997,17.477 C4.997,17.753 5.221,17.977 5.497,17.977 L9.001,17.977 L9.001,19.5 C9.001,19.776 9.225,20 9.501,20 L20.501,20 C20.777,20 21.001,19.776 21.001,19.5 L21.001,16.5 C21.001,16.224 20.777,16 20.501,16 L9.501,16 C9.225,16 9.001,16.224 9.001,16.5 L9.001,16.977 L5.997,16.977 L5.997,11 L9.001,11 L9.001,12.5 C9.001,12.776 9.225,13 9.501,13 L9.501,13 Z"/>
</svg>
