<svg xmlns="http://www.w3.org/2000/svg" width="24" height="24" viewBox="0 0 24 24"><path fill="#333" fill-rule="evenodd" d="M12,0 C15.2381675,0 17.8775613,2.56547691 17.9958612,5.77505506 L18,6 L18,11 L20.5,11 C20.7454599,11 20.9496084,11.1768752 20.9919443,11.4101244 L21,11.5 L21,23.5 C21,23.7761424 20.7761424,24 20.5,24 L20.5,24 L3.5,24 C3.22385763,24 3,23.7761424 3,23.5 L3,23.5 L3,11.5 C3,11.2238576 3.22385763,11 3.5,11 L3.5,11 L17,11 L17,6 C17,3.23850178 14.7612171,1 12,1 C9.23814237,1 7,3.23814237 7,6 C7,6.27614237 6.77614237,6.5 6.5,6.5 C6.22385763,6.5 6,6.27614237 6,6 C6,2.68585763 8.68585763,0 12,0 Z M20,12 L4,12 L4,23 L20,23 L20,12 Z M12,15 C12.5523336,15 13,15.4470481 13,16 C13,16.3687862 12.7995319,16.6916367 12.5015919,16.8649998 L12.5,19.5 C12.5,19.7761424 12.2761424,20 12,20 C11.7545401,20 11.5503916,19.8231248 11.5080557,19.5898756 L11.5,19.5 L11.4994027,16.8655778 C11.2009143,16.6923549 11,16.3691964 11,16 C11,15.4470481 11.4476664,15 12,15 Z"/></svg>