<svg xmlns="http://www.w3.org/2000/svg" width="24" height="24" viewBox="0 0 24 24">
  <path fill="#333" fill-rule="evenodd" d="M19.5,13 C21.3680466,13 22.895092,14.46444 22.9948194,16.307981 L23,16.5 L22.9998181,16.9999924 L23.5,17 C23.7454599,17 23.9496084,17.1768752 23.9919443,17.4101244 L24,17.5 L24,23.5 C24,23.7761424 23.7761424,24 23.5,24 L23.5,24 L15.5,24 C15.2238576,24 15,23.7761424 15,23.5 L15,23.5 L15,17.5 C15,17.2238576 15.2238576,17 15.5,17 L15.5,17 L15.9998181,16.9999924 L16,16.5 C16,14.5668576 17.5668576,13 19.5,13 Z M23,18 L16,18 L16,23 L23,23 L23,18 Z M19.5,19 C20.0521424,19 20.5,19.4478576 20.5,20 C20.5,20.3695857 20.2993366,20.6924465 20.001051,20.865541 L20,21.5 C20,21.7761424 19.7761424,22 19.5,22 C19.2545401,22 19.0503916,21.8231248 19.0080557,21.5898756 L19,21.5 L18.9993182,20.8657552 C18.700829,20.6927129 18.5,20.3697382 18.5,20 C18.5,19.4478576 18.9478576,19 19.5,19 Z M13.9851651,1.88001025 C14.0021934,1.94859086 14.0167779,2.01786472 14.028978,2.08780091 C14.1528819,2.79807503 14.0369984,3.50949464 13.7597261,4.2936411 L13.617,4.671 L13.6619859,4.712 C14.2561656,5.32625 14.2264566,6.767375 13.572859,7.2989375 L13.488,7.359 L13.4774231,7.51634687 C13.4031072,8.34565671 13.1475538,9.0232737 12.7562869,9.55642599 L12.6348809,9.71204496 C12.4657644,9.91611219 12.2942069,10.077112 12.1327089,10.2004124 L11.999,10.294 L11.999,12.152 L12.4608985,12.3160235 L14.1404641,12.8789755 L13.8253359,13.8280245 L12.6705169,13.4446639 L12.028922,13.2243346 L11.3239165,12.9685062 C11.1568323,12.9056778 11.0381252,12.7597194 11.0076188,12.5881517 L10.9999,12.5005 L10.9999,10.0005 C10.9999,9.82704179 11.0895207,9.66824417 11.2329013,9.57773322 L11.3089055,9.53841656 C11.4261493,9.48995581 11.640652,9.34457059 11.8649191,9.07395504 C12.2590784,8.59833616 12.4999,7.92564107 12.4999,7.0005 C12.4999,6.72435763 12.7237576,6.5005 12.9999,6.5005 L13.0390159,6.36082453 C13.062019,6.26959937 13.0864,6.13559937 13.0864,5.9645 C13.0864,5.79340063 13.062019,5.65940063 13.0390159,5.56817547 L13.0004516,5.43749576 C12.99884,5.43152814 12.998522,5.4285 12.9999,5.4285 C12.7237576,5.4285 12.4999,5.20464237 12.4999,4.9285 C12.4999,4.8368814 12.51183,4.77014427 12.5488573,4.66207386 L12.7166178,4.22879062 C12.7542348,4.13237461 12.7864463,4.04648155 12.8169302,3.96027077 C13.0420961,3.323485 13.1325574,2.76813454 13.0438549,2.259651 C13.035673,2.21274867 13.0259423,2.16652961 13.0146198,2.12092893 C12.677432,0.762197374 8.11309407,0.722234682 7.52725035,2.00104085 L7.4851802,2.12092893 C7.42077398,2.38046013 7.16356799,2.54337881 6.90140425,2.4907026 C6.465201,2.40305686 6.2775375,2.45806554 6.19690942,2.58437349 C6.1056463,2.72734176 6.07997066,3.01927974 6.1359992,3.41985405 C6.15845169,3.58037741 6.19229648,3.75028588 6.23740307,3.93612074 L6.30750625,4.2060162 L6.41920533,4.5972948 C6.48069132,4.81265527 6.4999,4.89294191 6.4999,5.0005 C6.4999,5.27664237 6.27604237,5.5005 5.9999,5.5005 L5.97463198,5.57362662 L5.9416595,5.70050271 C5.92566783,5.77894039 5.91265,5.87950231 5.91265,6.0005 C5.91265,6.12149769 5.92566783,6.22205961 5.9416595,6.30049729 L5.97463198,6.42737338 L5.9999,6.5005 C6.27604237,6.5005 6.4999,6.72435763 6.4999,7.0005 C6.4999,7.92564107 6.74072163,8.59833616 7.13488092,9.07395504 C7.32710981,9.30591123 7.51216496,9.44586146 7.63494762,9.51163099 L7.69089449,9.53841656 C7.85119882,9.60467569 7.96372018,9.74815914 7.99259763,9.91524088 L7.9999,10.0005 L7.9999,12.5005 C7.9999,12.7081587 7.87154555,12.8942026 7.67741478,12.9679275 L7.18177155,13.1509247 L6.63825365,13.3417888 L4.33719876,14.1113366 L4.08261874,14.1999594 L3.61115739,14.3714565 L3.18913881,14.5357528 L2.81557643,14.693405 C1.99969575,15.0539421 1.57148352,15.3647678 1.47453994,15.6577162 C1.35152016,16.0291163 1.2508948,16.5217696 1.17322191,17.1024971 C1.12065072,17.4955499 1.08068873,17.9113891 1.05169793,18.3331106 L1.015,19 L12.4999,19.0005 L12.4999,20.0005 L0.4999,20.0005 C0.221705668,20.0005 -0.00299268263,19.7734305 -0.000155291275,19.4952515 L0.0127093959,19.031264 L0.0276312331,18.7046532 C0.0580706245,18.1145378 0.107942832,17.5239824 0.182048325,16.9699267 C0.267280582,16.3326809 0.379460901,15.7834555 0.525216323,15.3434159 C0.766599649,14.613993 1.49987827,14.1148981 2.97767352,13.5408981 L3.46938882,13.356789 L4.10877281,13.132726 L6.02162975,12.4954451 L6.58406991,12.3020123 L6.999,12.153 L6.999,10.293 L6.98613303,10.2859029 C6.83044616,10.1811167 6.66157454,10.0399731 6.49201882,9.85710411 L6.36491908,9.71204496 C5.90516925,9.15728017 5.60412441,8.42858769 5.52237688,7.51634687 L5.512,7.363 C4.78254204,6.90676364 4.71918512,5.42856552 5.32107586,4.79414573 L5.411,4.709 L5.32004678,4.38525542 C5.24030764,4.08634061 5.18199039,3.81826313 5.14563986,3.55837612 C5.05958707,2.94314434 5.10402074,2.4379231 5.35400534,2.04630964 C5.6091228,1.6466553 6.027684,1.4489942 6.57362729,1.45265905 L6.69,1.457 L6.70099756,1.43891762 C7.90734338,-0.521764567 13.4256236,-0.374717129 13.9851651,1.88001025 Z M19.5,14 C18.1743767,14 17.0899501,15.0314016 17.005317,16.3356082 L17,16.5 L16.9998181,16.9999924 L21.9998181,16.9999924 L22,16.5 C22,15.1195135 20.8802288,14 19.5,14 Z"/>
</svg>
