<svg xmlns="http://www.w3.org/2000/svg" width="24" height="24" viewBox="0 0 24 24">
  <path fill="#333" fill-rule="evenodd" d="M19.5031,13.3780522 C19.6602209,13.3780522 19.8082035,13.451908 19.9026601,13.5774665 C20.2862817,14.0874039 20.8587574,14.3777043 21.4951,14.3777043 C22.0321572,14.3777043 22.5621497,14.1609261 23.2052212,13.6913055 C23.535597,13.4500395 24.0001,13.6860022 24.0001,14.0950957 L24.0001,14.0950957 L24.0001,20.2777043 L23.9835753,20.4051862 C23.8374978,20.9591855 23.3900868,21.7397869 22.4808405,22.5024942 C21.7467126,23.1183062 20.8067606,23.6159986 19.6403783,23.9569274 C19.5487759,23.9837024 19.4514241,23.9837024 19.3598217,23.9569274 C18.1934394,23.6159986 17.2534874,23.1183062 16.5193595,22.5024942 C15.6101132,21.7397869 15.1627022,20.9591855 15.0166247,20.4051862 L15.0166247,20.4051862 L15.0001,20.2777043 L15.0001,14.0950957 C15.0001,13.6860022 15.464603,13.4500395 15.7949788,13.6913055 C16.4375333,14.1605485 16.9686498,14.3777043 17.5051,14.3777043 C18.1414426,14.3777043 18.7139183,14.0874039 19.0975399,13.5774665 C19.1919965,13.451908 19.3399791,13.3780522 19.5031,13.3780522 Z M19.5,14.612 L19.3239345,14.7604529 C18.8101178,15.1577421 18.1789949,15.3777043 17.5051,15.3777043 C17.0096002,15.3777043 16.5369786,15.2581354 16.0528484,15.0207931 L16.0528484,15.0207931 L16,14.993 L16,20.202 L16.0185663,20.2524264 C16.0440701,20.3168844 16.0820786,20.4005949 16.1348076,20.5000423 L16.1348076,20.5000423 L16.1925253,20.604605 C16.4113975,20.9864729 16.7281346,21.3723851 17.162028,21.7363499 C17.7890296,22.2623006 18.6054499,22.6945846 19.6403783,22.99709 L19.6403783,22.99709 L19.5,22.953 L19.6967448,22.8914978 C20.4642016,22.6341317 21.1014298,22.3006848 21.6221161,21.9081481 L21.6221161,21.9081481 L21.838172,21.7363499 C22.2720654,21.3723851 22.5888025,20.9864729 22.8076747,20.604605 C22.8913929,20.4585411 22.9476287,20.3383703 22.9816337,20.2524264 L22.9816337,20.2524264 L23,20.202 L23,14.992 L22.9472978,15.0209557 C22.5324656,15.2243804 22.1262069,15.3411781 21.706296,15.3703973 L21.706296,15.3703973 L21.4951,15.3777043 C20.7463279,15.3777043 20.0503607,15.106146 19.5094401,14.621514 L19.5094401,14.621514 L19.5,14.612 Z M19.5,15.7052174 C19.7454599,15.7052174 19.9496084,15.8820926 19.9919443,16.1153418 L20,16.2052174 L19.999664,17.759361 L21.5195,17.7598261 C21.7956424,17.7598261 22.0195,17.9836837 22.0195,18.2598261 C22.0195,18.505286 21.8426248,18.7094345 21.6093756,18.7517704 L21.5195,18.7598261 L19.999664,18.759361 L20,20.3467826 C20,20.622925 19.7761424,20.8467826 19.5,20.8467826 C19.2545401,20.8467826 19.0503916,20.6699074 19.0080557,20.4366582 L19,20.3467826 L18.999664,18.759361 L17.5195,18.7598261 C17.2433576,18.7598261 17.0195,18.5359685 17.0195,18.2598261 C17.0195,18.0143662 17.1963752,17.8102177 17.4296244,17.7678818 L17.5195,17.7598261 L18.999664,17.759361 L19,16.2052174 C19,15.929075 19.2238576,15.7052174 19.5,15.7052174 Z M13.9862583,1.96981303 L14.0281678,2.1762093 C14.1528349,2.91197976 14.0381057,3.65096383 13.7617956,4.46665502 L13.6360115,4.81558961 L13.609,4.885 L13.6618859,4.9344037 C14.2560656,5.56624941 14.2263566,7.04865663 13.572759,7.59544618 L13.489,7.657 L13.4775129,7.83712248 C13.4038188,8.69604279 13.1503611,9.39730571 12.7618562,9.94951059 L12.6412981,10.1107089 C12.4727074,10.3229279 12.3013737,10.4905446 12.139886,10.6190158 L11.999,10.722 L11.999,12.7 L12.4685843,12.8764299 L13.3946906,13.2065538 L14.1283598,13.460207 L13.8032402,14.4058799 L13.0604369,14.1490575 L12.2880214,13.8751328 L11.7967259,13.6930502 L11.3161794,13.5069759 C11.1525303,13.4423624 11.0369805,13.2976443 11.0073061,13.1283507 L10.9998,13.041913 L10.9998,10.4332174 C10.9998,10.2620446 11.0871044,10.1049426 11.2275545,10.0138118 L11.3020502,9.9739843 C11.4186366,9.92378119 11.6329833,9.77230954 11.8583019,9.48868239 C12.2562147,8.98779675 12.4998,8.27771371 12.4998,7.30278261 C12.4998,7.02664023 12.7236576,6.80278261 12.9998,6.80278261 L12.9983048,6.79493225 L13.0446516,6.61514691 C13.0658673,6.51794899 13.0863,6.38532124 13.0863,6.22278261 C13.0863,6.10087864 13.0748066,5.99579953 13.0601096,5.90987361 L13.0289,5.76424919 L12.9983048,5.65063297 C12.9975217,5.64542814 12.9979177,5.64278261 12.9998,5.64278261 C12.7236576,5.64278261 12.4998,5.41892498 12.4998,5.14278261 C12.4998,5.09771364 12.5233658,5.00205597 12.557638,4.8869217 L12.6366473,4.63990273 L12.788871,4.21129345 L12.8153727,4.14225527 L12.8936441,3.89737369 C13.0625747,3.326574 13.1224756,2.81692192 13.0422204,2.34326576 L13.0134497,2.20142314 C12.6716439,0.768735941 8.10999202,0.727802021 7.52705219,2.07862138 L7.45813808,2.28540173 C7.36528954,2.4987833 7.13292796,2.62407138 6.89740504,2.57479428 C6.46643115,2.48462411 6.28475826,2.54025499 6.2020687,2.67534124 C6.1057249,2.8327338 6.07915909,3.14641132 6.13613512,3.57236853 C6.15876036,3.7415166 6.1928592,3.92027213 6.23827631,4.11552233 L6.35697963,4.57756105 L6.44732721,4.90612207 L6.48275591,5.05392008 C6.49504169,5.11538868 6.4998,5.16266995 6.4998,5.21582609 C6.4998,5.49196846 6.27594237,5.71582609 5.9998,5.71582609 L5.99932681,5.7249767 L5.96045364,5.85771867 C5.93721493,5.95030606 5.91255,6.08617562 5.91255,6.25930435 C5.91255,6.43243307 5.93721493,6.56830264 5.96045364,6.66089002 L5.99932681,6.79363199 C6.00093259,6.79970103 6.00122621,6.80278261 5.9998,6.80278261 C6.27594237,6.80278261 6.4998,7.02664023 6.4998,7.30278261 C6.4998,8.27771371 6.74338534,8.98779675 7.14129809,9.48868239 C7.36661669,9.77230954 7.58096337,9.92378119 7.69754976,9.9739843 C7.85476623,10.0416831 7.96453015,10.184003 7.99268277,10.3490438 L7.9998,10.4332174 L7.9998,13.041913 C7.9998,13.2468324 7.87476301,13.4310077 7.68430594,13.5066254 L7.18821619,13.6980869 L5.9051075,14.1572455 L4.32750495,14.7069156 L3.83269728,14.889434 C3.7544249,14.9191801 3.67823564,14.9485984 3.6041075,14.9777027 L3.18389621,15.1486688 L2.81209623,15.3127529 C2.00022172,15.6880967 1.57508475,16.0125924 1.47633505,16.3237227 C1.3524308,16.713779 1.25136302,17.2292785 1.17343637,17.8361953 C1.12061254,18.2476035 1.08052044,18.6827253 1.05149067,19.1239548 L1.02192555,19.6535891 L1.013,19.846 L10.9998,19.8462609 L10.9998,20.8462609 L0.4998,20.8462609 C0.221762673,20.8462609 -0.00287200353,20.6194378 -0.000314408739,20.3414135 L0.0124547607,19.8579012 L0.0272977253,19.5173651 C0.0576097596,18.9020505 0.107433351,18.2863108 0.1815788,17.7088432 C0.266494196,17.0474959 0.378247439,16.4774948 0.523228222,16.0210886 C0.74878462,15.3104289 1.41838558,14.8066131 2.73664169,14.2487159 L3.20036533,14.0603893 L3.71382153,13.8659091 L4.69076079,13.5199898 L6.01515136,13.0601937 L6.57712723,12.8582495 L6.999,12.699 L6.999,10.722 L6.97878695,10.7081147 C6.82300904,10.5988751 6.65423792,10.4518544 6.48506254,10.2615955 L6.35830191,10.1107089 C5.90172808,9.53598172 5.60315061,8.78193482 5.5220871,7.83712248 L5.511,7.66 L5.42644551,7.60023877 C4.77239668,7.06608827 4.74266719,5.61794693 5.33725703,5.00070635 L5.416,4.927 L5.31864514,4.56430996 C5.23914154,4.25345753 5.18104725,3.97471855 5.14496271,3.70494774 C5.060237,3.0715318 5.1040992,2.55362601 5.34917157,2.15326223 C5.60826896,1.7299864 6.04267426,1.52326451 6.6096213,1.53626177 L6.684,1.54 L6.69412529,1.52141884 C7.88818769,-0.519198372 13.4280676,-0.369857688 13.9862583,1.96981303 Z"/>
</svg>
