<svg xmlns="http://www.w3.org/2000/svg" width="24" height="24" viewBox="0 0 24 24">
  <path fill-rule="evenodd" d="M21.275,11.9 C20.675,11.2 19.875,10.5 19.075,9.9 C16.775,8.1 14.375,7 11.975,7 C9.575,7 7.175,8.1 4.875,9.9 C4.075,10.5 3.275,11.2 2.675,11.9 C2.475,12.1 2.275,12.3 2.175,12.4 C2.275,12.6 2.475,12.8 2.675,13 C3.275,13.7 4.075,14.4 4.875,15 C7.175,16.8 9.575,17.9 11.975,17.9 C14.375,17.9 16.775,16.8 19.075,15 C19.875,14.4 20.575,13.7 21.275,13 C21.475,12.8 21.675,12.6 21.775,12.4 C21.675,12.3 21.475,12.1 21.275,11.9 Z M22.875,12.7 C22.875,12.8 22.775,12.8 22.675,13 C22.475,13.2 22.275,13.5 21.975,13.7 C21.275,14.4 20.475,15.1 19.675,15.8 C17.175,17.7 14.575,18.9 11.975,18.9 C9.375,18.9 6.675,17.7 4.275,15.8 C3.375,15.1 2.575,14.4 1.975,13.7 C1.675,13.5 1.475,13.2 1.275,13 C1.175,12.9 1.075,12.8 1.075,12.7 C0.975,12.5 0.975,12.3 1.075,12.1 C1.075,12 1.175,12 1.275,11.8 C1.475,11.6 1.675,11.4 1.975,11.2 C2.575,10.5 3.375,9.7 4.275,9.1 C6.775,7.2 9.375,6 11.975,6 C14.575,6 17.275,7.2 19.675,9.1 C20.575,9.8 21.275,10.5 21.975,11.2 C22.175,11.4 22.375,11.7 22.575,11.9 C22.675,12 22.775,12.1 22.775,12.2 C22.975,12.3 22.975,12.6 22.875,12.7 Z M15.175,12.4 C15.175,10.7 13.775,9.2 11.975,9.2 C10.175,9.2 8.775,10.7 8.775,12.4 C8.775,14.1 10.175,15.6 11.975,15.6 C13.775,15.6 15.175,14.2 15.175,12.4 Z M16.175,12.4 C16.175,14.7 14.275,16.6 11.975,16.6 C9.675,16.6 7.775,14.7 7.775,12.4 C7.775,10.1 9.675,8.2 11.975,8.2 C14.275,8.2 16.175,10.1 16.175,12.4 Z M11.975,11.1 C11.675,11.1 11.475,10.9 11.475,10.6 C11.475,10.3 11.675,10.1 11.975,10.1 C13.275,10.1 14.275,11.1 14.275,12.4 C14.275,13.7 13.275,14.7 11.975,14.7 C10.675,14.7 9.675,13.7 9.675,12.4 C9.675,12.1 9.875,11.9 10.175,11.9 C10.475,11.9 10.675,12.1 10.675,12.4 C10.675,13.1 11.275,13.7 11.975,13.7 C12.675,13.7 13.275,13.1 13.275,12.4 C13.275,11.7 12.675,11.1 11.975,11.1 Z"/>
</svg>
