<?xml version="1.0" encoding="UTF-8"?>
<svg width="24px" height="24px" viewBox="0 0 24 24" version="1.1" xmlns="http://www.w3.org/2000/svg" xmlns:xlink="http://www.w3.org/1999/xlink">
    <!-- Generator: Sketch 53.2 (72643) - https://sketchapp.com -->
    <title>Assets / Icons / Scope / Virtual Scope</title>
    <desc>Created with Sketch.</desc>
    <g id="Assets-/-Icons-/-Scope-/-Virtual-Scope" stroke="none" stroke-width="1" fill-rule="evenodd">
        <path d="M9.7,4 L23.5,4 C23.8,4 24,4.2 24,4.5 L24,21.5 C24,21.8 23.8,22 23.5,22 L0.5,22 C0.2,22 0,21.8 0,21.5 L0,2.5 C0,2.2 0.2,2 0.5,2 L7.5,2 C7.6,2 7.8,2.1 7.9,2.1 L9.7,4 Z M23,5 L9.5,5 C9.4,5 9.2,4.9 9.1,4.9 L7.3,3 L1,3 L1,21 L23,21 L23,5 Z" id="Folder" fill="#333333"></path>
    </g>
</svg>