<svg xmlns="http://www.w3.org/2000/svg" width="24" height="24" viewBox="0 0 24 24">
  <path fill="#333" fill-rule="evenodd" d="M23.2,5.5 L12.7,2 C12.6,2 12.5,2 12.4,2 L0.9,5.5 C0.6,5.6 0.5,5.8 0.5,6 L0.5,8.5 C0.5,8.8 0.7,9 1,9 L2.5,9 L2.5,22.5 C2.5,22.8 2.7,23 3,23 C3.3,23 3.5,22.8 3.5,22.5 L3.5,9 L20.5,9 L20.5,22.5 C20.5,22.8 20.7,23 21,23 C21.3,23 21.5,22.8 21.5,22.5 L21.5,9 L23,9 C23.3,9 23.5,8.8 23.5,8.5 L23.5,6 C23.5,5.8 23.4,5.6 23.2,5.5 Z M22.5,8 L21.2,8 L21,8 L3.2,8 C3.2,8 3.1,8 3.1,8 C3.1,8 3,8 3,8 L1.5,8 L1.5,6.4 L12.5,3 L22.5,6.3 L22.5,8 Z M19,16 C19.3,16 19.5,16.2 19.5,16.5 L19.5,22.5 C19.5,22.8 19.3,23 19,23 L12,23 L5,23 C4.7,23 4.5,22.8 4.5,22.5 L4.5,16.5 C4.5,16.2 4.7,16 5,16 L7,16 L7.5,16 L7.5,10.5 C7.5,10.2 7.7,10 8,10 L10,10 L13,10 L15,10 C15.3,10 15.5,10.2 15.5,10.5 L15.5,16 L17,16 L19,16 Z M14.5,17 L14.5,19 L16.5,19 L16.5,17 L15,17 L14.5,17 Z M12.5,11 L10.5,11 L10.5,13 L12.5,13 L12.5,11 Z M8.5,11 L8.5,16 L10,16 L12,16 L14,16 L14.5,16 L14.5,11 L13.5,11 L13.5,13.5 C13.5,13.8 13.3,14 13,14 L10,14 C9.7,14 9.5,13.8 9.5,13.5 L9.5,11 L8.5,11 Z M8,17 L7.5,17 L7.5,19 L9.5,19 L9.5,17 L8,17 Z M5.5,17 L5.5,22 L11.5,22 L11.5,17 L10.5,17 L10.5,19.5 C10.5,19.8 10.3,20 10,20 L7,20 C6.7,20 6.5,19.8 6.5,19.5 L6.5,17 L5.5,17 Z M18.5,22 L18.5,17 L17.5,17 L17.5,19.5 C17.5,19.8 17.3,20 17,20 L14,20 C13.7,20 13.5,19.8 13.5,19.5 L13.5,17 L12.5,17 L12.5,22 L18.5,22 Z"/>
</svg>
