<svg xmlns="http://www.w3.org/2000/svg" width="21" height="21" viewBox="0 0 21 21">
  <path fill="#ED2E0B" fill-rule="evenodd" d="M10.4955926,18.3313774 C10.0128096,18.3313774 9.62220266,17.9407704 9.62220266,17.4589001 C9.62220266,16.9779424 10.0128096,16.5855102 10.4955926,16.5855102 C10.9765502,16.5855102 11.3680699,16.9779424 11.3680699,17.4589001 C11.3680699,17.9407704 10.9765502,18.3313774 10.4955926,18.3313774 L10.4955926,18.3313774 Z M10.039276,7.41993558 C10.039276,7.16804883 10.2437058,6.96361901 10.4955926,6.96361901 C10.7465667,6.96361901 10.9519091,7.16804883 10.9519091,7.41993558 L10.9519091,14.4034044 C10.9519091,14.6552911 10.7465667,14.8597209 10.4955926,14.8597209 C10.2437058,14.8597209 10.039276,14.6552911 10.039276,14.4034044 L10.039276,7.41993558 Z M20.9050862,20.2369554 L10.9035396,0.232036976 C10.748392,-0.0773456585 10.2418806,-0.0773456585 10.0876456,0.232036976 L0.048681033,20.309966 C-0.0225043518,20.4514242 -0.0152032867,20.6193487 0.0678463289,20.7535057 C0.150895945,20.8885754 0.29782988,20.9707124 0.456628046,20.9707124 L20.5345571,20.9707124 L20.5436834,20.9707124 C20.7946575,20.9707124 21,20.7662826 21,20.5143959 C21,20.409443 20.9644073,20.3136166 20.9050862,20.2369554 L20.9050862,20.2369554 Z"/>
</svg>
