<?xml version="1.0" encoding="UTF-8"?>
<svg width="24px" height="24px" viewBox="0 0 24 24" version="1.1" xmlns="http://www.w3.org/2000/svg" xmlns:xlink="http://www.w3.org/1999/xlink">
    <!-- Generator: Sketch 53.2 (72643) - https://sketchapp.com -->
    <title>Assets / Icons / Youtube</title>
    <desc>Created with Sketch.</desc>
    <g id="Assets-/-Icons-/-Youtube" stroke="none" stroke-width="1" fill="none" fill-rule="evenodd">
        <g id="Group" transform="translate(0.000000, 4.000000)">
            <path d="M23.52,2.48 C23.2,1.52 22.4,0.72 21.36,0.48 C19.52,0 12,0 12,0 C12,0 4.48,0 2.64,0.48 C1.6,0.72 0.8,1.52 0.48,2.48 C0,4.32 0,8 0,8 C0,8 0,11.68 0.48,13.52 C0.8,14.48 1.6,15.28 2.64,15.52 C4.48,16 12,16 12,16 C12,16 19.52,16 21.36,15.52 C22.4,15.28 23.2,14.48 23.52,13.52 C24,11.68 24,8 24,8 C24,8 24,4.32 23.52,2.48" id="Fill-1" fill="#FF0000"></path>
            <polygon id="Fill-4" fill="#FFFFFF" points="9.6 12 16 8.4 9.6 4.8"></polygon>
        </g>
    </g>
</svg>